<?xml version="1.0" encoding="UTF-8" standalone="no"?>
<!DOCTYPE svg PUBLIC "-//W3C//DTD SVG 1.1//EN" "http://www.w3.org/Graphics/SVG/1.1/DTD/svg11.dtd">
<svg xmlns="http://www.w3.org/2000/svg" version="1.1" viewBox="0.00 0.00 100.00 100.00">
<g stroke-width="2.00" fill="none" stroke-linecap="butt">
<path stroke="#808080" vector-effect="non-scaling-stroke" d="
  M 70.76 40.38
  A 0.43 0.43 0.0 0 1 71.19 39.95
  L 92.55 39.95
  A 0.43 0.43 0.0 0 0 92.98 39.52
  L 92.98 5.48
  A 0.43 0.43 0.0 0 0 92.55 5.05
  L 58.68 5.04
  A 0.43 0.43 0.0 0 0 58.25 5.47
  L 58.25 26.77
  A 0.43 0.43 0.0 0 1 57.82 27.20
  L 41.73 27.19
  A 0.43 0.43 0.0 0 1 41.30 26.76
  L 41.29 5.48
  A 0.43 0.43 0.0 0 0 40.86 5.05
  L 6.60 5.04
  A 0.43 0.43 0.0 0 0 6.17 5.47
  L 6.17 39.52
  A 0.43 0.43 0.0 0 0 6.60 39.95
  L 28.01 39.95
  A 0.43 0.43 0.0 0 1 28.44 40.38
  L 28.42 56.09
  A 0.43 0.43 0.0 0 1 27.99 56.52
  L 7.93 56.50
  A 0.43 0.43 0.0 0 0 7.50 56.93
  L 7.50 90.55
  A 0.43 0.43 0.0 0 0 7.93 90.98
  L 41.13 90.98
  A 0.43 0.43 0.0 0 0 41.56 90.55
  L 41.57 69.89
  A 0.43 0.43 0.0 0 1 42.00 69.46
  L 57.82 69.45
  A 0.43 0.43 0.0 0 1 58.25 69.88
  L 58.25 90.55
  A 0.43 0.43 0.0 0 0 58.68 90.98
  L 92.55 90.98
  A 0.43 0.43 0.0 0 0 92.98 90.55
  L 92.98 57.44
  A 0.43 0.43 0.0 0 0 92.55 57.01
  L 71.19 57.01
  A 0.43 0.43 0.0 0 1 70.76 56.58
  L 70.76 40.38"
/>
<path stroke="#808080" vector-effect="non-scaling-stroke" d="
  M 85.8086 12.4691
  A 0.27 0.27 0.0 0 0 85.5391 12.1987
  L 64.1791 12.1614
  A 0.27 0.27 0.0 0 0 63.9086 12.4309
  L 63.8714 33.7709
  A 0.27 0.27 0.0 0 0 64.1409 34.0413
  L 85.5009 34.0786
  A 0.27 0.27 0.0 0 0 85.7714 33.8091
  L 85.8086 12.4691"
/>
<path stroke="#808080" vector-effect="non-scaling-stroke" d="
  M 35.49 12.62
  A 0.35 0.35 0.0 0 0 35.14 12.27
  L 13.84 12.27
  A 0.35 0.35 0.0 0 0 13.49 12.62
  L 13.49 33.72
  A 0.35 0.35 0.0 0 0 13.84 34.07
  L 35.14 34.07
  A 0.35 0.35 0.0 0 0 35.49 33.72
  L 35.49 12.62"
/>
<path stroke="#808080" vector-effect="non-scaling-stroke" d="
  M 46.3014 34.8509
  A 0.31 0.31 0.0 0 0 45.9909 34.5415
  L 36.2309 34.5585
  A 0.31 0.31 0.0 0 0 35.9214 34.8691
  L 35.9386 44.6891
  A 0.31 0.31 0.0 0 0 36.2491 44.9985
  L 46.0091 44.9815
  A 0.31 0.31 0.0 0 0 46.3186 44.6709
  L 46.3014 34.8509"
/>
<path stroke="#808080" vector-effect="non-scaling-stroke" d="
  M 63.4486 34.8185
  A 0.27 0.27 0.0 0 0 63.1791 34.5481
  L 53.9591 34.5320
  A 0.27 0.27 0.0 0 0 53.6887 34.8015
  L 53.6714 44.7215
  A 0.27 0.27 0.0 0 0 53.9409 44.9919
  L 63.1609 45.0080
  A 0.27 0.27 0.0 0 0 63.4313 44.7385
  L 63.4486 34.8185"
/>
<path stroke="#808080" vector-effect="non-scaling-stroke" d="
  M 46.32 52.09
  A 0.26 0.26 0.0 0 0 46.06 51.83
  L 36.20 51.83
  A 0.26 0.26 0.0 0 0 35.94 52.09
  L 35.94 62.25
  A 0.26 0.26 0.0 0 0 36.20 62.51
  L 46.06 62.51
  A 0.26 0.26 0.0 0 0 46.32 62.25
  L 46.32 52.09"
/>
<path stroke="#808080" vector-effect="non-scaling-stroke" d="
  M 63.42 52.33
  A 0.26 0.26 0.0 0 0 63.16 52.07
  L 53.94 52.07
  A 0.26 0.26 0.0 0 0 53.68 52.33
  L 53.68 61.83
  A 0.26 0.26 0.0 0 0 53.94 62.09
  L 63.16 62.09
  A 0.26 0.26 0.0 0 0 63.42 61.83
  L 63.42 52.33"
/>
<path stroke="#808080" vector-effect="non-scaling-stroke" d="
  M 85.79 62.95
  A 0.33 0.33 0.0 0 0 85.46 62.62
  L 64.22 62.62
  A 0.33 0.33 0.0 0 0 63.89 62.95
  L 63.89 83.17
  A 0.33 0.33 0.0 0 0 64.22 83.50
  L 85.46 83.50
  A 0.33 0.33 0.0 0 0 85.79 83.17
  L 85.79 62.95"
/>
<path stroke="#808080" vector-effect="non-scaling-stroke" d="
  M 35.49 63.23
  A 0.27 0.27 0.0 0 0 35.22 62.96
  L 15.14 62.96
  A 0.27 0.27 0.0 0 0 14.87 63.23
  L 14.87 83.23
  A 0.27 0.27 0.0 0 0 15.14 83.50
  L 35.22 83.50
  A 0.27 0.27 0.0 0 0 35.49 83.23
  L 35.49 63.23"
/>
</g>
<path fill="#ffffff" d="
  M 0.00 0.00
  L 100.00 0.00
  L 100.00 100.00
  L 0.00 100.00
  L 0.00 0.00
  Z
  M 70.76 40.38
  A 0.43 0.43 0.0 0 1 71.19 39.95
  L 92.55 39.95
  A 0.43 0.43 0.0 0 0 92.98 39.52
  L 92.98 5.48
  A 0.43 0.43 0.0 0 0 92.55 5.05
  L 58.68 5.04
  A 0.43 0.43 0.0 0 0 58.25 5.47
  L 58.25 26.77
  A 0.43 0.43 0.0 0 1 57.82 27.20
  L 41.73 27.19
  A 0.43 0.43 0.0 0 1 41.30 26.76
  L 41.29 5.48
  A 0.43 0.43 0.0 0 0 40.86 5.05
  L 6.60 5.04
  A 0.43 0.43 0.0 0 0 6.17 5.47
  L 6.17 39.52
  A 0.43 0.43 0.0 0 0 6.60 39.95
  L 28.01 39.95
  A 0.43 0.43 0.0 0 1 28.44 40.38
  L 28.42 56.09
  A 0.43 0.43 0.0 0 1 27.99 56.52
  L 7.93 56.50
  A 0.43 0.43 0.0 0 0 7.50 56.93
  L 7.50 90.55
  A 0.43 0.43 0.0 0 0 7.93 90.98
  L 41.13 90.98
  A 0.43 0.43 0.0 0 0 41.56 90.55
  L 41.57 69.89
  A 0.43 0.43 0.0 0 1 42.00 69.46
  L 57.82 69.45
  A 0.43 0.43 0.0 0 1 58.25 69.88
  L 58.25 90.55
  A 0.43 0.43 0.0 0 0 58.68 90.98
  L 92.55 90.98
  A 0.43 0.43 0.0 0 0 92.98 90.55
  L 92.98 57.44
  A 0.43 0.43 0.0 0 0 92.55 57.01
  L 71.19 57.01
  A 0.43 0.43 0.0 0 1 70.76 56.58
  L 70.76 40.38
  Z"
/>
<path fill="#000000" d="
  M 70.76 40.38
  L 70.76 56.58
  A 0.43 0.43 0.0 0 0 71.19 57.01
  L 92.55 57.01
  A 0.43 0.43 0.0 0 1 92.98 57.44
  L 92.98 90.55
  A 0.43 0.43 0.0 0 1 92.55 90.98
  L 58.68 90.98
  A 0.43 0.43 0.0 0 1 58.25 90.55
  L 58.25 69.88
  A 0.43 0.43 0.0 0 0 57.82 69.45
  L 42.00 69.46
  A 0.43 0.43 0.0 0 0 41.57 69.89
  L 41.56 90.55
  A 0.43 0.43 0.0 0 1 41.13 90.98
  L 7.93 90.98
  A 0.43 0.43 0.0 0 1 7.50 90.55
  L 7.50 56.93
  A 0.43 0.43 0.0 0 1 7.93 56.50
  L 27.99 56.52
  A 0.43 0.43 0.0 0 0 28.42 56.09
  L 28.44 40.38
  A 0.43 0.43 0.0 0 0 28.01 39.95
  L 6.60 39.95
  A 0.43 0.43 0.0 0 1 6.17 39.52
  L 6.17 5.47
  A 0.43 0.43 0.0 0 1 6.60 5.04
  L 40.86 5.05
  A 0.43 0.43 0.0 0 1 41.29 5.48
  L 41.30 26.76
  A 0.43 0.43 0.0 0 0 41.73 27.19
  L 57.82 27.20
  A 0.43 0.43 0.0 0 0 58.25 26.77
  L 58.25 5.47
  A 0.43 0.43 0.0 0 1 58.68 5.04
  L 92.55 5.05
  A 0.43 0.43 0.0 0 1 92.98 5.48
  L 92.98 39.52
  A 0.43 0.43 0.0 0 1 92.55 39.95
  L 71.19 39.95
  A 0.43 0.43 0.0 0 0 70.76 40.38
  Z
  M 85.8086 12.4691
  A 0.27 0.27 0.0 0 0 85.5391 12.1987
  L 64.1791 12.1614
  A 0.27 0.27 0.0 0 0 63.9086 12.4309
  L 63.8714 33.7709
  A 0.27 0.27 0.0 0 0 64.1409 34.0413
  L 85.5009 34.0786
  A 0.27 0.27 0.0 0 0 85.7714 33.8091
  L 85.8086 12.4691
  Z
  M 35.49 12.62
  A 0.35 0.35 0.0 0 0 35.14 12.27
  L 13.84 12.27
  A 0.35 0.35 0.0 0 0 13.49 12.62
  L 13.49 33.72
  A 0.35 0.35 0.0 0 0 13.84 34.07
  L 35.14 34.07
  A 0.35 0.35 0.0 0 0 35.49 33.72
  L 35.49 12.62
  Z
  M 46.3014 34.8509
  A 0.31 0.31 0.0 0 0 45.9909 34.5415
  L 36.2309 34.5585
  A 0.31 0.31 0.0 0 0 35.9214 34.8691
  L 35.9386 44.6891
  A 0.31 0.31 0.0 0 0 36.2491 44.9985
  L 46.0091 44.9815
  A 0.31 0.31 0.0 0 0 46.3186 44.6709
  L 46.3014 34.8509
  Z
  M 63.4486 34.8185
  A 0.27 0.27 0.0 0 0 63.1791 34.5481
  L 53.9591 34.5320
  A 0.27 0.27 0.0 0 0 53.6887 34.8015
  L 53.6714 44.7215
  A 0.27 0.27 0.0 0 0 53.9409 44.9919
  L 63.1609 45.0080
  A 0.27 0.27 0.0 0 0 63.4313 44.7385
  L 63.4486 34.8185
  Z
  M 46.32 52.09
  A 0.26 0.26 0.0 0 0 46.06 51.83
  L 36.20 51.83
  A 0.26 0.26 0.0 0 0 35.94 52.09
  L 35.94 62.25
  A 0.26 0.26 0.0 0 0 36.20 62.51
  L 46.06 62.51
  A 0.26 0.26 0.0 0 0 46.32 62.25
  L 46.32 52.09
  Z
  M 63.42 52.33
  A 0.26 0.26 0.0 0 0 63.16 52.07
  L 53.94 52.07
  A 0.26 0.26 0.0 0 0 53.68 52.33
  L 53.68 61.83
  A 0.26 0.26 0.0 0 0 53.94 62.09
  L 63.16 62.09
  A 0.26 0.26 0.0 0 0 63.42 61.83
  L 63.42 52.33
  Z
  M 85.79 62.95
  A 0.33 0.33 0.0 0 0 85.46 62.62
  L 64.22 62.62
  A 0.33 0.33 0.0 0 0 63.89 62.95
  L 63.89 83.17
  A 0.33 0.33 0.0 0 0 64.22 83.50
  L 85.46 83.50
  A 0.33 0.33 0.0 0 0 85.79 83.17
  L 85.79 62.95
  Z
  M 35.49 63.23
  A 0.27 0.27 0.0 0 0 35.22 62.96
  L 15.14 62.96
  A 0.27 0.27 0.0 0 0 14.87 63.23
  L 14.87 83.23
  A 0.27 0.27 0.0 0 0 15.14 83.50
  L 35.22 83.50
  A 0.27 0.27 0.0 0 0 35.49 83.23
  L 35.49 63.23
  Z"
/>
<rect fill="#ffffff" x="-10.95" y="-10.94" transform="translate(74.84,23.12) rotate(0.1)" width="21.90" height="21.88" rx="0.27"/>
<rect fill="#ffffff" x="13.49" y="12.27" width="22.00" height="21.80" rx="0.35"/>
<rect fill="#ffffff" x="-5.19" y="-5.22" transform="translate(41.12,39.77) rotate(-0.1)" width="10.38" height="10.44" rx="0.31"/>
<rect fill="#ffffff" x="-4.88" y="-5.23" transform="translate(58.56,39.77) rotate(0.1)" width="9.76" height="10.46" rx="0.27"/>
<rect fill="#ffffff" x="35.94" y="51.83" width="10.38" height="10.68" rx="0.26"/>
<rect fill="#ffffff" x="53.68" y="52.07" width="9.74" height="10.02" rx="0.26"/>
<rect fill="#ffffff" x="63.89" y="62.62" width="21.90" height="20.88" rx="0.33"/>
<rect fill="#ffffff" x="14.87" y="62.96" width="20.62" height="20.54" rx="0.27"/>
</svg>
