<?xml version="1.0" encoding="UTF-8" standalone="no"?>
<!DOCTYPE svg PUBLIC "-//W3C//DTD SVG 1.1//EN" "http://www.w3.org/Graphics/SVG/1.1/DTD/svg11.dtd">
<svg xmlns="http://www.w3.org/2000/svg" version="1.1" viewBox="0.00 0.00 100.00 100.00">
<g stroke-width="2.00" fill="none" stroke-linecap="butt">
<path stroke="#808080" vector-effect="non-scaling-stroke" d="
  M 87.03 45.78
  Q 87.88 45.32 89.16 44.61
  C 97.08 40.27 93.93 30.75 87.92 26.57
  C 81.82 22.32 74.00 20.52 66.75 19.46
  Q 52.56 17.40 38.25 18.08
  C 29.37 18.51 7.39 21.67 5.20 32.95
  C 3.88 39.70 10.54 44.60 16.08 46.40
  A 0.73 0.73 0.0 0 1 15.99 47.81
  C 4.86 49.89 0.38 62.22 11.56 68.49
  Q 20.85 73.71 33.00 74.79
  C 46.76 76.01 90.30 77.02 93.53 57.07
  C 94.46 51.30 91.80 48.78 87.03 46.33
  Q 86.51 46.06 87.03 45.78"
/>
<path stroke="#808080" vector-effect="non-scaling-stroke" d="
  M 66.12 37.57
  C 70.69 43.42 80.17 42.24 86.00 39.30
  C 89.15 37.71 87.05 33.84 85.18 32.32
  C 80.64 28.63 74.14 27.02 68.50 26.09
  C 52.59 23.46 35.56 22.85 20.03 27.80
  C 16.15 29.04 6.60 33.41 14.07 38.43
  C 20.73 42.90 31.39 44.75 37.37 37.95
  A 0.72 0.72 0.0 0 1 38.55 38.10
  C 42.42 45.75 60.91 44.28 65.19 37.61
  A 0.57 0.57 0.0 0 1 66.12 37.57"
/>
<path stroke="#808080" vector-effect="non-scaling-stroke" d="
  M 67.51 46.88
  Q 68.01 46.48 67.43 46.21
  Q 65.93 45.51 64.34 46.01
  Q 63.63 46.23 64.15 46.77
  Q 65.70 48.35 67.51 46.88"
/>
<path stroke="#808080" vector-effect="non-scaling-stroke" d="
  M 39.62 47.37
  L 37.76 46.26
  Q 37.38 46.03 37.01 46.27
  Q 36.03 46.92 34.86 47.13
  A 0.35 0.35 0.0 0 0 34.76 47.78
  L 36.81 48.84
  Q 37.28 49.08 37.72 48.79
  L 39.62 47.54
  A 0.10 0.10 0.0 0 0 39.62 47.37"
/>
<path stroke="#808080" vector-effect="non-scaling-stroke" d="
  M 65.34 55.68
  C 64.55 54.95 63.86 54.09 63.15 53.58
  C 55.91 48.36 43.55 49.04 38.53 57.10
  Q 38.15 57.71 37.60 57.24
  Q 32.69 53.01 28.51 52.51
  C 23.96 51.96 13.99 53.03 11.46 57.71
  A 2.39 2.39 0.0 0 0 11.81 60.48
  C 22.04 71.55 51.77 69.64 65.00 67.83
  C 71.15 66.99 79.81 65.21 84.54 61.05
  C 86.95 58.92 89.31 53.88 85.16 52.37
  C 79.16 50.18 70.47 50.29 66.10 55.63
  Q 65.75 56.06 65.34 55.68"
/>
</g>
<path fill="#ffffff" d="
  M 0.00 0.00
  L 100.00 0.00
  L 100.00 100.00
  L 0.00 100.00
  L 0.00 0.00
  Z
  M 87.03 45.78
  Q 87.88 45.32 89.16 44.61
  C 97.08 40.27 93.93 30.75 87.92 26.57
  C 81.82 22.32 74.00 20.52 66.75 19.46
  Q 52.56 17.40 38.25 18.08
  C 29.37 18.51 7.39 21.67 5.20 32.95
  C 3.88 39.70 10.54 44.60 16.08 46.40
  A 0.73 0.73 0.0 0 1 15.99 47.81
  C 4.86 49.89 0.38 62.22 11.56 68.49
  Q 20.85 73.71 33.00 74.79
  C 46.76 76.01 90.30 77.02 93.53 57.07
  C 94.46 51.30 91.80 48.78 87.03 46.33
  Q 86.51 46.06 87.03 45.78
  Z"
/>
<path fill="#000000" d="
  M 87.03 45.78
  Q 86.51 46.06 87.03 46.33
  C 91.80 48.78 94.46 51.30 93.53 57.07
  C 90.30 77.02 46.76 76.01 33.00 74.79
  Q 20.85 73.71 11.56 68.49
  C 0.38 62.22 4.86 49.89 15.99 47.81
  A 0.73 0.73 0.0 0 0 16.08 46.40
  C 10.54 44.60 3.88 39.70 5.20 32.95
  C 7.39 21.67 29.37 18.51 38.25 18.08
  Q 52.56 17.40 66.75 19.46
  C 74.00 20.52 81.82 22.32 87.92 26.57
  C 93.93 30.75 97.08 40.27 89.16 44.61
  Q 87.88 45.32 87.03 45.78
  Z
  M 66.12 37.57
  C 70.69 43.42 80.17 42.24 86.00 39.30
  C 89.15 37.71 87.05 33.84 85.18 32.32
  C 80.64 28.63 74.14 27.02 68.50 26.09
  C 52.59 23.46 35.56 22.85 20.03 27.80
  C 16.15 29.04 6.60 33.41 14.07 38.43
  C 20.73 42.90 31.39 44.75 37.37 37.95
  A 0.72 0.72 0.0 0 1 38.55 38.10
  C 42.42 45.75 60.91 44.28 65.19 37.61
  A 0.57 0.57 0.0 0 1 66.12 37.57
  Z
  M 67.51 46.88
  Q 68.01 46.48 67.43 46.21
  Q 65.93 45.51 64.34 46.01
  Q 63.63 46.23 64.15 46.77
  Q 65.70 48.35 67.51 46.88
  Z
  M 39.62 47.37
  L 37.76 46.26
  Q 37.38 46.03 37.01 46.27
  Q 36.03 46.92 34.86 47.13
  A 0.35 0.35 0.0 0 0 34.76 47.78
  L 36.81 48.84
  Q 37.28 49.08 37.72 48.79
  L 39.62 47.54
  A 0.10 0.10 0.0 0 0 39.62 47.37
  Z
  M 65.34 55.68
  C 64.55 54.95 63.86 54.09 63.15 53.58
  C 55.91 48.36 43.55 49.04 38.53 57.10
  Q 38.15 57.71 37.60 57.24
  Q 32.69 53.01 28.51 52.51
  C 23.96 51.96 13.99 53.03 11.46 57.71
  A 2.39 2.39 0.0 0 0 11.81 60.48
  C 22.04 71.55 51.77 69.64 65.00 67.83
  C 71.15 66.99 79.81 65.21 84.54 61.05
  C 86.95 58.92 89.31 53.88 85.16 52.37
  C 79.16 50.18 70.47 50.29 66.10 55.63
  Q 65.75 56.06 65.34 55.68
  Z"
/>
<path fill="#ffffff" d="
  M 66.12 37.57
  A 0.57 0.57 0.0 0 0 65.19 37.61
  C 60.91 44.28 42.42 45.75 38.55 38.10
  A 0.72 0.72 0.0 0 0 37.37 37.95
  C 31.39 44.75 20.73 42.90 14.07 38.43
  C 6.60 33.41 16.15 29.04 20.03 27.80
  C 35.56 22.85 52.59 23.46 68.50 26.09
  C 74.14 27.02 80.64 28.63 85.18 32.32
  C 87.05 33.84 89.15 37.71 86.00 39.30
  C 80.17 42.24 70.69 43.42 66.12 37.57
  Z"
/>
<path fill="#ffffff" d="
  M 67.51 46.88
  Q 65.70 48.35 64.15 46.77
  Q 63.63 46.23 64.34 46.01
  Q 65.93 45.51 67.43 46.21
  Q 68.01 46.48 67.51 46.88
  Z"
/>
<path fill="#ffffff" d="
  M 39.62 47.37
  A 0.10 0.10 0.0 0 1 39.62 47.54
  L 37.72 48.79
  Q 37.28 49.08 36.81 48.84
  L 34.76 47.78
  A 0.35 0.35 0.0 0 1 34.86 47.13
  Q 36.03 46.92 37.01 46.27
  Q 37.38 46.03 37.76 46.26
  L 39.62 47.37
  Z"
/>
<path fill="#ffffff" d="
  M 66.10 55.63
  C 70.47 50.29 79.16 50.18 85.16 52.37
  C 89.31 53.88 86.95 58.92 84.54 61.05
  C 79.81 65.21 71.15 66.99 65.00 67.83
  C 51.77 69.64 22.04 71.55 11.81 60.48
  A 2.39 2.39 0.0 0 1 11.46 57.71
  C 13.99 53.03 23.96 51.96 28.51 52.51
  Q 32.69 53.01 37.60 57.24
  Q 38.15 57.71 38.53 57.10
  C 43.55 49.04 55.91 48.36 63.15 53.58
  C 63.86 54.09 64.55 54.95 65.34 55.68
  Q 65.75 56.06 66.10 55.63
  Z"
/>
</svg>
