<?xml version="1.0" encoding="UTF-8" standalone="no"?>
<!DOCTYPE svg PUBLIC "-//W3C//DTD SVG 1.1//EN" "http://www.w3.org/Graphics/SVG/1.1/DTD/svg11.dtd">
<svg xmlns="http://www.w3.org/2000/svg" version="1.1" viewBox="0.00 0.00 100.00 100.00">
<g stroke-width="2.00" fill="none" stroke-linecap="butt">
<path stroke="#808080" vector-effect="non-scaling-stroke" d="
  M 37.57 33.09
  C 29.46 35.30 19.03 40.14 19.03 50.24
  Q 19.01 69.06 19.03 87.89
  C 19.04 93.32 23.09 93.64 27.26 92.97
  C 29.79 92.57 30.71 90.68 30.72 88.17
  Q 30.76 77.72 30.73 67.64
  Q 30.73 66.98 31.39 67.00
  L 31.68 67.01
  Q 32.50 67.04 32.50 67.86
  Q 32.48 77.90 32.51 88.17
  C 32.53 95.58 44.19 94.04 44.16 89.43
  Q 44.10 79.21 44.21 67.88
  Q 44.22 66.84 45.23 67.08
  L 45.56 67.16
  A 0.60 0.60 0.0 0 1 46.02 67.74
  Q 46.05 78.00 46.05 88.30
  C 46.05 90.83 47.15 92.83 49.75 93.00
  C 53.73 93.25 57.75 93.31 57.76 88.53
  Q 57.78 77.88 57.78 67.51
  A 0.47 0.47 0.0 0 1 58.27 67.04
  L 58.61 67.05
  A 0.81 0.81 0.0 0 1 59.39 67.85
  Q 59.55 77.85 59.50 87.49
  Q 59.49 89.87 60.01 90.95
  C 61.66 94.34 71.22 93.95 71.22 89.50
  Q 71.22 78.70 71.24 67.96
  Q 71.24 67.10 72.09 67.06
  L 72.37 67.05
  Q 73.05 67.02 73.05 67.70
  Q 73.04 77.66 73.05 87.83
  C 73.06 91.00 74.18 93.05 77.50 93.14
  C 81.49 93.24 84.79 92.97 84.80 88.23
  Q 84.83 68.74 84.82 49.25
  C 84.82 40.47 73.52 35.04 66.34 33.19
  Q 64.87 32.81 66.27 32.24
  C 73.21 29.41 77.08 21.31 71.95 14.54
  Q 68.28 9.68 60.76 7.91
  Q 50.79 5.57 41.05 8.70
  C 31.54 11.76 24.92 20.40 32.95 29.22
  C 34.20 30.60 36.02 31.45 37.66 32.48
  Q 38.31 32.89 37.57 33.09"
/>
<path stroke="#808080" vector-effect="non-scaling-stroke" d="
  M 62.45 18.18
  C 58.99 25.68 45.15 24.80 41.05 18.00
  Q 40.80 17.59 40.39 17.82
  C 38.10 19.08 36.51 21.53 38.81 23.44
  C 42.64 26.62 46.90 27.41 51.96 27.51
  C 55.91 27.59 64.29 26.21 66.04 21.83
  A 1.92 1.91 33.5 0 0 65.62 19.78
  L 63.82 17.95
  Q 62.97 17.08 62.45 18.18"
/>
</g>
<path fill="#ffffff" d="
  M 0.00 0.00
  L 100.00 0.00
  L 100.00 100.00
  L 0.00 100.00
  L 0.00 0.00
  Z
  M 37.57 33.09
  C 29.46 35.30 19.03 40.14 19.03 50.24
  Q 19.01 69.06 19.03 87.89
  C 19.04 93.32 23.09 93.64 27.26 92.97
  C 29.79 92.57 30.71 90.68 30.72 88.17
  Q 30.76 77.72 30.73 67.64
  Q 30.73 66.98 31.39 67.00
  L 31.68 67.01
  Q 32.50 67.04 32.50 67.86
  Q 32.48 77.90 32.51 88.17
  C 32.53 95.58 44.19 94.04 44.16 89.43
  Q 44.10 79.21 44.21 67.88
  Q 44.22 66.84 45.23 67.08
  L 45.56 67.16
  A 0.60 0.60 0.0 0 1 46.02 67.74
  Q 46.05 78.00 46.05 88.30
  C 46.05 90.83 47.15 92.83 49.75 93.00
  C 53.73 93.25 57.75 93.31 57.76 88.53
  Q 57.78 77.88 57.78 67.51
  A 0.47 0.47 0.0 0 1 58.27 67.04
  L 58.61 67.05
  A 0.81 0.81 0.0 0 1 59.39 67.85
  Q 59.55 77.85 59.50 87.49
  Q 59.49 89.87 60.01 90.95
  C 61.66 94.34 71.22 93.95 71.22 89.50
  Q 71.22 78.70 71.24 67.96
  Q 71.24 67.10 72.09 67.06
  L 72.37 67.05
  Q 73.05 67.02 73.05 67.70
  Q 73.04 77.66 73.05 87.83
  C 73.06 91.00 74.18 93.05 77.50 93.14
  C 81.49 93.24 84.79 92.97 84.80 88.23
  Q 84.83 68.74 84.82 49.25
  C 84.82 40.47 73.52 35.04 66.34 33.19
  Q 64.87 32.81 66.27 32.24
  C 73.21 29.41 77.08 21.31 71.95 14.54
  Q 68.28 9.68 60.76 7.91
  Q 50.79 5.57 41.05 8.70
  C 31.54 11.76 24.92 20.40 32.95 29.22
  C 34.20 30.60 36.02 31.45 37.66 32.48
  Q 38.31 32.89 37.57 33.09
  Z"
/>
<path fill="#000000" d="
  M 37.66 32.48
  C 36.02 31.45 34.20 30.60 32.95 29.22
  C 24.92 20.40 31.54 11.76 41.05 8.70
  Q 50.79 5.57 60.76 7.91
  Q 68.28 9.68 71.95 14.54
  C 77.08 21.31 73.21 29.41 66.27 32.24
  Q 64.87 32.81 66.34 33.19
  C 73.52 35.04 84.82 40.47 84.82 49.25
  Q 84.83 68.74 84.80 88.23
  C 84.79 92.97 81.49 93.24 77.50 93.14
  C 74.18 93.05 73.06 91.00 73.05 87.83
  Q 73.04 77.66 73.05 67.70
  Q 73.05 67.02 72.37 67.05
  L 72.09 67.06
  Q 71.24 67.10 71.24 67.96
  Q 71.22 78.70 71.22 89.50
  C 71.22 93.95 61.66 94.34 60.01 90.95
  Q 59.49 89.87 59.50 87.49
  Q 59.55 77.85 59.39 67.85
  A 0.81 0.81 0.0 0 0 58.61 67.05
  L 58.27 67.04
  A 0.47 0.47 0.0 0 0 57.78 67.51
  Q 57.78 77.88 57.76 88.53
  C 57.75 93.31 53.73 93.25 49.75 93.00
  C 47.15 92.83 46.05 90.83 46.05 88.30
  Q 46.05 78.00 46.02 67.74
  A 0.60 0.60 0.0 0 0 45.56 67.16
  L 45.23 67.08
  Q 44.22 66.84 44.21 67.88
  Q 44.10 79.21 44.16 89.43
  C 44.19 94.04 32.53 95.58 32.51 88.17
  Q 32.48 77.90 32.50 67.86
  Q 32.50 67.04 31.68 67.01
  L 31.39 67.00
  Q 30.73 66.98 30.73 67.64
  Q 30.76 77.72 30.72 88.17
  C 30.71 90.68 29.79 92.57 27.26 92.97
  C 23.09 93.64 19.04 93.32 19.03 87.89
  Q 19.01 69.06 19.03 50.24
  C 19.03 40.14 29.46 35.30 37.57 33.09
  Q 38.31 32.89 37.66 32.48
  Z
  M 62.45 18.18
  C 58.99 25.68 45.15 24.80 41.05 18.00
  Q 40.80 17.59 40.39 17.82
  C 38.10 19.08 36.51 21.53 38.81 23.44
  C 42.64 26.62 46.90 27.41 51.96 27.51
  C 55.91 27.59 64.29 26.21 66.04 21.83
  A 1.92 1.91 33.5 0 0 65.62 19.78
  L 63.82 17.95
  Q 62.97 17.08 62.45 18.18
  Z"
/>
<path fill="#ffffff" d="
  M 41.05 18.00
  C 45.15 24.80 58.99 25.68 62.45 18.18
  Q 62.97 17.08 63.82 17.95
  L 65.62 19.78
  A 1.92 1.91 33.5 0 1 66.04 21.83
  C 64.29 26.21 55.91 27.59 51.96 27.51
  C 46.90 27.41 42.64 26.62 38.81 23.44
  C 36.51 21.53 38.10 19.08 40.39 17.82
  Q 40.80 17.59 41.05 18.00
  Z"
/>
</svg>
