<?xml version="1.0" encoding="UTF-8" standalone="no"?>
<!DOCTYPE svg PUBLIC "-//W3C//DTD SVG 1.1//EN" "http://www.w3.org/Graphics/SVG/1.1/DTD/svg11.dtd">
<svg xmlns="http://www.w3.org/2000/svg" version="1.1" viewBox="0.00 0.00 100.00 100.00">
<path stroke="#808080" stroke-width="2.00" fill="none" stroke-linecap="butt" vector-effect="non-scaling-stroke" d="
  M 30.18 55.29
  Q 25.07 61.88 25.85 69.83
  C 27.26 84.20 43.76 85.98 51.52 75.81
  Q 51.94 75.25 52.15 73.75
  Q 52.24 73.12 51.67 73.40
  Q 50.84 73.79 50.04 74.28
  C 44.13 77.89 35.74 70.20 37.22 64.22
  C 38.82 57.80 47.44 55.20 53.51 55.73
  C 62.65 56.52 66.26 66.96 64.97 74.51
  C 63.51 83.01 56.17 91.68 49.02 96.94
  A 0.49 0.49 0.0 0 0 49.17 97.81
  C 50.10 98.08 51.29 97.52 51.91 97.40
  C 73.98 93.06 87.71 68.60 68.37 50.98
  Q 67.97 50.63 68.35 50.25
  C 74.22 44.49 77.62 39.96 76.93 31.13
  C 75.83 17.16 65.18 1.78 50.02 1.45
  Q 48.15 1.41 49.56 2.63
  C 59.33 11.05 66.78 21.11 64.15 35.00
  C 63.12 40.43 60.08 44.90 54.72 45.85
  C 47.39 47.15 33.06 42.74 38.10 32.23
  Q 41.05 26.08 48.88 26.80
  A 1.36 1.29 62.5 0 1 49.46 27.00
  L 51.64 28.36
  A 0.35 0.35 0.0 0 0 52.17 28.00
  C 51.03 21.91 43.10 19.15 37.74 19.58
  C 23.47 20.74 23.22 37.73 30.43 46.51
  Q 30.72 46.86 30.26 46.90
  Q 22.22 47.68 14.71 50.77
  Q 14.24 50.96 14.29 51.22
  A 0.93 0.92 -85.9 0 0 14.93 51.96
  Q 21.84 54.17 29.01 54.79
  Q 29.49 54.83 30.02 54.90
  Q 30.44 54.95 30.18 55.29"
/>
<path fill="#ffffff" d="
  M 0.00 0.00
  L 100.00 0.00
  L 100.00 100.00
  L 0.00 100.00
  L 0.00 0.00
  Z
  M 30.18 55.29
  Q 25.07 61.88 25.85 69.83
  C 27.26 84.20 43.76 85.98 51.52 75.81
  Q 51.94 75.25 52.15 73.75
  Q 52.24 73.12 51.67 73.40
  Q 50.84 73.79 50.04 74.28
  C 44.13 77.89 35.74 70.20 37.22 64.22
  C 38.82 57.80 47.44 55.20 53.51 55.73
  C 62.65 56.52 66.26 66.96 64.97 74.51
  C 63.51 83.01 56.17 91.68 49.02 96.94
  A 0.49 0.49 0.0 0 0 49.17 97.81
  C 50.10 98.08 51.29 97.52 51.91 97.40
  C 73.98 93.06 87.71 68.60 68.37 50.98
  Q 67.97 50.63 68.35 50.25
  C 74.22 44.49 77.62 39.96 76.93 31.13
  C 75.83 17.16 65.18 1.78 50.02 1.45
  Q 48.15 1.41 49.56 2.63
  C 59.33 11.05 66.78 21.11 64.15 35.00
  C 63.12 40.43 60.08 44.90 54.72 45.85
  C 47.39 47.15 33.06 42.74 38.10 32.23
  Q 41.05 26.08 48.88 26.80
  A 1.36 1.29 62.5 0 1 49.46 27.00
  L 51.64 28.36
  A 0.35 0.35 0.0 0 0 52.17 28.00
  C 51.03 21.91 43.10 19.15 37.74 19.58
  C 23.47 20.74 23.22 37.73 30.43 46.51
  Q 30.72 46.86 30.26 46.90
  Q 22.22 47.68 14.71 50.77
  Q 14.24 50.96 14.29 51.22
  A 0.93 0.92 -85.9 0 0 14.93 51.96
  Q 21.84 54.17 29.01 54.79
  Q 29.49 54.83 30.02 54.90
  Q 30.44 54.95 30.18 55.29
  Z"
/>
<path fill="#000000" d="
  M 30.02 54.90
  Q 29.49 54.83 29.01 54.79
  Q 21.84 54.17 14.93 51.96
  A 0.93 0.92 -85.9 0 1 14.29 51.22
  Q 14.24 50.96 14.71 50.77
  Q 22.22 47.68 30.26 46.90
  Q 30.72 46.86 30.43 46.51
  C 23.22 37.73 23.47 20.74 37.74 19.58
  C 43.10 19.15 51.03 21.91 52.17 28.00
  A 0.35 0.35 0.0 0 1 51.64 28.36
  L 49.46 27.00
  A 1.36 1.29 62.5 0 0 48.88 26.80
  Q 41.05 26.08 38.10 32.23
  C 33.06 42.74 47.39 47.15 54.72 45.85
  C 60.08 44.90 63.12 40.43 64.15 35.00
  C 66.78 21.11 59.33 11.05 49.56 2.63
  Q 48.15 1.41 50.02 1.45
  C 65.18 1.78 75.83 17.16 76.93 31.13
  C 77.62 39.96 74.22 44.49 68.35 50.25
  Q 67.97 50.63 68.37 50.98
  C 87.71 68.60 73.98 93.06 51.91 97.40
  C 51.29 97.52 50.10 98.08 49.17 97.81
  A 0.49 0.49 0.0 0 1 49.02 96.94
  C 56.17 91.68 63.51 83.01 64.97 74.51
  C 66.26 66.96 62.65 56.52 53.51 55.73
  C 47.44 55.20 38.82 57.80 37.22 64.22
  C 35.74 70.20 44.13 77.89 50.04 74.28
  Q 50.84 73.79 51.67 73.40
  Q 52.24 73.12 52.15 73.75
  Q 51.94 75.25 51.52 75.81
  C 43.76 85.98 27.26 84.20 25.85 69.83
  Q 25.07 61.88 30.18 55.29
  Q 30.44 54.95 30.02 54.90
  Z"
/>
</svg>
