<?xml version="1.0" encoding="UTF-8" standalone="no"?>
<!DOCTYPE svg PUBLIC "-//W3C//DTD SVG 1.1//EN" "http://www.w3.org/Graphics/SVG/1.1/DTD/svg11.dtd">
<svg xmlns="http://www.w3.org/2000/svg" version="1.1" viewBox="0.00 0.00 100.00 100.00">
<path fill="#000000" d="
  M 85.88 50.48
  C 94.41 64.26 94.71 81.45 78.03 89.22
  Q 68.02 93.88 59.19 86.83
  C 54.75 83.28 51.69 91.89 50.57 94.73
  Q 49.96 96.26 49.37 94.72
  C 48.37 92.12 45.85 85.07 42.25 86.16
  Q 41.78 86.30 38.71 88.40
  C 28.45 95.37 14.44 87.51 9.86 77.30
  C 6.16 69.04 9.55 57.69 14.17 50.42
  Q 14.45 49.98 14.17 49.54
  Q 8.30 40.28 8.28 30.00
  C 8.24 15.20 27.74 2.49 40.35 12.88
  C 45.38 17.03 48.26 8.14 49.65 4.78
  A 0.37 0.37 0.0 0 1 50.33 4.78
  Q 51.80 8.28 53.73 11.79
  C 55.66 15.32 58.10 13.99 60.68 11.99
  C 70.85 4.14 85.32 12.41 90.04 22.51
  C 93.91 30.78 90.45 42.19 85.88 49.53
  Q 85.58 50.00 85.88 50.48
  Z
  M 30.02 68.59
  C 24.73 70.12 26.34 62.66 19.79 64.32
  Q 17.73 64.84 17.32 66.60
  Q 15.53 74.36 20.44 81.13
  C 24.86 87.24 33.20 80.89 36.19 76.73
  Q 38.55 73.44 40.10 67.09
  C 43.36 53.81 44.88 22.47 27.49 16.82
  C 18.73 13.97 16.18 26.55 17.16 32.29
  Q 17.57 34.75 19.21 35.57
  C 22.37 37.15 24.26 35.22 26.04 32.53
  C 28.03 29.55 31.84 31.95 33.17 34.61
  C 36.96 42.16 33.46 45.68 27.67 49.70
  A 0.39 0.38 -45.6 0 0 27.67 50.34
  C 29.86 51.75 32.50 53.38 33.65 55.69
  C 35.39 59.19 34.16 67.40 30.02 68.59
  Z
  M 73.87 32.56
  C 74.79 33.75 75.34 34.92 76.67 35.55
  C 80.09 37.18 82.82 35.11 83.11 31.54
  C 83.59 25.83 80.98 14.23 72.77 16.78
  C 65.08 19.17 61.20 26.02 59.65 33.76
  C 56.93 47.32 55.22 79.03 73.51 83.43
  C 84.38 86.05 86.97 59.28 76.69 64.43
  C 74.46 65.54 73.93 69.06 71.20 68.85
  C 67.35 68.55 65.91 63.68 65.52 60.23
  C 64.92 55.00 68.62 52.76 72.33 50.33
  A 0.37 0.37 0.0 0 0 72.33 49.71
  C 69.28 47.64 65.81 45.67 65.48 41.51
  Q 65.05 35.96 68.82 32.09
  C 70.17 30.70 72.64 30.97 73.87 32.56
  Z
  M 50.0000 71.4800
  A 21.49 2.73 90.0 0 0 52.7300 49.9900
  A 21.49 2.73 90.0 0 0 50.0000 28.5000
  A 21.49 2.73 90.0 0 0 47.2700 49.9900
  A 21.49 2.73 90.0 0 0 50.0000 71.4800
  Z"
/>
</svg>
