<?xml version="1.0" encoding="UTF-8" standalone="no"?>
<!DOCTYPE svg PUBLIC "-//W3C//DTD SVG 1.1//EN" "http://www.w3.org/Graphics/SVG/1.1/DTD/svg11.dtd">
<svg xmlns="http://www.w3.org/2000/svg" version="1.1" viewBox="0.00 0.00 100.00 100.00">
<path fill="#000000" d="
  M 75.80 49.79
  C 95.64 62.87 63.09 90.05 53.46 97.21
  C 52.32 98.06 50.96 98.51 49.53 97.81
  Q 46.24 96.18 43.33 93.93
  C 33.35 86.20 7.40 65.47 25.52 51.64
  A 1.09 1.08 38.9 0 0 25.32 49.79
  C 22.37 48.43 18.63 42.60 19.09 39.38
  C 20.69 28.08 30.57 17.78 38.95 10.61
  C 41.77 8.20 46.09 4.08 49.98 2.02
  Q 51.24 1.36 52.76 2.45
  C 63.71 10.27 93.81 32.49 77.44 47.51
  Q 76.56 48.32 75.73 49.20
  Q 75.41 49.54 75.80 49.79
  Z
  M 64.35 40.24
  C 63.47 38.14 62.48 35.41 59.52 36.28
  C 53.18 38.15 54.00 41.06 57.93 45.07
  C 63.30 50.55 71.10 48.21 75.08 42.35
  C 78.85 36.79 71.38 27.44 67.72 23.37
  C 63.52 18.69 58.31 14.58 53.41 10.58
  Q 51.78 9.24 49.77 8.44
  Q 49.33 8.26 48.91 8.48
  C 47.40 9.25 46.25 10.92 45.32 11.68
  C 38.83 17.06 18.53 35.11 28.35 44.41
  C 36.08 51.72 54.10 42.63 40.19 35.46
  A 2.18 2.16 38.2 0 0 37.77 35.74
  Q 35.74 37.47 34.49 39.76
  Q 33.21 42.11 30.80 40.94
  L 30.17 40.63
  A 1.87 1.86 -64.6 0 1 29.30 38.17
  Q 31.72 32.94 37.27 30.75
  Q 43.80 28.18 49.46 34.92
  Q 50.54 36.19 51.72 35.01
  C 55.96 30.79 67.83 27.51 69.64 36.46
  C 70.28 39.61 68.53 42.13 65.05 40.91
  Q 64.55 40.73 64.35 40.24
  Z
  M 49.81 45.97
  L 49.80 45.62
  Q 49.78 45.14 49.47 45.51
  L 47.56 47.78
  Q 46.55 48.98 47.63 50.11
  L 50.88 53.49
  A 1.66 1.66 0.0 0 0 53.39 53.38
  Q 54.30 52.23 55.61 51.68
  Q 55.89 51.56 55.65 51.38
  Q 55.44 51.23 55.17 51.18
  A 0.86 0.85 76.3 0 1 54.65 50.86
  Q 52.64 48.23 49.97 46.28
  Q 49.81 46.17 49.81 45.97
  Z
  M 70.28 58.81
  C 75.49 60.16 69.53 66.35 67.82 67.66
  C 62.12 72.00 55.14 70.64 51.48 64.35
  A 0.30 0.29 -41.3 0 0 50.99 64.32
  C 46.74 69.76 34.55 73.09 32.01 63.96
  C 31.23 61.13 33.18 57.25 36.10 59.15
  C 38.27 60.57 37.63 63.70 41.00 64.23
  Q 42.58 64.47 45.09 63.14
  C 49.76 60.65 44.50 55.58 41.98 54.00
  Q 35.79 50.10 29.91 53.81
  C 21.36 59.19 27.83 71.07 32.96 76.28
  Q 40.78 84.21 44.87 86.87
  Q 47.57 88.64 50.16 91.12
  A 2.30 2.29 48.2 0 0 53.14 91.29
  C 59.92 86.11 82.89 66.30 73.74 56.26
  C 69.89 52.03 66.35 53.38 61.74 53.95
  C 59.39 54.24 54.98 56.47 56.16 59.52
  Q 57.90 63.98 62.10 64.90
  A 2.45 2.43 24.4 0 0 64.55 63.99
  C 65.82 62.32 67.99 58.21 70.28 58.81
  Z"
/>
</svg>
