<?xml version="1.0" encoding="UTF-8" standalone="no"?>
<!DOCTYPE svg PUBLIC "-//W3C//DTD SVG 1.1//EN" "http://www.w3.org/Graphics/SVG/1.1/DTD/svg11.dtd">
<svg xmlns="http://www.w3.org/2000/svg" version="1.1" viewBox="0.00 0.00 100.00 100.00">
<path stroke="#808080" stroke-width="2.00" fill="none" stroke-linecap="butt" vector-effect="non-scaling-stroke" d="
  M 73.22 71.60
  L 63.51 62.31
  A 2.24 2.23 21.3 0 1 62.83 60.78
  L 62.17 39.58
  Q 62.15 39.04 62.53 38.64
  L 72.17 28.35
  Q 72.56 27.93 72.98 28.32
  L 82.61 37.45
  A 0.89 0.88 -50.8 0 0 83.94 37.31
  C 96.67 19.29 74.53 0.03 59.35 14.52
  A 0.60 0.59 44.7 0 0 59.36 15.38
  L 69.08 24.49
  A 0.65 0.64 43.5 0 1 69.11 25.41
  L 58.28 36.71
  Q 57.99 37.01 57.57 37.02
  L 37.92 37.51
  Q 37.46 37.52 37.13 37.21
  L 25.82 26.53
  A 0.62 0.62 0.0 0 1 25.80 25.65
  L 34.89 16.19
  A 0.74 0.74 0.0 0 0 34.86 15.13
  Q 29.47 10.08 21.74 11.03
  C 7.49 12.78 2.86 28.68 11.70 39.06
  A 0.93 0.93 0.0 0 0 13.08 39.09
  L 22.07 29.59
  Q 22.48 29.16 22.90 29.56
  L 32.22 38.47
  Q 32.85 39.08 32.87 39.96
  L 33.26 62.72
  A 0.86 0.83 -23.9 0 1 33.01 63.34
  L 23.87 72.91
  A 0.45 0.45 0.0 0 1 23.23 72.93
  L 13.41 63.60
  A 0.52 0.52 0.0 0 0 12.66 63.63
  C -0.23 78.14 16.69 98.50 33.79 89.11
  Q 35.53 88.15 36.76 86.57
  Q 37.11 86.11 36.69 85.72
  L 27.14 76.77
  A 0.71 0.70 43.6 0 1 27.11 75.77
  L 37.30 65.02
  A 2.80 2.77 21.1 0 1 39.27 64.16
  L 58.26 63.84
  A 1.46 1.43 65.6 0 1 59.27 64.23
  L 70.31 74.68
  A 0.62 0.61 -46.6 0 1 70.33 75.55
  L 61.19 85.22
  A 0.65 0.64 42.2 0 0 61.24 86.14
  C 72.80 96.25 90.69 87.12 88.89 71.75
  Q 88.21 66.00 84.30 62.01
  A 0.72 0.71 -45.5 0 0 83.27 62.02
  L 74.15 71.58
  Q 73.69 72.06 73.22 71.60"
/>
<path fill="#ffffff" d="
  M 0.00 0.00
  L 100.00 0.00
  L 100.00 100.00
  L 0.00 100.00
  L 0.00 0.00
  Z
  M 73.22 71.60
  L 63.51 62.31
  A 2.24 2.23 21.3 0 1 62.83 60.78
  L 62.17 39.58
  Q 62.15 39.04 62.53 38.64
  L 72.17 28.35
  Q 72.56 27.93 72.98 28.32
  L 82.61 37.45
  A 0.89 0.88 -50.8 0 0 83.94 37.31
  C 96.67 19.29 74.53 0.03 59.35 14.52
  A 0.60 0.59 44.7 0 0 59.36 15.38
  L 69.08 24.49
  A 0.65 0.64 43.5 0 1 69.11 25.41
  L 58.28 36.71
  Q 57.99 37.01 57.57 37.02
  L 37.92 37.51
  Q 37.46 37.52 37.13 37.21
  L 25.82 26.53
  A 0.62 0.62 0.0 0 1 25.80 25.65
  L 34.89 16.19
  A 0.74 0.74 0.0 0 0 34.86 15.13
  Q 29.47 10.08 21.74 11.03
  C 7.49 12.78 2.86 28.68 11.70 39.06
  A 0.93 0.93 0.0 0 0 13.08 39.09
  L 22.07 29.59
  Q 22.48 29.16 22.90 29.56
  L 32.22 38.47
  Q 32.85 39.08 32.87 39.96
  L 33.26 62.72
  A 0.86 0.83 -23.9 0 1 33.01 63.34
  L 23.87 72.91
  A 0.45 0.45 0.0 0 1 23.23 72.93
  L 13.41 63.60
  A 0.52 0.52 0.0 0 0 12.66 63.63
  C -0.23 78.14 16.69 98.50 33.79 89.11
  Q 35.53 88.15 36.76 86.57
  Q 37.11 86.11 36.69 85.72
  L 27.14 76.77
  A 0.71 0.70 43.6 0 1 27.11 75.77
  L 37.30 65.02
  A 2.80 2.77 21.1 0 1 39.27 64.16
  L 58.26 63.84
  A 1.46 1.43 65.6 0 1 59.27 64.23
  L 70.31 74.68
  A 0.62 0.61 -46.6 0 1 70.33 75.55
  L 61.19 85.22
  A 0.65 0.64 42.2 0 0 61.24 86.14
  C 72.80 96.25 90.69 87.12 88.89 71.75
  Q 88.21 66.00 84.30 62.01
  A 0.72 0.71 -45.5 0 0 83.27 62.02
  L 74.15 71.58
  Q 73.69 72.06 73.22 71.60
  Z"
/>
<path fill="#000000" d="
  M 74.15 71.58
  L 83.27 62.02
  A 0.72 0.71 -45.5 0 1 84.30 62.01
  Q 88.21 66.00 88.89 71.75
  C 90.69 87.12 72.80 96.25 61.24 86.14
  A 0.65 0.64 42.2 0 1 61.19 85.22
  L 70.33 75.55
  A 0.62 0.61 -46.6 0 0 70.31 74.68
  L 59.27 64.23
  A 1.46 1.43 65.6 0 0 58.26 63.84
  L 39.27 64.16
  A 2.80 2.77 21.1 0 0 37.30 65.02
  L 27.11 75.77
  A 0.71 0.70 43.6 0 0 27.14 76.77
  L 36.69 85.72
  Q 37.11 86.11 36.76 86.57
  Q 35.53 88.15 33.79 89.11
  C 16.69 98.50 -0.23 78.14 12.66 63.63
  A 0.52 0.52 0.0 0 1 13.41 63.60
  L 23.23 72.93
  A 0.45 0.45 0.0 0 0 23.87 72.91
  L 33.01 63.34
  A 0.86 0.83 -23.9 0 0 33.26 62.72
  L 32.87 39.96
  Q 32.85 39.08 32.22 38.47
  L 22.90 29.56
  Q 22.48 29.16 22.07 29.59
  L 13.08 39.09
  A 0.93 0.93 0.0 0 1 11.70 39.06
  C 2.86 28.68 7.49 12.78 21.74 11.03
  Q 29.47 10.08 34.86 15.13
  A 0.74 0.74 0.0 0 1 34.89 16.19
  L 25.80 25.65
  A 0.62 0.62 0.0 0 0 25.82 26.53
  L 37.13 37.21
  Q 37.46 37.52 37.92 37.51
  L 57.57 37.02
  Q 57.99 37.01 58.28 36.71
  L 69.11 25.41
  A 0.65 0.64 43.5 0 0 69.08 24.49
  L 59.36 15.38
  A 0.60 0.59 44.7 0 1 59.35 14.52
  C 74.53 0.03 96.67 19.29 83.94 37.31
  A 0.89 0.88 -50.8 0 1 82.61 37.45
  L 72.98 28.32
  Q 72.56 27.93 72.17 28.35
  L 62.53 38.64
  Q 62.15 39.04 62.17 39.58
  L 62.83 60.78
  A 2.24 2.23 21.3 0 0 63.51 62.31
  L 73.22 71.60
  Q 73.69 72.06 74.15 71.58
  Z"
/>
</svg>
