<?xml version="1.0" encoding="UTF-8" standalone="no"?>
<!DOCTYPE svg PUBLIC "-//W3C//DTD SVG 1.1//EN" "http://www.w3.org/Graphics/SVG/1.1/DTD/svg11.dtd">
<svg xmlns="http://www.w3.org/2000/svg" version="1.1" viewBox="0.00 0.00 100.00 100.00">
<path stroke="#808080" stroke-width="2.00" fill="none" stroke-linecap="butt" vector-effect="non-scaling-stroke" d="
  M 20.03 19.19
  A 0.47 0.47 0.0 0 1 19.56 18.72
  L 19.58 15.70
  A 0.47 0.47 0.0 0 1 20.05 15.23
  L 89.96 15.24
  A 0.47 0.47 0.0 0 0 90.43 14.77
  L 90.44 3.23
  A 0.47 0.47 0.0 0 0 89.97 2.76
  L 8.65 2.76
  A 0.47 0.47 0.0 0 0 8.18 3.23
  L 8.19 31.41
  A 0.47 0.47 0.0 0 0 8.66 31.88
  L 78.64 31.88
  A 0.47 0.47 0.0 0 1 79.11 32.35
  L 79.11 35.32
  A 0.47 0.47 0.0 0 1 78.64 35.79
  L 8.65 35.78
  A 0.47 0.47 0.0 0 0 8.18 36.25
  L 8.19 64.45
  A 0.47 0.47 0.0 0 0 8.66 64.92
  L 78.64 64.92
  A 0.47 0.47 0.0 0 1 79.11 65.39
  L 79.11 68.49
  A 0.47 0.47 0.0 0 1 78.64 68.96
  L 8.66 68.95
  A 0.47 0.47 0.0 0 0 8.19 69.42
  L 8.18 98.01
  A 0.47 0.47 0.0 0 0 8.65 98.48
  L 19.08 98.48
  A 0.47 0.47 0.0 0 0 19.55 98.01
  L 19.56 81.84
  A 0.47 0.47 0.0 0 1 20.03 81.37
  L 31.48 81.40
  A 0.47 0.47 0.0 0 1 31.95 81.87
  L 31.94 98.01
  A 0.47 0.47 0.0 0 0 32.41 98.48
  L 42.57 98.48
  A 0.47 0.47 0.0 0 0 43.04 98.01
  L 43.04 81.86
  A 0.47 0.47 0.0 0 1 43.51 81.39
  L 54.97 81.38
  A 0.47 0.47 0.0 0 1 55.44 81.85
  L 55.45 98.02
  A 0.47 0.47 0.0 0 0 55.92 98.49
  L 66.35 98.48
  A 0.47 0.47 0.0 0 0 66.82 98.01
  L 66.83 81.85
  A 0.47 0.47 0.0 0 1 67.30 81.38
  L 78.63 81.40
  A 0.47 0.47 0.0 0 1 79.10 81.87
  L 79.10 98.01
  A 0.47 0.47 0.0 0 0 79.57 98.48
  L 89.97 98.48
  A 0.47 0.47 0.0 0 0 90.44 98.01
  L 90.44 52.72
  A 0.47 0.47 0.0 0 0 89.97 52.25
  L 20.03 52.25
  A 0.47 0.47 0.0 0 1 19.56 51.78
  L 19.57 48.80
  A 0.47 0.47 0.0 0 1 20.04 48.33
  L 89.97 48.32
  A 0.47 0.47 0.0 0 0 90.44 47.85
  L 90.44 19.66
  A 0.47 0.47 0.0 0 0 89.97 19.19
  L 20.03 19.19"
/>
<path fill="#ffffff" d="
  M 0.00 0.00
  L 100.00 0.00
  L 100.00 100.00
  L 0.00 100.00
  L 0.00 0.00
  Z
  M 20.03 19.19
  A 0.47 0.47 0.0 0 1 19.56 18.72
  L 19.58 15.70
  A 0.47 0.47 0.0 0 1 20.05 15.23
  L 89.96 15.24
  A 0.47 0.47 0.0 0 0 90.43 14.77
  L 90.44 3.23
  A 0.47 0.47 0.0 0 0 89.97 2.76
  L 8.65 2.76
  A 0.47 0.47 0.0 0 0 8.18 3.23
  L 8.19 31.41
  A 0.47 0.47 0.0 0 0 8.66 31.88
  L 78.64 31.88
  A 0.47 0.47 0.0 0 1 79.11 32.35
  L 79.11 35.32
  A 0.47 0.47 0.0 0 1 78.64 35.79
  L 8.65 35.78
  A 0.47 0.47 0.0 0 0 8.18 36.25
  L 8.19 64.45
  A 0.47 0.47 0.0 0 0 8.66 64.92
  L 78.64 64.92
  A 0.47 0.47 0.0 0 1 79.11 65.39
  L 79.11 68.49
  A 0.47 0.47 0.0 0 1 78.64 68.96
  L 8.66 68.95
  A 0.47 0.47 0.0 0 0 8.19 69.42
  L 8.18 98.01
  A 0.47 0.47 0.0 0 0 8.65 98.48
  L 19.08 98.48
  A 0.47 0.47 0.0 0 0 19.55 98.01
  L 19.56 81.84
  A 0.47 0.47 0.0 0 1 20.03 81.37
  L 31.48 81.40
  A 0.47 0.47 0.0 0 1 31.95 81.87
  L 31.94 98.01
  A 0.47 0.47 0.0 0 0 32.41 98.48
  L 42.57 98.48
  A 0.47 0.47 0.0 0 0 43.04 98.01
  L 43.04 81.86
  A 0.47 0.47 0.0 0 1 43.51 81.39
  L 54.97 81.38
  A 0.47 0.47 0.0 0 1 55.44 81.85
  L 55.45 98.02
  A 0.47 0.47 0.0 0 0 55.92 98.49
  L 66.35 98.48
  A 0.47 0.47 0.0 0 0 66.82 98.01
  L 66.83 81.85
  A 0.47 0.47 0.0 0 1 67.30 81.38
  L 78.63 81.40
  A 0.47 0.47 0.0 0 1 79.10 81.87
  L 79.10 98.01
  A 0.47 0.47 0.0 0 0 79.57 98.48
  L 89.97 98.48
  A 0.47 0.47 0.0 0 0 90.44 98.01
  L 90.44 52.72
  A 0.47 0.47 0.0 0 0 89.97 52.25
  L 20.03 52.25
  A 0.47 0.47 0.0 0 1 19.56 51.78
  L 19.57 48.80
  A 0.47 0.47 0.0 0 1 20.04 48.33
  L 89.97 48.32
  A 0.47 0.47 0.0 0 0 90.44 47.85
  L 90.44 19.66
  A 0.47 0.47 0.0 0 0 89.97 19.19
  L 20.03 19.19
  Z"
/>
<path fill="#000000" d="
  M 20.03 19.19
  L 89.97 19.19
  A 0.47 0.47 0.0 0 1 90.44 19.66
  L 90.44 47.85
  A 0.47 0.47 0.0 0 1 89.97 48.32
  L 20.04 48.33
  A 0.47 0.47 0.0 0 0 19.57 48.80
  L 19.56 51.78
  A 0.47 0.47 0.0 0 0 20.03 52.25
  L 89.97 52.25
  A 0.47 0.47 0.0 0 1 90.44 52.72
  L 90.44 98.01
  A 0.47 0.47 0.0 0 1 89.97 98.48
  L 79.57 98.48
  A 0.47 0.47 0.0 0 1 79.10 98.01
  L 79.10 81.87
  A 0.47 0.47 0.0 0 0 78.63 81.40
  L 67.30 81.38
  A 0.47 0.47 0.0 0 0 66.83 81.85
  L 66.82 98.01
  A 0.47 0.47 0.0 0 1 66.35 98.48
  L 55.92 98.49
  A 0.47 0.47 0.0 0 1 55.45 98.02
  L 55.44 81.85
  A 0.47 0.47 0.0 0 0 54.97 81.38
  L 43.51 81.39
  A 0.47 0.47 0.0 0 0 43.04 81.86
  L 43.04 98.01
  A 0.47 0.47 0.0 0 1 42.57 98.48
  L 32.41 98.48
  A 0.47 0.47 0.0 0 1 31.94 98.01
  L 31.95 81.87
  A 0.47 0.47 0.0 0 0 31.48 81.40
  L 20.03 81.37
  A 0.47 0.47 0.0 0 0 19.56 81.84
  L 19.55 98.01
  A 0.47 0.47 0.0 0 1 19.08 98.48
  L 8.65 98.48
  A 0.47 0.47 0.0 0 1 8.18 98.01
  L 8.19 69.42
  A 0.47 0.47 0.0 0 1 8.66 68.95
  L 78.64 68.96
  A 0.47 0.47 0.0 0 0 79.11 68.49
  L 79.11 65.39
  A 0.47 0.47 0.0 0 0 78.64 64.92
  L 8.66 64.92
  A 0.47 0.47 0.0 0 1 8.19 64.45
  L 8.18 36.25
  A 0.47 0.47 0.0 0 1 8.65 35.78
  L 78.64 35.79
  A 0.47 0.47 0.0 0 0 79.11 35.32
  L 79.11 32.35
  A 0.47 0.47 0.0 0 0 78.64 31.88
  L 8.66 31.88
  A 0.47 0.47 0.0 0 1 8.19 31.41
  L 8.18 3.23
  A 0.47 0.47 0.0 0 1 8.65 2.76
  L 89.97 2.76
  A 0.47 0.47 0.0 0 1 90.44 3.23
  L 90.43 14.77
  A 0.47 0.47 0.0 0 1 89.96 15.24
  L 20.05 15.23
  A 0.47 0.47 0.0 0 0 19.58 15.70
  L 19.56 18.72
  A 0.47 0.47 0.0 0 0 20.03 19.19
  Z"
/>
</svg>
