<?xml version="1.0" encoding="UTF-8" standalone="no"?>
<!DOCTYPE svg PUBLIC "-//W3C//DTD SVG 1.1//EN" "http://www.w3.org/Graphics/SVG/1.1/DTD/svg11.dtd">
<svg xmlns="http://www.w3.org/2000/svg" version="1.1" viewBox="0.00 0.00 100.00 100.00">
<path fill="#000000" d="
  M 49.63 84.76
  C 39.31 100.61 24.06 98.58 15.72 82.52
  C 5.64 63.12 5.71 36.64 15.90 17.34
  C 20.24 9.12 28.62 1.29 38.78 5.34
  C 43.89 7.38 46.58 11.07 49.77 15.41
  Q 50.17 15.95 50.49 15.37
  C 55.48 6.37 65.59 0.58 75.15 6.86
  C 90.52 16.96 93.36 45.84 90.94 62.03
  C 88.79 76.46 77.81 105.05 57.53 92.77
  Q 54.41 90.89 50.42 84.76
  Q 50.02 84.15 49.63 84.76
  Z
  M 33.07 49.41
  Q 40.13 43.74 42.72 37.26
  C 45.70 29.78 44.70 20.12 38.65 14.36
  C 32.62 8.63 27.79 13.91 25.70 19.49
  Q 15.53 46.63 23.58 74.54
  Q 25.29 80.49 27.85 84.38
  C 34.02 93.75 42.00 83.34 43.62 77.02
  C 46.53 65.65 40.66 57.07 33.04 50.27
  A 0.56 0.56 0.0 0 1 33.07 49.41
  Z
  M 67.49 50.25
  C 62.31 54.59 57.44 60.90 56.41 67.57
  C 55.39 74.18 57.16 81.63 62.43 86.07
  C 68.81 91.44 73.14 84.81 75.10 79.38
  Q 85.62 50.30 75.28 21.16
  C 73.10 15.03 67.96 7.24 61.25 14.82
  C 51.21 26.16 56.93 41.07 67.48 49.50
  A 0.49 0.48 -46.3 0 1 67.49 50.25
  Z"
/>
</svg>
