<?xml version="1.0" encoding="UTF-8" standalone="no"?>
<!DOCTYPE svg PUBLIC "-//W3C//DTD SVG 1.1//EN" "http://www.w3.org/Graphics/SVG/1.1/DTD/svg11.dtd">
<svg xmlns="http://www.w3.org/2000/svg" version="1.1" viewBox="0.00 0.00 100.00 100.00">
<path fill="#000000" d="
  M 47.26 0.00
  L 52.84 0.00
  C 78.78 2.68 98.10 21.00 100.00 47.33
  L 100.00 52.81
  C 97.54 78.68 78.92 97.97 52.92 100.00
  L 46.92 100.00
  C 21.15 97.50 2.03 78.69 0.00 52.92
  L 0.00 46.95
  C 2.20 20.71 21.29 2.61 47.26 0.00
  Z
  M 91.40 50.01
  A 41.38 41.38 0.0 0 0 50.02 8.63
  A 41.38 41.38 0.0 0 0 8.64 50.01
  A 41.38 41.38 0.0 0 0 50.02 91.39
  A 41.38 41.38 0.0 0 0 91.40 50.01
  Z"
/>
<path fill="#000000" d="
  M 83.33 50.01
  A 33.31 33.31 0.0 0 1 50.02 83.32
  A 33.31 33.31 0.0 0 1 16.71 50.01
  A 33.31 33.31 0.0 0 1 50.02 16.70
  A 33.31 33.31 0.0 0 1 83.33 50.01
  Z
  M 74.76 50.01
  A 24.76 24.76 0.0 0 0 50.00 25.25
  A 24.76 24.76 0.0 0 0 25.24 50.01
  A 24.76 24.76 0.0 0 0 50.00 74.77
  A 24.76 24.76 0.0 0 0 74.76 50.01
  Z"
/>
<path fill="#000000" d="
  M 66.69 50.00
  A 16.70 16.70 0.0 0 1 49.99 66.70
  A 16.70 16.70 0.0 0 1 33.29 50.00
  A 16.70 16.70 0.0 0 1 49.99 33.30
  A 16.70 16.70 0.0 0 1 66.69 50.00
  Z
  M 58.14 50.01
  A 8.15 8.15 0.0 0 0 49.99 41.86
  A 8.15 8.15 0.0 0 0 41.84 50.01
  A 8.15 8.15 0.0 0 0 49.99 58.16
  A 8.15 8.15 0.0 0 0 58.14 50.01
  Z"
/>
</svg>
