<?xml version="1.0" encoding="UTF-8" standalone="no"?>
<!DOCTYPE svg PUBLIC "-//W3C//DTD SVG 1.1//EN" "http://www.w3.org/Graphics/SVG/1.1/DTD/svg11.dtd">
<svg xmlns="http://www.w3.org/2000/svg" version="1.1" viewBox="0.00 0.00 100.00 100.00">
<g stroke-width="2.00" fill="none" stroke-linecap="butt">
<path stroke="#808080" vector-effect="non-scaling-stroke" d="
  M 54.65 4.55
  C 51.53 -2.99 43.75 3.73 45.25 9.26
  Q 47.49 17.54 49.80 25.18
  Q 50.28 26.77 50.79 25.19
  Q 52.92 18.49 55.02 11.26
  Q 56.01 7.82 54.65 4.55"
/>
<path stroke="#808080" vector-effect="non-scaling-stroke" d="
  M 38.05 3.67
  C 32.42 1.81 31.03 9.67 33.30 13.20
  Q 37.78 20.16 42.37 26.52
  Q 43.35 27.88 43.27 26.21
  Q 43.01 20.14 42.92 13.64
  C 42.86 9.35 42.17 5.03 38.05 3.67"
/>
<path stroke="#808080" vector-effect="non-scaling-stroke" d="
  M 58.53 26.33
  C 61.08 22.65 74.21 7.45 65.55 3.80
  C 61.29 2.00 58.23 7.18 58.00 10.76
  Q 57.49 18.73 57.34 25.95
  Q 57.29 28.12 58.53 26.33"
/>
<path stroke="#808080" vector-effect="non-scaling-stroke" d="
  M 20.66 16.80
  Q 21.90 19.57 24.31 21.45
  Q 30.05 25.93 35.83 30.31
  A 0.45 0.43 55.8 0 0 36.20 30.39
  Q 36.68 30.27 36.50 29.76
  C 34.63 24.46 32.53 15.11 28.45 11.34
  C 24.12 7.35 18.20 11.31 20.66 16.80"
/>
<path stroke="#808080" vector-effect="non-scaling-stroke" d="
  M 64.37 28.88
  Q 63.99 29.52 64.18 29.95
  Q 64.48 30.60 65.06 30.17
  C 69.29 27.00 79.69 20.52 80.55 15.51
  C 81.36 10.83 77.06 8.41 73.20 10.69
  C 69.15 13.09 67.14 21.21 64.84 27.96
  Q 64.72 28.29 64.37 28.88"
/>
<path stroke="#808080" vector-effect="non-scaling-stroke" d="
  M 10.95 21.63
  C 6.94 29.73 25.58 33.97 30.00 35.57
  Q 31.81 36.23 30.68 34.66
  C 27.61 30.39 20.70 19.40 15.25 19.21
  Q 12.21 19.10 10.95 21.63"
/>
<path stroke="#808080" vector-effect="non-scaling-stroke" d="
  M 71.36 35.51
  Q 77.92 33.10 84.43 30.59
  Q 87.77 29.31 89.33 26.83
  C 91.60 23.24 89.00 18.32 84.51 19.54
  C 78.67 21.11 73.21 30.34 69.76 34.91
  Q 68.90 36.06 70.32 35.83
  Q 70.62 35.78 71.36 35.51"
/>
<path stroke="#808080" vector-effect="non-scaling-stroke" d="
  M 73.33 49.66
  A 22.94 22.94 0.0 0 0 50.39 26.72
  A 22.94 22.94 0.0 0 0 27.45 49.66
  A 22.94 22.94 0.0 0 0 50.39 72.60
  A 22.94 22.94 0.0 0 0 73.33 49.66"
/>
<path stroke="#808080" vector-effect="non-scaling-stroke" d="
  M 26.62 42.77
  Q 27.29 42.89 27.67 42.39
  A 0.47 0.47 0.0 0 0 27.56 41.71
  Q 21.59 37.68 15.64 33.64
  C 4.06 25.77 -0.75 40.91 11.27 41.78
  C 16.20 42.14 21.83 41.97 26.62 42.77"
/>
<path stroke="#808080" vector-effect="non-scaling-stroke" d="
  M 96.08 37.80
  C 97.83 33.57 93.34 30.70 89.79 31.56
  C 84.64 32.82 78.48 38.15 74.02 41.13
  Q 71.81 42.61 74.47 42.58
  Q 81.30 42.51 89.24 42.01
  Q 94.48 41.68 96.08 37.80"
/>
<path stroke="#808080" vector-effect="non-scaling-stroke" d="
  M 5.10 45.32
  C -2.09 48.53 4.06 55.98 10.22 54.45
  Q 18.17 52.47 25.64 50.23
  Q 27.49 49.67 25.66 49.07
  C 20.58 47.40 10.18 43.05 5.10 45.32"
/>
<path stroke="#808080" vector-effect="non-scaling-stroke" d="
  M 90.35 54.47
  C 95.69 55.81 102.31 50.34 96.56 45.89
  C 92.15 42.49 79.46 47.68 74.40 49.23
  A 0.34 0.33 -31.4 0 0 74.26 49.79
  Q 74.39 49.91 74.69 50.01
  Q 82.45 52.50 90.35 54.47"
/>
<path stroke="#808080" vector-effect="non-scaling-stroke" d="
  M 13.18 66.61
  Q 20.68 62.44 27.12 57.68
  Q 28.63 56.57 26.76 56.64
  Q 19.21 56.93 11.00 57.10
  C 8.12 57.16 2.07 61.46 4.51 65.04
  Q 7.67 69.67 13.18 66.61"
/>
<path stroke="#808080" vector-effect="non-scaling-stroke" d="
  M 86.71 66.54
  C 96.66 72.61 101.18 57.77 88.75 57.31
  Q 81.06 57.02 74.20 56.66
  Q 72.04 56.55 73.78 57.84
  Q 79.77 62.30 86.71 66.54"
/>
<path stroke="#808080" vector-effect="non-scaling-stroke" d="
  M 10.99 77.48
  C 16.34 86.81 28.17 67.89 30.54 64.76
  Q 31.92 62.94 29.77 63.71
  C 25.85 65.13 6.46 69.59 10.99 77.48"
/>
<path stroke="#808080" vector-effect="non-scaling-stroke" d="
  M 88.07 70.92
  C 83.94 67.32 75.57 65.43 70.26 63.43
  A 0.50 0.50 0.0 0 0 69.59 63.84
  Q 69.57 64.08 69.85 64.45
  C 73.24 68.90 77.73 76.52 82.57 79.16
  C 88.57 82.44 92.93 75.15 88.07 70.92"
/>
<path stroke="#808080" vector-effect="non-scaling-stroke" d="
  M 27.66 88.38
  C 32.19 85.14 34.51 75.04 36.23 70.05
  Q 36.90 68.09 35.24 69.32
  C 31.37 72.17 21.70 78.20 20.30 83.00
  C 18.89 87.83 23.49 91.37 27.66 88.38"
/>
<path stroke="#808080" vector-effect="non-scaling-stroke" d="
  M 64.50 70.35
  C 66.09 75.17 68.42 85.06 72.85 88.39
  C 77.85 92.14 82.57 86.39 79.62 81.60
  C 76.72 76.89 69.99 72.95 65.73 69.50
  Q 63.68 67.85 64.50 70.35"
/>
<path stroke="#808080" vector-effect="non-scaling-stroke" d="
  M 34.92 95.35
  Q 36.48 96.24 37.78 95.73
  C 41.82 94.13 43.10 89.58 43.00 85.50
  Q 42.83 78.86 43.29 72.69
  Q 43.40 71.18 42.52 72.41
  Q 38.27 78.31 33.93 84.93
  C 31.74 88.26 30.87 93.04 34.92 95.35"
/>
<path stroke="#808080" vector-effect="non-scaling-stroke" d="
  M 57.27 72.89
  C 57.49 78.66 56.29 90.59 60.76 94.48
  C 64.17 97.44 68.62 94.79 68.50 90.73
  C 68.33 85.13 61.42 77.19 58.28 72.56
  Q 57.20 70.97 57.27 72.89"
/>
<path stroke="#808080" vector-effect="non-scaling-stroke" d="
  M 45.60 94.06
  C 46.99 98.28 52.36 99.67 54.46 95.19
  C 56.92 89.93 52.34 79.05 50.61 73.59
  Q 50.44 73.05 49.95 73.52
  A 0.39 0.34 80.0 0 0 49.84 73.70
  C 48.39 78.66 44.04 89.27 45.60 94.06"
/>
<path stroke="#808080" vector-effect="non-scaling-stroke" d="
  M 67.04 49.64
  A 16.65 16.65 0.0 0 0 50.39 32.99
  A 16.65 16.65 0.0 0 0 33.74 49.64
  A 16.65 16.65 0.0 0 0 50.39 66.29
  A 16.65 16.65 0.0 0 0 67.04 49.64"
/>
<path stroke="#808080" vector-effect="non-scaling-stroke" d="
  M 57.04 49.67
  A 6.66 6.66 0.0 0 0 50.38 43.01
  A 6.66 6.66 0.0 0 0 43.72 49.67
  A 6.66 6.66 0.0 0 0 50.38 56.33
  A 6.66 6.66 0.0 0 0 57.04 49.67"
/>
</g>
<path fill="#ffffff" d="
  M 0.00 0.00
  L 100.00 0.00
  L 100.00 100.00
  L 0.00 100.00
  L 0.00 0.00
  Z
  M 54.65 4.55
  C 51.53 -2.99 43.75 3.73 45.25 9.26
  Q 47.49 17.54 49.80 25.18
  Q 50.28 26.77 50.79 25.19
  Q 52.92 18.49 55.02 11.26
  Q 56.01 7.82 54.65 4.55
  Z
  M 38.05 3.67
  C 32.42 1.81 31.03 9.67 33.30 13.20
  Q 37.78 20.16 42.37 26.52
  Q 43.35 27.88 43.27 26.21
  Q 43.01 20.14 42.92 13.64
  C 42.86 9.35 42.17 5.03 38.05 3.67
  Z
  M 58.53 26.33
  C 61.08 22.65 74.21 7.45 65.55 3.80
  C 61.29 2.00 58.23 7.18 58.00 10.76
  Q 57.49 18.73 57.34 25.95
  Q 57.29 28.12 58.53 26.33
  Z
  M 20.66 16.80
  Q 21.90 19.57 24.31 21.45
  Q 30.05 25.93 35.83 30.31
  A 0.45 0.43 55.8 0 0 36.20 30.39
  Q 36.68 30.27 36.50 29.76
  C 34.63 24.46 32.53 15.11 28.45 11.34
  C 24.12 7.35 18.20 11.31 20.66 16.80
  Z
  M 64.37 28.88
  Q 63.99 29.52 64.18 29.95
  Q 64.48 30.60 65.06 30.17
  C 69.29 27.00 79.69 20.52 80.55 15.51
  C 81.36 10.83 77.06 8.41 73.20 10.69
  C 69.15 13.09 67.14 21.21 64.84 27.96
  Q 64.72 28.29 64.37 28.88
  Z
  M 10.95 21.63
  C 6.94 29.73 25.58 33.97 30.00 35.57
  Q 31.81 36.23 30.68 34.66
  C 27.61 30.39 20.70 19.40 15.25 19.21
  Q 12.21 19.10 10.95 21.63
  Z
  M 71.36 35.51
  Q 77.92 33.10 84.43 30.59
  Q 87.77 29.31 89.33 26.83
  C 91.60 23.24 89.00 18.32 84.51 19.54
  C 78.67 21.11 73.21 30.34 69.76 34.91
  Q 68.90 36.06 70.32 35.83
  Q 70.62 35.78 71.36 35.51
  Z
  M 73.33 49.66
  A 22.94 22.94 0.0 0 0 50.39 26.72
  A 22.94 22.94 0.0 0 0 27.45 49.66
  A 22.94 22.94 0.0 0 0 50.39 72.60
  A 22.94 22.94 0.0 0 0 73.33 49.66
  Z
  M 26.62 42.77
  Q 27.29 42.89 27.67 42.39
  A 0.47 0.47 0.0 0 0 27.56 41.71
  Q 21.59 37.68 15.64 33.64
  C 4.06 25.77 -0.75 40.91 11.27 41.78
  C 16.20 42.14 21.83 41.97 26.62 42.77
  Z
  M 96.08 37.80
  C 97.83 33.57 93.34 30.70 89.79 31.56
  C 84.64 32.82 78.48 38.15 74.02 41.13
  Q 71.81 42.61 74.47 42.58
  Q 81.30 42.51 89.24 42.01
  Q 94.48 41.68 96.08 37.80
  Z
  M 5.10 45.32
  C -2.09 48.53 4.06 55.98 10.22 54.45
  Q 18.17 52.47 25.64 50.23
  Q 27.49 49.67 25.66 49.07
  C 20.58 47.40 10.18 43.05 5.10 45.32
  Z
  M 90.35 54.47
  C 95.69 55.81 102.31 50.34 96.56 45.89
  C 92.15 42.49 79.46 47.68 74.40 49.23
  A 0.34 0.33 -31.4 0 0 74.26 49.79
  Q 74.39 49.91 74.69 50.01
  Q 82.45 52.50 90.35 54.47
  Z
  M 13.18 66.61
  Q 20.68 62.44 27.12 57.68
  Q 28.63 56.57 26.76 56.64
  Q 19.21 56.93 11.00 57.10
  C 8.12 57.16 2.07 61.46 4.51 65.04
  Q 7.67 69.67 13.18 66.61
  Z
  M 86.71 66.54
  C 96.66 72.61 101.18 57.77 88.75 57.31
  Q 81.06 57.02 74.20 56.66
  Q 72.04 56.55 73.78 57.84
  Q 79.77 62.30 86.71 66.54
  Z
  M 10.99 77.48
  C 16.34 86.81 28.17 67.89 30.54 64.76
  Q 31.92 62.94 29.77 63.71
  C 25.85 65.13 6.46 69.59 10.99 77.48
  Z
  M 88.07 70.92
  C 83.94 67.32 75.57 65.43 70.26 63.43
  A 0.50 0.50 0.0 0 0 69.59 63.84
  Q 69.57 64.08 69.85 64.45
  C 73.24 68.90 77.73 76.52 82.57 79.16
  C 88.57 82.44 92.93 75.15 88.07 70.92
  Z
  M 27.66 88.38
  C 32.19 85.14 34.51 75.04 36.23 70.05
  Q 36.90 68.09 35.24 69.32
  C 31.37 72.17 21.70 78.20 20.30 83.00
  C 18.89 87.83 23.49 91.37 27.66 88.38
  Z
  M 64.50 70.35
  C 66.09 75.17 68.42 85.06 72.85 88.39
  C 77.85 92.14 82.57 86.39 79.62 81.60
  C 76.72 76.89 69.99 72.95 65.73 69.50
  Q 63.68 67.85 64.50 70.35
  Z
  M 34.92 95.35
  Q 36.48 96.24 37.78 95.73
  C 41.82 94.13 43.10 89.58 43.00 85.50
  Q 42.83 78.86 43.29 72.69
  Q 43.40 71.18 42.52 72.41
  Q 38.27 78.31 33.93 84.93
  C 31.74 88.26 30.87 93.04 34.92 95.35
  Z
  M 57.27 72.89
  C 57.49 78.66 56.29 90.59 60.76 94.48
  C 64.17 97.44 68.62 94.79 68.50 90.73
  C 68.33 85.13 61.42 77.19 58.28 72.56
  Q 57.20 70.97 57.27 72.89
  Z
  M 45.60 94.06
  C 46.99 98.28 52.36 99.67 54.46 95.19
  C 56.92 89.93 52.34 79.05 50.61 73.59
  Q 50.44 73.05 49.95 73.52
  A 0.39 0.34 80.0 0 0 49.84 73.70
  C 48.39 78.66 44.04 89.27 45.60 94.06
  Z"
/>
<path fill="#000000" d="
  M 45.25 9.26
  C 43.75 3.73 51.53 -2.99 54.65 4.55
  Q 56.01 7.82 55.02 11.26
  Q 52.92 18.49 50.79 25.19
  Q 50.28 26.77 49.80 25.18
  Q 47.49 17.54 45.25 9.26
  Z"
/>
<path fill="#000000" d="
  M 38.05 3.67
  C 42.17 5.03 42.86 9.35 42.92 13.64
  Q 43.01 20.14 43.27 26.21
  Q 43.35 27.88 42.37 26.52
  Q 37.78 20.16 33.30 13.20
  C 31.03 9.67 32.42 1.81 38.05 3.67
  Z"
/>
<path fill="#000000" d="
  M 65.55 3.80
  C 74.21 7.45 61.08 22.65 58.53 26.33
  Q 57.29 28.12 57.34 25.95
  Q 57.49 18.73 58.00 10.76
  C 58.23 7.18 61.29 2.00 65.55 3.80
  Z"
/>
<path fill="#000000" d="
  M 20.66 16.80
  C 18.20 11.31 24.12 7.35 28.45 11.34
  C 32.53 15.11 34.63 24.46 36.50 29.76
  Q 36.68 30.27 36.20 30.39
  A 0.45 0.43 55.8 0 1 35.83 30.31
  Q 30.05 25.93 24.31 21.45
  Q 21.90 19.57 20.66 16.80
  Z"
/>
<path fill="#000000" d="
  M 64.84 27.96
  C 67.14 21.21 69.15 13.09 73.20 10.69
  C 77.06 8.41 81.36 10.83 80.55 15.51
  C 79.69 20.52 69.29 27.00 65.06 30.17
  Q 64.48 30.60 64.18 29.95
  Q 63.99 29.52 64.37 28.88
  Q 64.72 28.29 64.84 27.96
  Z"
/>
<path fill="#000000" d="
  M 30.00 35.57
  C 25.58 33.97 6.94 29.73 10.95 21.63
  Q 12.21 19.10 15.25 19.21
  C 20.70 19.40 27.61 30.39 30.68 34.66
  Q 31.81 36.23 30.00 35.57
  Z"
/>
<path fill="#000000" d="
  M 71.36 35.51
  Q 70.62 35.78 70.32 35.83
  Q 68.90 36.06 69.76 34.91
  C 73.21 30.34 78.67 21.11 84.51 19.54
  C 89.00 18.32 91.60 23.24 89.33 26.83
  Q 87.77 29.31 84.43 30.59
  Q 77.92 33.10 71.36 35.51
  Z"
/>
<path fill="#000000" d="
  M 73.33 49.66
  A 22.94 22.94 0.0 0 1 50.39 72.60
  A 22.94 22.94 0.0 0 1 27.45 49.66
  A 22.94 22.94 0.0 0 1 50.39 26.72
  A 22.94 22.94 0.0 0 1 73.33 49.66
  Z
  M 67.04 49.64
  A 16.65 16.65 0.0 0 0 50.39 32.99
  A 16.65 16.65 0.0 0 0 33.74 49.64
  A 16.65 16.65 0.0 0 0 50.39 66.29
  A 16.65 16.65 0.0 0 0 67.04 49.64
  Z"
/>
<path fill="#000000" d="
  M 26.62 42.77
  C 21.83 41.97 16.20 42.14 11.27 41.78
  C -0.75 40.91 4.06 25.77 15.64 33.64
  Q 21.59 37.68 27.56 41.71
  A 0.47 0.47 0.0 0 1 27.67 42.39
  Q 27.29 42.89 26.62 42.77
  Z"
/>
<path fill="#000000" d="
  M 96.08 37.80
  Q 94.48 41.68 89.24 42.01
  Q 81.30 42.51 74.47 42.58
  Q 71.81 42.61 74.02 41.13
  C 78.48 38.15 84.64 32.82 89.79 31.56
  C 93.34 30.70 97.83 33.57 96.08 37.80
  Z"
/>
<path fill="#ffffff" d="
  M 67.04 49.64
  A 16.65 16.65 0.0 0 1 50.39 66.29
  A 16.65 16.65 0.0 0 1 33.74 49.64
  A 16.65 16.65 0.0 0 1 50.39 32.99
  A 16.65 16.65 0.0 0 1 67.04 49.64
  Z
  M 57.04 49.67
  A 6.66 6.66 0.0 0 0 50.38 43.01
  A 6.66 6.66 0.0 0 0 43.72 49.67
  A 6.66 6.66 0.0 0 0 50.38 56.33
  A 6.66 6.66 0.0 0 0 57.04 49.67
  Z"
/>
<circle fill="#000000" cx="50.38" cy="49.67" r="6.66"/>
<path fill="#000000" d="
  M 10.22 54.45
  C 4.06 55.98 -2.09 48.53 5.10 45.32
  C 10.18 43.05 20.58 47.40 25.66 49.07
  Q 27.49 49.67 25.64 50.23
  Q 18.17 52.47 10.22 54.45
  Z"
/>
<path fill="#000000" d="
  M 96.56 45.89
  C 102.31 50.34 95.69 55.81 90.35 54.47
  Q 82.45 52.50 74.69 50.01
  Q 74.39 49.91 74.26 49.79
  A 0.34 0.33 -31.4 0 1 74.40 49.23
  C 79.46 47.68 92.15 42.49 96.56 45.89
  Z"
/>
<path fill="#000000" d="
  M 13.18 66.61
  Q 7.67 69.67 4.51 65.04
  C 2.07 61.46 8.12 57.16 11.00 57.10
  Q 19.21 56.93 26.76 56.64
  Q 28.63 56.57 27.12 57.68
  Q 20.68 62.44 13.18 66.61
  Z"
/>
<path fill="#000000" d="
  M 86.71 66.54
  Q 79.77 62.30 73.78 57.84
  Q 72.04 56.55 74.20 56.66
  Q 81.06 57.02 88.75 57.31
  C 101.18 57.77 96.66 72.61 86.71 66.54
  Z"
/>
<path fill="#000000" d="
  M 30.54 64.76
  C 28.17 67.89 16.34 86.81 10.99 77.48
  C 6.46 69.59 25.85 65.13 29.77 63.71
  Q 31.92 62.94 30.54 64.76
  Z"
/>
<path fill="#000000" d="
  M 70.26 63.43
  C 75.57 65.43 83.94 67.32 88.07 70.92
  C 92.93 75.15 88.57 82.44 82.57 79.16
  C 77.73 76.52 73.24 68.90 69.85 64.45
  Q 69.57 64.08 69.59 63.84
  A 0.50 0.50 0.0 0 1 70.26 63.43
  Z"
/>
<path fill="#000000" d="
  M 36.23 70.05
  C 34.51 75.04 32.19 85.14 27.66 88.38
  C 23.49 91.37 18.89 87.83 20.30 83.00
  C 21.70 78.20 31.37 72.17 35.24 69.32
  Q 36.90 68.09 36.23 70.05
  Z"
/>
<path fill="#000000" d="
  M 72.85 88.39
  C 68.42 85.06 66.09 75.17 64.50 70.35
  Q 63.68 67.85 65.73 69.50
  C 69.99 72.95 76.72 76.89 79.62 81.60
  C 82.57 86.39 77.85 92.14 72.85 88.39
  Z"
/>
<path fill="#000000" d="
  M 34.92 95.35
  C 30.87 93.04 31.74 88.26 33.93 84.93
  Q 38.27 78.31 42.52 72.41
  Q 43.40 71.18 43.29 72.69
  Q 42.83 78.86 43.00 85.50
  C 43.10 89.58 41.82 94.13 37.78 95.73
  Q 36.48 96.24 34.92 95.35
  Z"
/>
<path fill="#000000" d="
  M 60.76 94.48
  C 56.29 90.59 57.49 78.66 57.27 72.89
  Q 57.20 70.97 58.28 72.56
  C 61.42 77.19 68.33 85.13 68.50 90.73
  C 68.62 94.79 64.17 97.44 60.76 94.48
  Z"
/>
<path fill="#000000" d="
  M 45.60 94.06
  C 44.04 89.27 48.39 78.66 49.84 73.70
  A 0.39 0.34 80.0 0 1 49.95 73.52
  Q 50.44 73.05 50.61 73.59
  C 52.34 79.05 56.92 89.93 54.46 95.19
  C 52.36 99.67 46.99 98.28 45.60 94.06
  Z"
/>
</svg>
