<?xml version="1.0" encoding="UTF-8" standalone="no"?>
<!DOCTYPE svg PUBLIC "-//W3C//DTD SVG 1.1//EN" "http://www.w3.org/Graphics/SVG/1.1/DTD/svg11.dtd">
<svg xmlns="http://www.w3.org/2000/svg" version="1.1" viewBox="0.00 0.00 100.00 100.00">
<g stroke-width="2.00" fill="none" stroke-linecap="butt">
<path stroke="#808080" vector-effect="non-scaling-stroke" d="
  M 67.91 39.30
  C 66.93 34.90 76.60 22.21 80.02 17.88
  Q 80.14 17.73 80.00 17.60
  Q 79.91 17.52 79.81 17.42
  Q 79.59 17.19 79.33 17.38
  Q 71.92 22.97 64.49 28.48
  C 59.03 32.52 55.75 28.43 54.75 23.25
  Q 53.35 16.06 52.46 8.06
  A 0.69 0.68 -2.0 0 0 51.81 7.46
  L 51.51 7.44
  A 0.30 0.30 0.0 0 0 51.20 7.73
  C 51.08 12.37 49.75 31.66 41.75 29.69
  C 34.72 27.95 27.44 21.25 21.76 16.89
  Q 20.61 16.02 21.08 17.33
  Q 21.26 17.84 21.99 18.74
  Q 27.11 25.08 31.66 31.83
  C 33.81 35.02 37.34 40.64 31.20 42.41
  Q 21.16 45.31 10.05 46.29
  Q 7.75 46.50 9.75 47.65
  Q 9.82 47.69 10.99 47.67
  C 15.89 47.58 35.72 47.95 34.11 56.44
  C 32.98 62.45 25.06 69.14 20.98 73.56
  A 0.41 0.40 22.2 0 0 21.27 74.24
  Q 21.56 74.24 21.98 73.97
  Q 26.46 71.04 31.09 68.35
  C 39.89 63.23 47.77 60.15 50.10 73.14
  Q 51.38 80.26 52.30 87.23
  Q 52.36 87.66 52.79 87.63
  L 53.05 87.62
  Q 53.72 87.57 53.73 86.90
  Q 53.78 78.14 55.00 69.26
  C 56.14 60.98 62.07 62.99 66.99 66.23
  Q 74.04 70.86 78.28 73.91
  Q 84.63 78.49 79.48 72.59
  Q 74.93 67.39 69.92 60.12
  C 64.77 52.63 70.65 49.94 77.13 49.15
  Q 84.70 48.24 91.57 46.80
  Q 93.51 46.39 91.67 45.64
  Q 91.20 45.45 89.97 45.37
  C 85.84 45.10 68.90 43.76 67.91 39.30"
/>
<path stroke="#808080" vector-effect="non-scaling-stroke" d="
  M 51.7592 58.3455
  A 12.26 10.74 85.7 0 0 61.5498 45.3147
  A 12.26 10.74 85.7 0 0 49.9208 33.8945
  A 12.26 10.74 85.7 0 0 40.1302 46.9253
  A 12.26 10.74 85.7 0 0 51.7592 58.3455"
/>
</g>
<path fill="#ffffff" d="
  M 0.00 0.00
  L 100.00 0.00
  L 100.00 100.00
  L 0.00 100.00
  L 0.00 0.00
  Z
  M 67.91 39.30
  C 66.93 34.90 76.60 22.21 80.02 17.88
  Q 80.14 17.73 80.00 17.60
  Q 79.91 17.52 79.81 17.42
  Q 79.59 17.19 79.33 17.38
  Q 71.92 22.97 64.49 28.48
  C 59.03 32.52 55.75 28.43 54.75 23.25
  Q 53.35 16.06 52.46 8.06
  A 0.69 0.68 -2.0 0 0 51.81 7.46
  L 51.51 7.44
  A 0.30 0.30 0.0 0 0 51.20 7.73
  C 51.08 12.37 49.75 31.66 41.75 29.69
  C 34.72 27.95 27.44 21.25 21.76 16.89
  Q 20.61 16.02 21.08 17.33
  Q 21.26 17.84 21.99 18.74
  Q 27.11 25.08 31.66 31.83
  C 33.81 35.02 37.34 40.64 31.20 42.41
  Q 21.16 45.31 10.05 46.29
  Q 7.75 46.50 9.75 47.65
  Q 9.82 47.69 10.99 47.67
  C 15.89 47.58 35.72 47.95 34.11 56.44
  C 32.98 62.45 25.06 69.14 20.98 73.56
  A 0.41 0.40 22.2 0 0 21.27 74.24
  Q 21.56 74.24 21.98 73.97
  Q 26.46 71.04 31.09 68.35
  C 39.89 63.23 47.77 60.15 50.10 73.14
  Q 51.38 80.26 52.30 87.23
  Q 52.36 87.66 52.79 87.63
  L 53.05 87.62
  Q 53.72 87.57 53.73 86.90
  Q 53.78 78.14 55.00 69.26
  C 56.14 60.98 62.07 62.99 66.99 66.23
  Q 74.04 70.86 78.28 73.91
  Q 84.63 78.49 79.48 72.59
  Q 74.93 67.39 69.92 60.12
  C 64.77 52.63 70.65 49.94 77.13 49.15
  Q 84.70 48.24 91.57 46.80
  Q 93.51 46.39 91.67 45.64
  Q 91.20 45.45 89.97 45.37
  C 85.84 45.10 68.90 43.76 67.91 39.30
  Z"
/>
<path fill="#000000" d="
  M 67.91 39.30
  C 68.90 43.76 85.84 45.10 89.97 45.37
  Q 91.20 45.45 91.67 45.64
  Q 93.51 46.39 91.57 46.80
  Q 84.70 48.24 77.13 49.15
  C 70.65 49.94 64.77 52.63 69.92 60.12
  Q 74.93 67.39 79.48 72.59
  Q 84.63 78.49 78.28 73.91
  Q 74.04 70.86 66.99 66.23
  C 62.07 62.99 56.14 60.98 55.00 69.26
  Q 53.78 78.14 53.73 86.90
  Q 53.72 87.57 53.05 87.62
  L 52.79 87.63
  Q 52.36 87.66 52.30 87.23
  Q 51.38 80.26 50.10 73.14
  C 47.77 60.15 39.89 63.23 31.09 68.35
  Q 26.46 71.04 21.98 73.97
  Q 21.56 74.24 21.27 74.24
  A 0.41 0.40 22.2 0 1 20.98 73.56
  C 25.06 69.14 32.98 62.45 34.11 56.44
  C 35.72 47.95 15.89 47.58 10.99 47.67
  Q 9.82 47.69 9.75 47.65
  Q 7.75 46.50 10.05 46.29
  Q 21.16 45.31 31.20 42.41
  C 37.34 40.64 33.81 35.02 31.66 31.83
  Q 27.11 25.08 21.99 18.74
  Q 21.26 17.84 21.08 17.33
  Q 20.61 16.02 21.76 16.89
  C 27.44 21.25 34.72 27.95 41.75 29.69
  C 49.75 31.66 51.08 12.37 51.20 7.73
  A 0.30 0.30 0.0 0 1 51.51 7.44
  L 51.81 7.46
  A 0.69 0.68 -2.0 0 1 52.46 8.06
  Q 53.35 16.06 54.75 23.25
  C 55.75 28.43 59.03 32.52 64.49 28.48
  Q 71.92 22.97 79.33 17.38
  Q 79.59 17.19 79.81 17.42
  Q 79.91 17.52 80.00 17.60
  Q 80.14 17.73 80.02 17.88
  C 76.60 22.21 66.93 34.90 67.91 39.30
  Z
  M 51.7592 58.3455
  A 12.26 10.74 85.7 0 0 61.5498 45.3147
  A 12.26 10.74 85.7 0 0 49.9208 33.8945
  A 12.26 10.74 85.7 0 0 40.1302 46.9253
  A 12.26 10.74 85.7 0 0 51.7592 58.3455
  Z"
/>
<ellipse fill="#ffffff" cx="0.00" cy="0.00" transform="translate(50.84,46.12) rotate(85.7)" rx="12.26" ry="10.74"/>
</svg>
