<?xml version="1.0" encoding="UTF-8" standalone="no"?>
<!DOCTYPE svg PUBLIC "-//W3C//DTD SVG 1.1//EN" "http://www.w3.org/Graphics/SVG/1.1/DTD/svg11.dtd">
<svg xmlns="http://www.w3.org/2000/svg" version="1.1" viewBox="0.00 0.00 100.00 100.00">
<g stroke-width="2.00" fill="none" stroke-linecap="butt">
<path stroke="#808080" vector-effect="non-scaling-stroke" d="
  M 17.26 50.98
  C -0.58 59.30 -2.41 83.01 13.79 93.93
  C 26.54 102.54 43.29 96.93 49.69 83.32
  Q 49.98 82.68 50.34 83.28
  C 51.12 84.58 51.84 86.24 52.52 87.22
  Q 57.81 94.84 65.99 96.99
  C 95.08 104.67 110.42 64.29 82.69 50.91
  Q 82.09 50.62 82.66 50.27
  C 83.81 49.58 85.30 49.04 86.22 48.38
  C 98.40 39.72 100.98 24.15 91.95 12.45
  C 80.43 -2.45 58.24 1.51 50.32 17.84
  A 0.37 0.37 0.0 0 1 49.65 17.83
  Q 45.41 8.55 35.71 4.89
  C 15.89 -2.57 -3.15 16.96 4.27 36.48
  C 6.96 43.56 10.99 46.41 17.30 50.38
  Q 17.82 50.72 17.26 50.98"
/>
<path stroke="#808080" vector-effect="non-scaling-stroke" d="
  M 33.45 13.58
  C 44.48 18.29 42.74 29.36 42.81 39.53
  Q 42.81 39.81 43.10 39.81
  L 47.86 39.81
  Q 48.10 39.81 48.11 39.56
  C 48.23 33.08 48.86 25.22 46.43 19.56
  Q 43.11 11.83 35.41 8.58
  C 16.07 0.41 -1.76 22.28 10.00 39.67
  C 15.58 47.93 22.83 48.79 33.24 48.77
  Q 40.64 48.76 47.95 48.86
  A 0.30 0.30 0.0 0 0 48.25 48.56
  L 48.24 43.52
  A 0.23 0.23 0.0 0 0 48.01 43.29
  Q 37.90 43.32 27.49 43.27
  Q 18.91 43.23 14.53 36.73
  C 5.76 23.70 18.96 7.38 33.45 13.58"
/>
<path stroke="#808080" vector-effect="non-scaling-stroke" d="
  M 58.33 22.02
  C 63.47 9.13 82.44 9.10 87.21 22.00
  C 90.20 30.08 86.49 39.28 78.46 42.25
  C 73.88 43.95 66.62 43.34 61.20 43.28
  A 0.27 0.26 -0.0 0 0 60.93 43.54
  L 60.89 48.52
  Q 60.89 48.85 61.22 48.84
  C 73.09 48.63 83.66 50.11 90.53 38.84
  C 101.49 20.88 82.74 0.17 63.68 8.90
  Q 56.27 12.30 53.36 19.81
  Q 51.93 23.51 51.90 30.89
  Q 51.85 39.87 51.88 48.71
  Q 51.88 48.89 52.05 48.89
  L 56.98 48.92
  Q 57.22 48.92 57.21 48.68
  Q 57.15 39.51 57.22 30.14
  Q 57.25 24.72 58.33 22.02"
/>
<path stroke="#808080" vector-effect="non-scaling-stroke" d="
  M 37.64 21.96
  C 35.08 17.28 29.29 14.91 24.18 16.25
  C 14.45 18.81 12.07 31.70 20.34 37.63
  C 24.80 40.82 33.22 39.79 38.52 39.79
  Q 39.03 39.79 39.04 39.29
  C 39.21 34.22 39.96 26.22 37.64 21.96"
/>
<path stroke="#808080" vector-effect="non-scaling-stroke" d="
  M 83.63 22.76
  C 78.27 12.05 61.97 14.66 60.96 26.25
  Q 60.71 29.11 60.97 39.25
  Q 60.99 39.75 61.48 39.75
  C 66.55 39.83 73.81 40.44 77.98 38.58
  C 83.74 36.02 86.38 28.26 83.63 22.76"
/>
<path stroke="#808080" vector-effect="non-scaling-stroke" d="
  M 43.02 52.33
  Q 42.79 52.33 42.79 52.57
  Q 42.83 61.56 42.79 70.73
  Q 42.76 76.42 41.69 79.11
  C 38.23 87.79 28.03 91.47 19.80 86.99
  C 8.77 81.00 9.04 64.77 20.58 59.38
  C 25.47 57.10 33.15 57.95 38.80 58.00
  Q 39.12 58.00 39.11 57.69
  L 39.09 52.80
  Q 39.09 52.49 38.78 52.49
  C 29.38 52.45 18.62 51.17 11.81 59.08
  C 3.43 68.82 4.73 82.97 15.02 90.43
  C 25.92 98.34 41.39 93.76 46.56 81.39
  Q 48.00 77.95 48.08 71.89
  Q 48.22 62.16 48.07 52.61
  A 0.28 0.28 0.0 0 0 47.79 52.33
  L 43.02 52.33"
/>
<path stroke="#808080" vector-effect="non-scaling-stroke" d="
  M 93.07 78.57
  C 96.31 65.73 86.83 52.40 73.00 52.46
  Q 62.42 52.50 52.06 52.41
  Q 51.75 52.41 51.75 52.72
  L 51.76 57.71
  Q 51.76 57.95 52.00 57.95
  Q 61.49 57.92 71.18 57.94
  Q 76.23 57.96 78.70 58.98
  C 90.35 63.78 91.60 79.63 81.13 86.35
  C 72.76 91.72 61.93 88.12 58.33 78.95
  C 56.51 74.32 57.19 67.23 57.20 61.72
  Q 57.20 61.43 56.91 61.43
  L 52.21 61.46
  Q 51.92 61.46 51.91 61.76
  C 51.61 73.51 50.79 82.08 59.46 89.55
  C 70.87 99.38 89.35 93.29 93.07 78.57"
/>
<path stroke="#808080" vector-effect="non-scaling-stroke" d="
  M 80.87 82.13
  C 86.92 76.94 85.53 65.71 77.81 62.47
  C 73.76 60.78 66.46 61.47 61.46 61.48
  Q 60.95 61.48 60.94 61.99
  C 60.80 67.21 60.08 74.96 62.38 79.27
  C 65.99 86.06 75.12 87.06 80.87 82.13"
/>
<path stroke="#808080" vector-effect="non-scaling-stroke" d="
  M 20.05 82.99
  C 26.04 87.29 34.24 85.44 37.67 79.03
  C 39.99 74.67 39.15 67.11 39.06 62.05
  Q 39.06 61.54 38.54 61.53
  C 33.81 61.46 26.62 60.83 22.61 62.39
  C 14.19 65.64 12.71 77.71 20.05 82.99"
/>
</g>
<path fill="#ffffff" d="
  M 0.00 0.00
  L 100.00 0.00
  L 100.00 100.00
  L 0.00 100.00
  L 0.00 0.00
  Z
  M 17.26 50.98
  C -0.58 59.30 -2.41 83.01 13.79 93.93
  C 26.54 102.54 43.29 96.93 49.69 83.32
  Q 49.98 82.68 50.34 83.28
  C 51.12 84.58 51.84 86.24 52.52 87.22
  Q 57.81 94.84 65.99 96.99
  C 95.08 104.67 110.42 64.29 82.69 50.91
  Q 82.09 50.62 82.66 50.27
  C 83.81 49.58 85.30 49.04 86.22 48.38
  C 98.40 39.72 100.98 24.15 91.95 12.45
  C 80.43 -2.45 58.24 1.51 50.32 17.84
  A 0.37 0.37 0.0 0 1 49.65 17.83
  Q 45.41 8.55 35.71 4.89
  C 15.89 -2.57 -3.15 16.96 4.27 36.48
  C 6.96 43.56 10.99 46.41 17.30 50.38
  Q 17.82 50.72 17.26 50.98
  Z"
/>
<path fill="#000000" d="
  M 17.30 50.38
  C 10.99 46.41 6.96 43.56 4.27 36.48
  C -3.15 16.96 15.89 -2.57 35.71 4.89
  Q 45.41 8.55 49.65 17.83
  A 0.37 0.37 0.0 0 0 50.32 17.84
  C 58.24 1.51 80.43 -2.45 91.95 12.45
  C 100.98 24.15 98.40 39.72 86.22 48.38
  C 85.30 49.04 83.81 49.58 82.66 50.27
  Q 82.09 50.62 82.69 50.91
  C 110.42 64.29 95.08 104.67 65.99 96.99
  Q 57.81 94.84 52.52 87.22
  C 51.84 86.24 51.12 84.58 50.34 83.28
  Q 49.98 82.68 49.69 83.32
  C 43.29 96.93 26.54 102.54 13.79 93.93
  C -2.41 83.01 -0.58 59.30 17.26 50.98
  Q 17.82 50.72 17.30 50.38
  Z
  M 33.45 13.58
  C 44.48 18.29 42.74 29.36 42.81 39.53
  Q 42.81 39.81 43.10 39.81
  L 47.86 39.81
  Q 48.10 39.81 48.11 39.56
  C 48.23 33.08 48.86 25.22 46.43 19.56
  Q 43.11 11.83 35.41 8.58
  C 16.07 0.41 -1.76 22.28 10.00 39.67
  C 15.58 47.93 22.83 48.79 33.24 48.77
  Q 40.64 48.76 47.95 48.86
  A 0.30 0.30 0.0 0 0 48.25 48.56
  L 48.24 43.52
  A 0.23 0.23 0.0 0 0 48.01 43.29
  Q 37.90 43.32 27.49 43.27
  Q 18.91 43.23 14.53 36.73
  C 5.76 23.70 18.96 7.38 33.45 13.58
  Z
  M 58.33 22.02
  C 63.47 9.13 82.44 9.10 87.21 22.00
  C 90.20 30.08 86.49 39.28 78.46 42.25
  C 73.88 43.95 66.62 43.34 61.20 43.28
  A 0.27 0.26 -0.0 0 0 60.93 43.54
  L 60.89 48.52
  Q 60.89 48.85 61.22 48.84
  C 73.09 48.63 83.66 50.11 90.53 38.84
  C 101.49 20.88 82.74 0.17 63.68 8.90
  Q 56.27 12.30 53.36 19.81
  Q 51.93 23.51 51.90 30.89
  Q 51.85 39.87 51.88 48.71
  Q 51.88 48.89 52.05 48.89
  L 56.98 48.92
  Q 57.22 48.92 57.21 48.68
  Q 57.15 39.51 57.22 30.14
  Q 57.25 24.72 58.33 22.02
  Z
  M 37.64 21.96
  C 35.08 17.28 29.29 14.91 24.18 16.25
  C 14.45 18.81 12.07 31.70 20.34 37.63
  C 24.80 40.82 33.22 39.79 38.52 39.79
  Q 39.03 39.79 39.04 39.29
  C 39.21 34.22 39.96 26.22 37.64 21.96
  Z
  M 83.63 22.76
  C 78.27 12.05 61.97 14.66 60.96 26.25
  Q 60.71 29.11 60.97 39.25
  Q 60.99 39.75 61.48 39.75
  C 66.55 39.83 73.81 40.44 77.98 38.58
  C 83.74 36.02 86.38 28.26 83.63 22.76
  Z
  M 43.02 52.33
  Q 42.79 52.33 42.79 52.57
  Q 42.83 61.56 42.79 70.73
  Q 42.76 76.42 41.69 79.11
  C 38.23 87.79 28.03 91.47 19.80 86.99
  C 8.77 81.00 9.04 64.77 20.58 59.38
  C 25.47 57.10 33.15 57.95 38.80 58.00
  Q 39.12 58.00 39.11 57.69
  L 39.09 52.80
  Q 39.09 52.49 38.78 52.49
  C 29.38 52.45 18.62 51.17 11.81 59.08
  C 3.43 68.82 4.73 82.97 15.02 90.43
  C 25.92 98.34 41.39 93.76 46.56 81.39
  Q 48.00 77.95 48.08 71.89
  Q 48.22 62.16 48.07 52.61
  A 0.28 0.28 0.0 0 0 47.79 52.33
  L 43.02 52.33
  Z
  M 93.07 78.57
  C 96.31 65.73 86.83 52.40 73.00 52.46
  Q 62.42 52.50 52.06 52.41
  Q 51.75 52.41 51.75 52.72
  L 51.76 57.71
  Q 51.76 57.95 52.00 57.95
  Q 61.49 57.92 71.18 57.94
  Q 76.23 57.96 78.70 58.98
  C 90.35 63.78 91.60 79.63 81.13 86.35
  C 72.76 91.72 61.93 88.12 58.33 78.95
  C 56.51 74.32 57.19 67.23 57.20 61.72
  Q 57.20 61.43 56.91 61.43
  L 52.21 61.46
  Q 51.92 61.46 51.91 61.76
  C 51.61 73.51 50.79 82.08 59.46 89.55
  C 70.87 99.38 89.35 93.29 93.07 78.57
  Z
  M 80.87 82.13
  C 86.92 76.94 85.53 65.71 77.81 62.47
  C 73.76 60.78 66.46 61.47 61.46 61.48
  Q 60.95 61.48 60.94 61.99
  C 60.80 67.21 60.08 74.96 62.38 79.27
  C 65.99 86.06 75.12 87.06 80.87 82.13
  Z
  M 20.05 82.99
  C 26.04 87.29 34.24 85.44 37.67 79.03
  C 39.99 74.67 39.15 67.11 39.06 62.05
  Q 39.06 61.54 38.54 61.53
  C 33.81 61.46 26.62 60.83 22.61 62.39
  C 14.19 65.64 12.71 77.71 20.05 82.99
  Z"
/>
<path fill="#ffffff" d="
  M 33.45 13.58
  C 18.96 7.38 5.76 23.70 14.53 36.73
  Q 18.91 43.23 27.49 43.27
  Q 37.90 43.32 48.01 43.29
  A 0.23 0.23 0.0 0 1 48.24 43.52
  L 48.25 48.56
  A 0.30 0.30 0.0 0 1 47.95 48.86
  Q 40.64 48.76 33.24 48.77
  C 22.83 48.79 15.58 47.93 10.00 39.67
  C -1.76 22.28 16.07 0.41 35.41 8.58
  Q 43.11 11.83 46.43 19.56
  C 48.86 25.22 48.23 33.08 48.11 39.56
  Q 48.10 39.81 47.86 39.81
  L 43.10 39.81
  Q 42.81 39.81 42.81 39.53
  C 42.74 29.36 44.48 18.29 33.45 13.58
  Z"
/>
<path fill="#ffffff" d="
  M 87.21 22.00
  C 82.44 9.10 63.47 9.13 58.33 22.02
  Q 57.25 24.72 57.22 30.14
  Q 57.15 39.51 57.21 48.68
  Q 57.22 48.92 56.98 48.92
  L 52.05 48.89
  Q 51.88 48.89 51.88 48.71
  Q 51.85 39.87 51.90 30.89
  Q 51.93 23.51 53.36 19.81
  Q 56.27 12.30 63.68 8.90
  C 82.74 0.17 101.49 20.88 90.53 38.84
  C 83.66 50.11 73.09 48.63 61.22 48.84
  Q 60.89 48.85 60.89 48.52
  L 60.93 43.54
  A 0.27 0.26 -0.0 0 1 61.20 43.28
  C 66.62 43.34 73.88 43.95 78.46 42.25
  C 86.49 39.28 90.20 30.08 87.21 22.00
  Z"
/>
<path fill="#ffffff" d="
  M 24.18 16.25
  C 29.29 14.91 35.08 17.28 37.64 21.96
  C 39.96 26.22 39.21 34.22 39.04 39.29
  Q 39.03 39.79 38.52 39.79
  C 33.22 39.79 24.80 40.82 20.34 37.63
  C 12.07 31.70 14.45 18.81 24.18 16.25
  Z"
/>
<path fill="#ffffff" d="
  M 60.96 26.25
  C 61.97 14.66 78.27 12.05 83.63 22.76
  C 86.38 28.26 83.74 36.02 77.98 38.58
  C 73.81 40.44 66.55 39.83 61.48 39.75
  Q 60.99 39.75 60.97 39.25
  Q 60.71 29.11 60.96 26.25
  Z"
/>
<path fill="#ffffff" d="
  M 43.02 52.33
  L 47.79 52.33
  A 0.28 0.28 0.0 0 1 48.07 52.61
  Q 48.22 62.16 48.08 71.89
  Q 48.00 77.95 46.56 81.39
  C 41.39 93.76 25.92 98.34 15.02 90.43
  C 4.73 82.97 3.43 68.82 11.81 59.08
  C 18.62 51.17 29.38 52.45 38.78 52.49
  Q 39.09 52.49 39.09 52.80
  L 39.11 57.69
  Q 39.12 58.00 38.80 58.00
  C 33.15 57.95 25.47 57.10 20.58 59.38
  C 9.04 64.77 8.77 81.00 19.80 86.99
  C 28.03 91.47 38.23 87.79 41.69 79.11
  Q 42.76 76.42 42.79 70.73
  Q 42.83 61.56 42.79 52.57
  Q 42.79 52.33 43.02 52.33
  Z"
/>
<path fill="#ffffff" d="
  M 73.00 52.46
  C 86.83 52.40 96.31 65.73 93.07 78.57
  C 89.35 93.29 70.87 99.38 59.46 89.55
  C 50.79 82.08 51.61 73.51 51.91 61.76
  Q 51.92 61.46 52.21 61.46
  L 56.91 61.43
  Q 57.20 61.43 57.20 61.72
  C 57.19 67.23 56.51 74.32 58.33 78.95
  C 61.93 88.12 72.76 91.72 81.13 86.35
  C 91.60 79.63 90.35 63.78 78.70 58.98
  Q 76.23 57.96 71.18 57.94
  Q 61.49 57.92 52.00 57.95
  Q 51.76 57.95 51.76 57.71
  L 51.75 52.72
  Q 51.75 52.41 52.06 52.41
  Q 62.42 52.50 73.00 52.46
  Z"
/>
<path fill="#ffffff" d="
  M 77.81 62.47
  C 85.53 65.71 86.92 76.94 80.87 82.13
  C 75.12 87.06 65.99 86.06 62.38 79.27
  C 60.08 74.96 60.80 67.21 60.94 61.99
  Q 60.95 61.48 61.46 61.48
  C 66.46 61.47 73.76 60.78 77.81 62.47
  Z"
/>
<path fill="#ffffff" d="
  M 20.05 82.99
  C 12.71 77.71 14.19 65.64 22.61 62.39
  C 26.62 60.83 33.81 61.46 38.54 61.53
  Q 39.06 61.54 39.06 62.05
  C 39.15 67.11 39.99 74.67 37.67 79.03
  C 34.24 85.44 26.04 87.29 20.05 82.99
  Z"
/>
</svg>
