<?xml version="1.0" encoding="UTF-8" standalone="no"?>
<!DOCTYPE svg PUBLIC "-//W3C//DTD SVG 1.1//EN" "http://www.w3.org/Graphics/SVG/1.1/DTD/svg11.dtd">
<svg xmlns="http://www.w3.org/2000/svg" version="1.1" viewBox="0.00 0.00 100.00 100.00">
<path stroke="#828282" stroke-width="2.00" fill="none" stroke-linecap="butt" vector-effect="non-scaling-stroke" d="
  M 67.15 16.63
  Q 69.74 15.68 71.13 15.79
  Q 72.78 15.92 72.78 14.27
  L 72.78 8.26
  Q 72.78 6.74 71.26 6.74
  L 27.97 6.74
  Q 27.67 6.74 27.67 7.03
  L 27.67 15.23
  Q 27.67 15.51 27.94 15.54
  Q 38.24 16.71 40.95 25.01
  C 43.85 33.92 36.46 41.17 28.03 41.72
  Q 27.54 41.76 27.54 42.25
  L 27.54 52.49
  Q 27.54 52.98 28.03 53.03
  Q 35.46 53.87 39.28 59.47
  C 47.13 70.96 36.48 82.94 24.56 82.77
  Q 24.32 82.77 24.32 83.01
  L 24.32 91.43
  Q 24.32 91.55 24.44 91.55
  L 75.78 91.53
  A 0.13 0.12 0.0 0 0 75.91 91.41
  L 75.97 83.56
  Q 75.97 83.29 75.70 83.27
  Q 63.29 82.39 59.49 73.51
  C 55.44 64.02 62.49 54.24 72.27 53.29
  Q 72.78 53.24 72.78 52.73
  L 72.79 42.52
  Q 72.79 42.03 72.30 41.99
  C 61.11 41.10 54.20 28.61 62.96 19.99
  C 64.27 18.71 65.38 17.27 67.15 16.63"
/>
<path fill="#ffffff" d="
  M 0.00 0.00
  L 100.00 0.00
  L 100.00 100.00
  L 0.00 100.00
  L 0.00 0.00
  Z
  M 67.15 16.63
  Q 69.74 15.68 71.13 15.79
  Q 72.78 15.92 72.78 14.27
  L 72.78 8.26
  Q 72.78 6.74 71.26 6.74
  L 27.97 6.74
  Q 27.67 6.74 27.67 7.03
  L 27.67 15.23
  Q 27.67 15.51 27.94 15.54
  Q 38.24 16.71 40.95 25.01
  C 43.85 33.92 36.46 41.17 28.03 41.72
  Q 27.54 41.76 27.54 42.25
  L 27.54 52.49
  Q 27.54 52.98 28.03 53.03
  Q 35.46 53.87 39.28 59.47
  C 47.13 70.96 36.48 82.94 24.56 82.77
  Q 24.32 82.77 24.32 83.01
  L 24.32 91.43
  Q 24.32 91.55 24.44 91.55
  L 75.78 91.53
  A 0.13 0.12 0.0 0 0 75.91 91.41
  L 75.97 83.56
  Q 75.97 83.29 75.70 83.27
  Q 63.29 82.39 59.49 73.51
  C 55.44 64.02 62.49 54.24 72.27 53.29
  Q 72.78 53.24 72.78 52.73
  L 72.79 42.52
  Q 72.79 42.03 72.30 41.99
  C 61.11 41.10 54.20 28.61 62.96 19.99
  C 64.27 18.71 65.38 17.27 67.15 16.63
  Z"
/>
<path fill="#050505" d="
  M 67.15 16.63
  C 65.38 17.27 64.27 18.71 62.96 19.99
  C 54.20 28.61 61.11 41.10 72.30 41.99
  Q 72.79 42.03 72.79 42.52
  L 72.78 52.73
  Q 72.78 53.24 72.27 53.29
  C 62.49 54.24 55.44 64.02 59.49 73.51
  Q 63.29 82.39 75.70 83.27
  Q 75.97 83.29 75.97 83.56
  L 75.91 91.41
  A 0.13 0.12 0.0 0 1 75.78 91.53
  L 24.44 91.55
  Q 24.32 91.55 24.32 91.43
  L 24.32 83.01
  Q 24.32 82.77 24.56 82.77
  C 36.48 82.94 47.13 70.96 39.28 59.47
  Q 35.46 53.87 28.03 53.03
  Q 27.54 52.98 27.54 52.49
  L 27.54 42.25
  Q 27.54 41.76 28.03 41.72
  C 36.46 41.17 43.85 33.92 40.95 25.01
  Q 38.24 16.71 27.94 15.54
  Q 27.67 15.51 27.67 15.23
  L 27.67 7.03
  Q 27.67 6.74 27.97 6.74
  L 71.26 6.74
  Q 72.78 6.74 72.78 8.26
  L 72.78 14.27
  Q 72.78 15.92 71.13 15.79
  Q 69.74 15.68 67.15 16.63
  Z"
/>
</svg>
