<?xml version="1.0" encoding="UTF-8" standalone="no"?>
<!DOCTYPE svg PUBLIC "-//W3C//DTD SVG 1.1//EN" "http://www.w3.org/Graphics/SVG/1.1/DTD/svg11.dtd">
<svg xmlns="http://www.w3.org/2000/svg" version="1.1" viewBox="0.00 0.00 100.00 100.00">
<path fill="#000000" d="
  M 51.37 81.52
  C 48.89 87.02 47.33 91.12 41.70 93.69
  C 36.78 95.93 28.24 97.16 24.20 92.80
  C 20.61 88.93 22.19 85.71 23.95 81.55
  C 24.90 79.30 26.52 78.52 28.29 77.07
  Q 35.90 70.80 45.37 72.01
  Q 50.21 72.63 46.22 69.82
  C 41.01 66.15 32.21 60.20 25.94 63.99
  Q 25.47 64.28 23.76 66.20
  Q 21.28 68.97 17.05 67.59
  A 1.53 1.53 0.0 0 1 16.35 65.17
  C 25.38 54.08 39.37 59.23 47.81 67.32
  Q 49.12 68.57 49.08 66.76
  L 48.97 62.94
  A 4.21 4.19 -69.8 0 0 47.60 59.95
  C 42.70 55.49 37.62 52.21 31.12 53.06
  C 28.00 53.46 27.27 56.38 24.49 56.86
  Q 22.60 57.18 20.68 57.00
  A 0.84 0.84 0.0 0 1 19.96 56.40
  Q 19.49 54.87 20.99 53.50
  C 26.40 48.57 33.03 47.47 39.50 50.91
  C 42.85 52.70 45.31 53.73 48.42 56.86
  A 0.34 0.34 0.0 0 0 48.99 56.62
  L 48.98 51.72
  A 1.72 1.69 -68.4 0 0 48.46 50.49
  C 43.63 45.84 34.52 41.03 28.80 46.52
  C 27.49 47.77 25.78 48.42 24.20 48.09
  A 1.74 1.74 0.0 0 1 23.50 44.99
  C 25.95 43.13 28.25 41.38 31.39 41.05
  Q 40.66 40.07 47.14 46.48
  Q 49.03 48.36 49.05 45.69
  L 49.07 43.94
  Q 49.09 41.59 47.37 39.99
  C 43.76 36.64 35.98 33.83 31.40 37.81
  C 30.08 38.95 28.55 39.31 26.99 38.95
  A 1.49 1.49 0.0 0 1 26.08 36.67
  C 28.10 33.69 30.39 33.27 33.92 32.48
  C 40.11 31.11 45.17 35.70 49.35 38.70
  A 0.32 0.32 0.0 0 0 49.86 38.51
  C 50.51 35.62 50.15 33.24 47.69 31.26
  C 43.54 27.95 40.45 26.36 35.26 27.27
  Q 34.83 27.34 34.50 27.62
  L 30.88 30.59
  A 1.60 1.60 0.0 0 1 28.38 29.96
  L 28.16 29.43
  Q 27.44 27.67 29.17 26.85
  C 33.03 25.04 35.96 22.70 40.94 24.79
  Q 45.39 26.66 49.16 30.21
  Q 50.15 31.14 50.08 29.79
  L 49.89 25.67
  A 2.87 2.87 0.0 0 0 48.42 23.29
  C 44.15 20.88 40.63 18.60 36.39 21.04
  Q 35.03 21.83 33.61 22.49
  Q 31.43 23.49 31.51 21.04
  A 1.80 1.79 71.0 0 1 32.14 19.74
  C 38.71 14.14 43.36 18.05 49.30 21.71
  A 0.44 0.44 0.0 0 0 49.96 21.45
  C 51.40 15.99 40.99 10.66 36.88 14.40
  A 2.28 2.26 -54.1 0 1 34.43 14.80
  L 33.85 14.54
  A 0.99 0.98 40.1 0 1 33.70 12.82
  L 37.46 10.28
  Q 37.88 10.00 38.40 9.98
  C 41.43 9.86 47.62 13.01 49.41 15.51
  A 0.58 0.58 0.0 0 0 50.42 15.40
  Q 51.30 13.33 50.87 11.06
  Q 50.77 10.55 50.35 10.26
  C 48.51 8.99 47.15 7.31 44.88 7.03
  C 42.50 6.73 39.70 6.82 38.39 8.84
  A 0.77 0.77 0.0 0 1 37.10 8.84
  L 36.93 8.57
  Q 36.70 8.22 36.83 7.81
  Q 38.12 3.72 41.80 3.81
  C 45.11 3.90 48.45 7.17 50.94 9.47
  Q 51.33 9.83 51.61 9.37
  Q 53.04 6.96 55.78 6.07
  Q 56.36 5.88 56.71 5.38
  L 57.34 4.51
  Q 57.67 4.04 58.25 4.03
  L 62.65 3.93
  Q 63.26 3.92 63.60 4.43
  L 65.55 7.33
  A 0.88 0.88 0.0 0 1 65.08 8.67
  L 64.75 8.77
  Q 63.35 9.20 62.56 7.97
  C 60.87 5.34 58.76 6.49 56.49 7.25
  Q 50.67 9.20 52.14 15.34
  Q 52.27 15.88 52.69 15.53
  C 56.55 12.41 60.27 9.70 64.81 9.87
  Q 65.36 9.89 65.73 10.29
  Q 66.97 11.63 68.61 12.43
  A 1.17 1.17 0.0 0 1 69.20 13.88
  L 69.04 14.34
  A 1.15 1.14 13.5 0 1 67.81 15.09
  Q 66.18 14.87 65.13 13.67
  Q 64.74 13.22 64.15 13.15
  C 59.04 12.55 50.79 16.00 51.95 22.55
  A 0.30 0.30 0.0 0 0 52.45 22.71
  C 57.49 18.16 64.85 14.46 71.18 19.09
  Q 72.02 19.70 72.11 20.45
  Q 72.22 21.28 71.58 21.77
  C 70.06 22.91 67.22 21.01 66.30 19.79
  A 1.56 1.50 77.7 0 0 65.45 19.22
  C 61.52 18.21 55.77 21.85 53.47 23.93
  Q 51.95 25.30 51.98 27.34
  L 51.99 28.94
  Q 52.02 31.26 53.66 29.62
  C 55.63 27.65 57.58 27.14 59.70 25.67
  C 62.48 23.74 66.70 23.68 70.30 24.15
  Q 70.82 24.22 71.18 24.59
  L 74.47 27.98
  A 1.08 1.08 0.0 0 1 73.88 29.80
  Q 70.63 30.36 68.77 27.72
  Q 68.47 27.29 67.96 27.21
  C 61.52 26.18 58.92 28.09 54.01 31.58
  Q 53.00 32.29 52.99 33.52
  L 52.94 38.05
  Q 52.93 39.30 53.92 38.53
  C 58.99 34.55 62.94 31.79 69.20 31.94
  C 71.51 31.99 73.48 33.16 75.62 34.04
  C 78.87 35.37 78.01 39.59 74.25 39.02
  C 72.13 38.70 71.22 35.77 68.91 35.21
  C 64.26 34.07 57.28 38.31 54.28 41.21
  Q 53.08 42.37 52.98 44.03
  L 52.82 46.70
  Q 52.72 48.28 54.03 47.39
  C 55.98 46.08 57.50 44.24 59.50 43.18
  C 63.33 41.15 67.03 39.59 71.47 40.07
  C 73.35 40.28 75.01 41.49 76.93 42.11
  Q 77.43 42.27 77.74 42.69
  L 79.58 45.28
  A 0.83 0.83 0.0 0 1 79.20 46.53
  Q 75.08 48.13 72.25 44.86
  Q 71.93 44.49 71.46 44.38
  C 64.42 42.60 59.70 45.52 54.59 50.09
  C 52.46 51.99 52.71 54.06 53.07 56.58
  A 0.71 0.71 0.0 0 0 54.22 57.03
  C 55.44 56.03 56.37 54.89 57.72 54.17
  C 60.63 52.62 63.76 50.58 66.62 49.73
  Q 75.20 47.18 82.14 53.59
  Q 84.12 55.42 81.70 56.63
  L 81.00 56.98
  Q 79.02 57.97 77.33 56.53
  Q 73.09 52.90 71.00 52.98
  Q 61.08 53.35 54.33 60.39
  Q 53.95 60.78 53.96 61.33
  L 54.03 66.23
  Q 54.04 66.73 54.53 66.60
  C 56.41 66.11 57.09 64.61 58.48 63.81
  C 65.78 59.60 69.29 58.08 77.46 59.28
  A 1.56 1.56 0.0 0 1 78.31 59.69
  Q 80.18 61.52 82.77 62.04
  Q 83.29 62.14 83.63 62.55
  C 84.96 64.11 85.83 67.64 83.10 68.00
  C 79.72 68.45 78.38 67.47 76.74 64.69
  Q 76.48 64.25 75.99 64.08
  C 74.29 63.50 72.78 62.86 70.96 63.00
  C 64.72 63.49 59.00 66.86 54.59 70.65
  Q 53.23 71.82 55.02 71.92
  Q 59.37 72.17 64.25 71.86
  C 73.01 71.29 83.35 81.66 79.40 90.31
  C 77.61 94.23 74.24 93.90 70.64 94.14
  Q 57.23 95.05 51.90 82.63
  Q 51.70 82.17 51.63 81.56
  Q 51.57 81.06 51.37 81.52
  Z
  M 35.05 76.84
  C 30.62 78.77 25.48 85.24 31.18 89.28
  C 35.26 92.17 42.41 89.58 45.21 86.23
  C 47.06 84.02 49.45 78.18 48.87 74.72
  A 0.75 0.75 0.0 0 0 48.22 74.10
  C 43.45 73.50 39.33 74.97 35.05 76.84
  Z
  M 66.05 75.26
  Q 59.85 73.25 53.42 74.16
  A 0.47 0.47 0.0 0 0 53.04 74.78
  C 53.81 76.92 54.13 79.26 55.06 81.11
  C 56.72 84.41 59.65 88.15 63.50 88.90
  C 67.29 89.64 71.98 89.59 73.47 85.29
  C 75.07 80.70 69.66 76.44 66.05 75.26
  Z"
/>
</svg>
