<?xml version="1.0" encoding="UTF-8" standalone="no"?>
<!DOCTYPE svg PUBLIC "-//W3C//DTD SVG 1.1//EN" "http://www.w3.org/Graphics/SVG/1.1/DTD/svg11.dtd">
<svg xmlns="http://www.w3.org/2000/svg" version="1.1" viewBox="0.00 0.00 80.00 100.00">
<g stroke-width="2.00" fill="none" stroke-linecap="butt">
<path stroke="#808080" vector-effect="non-scaling-stroke" d="
  M 45.24 12.47
  A 5.24 5.24 0.0 0 0 40.00 7.23
  A 5.24 5.24 0.0 0 0 34.76 12.47
  A 5.24 5.24 0.0 0 0 40.00 17.71
  A 5.24 5.24 0.0 0 0 45.24 12.47"
/>
<path stroke="#808080" vector-effect="non-scaling-stroke" d="
  M 45.24 87.53
  A 5.24 5.24 0.0 0 0 40.00 82.29
  A 5.24 5.24 0.0 0 0 34.76 87.53
  A 5.24 5.24 0.0 0 0 40.00 92.77
  A 5.24 5.24 0.0 0 0 45.24 87.53"
/>
</g>
<path fill="#000000" d="
  M 10.01 0.00
  L 70.03 0.00
  L 64.74 9.93
  A 0.83 0.82 37.1 0 0 64.88 10.91
  C 74.16 20.16 78.89 32.94 80.00 45.88
  L 80.00 54.03
  C 78.97 66.91 74.07 79.94 64.79 89.15
  A 0.70 0.68 53.5 0 0 64.68 89.97
  L 70.17 100.00
  L 9.77 100.00
  L 15.34 89.90
  A 0.53 0.52 -53.3 0 0 15.26 89.29
  C 5.89 79.61 1.22 67.47 0.00 54.21
  L 0.00 45.77
  Q 1.59 25.43 15.04 10.79
  Q 15.41 10.38 15.15 9.90
  L 10.01 0.00
  Z
  M 45.24 12.47
  A 5.24 5.24 0.0 0 0 40.00 7.23
  A 5.24 5.24 0.0 0 0 34.76 12.47
  A 5.24 5.24 0.0 0 0 40.00 17.71
  A 5.24 5.24 0.0 0 0 45.24 12.47
  Z
  M 11.87 53.83
  L 11.87 46.20
  A 0.69 0.68 -90.0 0 1 12.55 45.51
  L 34.97 45.50
  A 0.37 0.37 0.0 0 0 35.29 44.95
  L 19.01 16.68
  A 0.58 0.58 0.0 0 0 18.05 16.60
  C 3.02 35.16 2.94 64.93 18.14 83.42
  A 0.55 0.55 0.0 0 0 19.04 83.35
  L 35.19 55.27
  Q 35.61 54.55 34.77 54.55
  L 12.58 54.54
  Q 11.87 54.54 11.87 53.83
  Z
  M 67.49 54.54
  L 45.00 54.56
  A 0.35 0.35 0.0 0 0 44.69 55.08
  L 60.95 83.31
  A 0.60 0.59 49.3 0 0 61.93 83.39
  C 77.06 64.65 76.97 35.31 61.93 16.60
  A 0.59 0.59 0.0 0 0 60.96 16.68
  L 44.69 44.93
  A 0.38 0.38 0.0 0 0 45.02 45.50
  L 67.51 45.51
  A 0.62 0.62 0.0 0 1 68.13 46.13
  L 68.13 53.91
  Q 68.13 54.54 67.49 54.54
  Z
  M 45.24 87.53
  A 5.24 5.24 0.0 0 0 40.00 82.29
  A 5.24 5.24 0.0 0 0 34.76 87.53
  A 5.24 5.24 0.0 0 0 40.00 92.77
  A 5.24 5.24 0.0 0 0 45.24 87.53
  Z"
/>
<circle fill="#ffffff" cx="40.00" cy="12.47" r="5.24"/>
<circle fill="#ffffff" cx="40.00" cy="87.53" r="5.24"/>
</svg>
