<?xml version="1.0" encoding="UTF-8" standalone="no"?>
<!DOCTYPE svg PUBLIC "-//W3C//DTD SVG 1.1//EN" "http://www.w3.org/Graphics/SVG/1.1/DTD/svg11.dtd">
<svg xmlns="http://www.w3.org/2000/svg" version="1.1" viewBox="0.00 0.00 100.00 102.00">
<g stroke-width="2.00" fill="none" stroke-linecap="butt">
<path stroke="#808080" vector-effect="non-scaling-stroke" d="
  M 48.93 29.14
  Q 48.53 30.33 47.76 29.34
  C 39.68 18.93 29.10 7.21 15.57 21.34
  Q 8.17 29.07 5.64 38.46
  Q 4.99 40.85 4.77 49.68
  Q 4.77 49.88 4.96 49.92
  Q 5.11 49.95 5.25 49.97
  Q 5.53 50.03 5.66 49.77
  Q 9.21 42.09 15.86 36.80
  C 22.75 31.32 32.94 33.23 40.59 36.68
  Q 42.00 37.32 42.75 38.07
  A 0.98 0.97 -57.4 0 1 42.97 39.10
  L 40.74 45.11
  Q 40.56 45.59 40.07 45.71
  Q 38.54 46.07 37.03 46.42
  C 29.82 48.11 27.53 56.19 32.80 61.47
  A 0.69 0.69 0.0 0 1 32.94 62.22
  L 30.08 69.14
  Q 29.87 69.64 29.35 69.83
  Q 19.64 73.41 24.13 82.85
  Q 24.39 83.40 24.22 83.98
  L 21.97 91.60
  A 1.47 1.47 0.0 0 0 22.90 93.41
  L 23.43 93.59
  Q 25.42 94.27 26.14 92.30
  L 28.29 86.46
  A 0.75 0.73 12.0 0 1 29.04 85.98
  C 37.58 86.51 42.21 76.89 35.31 71.48
  A 0.68 0.68 0.0 0 1 35.10 70.67
  L 37.63 64.78
  Q 37.82 64.34 38.28 64.23
  C 46.52 62.19 50.38 57.26 45.51 48.91
  Q 45.12 48.23 45.50 47.54
  L 47.82 43.36
  A 0.45 0.45 0.0 0 1 48.61 43.37
  L 51.68 49.09
  A 1.05 1.05 0.0 0 1 51.70 50.04
  C 47.87 57.77 50.94 63.62 59.48 64.38
  Q 60.04 64.43 60.32 64.92
  L 63.98 71.49
  A 1.02 1.01 -45.8 0 1 63.99 72.46
  C 60.60 78.79 64.15 84.69 71.12 85.10
  Q 71.62 85.13 71.82 85.59
  C 73.22 88.87 74.45 93.25 77.19 93.84
  Q 77.70 93.95 78.11 93.65
  C 80.95 91.59 77.01 86.16 75.81 83.92
  A 0.88 0.87 53.9 0 1 75.97 82.87
  C 81.40 77.48 77.60 68.46 69.90 69.04
  A 1.86 1.84 74.3 0 1 68.12 68.03
  L 65.19 62.32
  A 0.72 0.72 0.0 0 1 65.28 61.54
  C 70.51 55.41 66.55 46.19 58.45 46.75
  A 1.37 1.37 0.0 0 1 57.17 46.07
  C 55.61 43.39 50.77 38.04 56.29 36.28
  Q 68.30 32.46 79.23 35.55
  C 86.01 37.47 88.21 42.68 91.67 47.54
  Q 94.25 51.17 93.72 46.74
  C 92.01 32.42 82.85 18.23 68.51 14.21
  Q 66.10 13.54 63.44 13.81
  C 56.93 14.49 50.78 23.63 48.93 29.14"
/>
<path stroke="#808080" vector-effect="non-scaling-stroke" d="
  M 31.88 22.75
  A 3.22 3.22 0.0 0 0 28.66 19.53
  A 3.22 3.22 0.0 0 0 25.44 22.75
  A 3.22 3.22 0.0 0 0 28.66 25.97
  A 3.22 3.22 0.0 0 0 31.88 22.75"
/>
<path stroke="#808080" vector-effect="non-scaling-stroke" d="
  M 70.24 22.70
  A 3.19 3.19 0.0 0 0 67.05 19.51
  A 3.19 3.19 0.0 0 0 63.86 22.70
  A 3.19 3.19 0.0 0 0 67.05 25.89
  A 3.19 3.19 0.0 0 0 70.24 22.70"
/>
<path stroke="#808080" vector-effect="non-scaling-stroke" d="
  M 39.36 25.74
  A 3.22 3.22 0.0 0 0 36.14 22.52
  A 3.22 3.22 0.0 0 0 32.92 25.74
  A 3.22 3.22 0.0 0 0 36.14 28.96
  A 3.22 3.22 0.0 0 0 39.36 25.74"
/>
<path stroke="#808080" vector-effect="non-scaling-stroke" d="
  M 77.75 25.70
  A 3.20 3.20 0.0 0 0 74.55 22.50
  A 3.20 3.20 0.0 0 0 71.35 25.70
  A 3.20 3.20 0.0 0 0 74.55 28.90
  A 3.20 3.20 0.0 0 0 77.75 25.70"
/>
<path stroke="#808080" vector-effect="non-scaling-stroke" d="
  M 24.54 26.55
  A 3.24 3.24 0.0 0 0 21.30 23.31
  A 3.24 3.24 0.0 0 0 18.06 26.55
  A 3.24 3.24 0.0 0 0 21.30 29.79
  A 3.24 3.24 0.0 0 0 24.54 26.55"
/>
<path stroke="#808080" vector-effect="non-scaling-stroke" d="
  M 62.88 26.52
  A 3.20 3.20 0.0 0 0 59.68 23.32
  A 3.20 3.20 0.0 0 0 56.48 26.52
  A 3.20 3.20 0.0 0 0 59.68 29.72
  A 3.20 3.20 0.0 0 0 62.88 26.52"
/>
<path stroke="#808080" vector-effect="non-scaling-stroke" d="
  M 74.27 76.95
  A 3.70 3.70 0.0 0 0 70.57 73.25
  A 3.70 3.70 0.0 0 0 66.87 76.95
  A 3.70 3.70 0.0 0 0 70.57 80.65
  A 3.70 3.70 0.0 0 0 74.27 76.95"
/>
<path stroke="#808080" vector-effect="non-scaling-stroke" d="
  M 34.28 77.90
  A 3.71 3.71 0.0 0 0 30.57 74.19
  A 3.71 3.71 0.0 0 0 26.86 77.90
  A 3.71 3.71 0.0 0 0 30.57 81.61
  A 3.71 3.71 0.0 0 0 34.28 77.90"
/>
</g>
<path fill="#ffffff" d="
  M 0.00 0.00
  L 100.00 0.00
  L 100.00 102.00
  L 0.00 102.00
  L 0.00 0.00
  Z
  M 48.93 29.14
  Q 48.53 30.33 47.76 29.34
  C 39.68 18.93 29.10 7.21 15.57 21.34
  Q 8.17 29.07 5.64 38.46
  Q 4.99 40.85 4.77 49.68
  Q 4.77 49.88 4.96 49.92
  Q 5.11 49.95 5.25 49.97
  Q 5.53 50.03 5.66 49.77
  Q 9.21 42.09 15.86 36.80
  C 22.75 31.32 32.94 33.23 40.59 36.68
  Q 42.00 37.32 42.75 38.07
  A 0.98 0.97 -57.4 0 1 42.97 39.10
  L 40.74 45.11
  Q 40.56 45.59 40.07 45.71
  Q 38.54 46.07 37.03 46.42
  C 29.82 48.11 27.53 56.19 32.80 61.47
  A 0.69 0.69 0.0 0 1 32.94 62.22
  L 30.08 69.14
  Q 29.87 69.64 29.35 69.83
  Q 19.64 73.41 24.13 82.85
  Q 24.39 83.40 24.22 83.98
  L 21.97 91.60
  A 1.47 1.47 0.0 0 0 22.90 93.41
  L 23.43 93.59
  Q 25.42 94.27 26.14 92.30
  L 28.29 86.46
  A 0.75 0.73 12.0 0 1 29.04 85.98
  C 37.58 86.51 42.21 76.89 35.31 71.48
  A 0.68 0.68 0.0 0 1 35.10 70.67
  L 37.63 64.78
  Q 37.82 64.34 38.28 64.23
  C 46.52 62.19 50.38 57.26 45.51 48.91
  Q 45.12 48.23 45.50 47.54
  L 47.82 43.36
  A 0.45 0.45 0.0 0 1 48.61 43.37
  L 51.68 49.09
  A 1.05 1.05 0.0 0 1 51.70 50.04
  C 47.87 57.77 50.94 63.62 59.48 64.38
  Q 60.04 64.43 60.32 64.92
  L 63.98 71.49
  A 1.02 1.01 -45.8 0 1 63.99 72.46
  C 60.60 78.79 64.15 84.69 71.12 85.10
  Q 71.62 85.13 71.82 85.59
  C 73.22 88.87 74.45 93.25 77.19 93.84
  Q 77.70 93.95 78.11 93.65
  C 80.95 91.59 77.01 86.16 75.81 83.92
  A 0.88 0.87 53.9 0 1 75.97 82.87
  C 81.40 77.48 77.60 68.46 69.90 69.04
  A 1.86 1.84 74.3 0 1 68.12 68.03
  L 65.19 62.32
  A 0.72 0.72 0.0 0 1 65.28 61.54
  C 70.51 55.41 66.55 46.19 58.45 46.75
  A 1.37 1.37 0.0 0 1 57.17 46.07
  C 55.61 43.39 50.77 38.04 56.29 36.28
  Q 68.30 32.46 79.23 35.55
  C 86.01 37.47 88.21 42.68 91.67 47.54
  Q 94.25 51.17 93.72 46.74
  C 92.01 32.42 82.85 18.23 68.51 14.21
  Q 66.10 13.54 63.44 13.81
  C 56.93 14.49 50.78 23.63 48.93 29.14
  Z"
/>
<path fill="#000000" d="
  M 48.93 29.14
  C 50.78 23.63 56.93 14.49 63.44 13.81
  Q 66.10 13.54 68.51 14.21
  C 82.85 18.23 92.01 32.42 93.72 46.74
  Q 94.25 51.17 91.67 47.54
  C 88.21 42.68 86.01 37.47 79.23 35.55
  Q 68.30 32.46 56.29 36.28
  C 50.77 38.04 55.61 43.39 57.17 46.07
  A 1.37 1.37 0.0 0 0 58.45 46.75
  C 66.55 46.19 70.51 55.41 65.28 61.54
  A 0.72 0.72 0.0 0 0 65.19 62.32
  L 68.12 68.03
  A 1.86 1.84 74.3 0 0 69.90 69.04
  C 77.60 68.46 81.40 77.48 75.97 82.87
  A 0.88 0.87 53.9 0 0 75.81 83.92
  C 77.01 86.16 80.95 91.59 78.11 93.65
  Q 77.70 93.95 77.19 93.84
  C 74.45 93.25 73.22 88.87 71.82 85.59
  Q 71.62 85.13 71.12 85.10
  C 64.15 84.69 60.60 78.79 63.99 72.46
  A 1.02 1.01 -45.8 0 0 63.98 71.49
  L 60.32 64.92
  Q 60.04 64.43 59.48 64.38
  C 50.94 63.62 47.87 57.77 51.70 50.04
  A 1.05 1.05 0.0 0 0 51.68 49.09
  L 48.61 43.37
  A 0.45 0.45 0.0 0 0 47.82 43.36
  L 45.50 47.54
  Q 45.12 48.23 45.51 48.91
  C 50.38 57.26 46.52 62.19 38.28 64.23
  Q 37.82 64.34 37.63 64.78
  L 35.10 70.67
  A 0.68 0.68 0.0 0 0 35.31 71.48
  C 42.21 76.89 37.58 86.51 29.04 85.98
  A 0.75 0.73 12.0 0 0 28.29 86.46
  L 26.14 92.30
  Q 25.42 94.27 23.43 93.59
  L 22.90 93.41
  A 1.47 1.47 0.0 0 1 21.97 91.60
  L 24.22 83.98
  Q 24.39 83.40 24.13 82.85
  Q 19.64 73.41 29.35 69.83
  Q 29.87 69.64 30.08 69.14
  L 32.94 62.22
  A 0.69 0.69 0.0 0 0 32.80 61.47
  C 27.53 56.19 29.82 48.11 37.03 46.42
  Q 38.54 46.07 40.07 45.71
  Q 40.56 45.59 40.74 45.11
  L 42.97 39.10
  A 0.98 0.97 -57.4 0 0 42.75 38.07
  Q 42.00 37.32 40.59 36.68
  C 32.94 33.23 22.75 31.32 15.86 36.80
  Q 9.21 42.09 5.66 49.77
  Q 5.53 50.03 5.25 49.97
  Q 5.11 49.95 4.96 49.92
  Q 4.77 49.88 4.77 49.68
  Q 4.99 40.85 5.64 38.46
  Q 8.17 29.07 15.57 21.34
  C 29.10 7.21 39.68 18.93 47.76 29.34
  Q 48.53 30.33 48.93 29.14
  Z
  M 31.88 22.75
  A 3.22 3.22 0.0 0 0 28.66 19.53
  A 3.22 3.22 0.0 0 0 25.44 22.75
  A 3.22 3.22 0.0 0 0 28.66 25.97
  A 3.22 3.22 0.0 0 0 31.88 22.75
  Z
  M 70.24 22.70
  A 3.19 3.19 0.0 0 0 67.05 19.51
  A 3.19 3.19 0.0 0 0 63.86 22.70
  A 3.19 3.19 0.0 0 0 67.05 25.89
  A 3.19 3.19 0.0 0 0 70.24 22.70
  Z
  M 39.36 25.74
  A 3.22 3.22 0.0 0 0 36.14 22.52
  A 3.22 3.22 0.0 0 0 32.92 25.74
  A 3.22 3.22 0.0 0 0 36.14 28.96
  A 3.22 3.22 0.0 0 0 39.36 25.74
  Z
  M 77.75 25.70
  A 3.20 3.20 0.0 0 0 74.55 22.50
  A 3.20 3.20 0.0 0 0 71.35 25.70
  A 3.20 3.20 0.0 0 0 74.55 28.90
  A 3.20 3.20 0.0 0 0 77.75 25.70
  Z
  M 24.54 26.55
  A 3.24 3.24 0.0 0 0 21.30 23.31
  A 3.24 3.24 0.0 0 0 18.06 26.55
  A 3.24 3.24 0.0 0 0 21.30 29.79
  A 3.24 3.24 0.0 0 0 24.54 26.55
  Z
  M 62.88 26.52
  A 3.20 3.20 0.0 0 0 59.68 23.32
  A 3.20 3.20 0.0 0 0 56.48 26.52
  A 3.20 3.20 0.0 0 0 59.68 29.72
  A 3.20 3.20 0.0 0 0 62.88 26.52
  Z
  M 74.27 76.95
  A 3.70 3.70 0.0 0 0 70.57 73.25
  A 3.70 3.70 0.0 0 0 66.87 76.95
  A 3.70 3.70 0.0 0 0 70.57 80.65
  A 3.70 3.70 0.0 0 0 74.27 76.95
  Z
  M 34.28 77.90
  A 3.71 3.71 0.0 0 0 30.57 74.19
  A 3.71 3.71 0.0 0 0 26.86 77.90
  A 3.71 3.71 0.0 0 0 30.57 81.61
  A 3.71 3.71 0.0 0 0 34.28 77.90
  Z"
/>
<circle fill="#ffffff" cx="28.66" cy="22.75" r="3.22"/>
<circle fill="#ffffff" cx="67.05" cy="22.70" r="3.19"/>
<circle fill="#ffffff" cx="36.14" cy="25.74" r="3.22"/>
<circle fill="#ffffff" cx="74.55" cy="25.70" r="3.20"/>
<circle fill="#ffffff" cx="21.30" cy="26.55" r="3.24"/>
<circle fill="#ffffff" cx="59.68" cy="26.52" r="3.20"/>
<circle fill="#ffffff" cx="70.57" cy="76.95" r="3.70"/>
<circle fill="#ffffff" cx="30.57" cy="77.90" r="3.71"/>
</svg>
