<?xml version="1.0" encoding="UTF-8" standalone="no"?>
<!DOCTYPE svg PUBLIC "-//W3C//DTD SVG 1.1//EN" "http://www.w3.org/Graphics/SVG/1.1/DTD/svg11.dtd">
<svg xmlns="http://www.w3.org/2000/svg" version="1.1" viewBox="0.00 0.00 100.00 100.00">
<g stroke-width="2.00" fill="none" stroke-linecap="butt">
<path stroke="#808080" vector-effect="non-scaling-stroke" d="
  M 65.62 59.38
  L 66.23 58.71
  Q 66.58 58.32 66.69 57.81
  Q 67.55 53.91 64.39 52.64
  C 62.39 51.83 60.58 53.19 59.04 54.38
  A 0.70 0.70 0.0 0 1 58.25 54.42
  Q 56.55 53.39 55.35 51.82
  Q 54.93 51.26 54.51 51.81
  L 53.90 52.61
  Q 53.44 53.21 53.24 52.48
  L 50.92 44.23
  Q 50.68 43.39 51.56 43.37
  C 55.55 43.27 61.99 43.88 65.05 40.54
  C 69.99 35.13 72.63 26.96 75.24 20.44
  Q 75.91 18.78 74.41 19.76
  C 67.98 23.98 53.79 23.19 46.48 21.88
  Q 41.98 21.07 42.68 17.00
  A 2.19 2.18 87.9 0 1 44.28 15.27
  C 51.73 13.37 58.75 14.28 66.21 14.24
  A 0.45 0.45 0.0 0 0 66.54 13.48
  C 60.71 7.46 49.77 6.82 42.16 7.80
  Q 40.57 8.00 40.82 6.42
  Q 41.13 4.44 40.32 2.78
  Q 40.06 2.24 39.48 2.39
  L 32.53 4.24
  A 1.47 1.47 0.0 0 0 31.66 6.44
  Q 32.30 7.49 33.38 7.99
  Q 35.29 8.88 33.29 9.55
  C 23.49 12.83 15.98 20.31 14.75 30.66
  Q 14.53 32.52 15.67 31.03
  C 20.91 24.19 27.77 18.97 36.57 18.24
  Q 37.21 18.19 37.40 18.80
  L 38.86 23.55
  Q 39.07 24.25 38.36 24.09
  Q 37.29 23.86 35.74 23.36
  C 26.36 20.34 20.46 34.82 30.66 36.60
  Q 31.31 36.72 30.94 37.27
  C 27.31 42.63 37.22 47.11 39.09 40.64
  Q 39.31 39.89 39.80 40.50
  L 41.89 43.13
  Q 42.22 43.54 42.64 43.22
  Q 42.98 42.96 43.41 42.88
  Q 43.84 42.79 43.96 43.22
  L 45.46 48.77
  Q 45.58 49.24 45.10 49.29
  C 42.63 49.55 32.07 51.75 31.39 54.73
  Q 28.66 66.82 24.06 77.95
  Q 23.53 79.22 24.69 78.48
  C 32.73 73.31 42.80 73.47 51.76 76.23
  C 55.87 77.49 57.10 84.33 50.83 84.06
  Q 42.03 83.67 34.47 80.40
  Q 32.91 79.72 33.91 81.10
  Q 42.00 92.25 55.94 91.38
  A 1.02 1.02 0.0 0 1 57.01 92.23
  L 57.73 96.43
  Q 57.87 97.20 58.65 97.23
  Q 62.94 97.35 66.60 95.17
  A 1.53 1.52 -30.0 0 0 67.15 93.12
  L 65.37 89.88
  A 0.76 0.75 60.5 0 1 65.65 88.86
  C 73.94 83.99 80.67 76.79 81.42 66.86
  Q 81.51 65.67 80.70 66.55
  C 75.97 71.72 70.35 77.83 63.90 80.99
  A 1.34 1.33 68.2 0 1 62.04 80.19
  L 59.17 71.34
  Q 58.94 70.62 59.68 70.78
  C 63.41 71.56 65.94 72.52 69.75 70.96
  C 72.83 69.71 73.53 66.01 71.85 63.30
  Q 69.91 60.18 65.84 59.92
  Q 65.16 59.88 65.62 59.38"
/>
<path stroke="#808080" vector-effect="non-scaling-stroke" d="
  M 50.73 27.04
  A 0.30 0.30 0.0 0 0 50.50 26.72
  L 46.02 25.68
  A 0.30 0.30 0.0 0 0 45.66 26.05
  L 49.18 38.08
  A 0.30 0.30 0.0 0 0 49.77 38.02
  L 50.73 27.04"
/>
<path stroke="#808080" vector-effect="non-scaling-stroke" d="
  M 51.88 72.44
  Q 52.80 73.04 52.56 71.96
  Q 50.85 64.37 48.69 56.90
  Q 48.13 54.99 48.07 56.98
  L 47.67 68.36
  A 2.33 2.33 0.0 0 0 48.74 70.41
  L 51.88 72.44"
/>
</g>
<path fill="#ffffff" d="
  M 0.00 0.00
  L 100.00 0.00
  L 100.00 100.00
  L 0.00 100.00
  L 0.00 0.00
  Z
  M 65.62 59.38
  L 66.23 58.71
  Q 66.58 58.32 66.69 57.81
  Q 67.55 53.91 64.39 52.64
  C 62.39 51.83 60.58 53.19 59.04 54.38
  A 0.70 0.70 0.0 0 1 58.25 54.42
  Q 56.55 53.39 55.35 51.82
  Q 54.93 51.26 54.51 51.81
  L 53.90 52.61
  Q 53.44 53.21 53.24 52.48
  L 50.92 44.23
  Q 50.68 43.39 51.56 43.37
  C 55.55 43.27 61.99 43.88 65.05 40.54
  C 69.99 35.13 72.63 26.96 75.24 20.44
  Q 75.91 18.78 74.41 19.76
  C 67.98 23.98 53.79 23.19 46.48 21.88
  Q 41.98 21.07 42.68 17.00
  A 2.19 2.18 87.9 0 1 44.28 15.27
  C 51.73 13.37 58.75 14.28 66.21 14.24
  A 0.45 0.45 0.0 0 0 66.54 13.48
  C 60.71 7.46 49.77 6.82 42.16 7.80
  Q 40.57 8.00 40.82 6.42
  Q 41.13 4.44 40.32 2.78
  Q 40.06 2.24 39.48 2.39
  L 32.53 4.24
  A 1.47 1.47 0.0 0 0 31.66 6.44
  Q 32.30 7.49 33.38 7.99
  Q 35.29 8.88 33.29 9.55
  C 23.49 12.83 15.98 20.31 14.75 30.66
  Q 14.53 32.52 15.67 31.03
  C 20.91 24.19 27.77 18.97 36.57 18.24
  Q 37.21 18.19 37.40 18.80
  L 38.86 23.55
  Q 39.07 24.25 38.36 24.09
  Q 37.29 23.86 35.74 23.36
  C 26.36 20.34 20.46 34.82 30.66 36.60
  Q 31.31 36.72 30.94 37.27
  C 27.31 42.63 37.22 47.11 39.09 40.64
  Q 39.31 39.89 39.80 40.50
  L 41.89 43.13
  Q 42.22 43.54 42.64 43.22
  Q 42.98 42.96 43.41 42.88
  Q 43.84 42.79 43.96 43.22
  L 45.46 48.77
  Q 45.58 49.24 45.10 49.29
  C 42.63 49.55 32.07 51.75 31.39 54.73
  Q 28.66 66.82 24.06 77.95
  Q 23.53 79.22 24.69 78.48
  C 32.73 73.31 42.80 73.47 51.76 76.23
  C 55.87 77.49 57.10 84.33 50.83 84.06
  Q 42.03 83.67 34.47 80.40
  Q 32.91 79.72 33.91 81.10
  Q 42.00 92.25 55.94 91.38
  A 1.02 1.02 0.0 0 1 57.01 92.23
  L 57.73 96.43
  Q 57.87 97.20 58.65 97.23
  Q 62.94 97.35 66.60 95.17
  A 1.53 1.52 -30.0 0 0 67.15 93.12
  L 65.37 89.88
  A 0.76 0.75 60.5 0 1 65.65 88.86
  C 73.94 83.99 80.67 76.79 81.42 66.86
  Q 81.51 65.67 80.70 66.55
  C 75.97 71.72 70.35 77.83 63.90 80.99
  A 1.34 1.33 68.2 0 1 62.04 80.19
  L 59.17 71.34
  Q 58.94 70.62 59.68 70.78
  C 63.41 71.56 65.94 72.52 69.75 70.96
  C 72.83 69.71 73.53 66.01 71.85 63.30
  Q 69.91 60.18 65.84 59.92
  Q 65.16 59.88 65.62 59.38
  Z"
/>
<path fill="#000000" d="
  M 65.84 59.92
  Q 69.91 60.18 71.85 63.30
  C 73.53 66.01 72.83 69.71 69.75 70.96
  C 65.94 72.52 63.41 71.56 59.68 70.78
  Q 58.94 70.62 59.17 71.34
  L 62.04 80.19
  A 1.34 1.33 68.2 0 0 63.90 80.99
  C 70.35 77.83 75.97 71.72 80.70 66.55
  Q 81.51 65.67 81.42 66.86
  C 80.67 76.79 73.94 83.99 65.65 88.86
  A 0.76 0.75 60.5 0 0 65.37 89.88
  L 67.15 93.12
  A 1.53 1.52 -30.0 0 1 66.60 95.17
  Q 62.94 97.35 58.65 97.23
  Q 57.87 97.20 57.73 96.43
  L 57.01 92.23
  A 1.02 1.02 0.0 0 0 55.94 91.38
  Q 42.00 92.25 33.91 81.10
  Q 32.91 79.72 34.47 80.40
  Q 42.03 83.67 50.83 84.06
  C 57.10 84.33 55.87 77.49 51.76 76.23
  C 42.80 73.47 32.73 73.31 24.69 78.48
  Q 23.53 79.22 24.06 77.95
  Q 28.66 66.82 31.39 54.73
  C 32.07 51.75 42.63 49.55 45.10 49.29
  Q 45.58 49.24 45.46 48.77
  L 43.96 43.22
  Q 43.84 42.79 43.41 42.88
  Q 42.98 42.96 42.64 43.22
  Q 42.22 43.54 41.89 43.13
  L 39.80 40.50
  Q 39.31 39.89 39.09 40.64
  C 37.22 47.11 27.31 42.63 30.94 37.27
  Q 31.31 36.72 30.66 36.60
  C 20.46 34.82 26.36 20.34 35.74 23.36
  Q 37.29 23.86 38.36 24.09
  Q 39.07 24.25 38.86 23.55
  L 37.40 18.80
  Q 37.21 18.19 36.57 18.24
  C 27.77 18.97 20.91 24.19 15.67 31.03
  Q 14.53 32.52 14.75 30.66
  C 15.98 20.31 23.49 12.83 33.29 9.55
  Q 35.29 8.88 33.38 7.99
  Q 32.30 7.49 31.66 6.44
  A 1.47 1.47 0.0 0 1 32.53 4.24
  L 39.48 2.39
  Q 40.06 2.24 40.32 2.78
  Q 41.13 4.44 40.82 6.42
  Q 40.57 8.00 42.16 7.80
  C 49.77 6.82 60.71 7.46 66.54 13.48
  A 0.45 0.45 0.0 0 1 66.21 14.24
  C 58.75 14.28 51.73 13.37 44.28 15.27
  A 2.19 2.18 87.9 0 0 42.68 17.00
  Q 41.98 21.07 46.48 21.88
  C 53.79 23.19 67.98 23.98 74.41 19.76
  Q 75.91 18.78 75.24 20.44
  C 72.63 26.96 69.99 35.13 65.05 40.54
  C 61.99 43.88 55.55 43.27 51.56 43.37
  Q 50.68 43.39 50.92 44.23
  L 53.24 52.48
  Q 53.44 53.21 53.90 52.61
  L 54.51 51.81
  Q 54.93 51.26 55.35 51.82
  Q 56.55 53.39 58.25 54.42
  A 0.70 0.70 0.0 0 0 59.04 54.38
  C 60.58 53.19 62.39 51.83 64.39 52.64
  Q 67.55 53.91 66.69 57.81
  Q 66.58 58.32 66.23 58.71
  L 65.62 59.38
  Q 65.16 59.88 65.84 59.92
  Z
  M 50.73 27.04
  A 0.30 0.30 0.0 0 0 50.50 26.72
  L 46.02 25.68
  A 0.30 0.30 0.0 0 0 45.66 26.05
  L 49.18 38.08
  A 0.30 0.30 0.0 0 0 49.77 38.02
  L 50.73 27.04
  Z
  M 51.88 72.44
  Q 52.80 73.04 52.56 71.96
  Q 50.85 64.37 48.69 56.90
  Q 48.13 54.99 48.07 56.98
  L 47.67 68.36
  A 2.33 2.33 0.0 0 0 48.74 70.41
  L 51.88 72.44
  Z"
/>
<path fill="#ffffff" d="
  M 50.73 27.04
  L 49.77 38.02
  A 0.30 0.30 0.0 0 1 49.18 38.08
  L 45.66 26.05
  A 0.30 0.30 0.0 0 1 46.02 25.68
  L 50.50 26.72
  A 0.30 0.30 0.0 0 1 50.73 27.04
  Z"
/>
<path fill="#ffffff" d="
  M 51.88 72.44
  L 48.74 70.41
  A 2.33 2.33 0.0 0 1 47.67 68.36
  L 48.07 56.98
  Q 48.13 54.99 48.69 56.90
  Q 50.85 64.37 52.56 71.96
  Q 52.80 73.04 51.88 72.44
  Z"
/>
</svg>
