<?xml version="1.0" encoding="UTF-8" standalone="no"?>
<!DOCTYPE svg PUBLIC "-//W3C//DTD SVG 1.1//EN" "http://www.w3.org/Graphics/SVG/1.1/DTD/svg11.dtd">
<svg xmlns="http://www.w3.org/2000/svg" version="1.1" viewBox="0.00 0.00 100.00 100.00">
<path stroke="#808080" stroke-width="2.00" fill="none" stroke-linecap="butt" vector-effect="non-scaling-stroke" d="
  M 69.39 20.30
  A 0.44 0.44 0.0 0 0 68.77 20.30
  L 50.31 38.79
  A 0.44 0.44 0.0 0 1 49.69 38.79
  L 31.18 20.28
  A 0.44 0.44 0.0 0 0 30.56 20.28
  L 20.28 30.57
  A 0.44 0.44 0.0 0 0 20.28 31.19
  L 38.79 49.69
  A 0.44 0.44 0.0 0 1 38.79 50.31
  L 20.28 68.79
  A 0.44 0.44 0.0 0 0 20.28 69.41
  L 30.58 79.73
  A 0.44 0.44 0.0 0 0 31.20 79.73
  L 49.70 61.20
  A 0.44 0.44 0.0 0 1 50.32 61.20
  L 68.82 79.71
  A 0.44 0.44 0.0 0 0 69.44 79.71
  L 79.73 69.43
  A 0.44 0.44 0.0 0 0 79.73 68.81
  L 61.21 50.31
  A 0.44 0.44 0.0 0 1 61.21 49.69
  L 79.71 31.24
  A 0.44 0.44 0.0 0 0 79.71 30.62
  L 69.39 20.30"
/>
<path fill="#000000" d="
  M 50.46 19.24
  L 69.38 0.30
  A 0.62 0.62 0.0 0 1 70.26 0.30
  L 79.24 9.35
  A 0.62 0.62 0.0 0 0 80.12 9.35
  L 89.12 0.31
  A 0.62 0.62 0.0 0 1 90.00 0.31
  L 99.74 10.03
  A 0.62 0.62 0.0 0 1 99.74 10.91
  L 90.66 19.91
  A 0.62 0.62 0.0 0 0 90.67 20.79
  L 99.75 29.75
  A 0.62 0.62 0.0 0 1 99.75 30.63
  L 80.79 49.55
  A 0.62 0.62 0.0 0 0 80.79 50.43
  L 99.75 69.35
  A 0.62 0.62 0.0 0 1 99.75 70.23
  L 90.67 79.21
  A 0.62 0.62 0.0 0 0 90.67 80.09
  L 99.74 89.08
  A 0.62 0.62 0.0 0 1 99.74 89.96
  L 90.00 99.68
  A 0.62 0.62 0.0 0 1 89.12 99.68
  L 80.13 90.62
  A 0.62 0.62 0.0 0 0 79.25 90.62
  L 70.26 99.69
  A 0.62 0.62 0.0 0 1 69.38 99.69
  L 50.45 80.74
  A 0.62 0.62 0.0 0 0 49.57 80.74
  L 30.64 99.69
  A 0.62 0.62 0.0 0 1 29.76 99.69
  L 20.79 90.63
  A 0.62 0.62 0.0 0 0 19.91 90.63
  L 10.91 99.69
  A 0.62 0.62 0.0 0 1 10.03 99.69
  L 0.31 89.95
  A 0.62 0.62 0.0 0 1 0.31 89.07
  L 9.35 80.10
  A 0.62 0.62 0.0 0 0 9.35 79.22
  L 0.29 70.22
  A 0.62 0.62 0.0 0 1 0.29 69.34
  L 19.25 50.43
  A 0.62 0.62 0.0 0 0 19.25 49.55
  L 0.31 30.65
  A 0.62 0.62 0.0 0 1 0.31 29.77
  L 9.35 20.78
  A 0.62 0.62 0.0 0 0 9.35 19.90
  L 0.31 10.91
  A 0.62 0.62 0.0 0 1 0.31 10.03
  L 10.05 0.30
  A 0.62 0.62 0.0 0 1 10.93 0.30
  L 19.91 9.36
  A 0.62 0.62 0.0 0 0 20.79 9.36
  L 29.80 0.28
  A 0.62 0.62 0.0 0 1 30.68 0.28
  L 49.58 19.24
  A 0.62 0.62 0.0 0 0 50.46 19.24
  Z
  M 69.39 20.30
  A 0.44 0.44 0.0 0 0 68.77 20.30
  L 50.31 38.79
  A 0.44 0.44 0.0 0 1 49.69 38.79
  L 31.18 20.28
  A 0.44 0.44 0.0 0 0 30.56 20.28
  L 20.28 30.57
  A 0.44 0.44 0.0 0 0 20.28 31.19
  L 38.79 49.69
  A 0.44 0.44 0.0 0 1 38.79 50.31
  L 20.28 68.79
  A 0.44 0.44 0.0 0 0 20.28 69.41
  L 30.58 79.73
  A 0.44 0.44 0.0 0 0 31.20 79.73
  L 49.70 61.20
  A 0.44 0.44 0.0 0 1 50.32 61.20
  L 68.82 79.71
  A 0.44 0.44 0.0 0 0 69.44 79.71
  L 79.73 69.43
  A 0.44 0.44 0.0 0 0 79.73 68.81
  L 61.21 50.31
  A 0.44 0.44 0.0 0 1 61.21 49.69
  L 79.71 31.24
  A 0.44 0.44 0.0 0 0 79.71 30.62
  L 69.39 20.30
  Z"
/>
<path fill="#ffffff" d="
  M 69.39 20.30
  L 79.71 30.62
  A 0.44 0.44 0.0 0 1 79.71 31.24
  L 61.21 49.69
  A 0.44 0.44 0.0 0 0 61.21 50.31
  L 79.73 68.81
  A 0.44 0.44 0.0 0 1 79.73 69.43
  L 69.44 79.71
  A 0.44 0.44 0.0 0 1 68.82 79.71
  L 50.32 61.20
  A 0.44 0.44 0.0 0 0 49.70 61.20
  L 31.20 79.73
  A 0.44 0.44 0.0 0 1 30.58 79.73
  L 20.28 69.41
  A 0.44 0.44 0.0 0 1 20.28 68.79
  L 38.79 50.31
  A 0.44 0.44 0.0 0 0 38.79 49.69
  L 20.28 31.19
  A 0.44 0.44 0.0 0 1 20.28 30.57
  L 30.56 20.28
  A 0.44 0.44 0.0 0 1 31.18 20.28
  L 49.69 38.79
  A 0.44 0.44 0.0 0 0 50.31 38.79
  L 68.77 20.30
  A 0.44 0.44 0.0 0 1 69.39 20.30
  Z"
/>
</svg>
