<?xml version="1.0" encoding="UTF-8" standalone="no"?>
<!DOCTYPE svg PUBLIC "-//W3C//DTD SVG 1.1//EN" "http://www.w3.org/Graphics/SVG/1.1/DTD/svg11.dtd">
<svg xmlns="http://www.w3.org/2000/svg" version="1.1" viewBox="0.00 0.00 100.00 100.00">
<path fill="#000000" d="
  M 26.86 86.81
  Q 23.12 84.79 21.24 80.72
  A 1.26 1.25 41.7 0 1 21.18 79.78
  C 22.82 74.88 29.32 70.13 35.35 64.64
  C 37.59 62.60 39.92 61.18 41.53 58.17
  Q 41.76 57.74 41.63 57.26
  Q 40.33 52.54 35.35 54.13
  C 31.18 55.46 26.89 57.76 22.32 59.17
  Q 19.70 59.99 17.16 61.09
  Q 13.40 62.72 9.50 63.10
  A 2.06 2.05 -9.1 0 1 7.30 61.51
  C 6.35 57.33 5.21 49.31 6.72 45.22
  Q 7.14 44.07 8.37 44.03
  Q 12.53 43.89 16.59 44.06
  C 22.28 44.30 28.38 45.77 34.25 46.78
  Q 36.22 47.12 37.76 46.72
  Q 38.28 46.59 38.51 46.11
  Q 39.97 43.17 36.94 41.56
  C 28.75 37.20 22.41 33.99 16.81 30.42
  C 14.57 28.99 11.93 28.03 10.21 25.68
  A 0.87 0.86 38.5 0 1 10.11 24.85
  C 12.04 20.07 16.43 16.86 20.13 13.64
  C 22.12 11.90 23.50 12.90 24.94 14.67
  Q 34.69 26.63 41.63 36.87
  C 43.47 39.59 48.24 40.57 47.91 36.01
  Q 47.60 31.73 45.34 25.65
  C 44.11 22.36 43.67 19.10 42.79 15.74
  C 42.14 13.27 42.04 10.99 41.93 8.58
  A 1.56 1.56 0.0 0 1 43.17 6.97
  Q 51.03 5.35 58.96 6.78
  A 1.32 1.31 -80.8 0 1 60.03 8.27
  C 59.19 13.93 58.96 19.49 57.72 25.09
  Q 56.15 32.14 56.21 35.00
  Q 56.26 37.71 59.25 38.57
  Q 59.69 38.70 60.11 38.51
  C 63.88 36.73 67.42 31.90 70.38 28.90
  C 73.19 26.04 77.21 20.65 81.99 17.54
  C 86.78 14.42 91.56 24.50 92.98 28.59
  Q 93.14 29.06 92.93 29.51
  Q 91.96 31.58 89.68 32.93
  Q 77.59 40.08 68.29 44.55
  Q 66.78 45.28 65.45 47.10
  C 62.27 51.45 71.84 51.94 73.75 51.92
  C 82.79 51.80 89.96 51.57 95.66 53.28
  A 1.81 1.80 -84.4 0 1 96.93 54.83
  Q 97.77 63.47 92.47 70.24
  A 1.12 1.11 32.2 0 1 91.09 70.55
  C 87.34 68.70 83.46 67.25 79.88 65.05
  Q 73.83 61.32 67.60 57.93
  C 65.47 56.77 63.72 56.69 62.53 58.95
  Q 62.30 59.38 62.48 59.83
  Q 64.32 64.44 66.01 66.49
  Q 71.74 73.47 76.90 80.88
  C 79.71 84.91 74.34 87.96 71.23 89.02
  C 69.29 89.68 66.35 91.48 63.44 91.07
  Q 62.96 91.00 62.63 90.65
  Q 59.81 87.79 59.44 85.76
  Q 57.63 75.83 56.81 68.25
  Q 56.47 65.08 55.69 62.65
  Q 55.53 62.15 55.07 61.90
  C 51.17 59.77 48.50 61.50 46.55 65.16
  C 42.39 72.97 40.59 81.06 37.35 88.06
  C 35.24 92.64 29.35 88.16 26.86 86.81
  Z
  M 58.8959 49.5273
  A 7.46 6.72 1.9 0 0 51.6628 42.5637
  A 7.46 6.72 1.9 0 0 43.9841 49.0327
  A 7.46 6.72 1.9 0 0 51.2172 55.9963
  A 7.46 6.72 1.9 0 0 58.8959 49.5273
  Z"
/>
</svg>
