<?xml version="1.0" encoding="UTF-8" standalone="no"?>
<!DOCTYPE svg PUBLIC "-//W3C//DTD SVG 1.1//EN" "http://www.w3.org/Graphics/SVG/1.1/DTD/svg11.dtd">
<svg xmlns="http://www.w3.org/2000/svg" version="1.1" viewBox="0.00 0.00 100.00 42.00">
<path fill="#000000" d="
  M 64.26 42.00
  Q 64.11 42.00 63.95 42.00
  L 50.50 34.15
  Q 49.98 33.84 49.46 34.14
  L 35.95 42.00
  L 35.56 42.00
  L 0.56 21.66
  A 0.74 0.73 45.1 0 1 0.56 20.39
  L 35.04 0.37
  A 1.60 1.59 44.7 0 1 36.65 0.37
  L 49.74 8.01
  A 0.49 0.49 0.0 0 0 50.24 8.01
  L 63.30 0.37
  A 1.66 1.63 44.2 0 1 64.96 0.36
  L 99.45 20.37
  A 0.72 0.72 0.0 0 1 99.45 21.61
  L 64.26 42.00
  Z
  M 28.25 21.27
  A 0.30 0.30 0.0 0 1 28.25 20.75
  L 41.54 13.05
  A 0.30 0.30 0.0 0 0 41.55 12.53
  L 36.00 9.29
  A 0.30 0.30 0.0 0 0 35.70 9.29
  L 15.98 20.74
  A 0.30 0.30 0.0 0 0 15.98 21.26
  L 35.69 32.68
  A 0.30 0.30 0.0 0 0 35.99 32.68
  L 41.58 29.47
  A 0.30 0.30 0.0 0 0 41.58 28.95
  L 28.25 21.27
  Z
  M 71.55 21.07
  Q 71.34 21.45 70.95 21.68
  Q 64.80 25.32 58.26 29.01
  A 0.21 0.21 0.0 0 0 58.26 29.37
  L 63.93 32.66
  Q 64.11 32.76 64.29 32.66
  L 84.18 21.16
  A 0.18 0.18 0.0 0 0 84.18 20.84
  L 64.45 9.37
  A 0.56 0.54 -44.1 0 0 63.90 9.37
  L 58.45 12.48
  A 0.32 0.31 -44.8 0 0 58.44 13.03
  L 71.42 20.57
  A 0.37 0.36 -60.3 0 1 71.55 21.07
  Z
  M 55.71 21.29
  A 0.33 0.33 0.0 0 0 55.71 20.71
  L 50.11 17.49
  A 0.33 0.33 0.0 0 0 49.77 17.49
  L 44.30 20.72
  A 0.33 0.33 0.0 0 0 44.30 21.29
  L 49.82 24.48
  A 0.33 0.33 0.0 0 0 50.14 24.49
  L 55.71 21.29
  Z"
/>
</svg>
