<?xml version="1.0" encoding="UTF-8" standalone="no"?>
<!DOCTYPE svg PUBLIC "-//W3C//DTD SVG 1.1//EN" "http://www.w3.org/Graphics/SVG/1.1/DTD/svg11.dtd">
<svg xmlns="http://www.w3.org/2000/svg" version="1.1" viewBox="0.00 0.00 100.00 100.00">
<path fill="#000000" fill-opacity="0.984" d="
  M 19.98 0.00
  L 23.56 0.00
  Q 34.05 1.34 39.32 8.97
  Q 45.15 17.42 42.42 29.12
  Q 42.29 29.66 42.81 29.48
  Q 50.19 26.99 57.51 29.70
  A 0.33 0.33 0.0 0 0 57.93 29.28
  C 52.88 15.35 62.15 1.94 76.56 0.00
  L 80.11 0.00
  Q 97.28 2.84 100.00 20.05
  L 100.00 24.06
  C 97.89 38.42 84.15 47.01 70.59 41.99
  Q 70.09 41.81 70.27 42.31
  Q 72.95 49.90 70.33 57.52
  Q 70.16 58.02 70.67 57.86
  C 84.94 53.39 98.03 61.67 100.00 76.59
  L 100.00 80.05
  Q 97.14 97.29 79.97 100.00
  L 76.65 100.00
  C 62.08 98.40 53.32 84.80 57.89 70.83
  Q 58.11 70.16 57.45 70.40
  Q 49.95 73.13 42.52 70.33
  A 0.32 0.32 0.0 0 0 42.10 70.73
  C 46.76 84.92 38.00 98.12 23.39 100.00
  L 19.91 100.00
  Q 3.21 97.27 0.00 80.65
  L 0.00 75.69
  C 2.42 61.80 15.38 53.19 29.02 57.88
  Q 29.70 58.11 29.51 57.42
  C 28.02 51.81 27.79 47.99 29.51 42.56
  Q 29.71 41.93 29.09 42.15
  C 15.48 46.78 2.63 38.40 0.00 24.57
  L 0.00 19.18
  Q 3.38 2.46 19.98 0.00
  Z
  M 39.99 21.73
  A 18.27 18.27 0.0 0 0 21.72 3.46
  A 18.27 18.27 0.0 0 0 3.45 21.73
  A 18.27 18.27 0.0 0 0 21.72 40.00
  A 18.27 18.27 0.0 0 0 39.99 21.73
  Z
  M 96.59 21.71
  A 18.28 18.28 0.0 0 0 78.31 3.43
  A 18.28 18.28 0.0 0 0 60.03 21.71
  A 18.28 18.28 0.0 0 0 78.31 39.99
  A 18.28 18.28 0.0 0 0 96.59 21.71
  Z
  M 68.20 49.99
  A 18.26 18.26 0.0 0 0 49.94 31.73
  A 18.26 18.26 0.0 0 0 31.68 49.99
  A 18.26 18.26 0.0 0 0 49.94 68.25
  A 18.26 18.26 0.0 0 0 68.20 49.99
  Z
  M 39.99 78.29
  A 18.29 18.29 0.0 0 0 21.70 60.00
  A 18.29 18.29 0.0 0 0 3.41 78.29
  A 18.29 18.29 0.0 0 0 21.70 96.58
  A 18.29 18.29 0.0 0 0 39.99 78.29
  Z
  M 96.61 78.28
  A 18.29 18.29 0.0 0 0 78.32 59.99
  A 18.29 18.29 0.0 0 0 60.03 78.28
  A 18.29 18.29 0.0 0 0 78.32 96.57
  A 18.29 18.29 0.0 0 0 96.61 78.28
  Z"
/>
</svg>
