<?xml version="1.0" encoding="UTF-8" standalone="no"?>
<!DOCTYPE svg PUBLIC "-//W3C//DTD SVG 1.1//EN" "http://www.w3.org/Graphics/SVG/1.1/DTD/svg11.dtd">
<svg xmlns="http://www.w3.org/2000/svg" version="1.1" viewBox="0.00 0.00 100.00 100.00">
<g stroke-width="2.00" fill="none" stroke-linecap="butt">
<path stroke="#808080" vector-effect="non-scaling-stroke" d="
  M 17.54 48.75
  C -0.18 52.10 -1.37 77.13 20.44 76.25
  Q 20.99 76.23 20.98 76.77
  Q 20.96 80.76 21.06 81.99
  C 21.72 89.57 29.06 95.44 36.75 93.52
  Q 45.45 91.35 48.62 82.88
  Q 48.80 82.38 48.96 82.89
  C 54.40 100.39 78.40 98.76 76.36 78.54
  Q 76.30 77.93 76.91 78.02
  C 96.83 80.87 99.78 56.58 82.51 50.52
  A 0.28 0.28 0.0 0 1 82.54 49.98
  C 91.96 47.79 99.58 35.74 92.41 27.03
  C 89.06 22.97 84.24 21.82 79.03 22.01
  Q 78.49 22.03 78.53 21.50
  C 78.99 14.31 77.70 8.69 71.25 5.45
  C 62.06 0.82 52.63 9.28 50.82 17.81
  A 0.27 0.27 0.0 0 1 50.29 17.79
  C 47.33 -0.53 21.00 -1.21 22.14 20.40
  Q 22.17 20.98 21.59 20.90
  Q 17.57 20.29 14.24 21.07
  C 5.77 23.07 1.91 32.53 6.47 40.03
  C 9.19 44.48 13.15 47.18 17.55 48.29
  Q 18.58 48.55 17.54 48.75"
/>
<path stroke="#808080" vector-effect="non-scaling-stroke" d="
  M 23.34 31.69
  Q 22.72 31.03 23.40 30.42
  L 25.14 28.88
  Q 25.54 28.53 25.26 28.09
  C 22.87 24.23 13.89 25.68 11.32 28.93
  C 7.19 34.15 12.82 41.66 18.00 42.98
  Q 30.54 46.19 45.40 46.75
  Q 46.79 46.81 46.86 45.42
  Q 47.46 33.36 45.45 20.78
  Q 44.71 16.20 43.27 14.00
  C 39.01 7.48 29.64 7.28 27.81 16.19
  Q 27.10 19.64 27.93 23.44
  A 1.37 1.37 0.0 0 0 30.25 24.10
  L 31.72 22.60
  Q 32.37 21.95 33.01 22.61
  L 35.55 25.22
  Q 36.19 25.89 35.49 26.49
  L 33.57 28.10
  Q 33.08 28.52 33.51 29.01
  L 35.19 30.87
  A 0.63 0.62 46.7 0 1 35.17 31.74
  L 32.24 34.61
  Q 31.75 35.08 31.31 34.56
  L 29.69 32.66
  A 0.54 0.53 48.2 0 0 28.91 32.61
  L 27.04 34.36
  Q 26.44 34.92 25.86 34.32
  L 23.34 31.69"
/>
<path stroke="#808080" vector-effect="non-scaling-stroke" d="
  M 64.79 31.04
  L 66.64 29.46
  Q 67.09 29.07 66.67 28.65
  L 64.72 26.71
  Q 64.30 26.30 64.72 25.88
  L 67.54 23.08
  Q 68.08 22.55 68.60 23.11
  L 70.28 24.91
  A 0.81 0.81 0.0 0 0 71.43 24.96
  Q 72.68 23.81 72.87 22.73
  C 73.69 17.96 73.82 11.89 68.26 9.93
  C 61.09 7.40 56.69 15.48 55.43 21.25
  Q 52.73 33.60 52.55 46.16
  Q 52.55 46.62 53.01 46.64
  Q 64.66 47.15 76.25 45.81
  Q 81.20 45.24 83.23 44.21
  C 87.35 42.12 91.39 37.00 89.42 32.25
  C 87.34 27.25 80.99 26.72 76.24 27.53
  A 1.57 1.57 0.0 0 0 75.39 30.19
  L 76.65 31.45
  Q 77.31 32.10 76.64 32.76
  L 74.06 35.28
  Q 73.41 35.92 72.79 35.25
  L 70.98 33.27
  A 0.64 0.63 -44.7 0 0 70.05 33.27
  L 68.57 34.85
  Q 67.97 35.49 67.37 34.85
  L 64.74 32.00
  Q 64.27 31.49 64.79 31.04"
/>
<path stroke="#808080" vector-effect="non-scaling-stroke" d="
  M 22.65 65.69
  L 25.72 62.74
  A 0.48 0.48 0.0 0 1 26.41 62.77
  L 28.41 65.06
  Q 28.68 65.37 28.97 65.08
  L 30.91 63.14
  A 0.65 0.65 0.0 0 1 31.85 63.16
  L 34.37 65.86
  A 0.98 0.97 47.5 0 1 34.32 67.25
  Q 33.25 68.24 32.89 68.89
  Q 32.56 69.49 33.45 70.24
  Q 34.22 70.89 34.69 71.38
  Q 35.31 72.02 34.65 72.63
  L 31.92 75.14
  Q 31.28 75.73 30.68 75.09
  L 28.86 73.12
  A 0.47 0.46 51.0 0 0 28.25 73.05
  C 25.14 75.21 25.95 80.92 27.19 83.89
  Q 29.41 89.20 35.25 88.34
  Q 42.37 87.29 43.68 79.54
  Q 45.95 66.10 46.79 52.52
  Q 46.83 51.98 46.29 51.99
  C 37.78 52.05 29.30 52.81 20.84 53.72
  C 6.93 55.22 4.02 72.57 21.74 70.83
  Q 23.30 70.67 24.39 69.45
  A 0.88 0.88 0.0 0 0 24.33 68.22
  L 22.65 66.63
  Q 22.15 66.16 22.65 65.69"
/>
<path stroke="#808080" vector-effect="non-scaling-stroke" d="
  M 67.15 64.46
  L 68.61 66.15
  A 0.89 0.89 0.0 0 0 69.94 66.18
  L 71.50 64.52
  Q 72.12 63.86 72.74 64.51
  L 75.34 67.27
  Q 75.89 67.86 75.29 68.39
  L 73.31 70.12
  Q 72.89 70.48 73.21 70.94
  C 76.40 75.57 86.83 72.64 88.41 67.43
  C 89.76 62.96 85.68 57.31 81.67 55.83
  C 72.77 52.55 61.99 51.84 52.60 51.99
  Q 51.92 52.00 51.95 52.69
  Q 52.66 66.90 54.03 80.76
  C 54.97 90.21 70.25 94.61 71.11 81.48
  C 71.25 79.33 71.46 75.65 69.32 74.65
  Q 68.82 74.41 68.43 74.80
  L 66.64 76.62
  A 0.55 0.55 0.0 0 1 65.84 76.60
  L 63.01 73.52
  A 0.69 0.68 -42.9 0 1 63.05 72.57
  L 64.94 70.78
  A 0.60 0.60 0.0 0 0 64.94 69.92
  L 63.27 68.27
  Q 62.78 67.78 63.28 67.31
  L 66.33 64.42
  Q 66.76 64.01 67.15 64.46"
/>
</g>
<path fill="#ffffff" d="
  M 0.00 0.00
  L 100.00 0.00
  L 100.00 100.00
  L 0.00 100.00
  L 0.00 0.00
  Z
  M 17.54 48.75
  C -0.18 52.10 -1.37 77.13 20.44 76.25
  Q 20.99 76.23 20.98 76.77
  Q 20.96 80.76 21.06 81.99
  C 21.72 89.57 29.06 95.44 36.75 93.52
  Q 45.45 91.35 48.62 82.88
  Q 48.80 82.38 48.96 82.89
  C 54.40 100.39 78.40 98.76 76.36 78.54
  Q 76.30 77.93 76.91 78.02
  C 96.83 80.87 99.78 56.58 82.51 50.52
  A 0.28 0.28 0.0 0 1 82.54 49.98
  C 91.96 47.79 99.58 35.74 92.41 27.03
  C 89.06 22.97 84.24 21.82 79.03 22.01
  Q 78.49 22.03 78.53 21.50
  C 78.99 14.31 77.70 8.69 71.25 5.45
  C 62.06 0.82 52.63 9.28 50.82 17.81
  A 0.27 0.27 0.0 0 1 50.29 17.79
  C 47.33 -0.53 21.00 -1.21 22.14 20.40
  Q 22.17 20.98 21.59 20.90
  Q 17.57 20.29 14.24 21.07
  C 5.77 23.07 1.91 32.53 6.47 40.03
  C 9.19 44.48 13.15 47.18 17.55 48.29
  Q 18.58 48.55 17.54 48.75
  Z"
/>
<path fill="#000000" d="
  M 17.55 48.29
  C 13.15 47.18 9.19 44.48 6.47 40.03
  C 1.91 32.53 5.77 23.07 14.24 21.07
  Q 17.57 20.29 21.59 20.90
  Q 22.17 20.98 22.14 20.40
  C 21.00 -1.21 47.33 -0.53 50.29 17.79
  A 0.27 0.27 0.0 0 0 50.82 17.81
  C 52.63 9.28 62.06 0.82 71.25 5.45
  C 77.70 8.69 78.99 14.31 78.53 21.50
  Q 78.49 22.03 79.03 22.01
  C 84.24 21.82 89.06 22.97 92.41 27.03
  C 99.58 35.74 91.96 47.79 82.54 49.98
  A 0.28 0.28 0.0 0 0 82.51 50.52
  C 99.78 56.58 96.83 80.87 76.91 78.02
  Q 76.30 77.93 76.36 78.54
  C 78.40 98.76 54.40 100.39 48.96 82.89
  Q 48.80 82.38 48.62 82.88
  Q 45.45 91.35 36.75 93.52
  C 29.06 95.44 21.72 89.57 21.06 81.99
  Q 20.96 80.76 20.98 76.77
  Q 20.99 76.23 20.44 76.25
  C -1.37 77.13 -0.18 52.10 17.54 48.75
  Q 18.58 48.55 17.55 48.29
  Z
  M 23.34 31.69
  Q 22.72 31.03 23.40 30.42
  L 25.14 28.88
  Q 25.54 28.53 25.26 28.09
  C 22.87 24.23 13.89 25.68 11.32 28.93
  C 7.19 34.15 12.82 41.66 18.00 42.98
  Q 30.54 46.19 45.40 46.75
  Q 46.79 46.81 46.86 45.42
  Q 47.46 33.36 45.45 20.78
  Q 44.71 16.20 43.27 14.00
  C 39.01 7.48 29.64 7.28 27.81 16.19
  Q 27.10 19.64 27.93 23.44
  A 1.37 1.37 0.0 0 0 30.25 24.10
  L 31.72 22.60
  Q 32.37 21.95 33.01 22.61
  L 35.55 25.22
  Q 36.19 25.89 35.49 26.49
  L 33.57 28.10
  Q 33.08 28.52 33.51 29.01
  L 35.19 30.87
  A 0.63 0.62 46.7 0 1 35.17 31.74
  L 32.24 34.61
  Q 31.75 35.08 31.31 34.56
  L 29.69 32.66
  A 0.54 0.53 48.2 0 0 28.91 32.61
  L 27.04 34.36
  Q 26.44 34.92 25.86 34.32
  L 23.34 31.69
  Z
  M 64.79 31.04
  L 66.64 29.46
  Q 67.09 29.07 66.67 28.65
  L 64.72 26.71
  Q 64.30 26.30 64.72 25.88
  L 67.54 23.08
  Q 68.08 22.55 68.60 23.11
  L 70.28 24.91
  A 0.81 0.81 0.0 0 0 71.43 24.96
  Q 72.68 23.81 72.87 22.73
  C 73.69 17.96 73.82 11.89 68.26 9.93
  C 61.09 7.40 56.69 15.48 55.43 21.25
  Q 52.73 33.60 52.55 46.16
  Q 52.55 46.62 53.01 46.64
  Q 64.66 47.15 76.25 45.81
  Q 81.20 45.24 83.23 44.21
  C 87.35 42.12 91.39 37.00 89.42 32.25
  C 87.34 27.25 80.99 26.72 76.24 27.53
  A 1.57 1.57 0.0 0 0 75.39 30.19
  L 76.65 31.45
  Q 77.31 32.10 76.64 32.76
  L 74.06 35.28
  Q 73.41 35.92 72.79 35.25
  L 70.98 33.27
  A 0.64 0.63 -44.7 0 0 70.05 33.27
  L 68.57 34.85
  Q 67.97 35.49 67.37 34.85
  L 64.74 32.00
  Q 64.27 31.49 64.79 31.04
  Z
  M 22.65 65.69
  L 25.72 62.74
  A 0.48 0.48 0.0 0 1 26.41 62.77
  L 28.41 65.06
  Q 28.68 65.37 28.97 65.08
  L 30.91 63.14
  A 0.65 0.65 0.0 0 1 31.85 63.16
  L 34.37 65.86
  A 0.98 0.97 47.5 0 1 34.32 67.25
  Q 33.25 68.24 32.89 68.89
  Q 32.56 69.49 33.45 70.24
  Q 34.22 70.89 34.69 71.38
  Q 35.31 72.02 34.65 72.63
  L 31.92 75.14
  Q 31.28 75.73 30.68 75.09
  L 28.86 73.12
  A 0.47 0.46 51.0 0 0 28.25 73.05
  C 25.14 75.21 25.95 80.92 27.19 83.89
  Q 29.41 89.20 35.25 88.34
  Q 42.37 87.29 43.68 79.54
  Q 45.95 66.10 46.79 52.52
  Q 46.83 51.98 46.29 51.99
  C 37.78 52.05 29.30 52.81 20.84 53.72
  C 6.93 55.22 4.02 72.57 21.74 70.83
  Q 23.30 70.67 24.39 69.45
  A 0.88 0.88 0.0 0 0 24.33 68.22
  L 22.65 66.63
  Q 22.15 66.16 22.65 65.69
  Z
  M 67.15 64.46
  L 68.61 66.15
  A 0.89 0.89 0.0 0 0 69.94 66.18
  L 71.50 64.52
  Q 72.12 63.86 72.74 64.51
  L 75.34 67.27
  Q 75.89 67.86 75.29 68.39
  L 73.31 70.12
  Q 72.89 70.48 73.21 70.94
  C 76.40 75.57 86.83 72.64 88.41 67.43
  C 89.76 62.96 85.68 57.31 81.67 55.83
  C 72.77 52.55 61.99 51.84 52.60 51.99
  Q 51.92 52.00 51.95 52.69
  Q 52.66 66.90 54.03 80.76
  C 54.97 90.21 70.25 94.61 71.11 81.48
  C 71.25 79.33 71.46 75.65 69.32 74.65
  Q 68.82 74.41 68.43 74.80
  L 66.64 76.62
  A 0.55 0.55 0.0 0 1 65.84 76.60
  L 63.01 73.52
  A 0.69 0.68 -42.9 0 1 63.05 72.57
  L 64.94 70.78
  A 0.60 0.60 0.0 0 0 64.94 69.92
  L 63.27 68.27
  Q 62.78 67.78 63.28 67.31
  L 66.33 64.42
  Q 66.76 64.01 67.15 64.46
  Z"
/>
<path fill="#ffffff" d="
  M 27.04 34.36
  L 28.91 32.61
  A 0.54 0.53 48.2 0 1 29.69 32.66
  L 31.31 34.56
  Q 31.75 35.08 32.24 34.61
  L 35.17 31.74
  A 0.63 0.62 46.7 0 0 35.19 30.87
  L 33.51 29.01
  Q 33.08 28.52 33.57 28.10
  L 35.49 26.49
  Q 36.19 25.89 35.55 25.22
  L 33.01 22.61
  Q 32.37 21.95 31.72 22.60
  L 30.25 24.10
  A 1.37 1.37 0.0 0 1 27.93 23.44
  Q 27.10 19.64 27.81 16.19
  C 29.64 7.28 39.01 7.48 43.27 14.00
  Q 44.71 16.20 45.45 20.78
  Q 47.46 33.36 46.86 45.42
  Q 46.79 46.81 45.40 46.75
  Q 30.54 46.19 18.00 42.98
  C 12.82 41.66 7.19 34.15 11.32 28.93
  C 13.89 25.68 22.87 24.23 25.26 28.09
  Q 25.54 28.53 25.14 28.88
  L 23.40 30.42
  Q 22.72 31.03 23.34 31.69
  L 25.86 34.32
  Q 26.44 34.92 27.04 34.36
  Z"
/>
<path fill="#ffffff" d="
  M 64.79 31.04
  Q 64.27 31.49 64.74 32.00
  L 67.37 34.85
  Q 67.97 35.49 68.57 34.85
  L 70.05 33.27
  A 0.64 0.63 -44.7 0 1 70.98 33.27
  L 72.79 35.25
  Q 73.41 35.92 74.06 35.28
  L 76.64 32.76
  Q 77.31 32.10 76.65 31.45
  L 75.39 30.19
  A 1.57 1.57 0.0 0 1 76.24 27.53
  C 80.99 26.72 87.34 27.25 89.42 32.25
  C 91.39 37.00 87.35 42.12 83.23 44.21
  Q 81.20 45.24 76.25 45.81
  Q 64.66 47.15 53.01 46.64
  Q 52.55 46.62 52.55 46.16
  Q 52.73 33.60 55.43 21.25
  C 56.69 15.48 61.09 7.40 68.26 9.93
  C 73.82 11.89 73.69 17.96 72.87 22.73
  Q 72.68 23.81 71.43 24.96
  A 0.81 0.81 0.0 0 1 70.28 24.91
  L 68.60 23.11
  Q 68.08 22.55 67.54 23.08
  L 64.72 25.88
  Q 64.30 26.30 64.72 26.71
  L 66.67 28.65
  Q 67.09 29.07 66.64 29.46
  L 64.79 31.04
  Z"
/>
<path fill="#ffffff" d="
  M 22.65 66.63
  L 24.33 68.22
  A 0.88 0.88 0.0 0 1 24.39 69.45
  Q 23.30 70.67 21.74 70.83
  C 4.02 72.57 6.93 55.22 20.84 53.72
  C 29.30 52.81 37.78 52.05 46.29 51.99
  Q 46.83 51.98 46.79 52.52
  Q 45.95 66.10 43.68 79.54
  Q 42.37 87.29 35.25 88.34
  Q 29.41 89.20 27.19 83.89
  C 25.95 80.92 25.14 75.21 28.25 73.05
  A 0.47 0.46 51.0 0 1 28.86 73.12
  L 30.68 75.09
  Q 31.28 75.73 31.92 75.14
  L 34.65 72.63
  Q 35.31 72.02 34.69 71.38
  Q 34.22 70.89 33.45 70.24
  Q 32.56 69.49 32.89 68.89
  Q 33.25 68.24 34.32 67.25
  A 0.98 0.97 47.5 0 0 34.37 65.86
  L 31.85 63.16
  A 0.65 0.65 0.0 0 0 30.91 63.14
  L 28.97 65.08
  Q 28.68 65.37 28.41 65.06
  L 26.41 62.77
  A 0.48 0.48 0.0 0 0 25.72 62.74
  L 22.65 65.69
  Q 22.15 66.16 22.65 66.63
  Z"
/>
<path fill="#ffffff" d="
  M 67.15 64.46
  Q 66.76 64.01 66.33 64.42
  L 63.28 67.31
  Q 62.78 67.78 63.27 68.27
  L 64.94 69.92
  A 0.60 0.60 0.0 0 1 64.94 70.78
  L 63.05 72.57
  A 0.69 0.68 -42.9 0 0 63.01 73.52
  L 65.84 76.60
  A 0.55 0.55 0.0 0 0 66.64 76.62
  L 68.43 74.80
  Q 68.82 74.41 69.32 74.65
  C 71.46 75.65 71.25 79.33 71.11 81.48
  C 70.25 94.61 54.97 90.21 54.03 80.76
  Q 52.66 66.90 51.95 52.69
  Q 51.92 52.00 52.60 51.99
  C 61.99 51.84 72.77 52.55 81.67 55.83
  C 85.68 57.31 89.76 62.96 88.41 67.43
  C 86.83 72.64 76.40 75.57 73.21 70.94
  Q 72.89 70.48 73.31 70.12
  L 75.29 68.39
  Q 75.89 67.86 75.34 67.27
  L 72.74 64.51
  Q 72.12 63.86 71.50 64.52
  L 69.94 66.18
  A 0.89 0.89 0.0 0 1 68.61 66.15
  L 67.15 64.46
  Z"
/>
</svg>
