<?xml version="1.0" encoding="UTF-8" standalone="no"?>
<!DOCTYPE svg PUBLIC "-//W3C//DTD SVG 1.1//EN" "http://www.w3.org/Graphics/SVG/1.1/DTD/svg11.dtd">
<svg xmlns="http://www.w3.org/2000/svg" version="1.1" viewBox="0.00 0.00 100.00 100.00">
<g stroke-width="2.00" fill="none" stroke-linecap="butt">
<path stroke="#808080" vector-effect="non-scaling-stroke" d="
  M 77.45 62.18
  C 83.09 66.33 90.54 72.02 91.25 79.47
  C 92.29 90.31 78.30 93.14 74.74 83.00
  Q 73.81 80.36 74.73 78.48
  C 78.20 71.42 86.37 81.47 79.98 83.17
  Q 78.80 83.48 79.69 84.32
  C 83.82 88.19 87.90 82.13 87.24 78.24
  C 85.96 70.68 75.73 68.64 71.04 74.31
  C 67.89 78.13 68.51 83.94 71.06 87.94
  C 75.78 95.34 86.82 96.87 92.81 90.28
  C 99.98 82.39 96.90 72.25 89.79 65.46
  Q 85.23 61.10 80.26 57.66
  A 1.03 1.03 0.0 0 1 79.92 56.37
  C 84.94 46.01 85.98 35.96 78.62 26.31
  Q 71.59 17.10 60.08 13.55
  A 1.36 1.35 4.3 0 1 59.14 12.47
  C 57.56 2.69 44.43 3.10 41.83 12.56
  Q 41.69 13.04 41.24 13.25
  Q 39.41 14.10 37.56 14.86
  C 23.34 20.65 13.05 34.07 18.56 50.23
  Q 19.05 51.65 21.11 56.68
  Q 21.31 57.17 20.89 57.47
  C 15.32 61.46 8.99 66.35 5.89 72.59
  C 1.99 80.40 4.73 90.42 13.22 93.60
  C 21.90 96.85 30.96 90.88 32.02 81.75
  C 33.62 67.92 12.41 67.51 13.77 81.00
  Q 13.97 82.93 16.83 85.02
  A 2.96 2.96 0.0 0 0 20.12 85.16
  L 20.62 84.85
  Q 22.24 83.86 20.57 82.95
  C 13.92 79.31 25.50 71.38 26.66 80.15
  C 27.54 86.79 18.74 91.94 13.32 87.91
  Q 9.18 84.83 9.48 80.24
  C 9.99 72.55 17.54 66.36 23.56 62.23
  A 0.31 0.31 0.0 0 1 24.00 62.32
  Q 35.23 80.75 50.23 96.29
  Q 50.48 96.55 50.73 96.29
  Q 65.76 80.73 77.00 62.27
  A 0.31 0.31 0.0 0 1 77.45 62.18"
/>
<path stroke="#808080" vector-effect="non-scaling-stroke" d="
  M 47.17 10.20
  A 0.41 0.41 0.0 0 0 47.29 11.00
  L 54.04 11.06
  A 0.41 0.41 0.0 0 0 54.17 10.26
  L 50.81 9.12
  A 0.41 0.41 0.0 0 0 50.55 9.12
  L 47.17 10.20"
/>
<path stroke="#808080" vector-effect="non-scaling-stroke" d="
  M 32.86 42.61
  A 1.20 1.20 0.0 0 1 31.05 41.43
  C 31.82 35.01 39.23 36.10 41.08 41.01
  C 43.35 47.06 37.69 51.96 31.85 49.87
  Q 26.67 48.03 25.17 42.51
  C 23.26 35.48 30.90 28.02 37.91 30.34
  Q 43.50 32.18 46.68 36.70
  Q 47.27 37.53 47.27 36.51
  L 47.25 17.23
  A 0.41 0.41 0.0 0 0 46.73 16.84
  C 35.46 20.14 22.45 28.22 22.45 41.43
  C 22.45 54.85 37.92 74.53 46.88 84.65
  Q 47.26 85.08 47.26 84.51
  L 47.25 44.22
  Q 47.25 43.69 46.96 43.24
  C 44.65 39.61 38.89 33.25 34.01 34.03
  C 26.54 35.24 27.16 46.63 35.44 46.28
  A 2.42 2.42 0.0 0 0 37.75 43.92
  Q 37.78 42.64 37.09 41.56
  A 2.13 2.13 0.0 0 0 33.32 41.94
  Q 33.12 42.46 32.86 42.61"
/>
<path stroke="#808080" vector-effect="non-scaling-stroke" d="
  M 68.14 42.53
  L 67.51 41.59
  A 2.10 2.09 48.4 0 0 64.18 41.39
  Q 63.25 42.47 63.25 43.85
  A 2.37 2.36 4.6 0 0 65.23 46.17
  C 74.54 47.73 74.36 32.99 65.39 34.13
  C 60.80 34.72 56.45 39.43 54.00 43.49
  Q 53.74 43.93 53.74 44.45
  L 53.73 84.55
  Q 53.73 85.07 54.07 84.68
  Q 65.39 71.98 73.55 57.10
  C 78.27 48.48 81.07 39.48 75.12 30.60
  C 70.45 23.65 62.14 19.15 54.26 16.86
  Q 53.74 16.71 53.74 17.25
  L 53.73 36.53
  Q 53.73 37.21 54.19 36.72
  Q 55.35 35.48 56.51 34.29
  C 61.39 29.24 69.71 28.14 74.19 34.45
  C 78.12 39.99 75.72 47.61 69.17 49.79
  C 61.49 52.35 55.94 43.53 61.58 38.60
  C 66.95 33.92 72.21 41.10 68.95 42.74
  Q 68.45 42.99 68.14 42.53"
/>
</g>
<path fill="#ffffff" d="
  M 0.00 0.00
  L 100.00 0.00
  L 100.00 100.00
  L 0.00 100.00
  L 0.00 0.00
  Z
  M 77.45 62.18
  C 83.09 66.33 90.54 72.02 91.25 79.47
  C 92.29 90.31 78.30 93.14 74.74 83.00
  Q 73.81 80.36 74.73 78.48
  C 78.20 71.42 86.37 81.47 79.98 83.17
  Q 78.80 83.48 79.69 84.32
  C 83.82 88.19 87.90 82.13 87.24 78.24
  C 85.96 70.68 75.73 68.64 71.04 74.31
  C 67.89 78.13 68.51 83.94 71.06 87.94
  C 75.78 95.34 86.82 96.87 92.81 90.28
  C 99.98 82.39 96.90 72.25 89.79 65.46
  Q 85.23 61.10 80.26 57.66
  A 1.03 1.03 0.0 0 1 79.92 56.37
  C 84.94 46.01 85.98 35.96 78.62 26.31
  Q 71.59 17.10 60.08 13.55
  A 1.36 1.35 4.3 0 1 59.14 12.47
  C 57.56 2.69 44.43 3.10 41.83 12.56
  Q 41.69 13.04 41.24 13.25
  Q 39.41 14.10 37.56 14.86
  C 23.34 20.65 13.05 34.07 18.56 50.23
  Q 19.05 51.65 21.11 56.68
  Q 21.31 57.17 20.89 57.47
  C 15.32 61.46 8.99 66.35 5.89 72.59
  C 1.99 80.40 4.73 90.42 13.22 93.60
  C 21.90 96.85 30.96 90.88 32.02 81.75
  C 33.62 67.92 12.41 67.51 13.77 81.00
  Q 13.97 82.93 16.83 85.02
  A 2.96 2.96 0.0 0 0 20.12 85.16
  L 20.62 84.85
  Q 22.24 83.86 20.57 82.95
  C 13.92 79.31 25.50 71.38 26.66 80.15
  C 27.54 86.79 18.74 91.94 13.32 87.91
  Q 9.18 84.83 9.48 80.24
  C 9.99 72.55 17.54 66.36 23.56 62.23
  A 0.31 0.31 0.0 0 1 24.00 62.32
  Q 35.23 80.75 50.23 96.29
  Q 50.48 96.55 50.73 96.29
  Q 65.76 80.73 77.00 62.27
  A 0.31 0.31 0.0 0 1 77.45 62.18
  Z"
/>
<path fill="#000000" d="
  M 77.45 62.18
  A 0.31 0.31 0.0 0 0 77.00 62.27
  Q 65.76 80.73 50.73 96.29
  Q 50.48 96.55 50.23 96.29
  Q 35.23 80.75 24.00 62.32
  A 0.31 0.31 0.0 0 0 23.56 62.23
  C 17.54 66.36 9.99 72.55 9.48 80.24
  Q 9.18 84.83 13.32 87.91
  C 18.74 91.94 27.54 86.79 26.66 80.15
  C 25.50 71.38 13.92 79.31 20.57 82.95
  Q 22.24 83.86 20.62 84.85
  L 20.12 85.16
  A 2.96 2.96 0.0 0 1 16.83 85.02
  Q 13.97 82.93 13.77 81.00
  C 12.41 67.51 33.62 67.92 32.02 81.75
  C 30.96 90.88 21.90 96.85 13.22 93.60
  C 4.73 90.42 1.99 80.40 5.89 72.59
  C 8.99 66.35 15.32 61.46 20.89 57.47
  Q 21.31 57.17 21.11 56.68
  Q 19.05 51.65 18.56 50.23
  C 13.05 34.07 23.34 20.65 37.56 14.86
  Q 39.41 14.10 41.24 13.25
  Q 41.69 13.04 41.83 12.56
  C 44.43 3.10 57.56 2.69 59.14 12.47
  A 1.36 1.35 4.3 0 0 60.08 13.55
  Q 71.59 17.10 78.62 26.31
  C 85.98 35.96 84.94 46.01 79.92 56.37
  A 1.03 1.03 0.0 0 0 80.26 57.66
  Q 85.23 61.10 89.79 65.46
  C 96.90 72.25 99.98 82.39 92.81 90.28
  C 86.82 96.87 75.78 95.34 71.06 87.94
  C 68.51 83.94 67.89 78.13 71.04 74.31
  C 75.73 68.64 85.96 70.68 87.24 78.24
  C 87.90 82.13 83.82 88.19 79.69 84.32
  Q 78.80 83.48 79.98 83.17
  C 86.37 81.47 78.20 71.42 74.73 78.48
  Q 73.81 80.36 74.74 83.00
  C 78.30 93.14 92.29 90.31 91.25 79.47
  C 90.54 72.02 83.09 66.33 77.45 62.18
  Z
  M 47.17 10.20
  A 0.41 0.41 0.0 0 0 47.29 11.00
  L 54.04 11.06
  A 0.41 0.41 0.0 0 0 54.17 10.26
  L 50.81 9.12
  A 0.41 0.41 0.0 0 0 50.55 9.12
  L 47.17 10.20
  Z
  M 32.86 42.61
  A 1.20 1.20 0.0 0 1 31.05 41.43
  C 31.82 35.01 39.23 36.10 41.08 41.01
  C 43.35 47.06 37.69 51.96 31.85 49.87
  Q 26.67 48.03 25.17 42.51
  C 23.26 35.48 30.90 28.02 37.91 30.34
  Q 43.50 32.18 46.68 36.70
  Q 47.27 37.53 47.27 36.51
  L 47.25 17.23
  A 0.41 0.41 0.0 0 0 46.73 16.84
  C 35.46 20.14 22.45 28.22 22.45 41.43
  C 22.45 54.85 37.92 74.53 46.88 84.65
  Q 47.26 85.08 47.26 84.51
  L 47.25 44.22
  Q 47.25 43.69 46.96 43.24
  C 44.65 39.61 38.89 33.25 34.01 34.03
  C 26.54 35.24 27.16 46.63 35.44 46.28
  A 2.42 2.42 0.0 0 0 37.75 43.92
  Q 37.78 42.64 37.09 41.56
  A 2.13 2.13 0.0 0 0 33.32 41.94
  Q 33.12 42.46 32.86 42.61
  Z
  M 68.14 42.53
  L 67.51 41.59
  A 2.10 2.09 48.4 0 0 64.18 41.39
  Q 63.25 42.47 63.25 43.85
  A 2.37 2.36 4.6 0 0 65.23 46.17
  C 74.54 47.73 74.36 32.99 65.39 34.13
  C 60.80 34.72 56.45 39.43 54.00 43.49
  Q 53.74 43.93 53.74 44.45
  L 53.73 84.55
  Q 53.73 85.07 54.07 84.68
  Q 65.39 71.98 73.55 57.10
  C 78.27 48.48 81.07 39.48 75.12 30.60
  C 70.45 23.65 62.14 19.15 54.26 16.86
  Q 53.74 16.71 53.74 17.25
  L 53.73 36.53
  Q 53.73 37.21 54.19 36.72
  Q 55.35 35.48 56.51 34.29
  C 61.39 29.24 69.71 28.14 74.19 34.45
  C 78.12 39.99 75.72 47.61 69.17 49.79
  C 61.49 52.35 55.94 43.53 61.58 38.60
  C 66.95 33.92 72.21 41.10 68.95 42.74
  Q 68.45 42.99 68.14 42.53
  Z"
/>
<path fill="#ffffff" d="
  M 47.17 10.20
  L 50.55 9.12
  A 0.41 0.41 0.0 0 1 50.81 9.12
  L 54.17 10.26
  A 0.41 0.41 0.0 0 1 54.04 11.06
  L 47.29 11.00
  A 0.41 0.41 0.0 0 1 47.17 10.20
  Z"
/>
<path fill="#ffffff" d="
  M 32.86 42.61
  Q 33.12 42.46 33.32 41.94
  A 2.13 2.13 0.0 0 1 37.09 41.56
  Q 37.78 42.64 37.75 43.92
  A 2.42 2.42 0.0 0 1 35.44 46.28
  C 27.16 46.63 26.54 35.24 34.01 34.03
  C 38.89 33.25 44.65 39.61 46.96 43.24
  Q 47.25 43.69 47.25 44.22
  L 47.26 84.51
  Q 47.26 85.08 46.88 84.65
  C 37.92 74.53 22.45 54.85 22.45 41.43
  C 22.45 28.22 35.46 20.14 46.73 16.84
  A 0.41 0.41 0.0 0 1 47.25 17.23
  L 47.27 36.51
  Q 47.27 37.53 46.68 36.70
  Q 43.50 32.18 37.91 30.34
  C 30.90 28.02 23.26 35.48 25.17 42.51
  Q 26.67 48.03 31.85 49.87
  C 37.69 51.96 43.35 47.06 41.08 41.01
  C 39.23 36.10 31.82 35.01 31.05 41.43
  A 1.20 1.20 0.0 0 0 32.86 42.61
  Z"
/>
<path fill="#ffffff" d="
  M 68.95 42.74
  C 72.21 41.10 66.95 33.92 61.58 38.60
  C 55.94 43.53 61.49 52.35 69.17 49.79
  C 75.72 47.61 78.12 39.99 74.19 34.45
  C 69.71 28.14 61.39 29.24 56.51 34.29
  Q 55.35 35.48 54.19 36.72
  Q 53.73 37.21 53.73 36.53
  L 53.74 17.25
  Q 53.74 16.71 54.26 16.86
  C 62.14 19.15 70.45 23.65 75.12 30.60
  C 81.07 39.48 78.27 48.48 73.55 57.10
  Q 65.39 71.98 54.07 84.68
  Q 53.73 85.07 53.73 84.55
  L 53.74 44.45
  Q 53.74 43.93 54.00 43.49
  C 56.45 39.43 60.80 34.72 65.39 34.13
  C 74.36 32.99 74.54 47.73 65.23 46.17
  A 2.37 2.36 4.6 0 1 63.25 43.85
  Q 63.25 42.47 64.18 41.39
  A 2.10 2.09 48.4 0 1 67.51 41.59
  L 68.14 42.53
  Q 68.45 42.99 68.95 42.74
  Z"
/>
</svg>
