<?xml version="1.0" encoding="UTF-8" standalone="no"?>
<!DOCTYPE svg PUBLIC "-//W3C//DTD SVG 1.1//EN" "http://www.w3.org/Graphics/SVG/1.1/DTD/svg11.dtd">
<svg xmlns="http://www.w3.org/2000/svg" version="1.1" viewBox="0.00 0.00 100.00 86.00">
<g stroke-width="2.00" fill="none" stroke-linecap="butt">
<path stroke="#797877" vector-effect="non-scaling-stroke" d="
  M 71.70 17.90
  L 71.70 16.88
  A 0.19 0.19 0.0 0 0 71.51 16.69
  L 31.15 16.62
  A 2.47 0.64 0.1 0 0 28.68 17.25
  L 28.68 17.37
  A 2.47 0.64 0.1 0 0 31.15 18.02
  L 71.51 18.09
  A 0.19 0.19 0.0 0 0 71.70 17.90"
/>
<path stroke="#797877" vector-effect="non-scaling-stroke" d="
  M 68.26 20.49
  L 68.26 19.41
  A 0.15 0.15 0.0 0 0 68.11 19.26
  L 36.87 19.26
  A 4.85 0.61 -0.0 0 0 32.02 19.87
  L 32.02 20.03
  A 4.85 0.61 0.0 0 0 36.87 20.64
  L 68.11 20.64
  A 0.15 0.15 0.0 0 0 68.26 20.49"
/>
<path stroke="#797877" vector-effect="non-scaling-stroke" d="
  M 35.80 21.97
  A 0.36 0.36 0.0 0 0 35.65 22.66
  L 36.89 23.22
  A 0.36 0.36 0.0 0 0 37.04 23.25
  L 63.55 23.25
  A 0.36 0.36 0.0 0 0 63.72 23.21
  L 64.73 22.66
  A 0.36 0.36 0.0 0 0 64.56 21.98
  L 35.80 21.97"
/>
<path stroke="#797877" vector-effect="non-scaling-stroke" d="
  M 61.08 25.88
  L 61.08 24.98
  A 0.22 0.22 0.0 0 0 60.86 24.76
  L 41.31 24.72
  A 2.07 0.56 0.1 0 0 39.24 25.28
  L 39.24 25.50
  A 2.07 0.56 0.1 0 0 41.31 26.06
  L 60.86 26.10
  A 0.22 0.22 0.0 0 0 61.08 25.88"
/>
<path stroke="#797877" vector-effect="non-scaling-stroke" d="
  M 42.80 27.94
  C 44.92 29.47 53.50 28.77 56.34 28.79
  A 0.93 0.93 0.0 0 0 57.01 28.53
  L 57.81 27.80
  A 0.24 0.24 0.0 0 0 57.64 27.38
  L 42.95 27.44
  Q 42.12 27.45 42.80 27.94"
/>
<path stroke="#797877" vector-effect="non-scaling-stroke" d="
  M 54.15 30.01
  L 46.31 30.01
  A 0.15 0.15 0.0 0 0 46.16 30.16
  L 46.16 30.24
  A 2.44 1.15 -0.0 0 0 48.60 31.39
  L 51.86 31.39
  A 2.44 1.15 0.0 0 0 54.30 30.24
  L 54.30 30.16
  A 0.15 0.15 0.0 0 0 54.15 30.01"
/>
<path stroke="#797877" vector-effect="non-scaling-stroke" d="
  M 50.48 32.85
  Q 50.21 32.61 50.09 32.62
  A 0.43 0.38 -32.4 0 0 49.87 33.38
  L 50.48 33.60
  Q 50.68 33.67 50.90 33.27
  Q 50.96 33.17 50.88 33.00
  Q 50.82 32.88 50.78 32.87
  Q 50.66 32.86 50.53 32.87
  Q 50.50 32.87 50.48 32.85"
/>
<path stroke="#797877" vector-effect="non-scaling-stroke" d="
  M 53.68 55.48
  L 53.73 54.94
  A 0.27 0.27 0.0 0 0 53.50 54.65
  Q 50.24 54.16 47.75 54.65
  Q 47.21 54.76 46.96 55.27
  Q 46.74 55.70 47.23 55.70
  L 53.52 55.63
  Q 53.67 55.63 53.68 55.48"
/>
<path stroke="#797877" vector-effect="non-scaling-stroke" d="
  M 57.00 57.40
  A 0.26 0.26 0.0 0 0 56.74 57.14
  L 43.84 57.14
  A 0.26 0.26 0.0 0 0 43.58 57.40
  L 43.58 58.02
  A 0.26 0.26 0.0 0 0 43.84 58.28
  L 56.74 58.28
  A 0.26 0.26 0.0 0 0 57.00 58.02
  L 57.00 57.40"
/>
<path stroke="#797877" vector-effect="non-scaling-stroke" d="
  M 60.5105 60.1580
  A 0.26 0.26 0.0 0 0 60.2510 59.8975
  L 40.1510 59.8625
  A 0.26 0.26 0.0 0 0 39.8906 60.1220
  L 39.8895 60.7620
  A 0.26 0.26 0.0 0 0 40.1490 61.0225
  L 60.2490 61.0575
  A 0.26 0.26 0.0 0 0 60.5094 60.7980
  L 60.5105 60.1580"
/>
<path stroke="#797877" vector-effect="non-scaling-stroke" d="
  M 36.33 62.68
  L 36.33 63.64
  A 0.24 0.24 0.0 0 0 36.57 63.88
  L 36.69 63.88
  A 27.60 0.33 -0.0 0 0 64.29 63.55
  L 64.29 62.77
  A 27.60 0.33 0.0 0 0 36.69 62.44
  L 36.57 62.44
  A 0.24 0.24 0.0 0 0 36.33 62.68"
/>
<path stroke="#797877" vector-effect="non-scaling-stroke" d="
  M 67.35 66.42
  A 0.35 0.35 0.0 0 0 67.51 65.76
  L 66.60 65.28
  A 0.35 0.35 0.0 0 0 66.43 65.24
  L 33.89 65.23
  A 0.35 0.35 0.0 0 0 33.69 65.29
  L 32.96 65.79
  A 0.35 0.35 0.0 0 0 33.16 66.43
  L 67.35 66.42"
/>
<path stroke="#797877" vector-effect="non-scaling-stroke" d="
  M 71.25 68.16
  A 0.27 0.27 0.0 0 0 70.98 67.89
  L 29.62 67.89
  A 0.27 0.27 0.0 0 0 29.35 68.16
  L 29.35 68.90
  A 0.27 0.27 0.0 0 0 29.62 69.17
  L 70.98 69.17
  A 0.27 0.27 0.0 0 0 71.25 68.90
  L 71.25 68.16"
/>
</g>
<path fill="#000000" d="
  M 99.43 84.50
  A 0.61 0.61 0.0 0 1 98.82 85.11
  L 1.62 85.11
  A 0.61 0.61 0.0 0 1 1.01 84.50
  L 1.01 1.80
  A 0.61 0.61 0.0 0 1 1.62 1.19
  L 98.82 1.19
  A 0.61 0.61 0.0 0 1 99.43 1.80
  L 99.43 84.50
  Z
  M 98.42 2.48
  A 0.26 0.26 0.0 0 0 98.16 2.22
  L 2.38 2.22
  A 0.26 0.26 0.0 0 0 2.12 2.48
  L 2.12 83.82
  A 0.26 0.26 0.0 0 0 2.38 84.08
  L 98.16 84.08
  A 0.26 0.26 0.0 0 0 98.42 83.82
  L 98.42 2.48
  Z"
/>
<path fill="#000000" d="
  M 85.48 70.66
  A 0.61 0.61 0.0 0 1 84.87 71.27
  L 15.59 71.27
  A 0.61 0.61 0.0 0 1 14.98 70.66
  L 14.98 15.54
  A 0.61 0.61 0.0 0 1 15.59 14.93
  L 84.87 14.93
  A 0.61 0.61 0.0 0 1 85.48 15.54
  L 85.48 70.66
  Z
  M 83.74 25.52
  A 1.94 1.93 71.4 0 0 84.50 23.98
  L 84.49 16.28
  A 0.36 0.35 -1.5 0 0 84.11 15.93
  Q 80.75 16.13 77.26 15.87
  Q 75.60 15.74 74.54 16.55
  Q 63.08 25.35 51.61 34.02
  A 0.55 0.55 0.0 0 0 51.61 34.90
  L 61.04 42.07
  A 0.84 0.84 0.0 0 0 62.06 42.07
  L 83.74 25.52
  Z
  M 16.06 24.84
  A 0.36 0.36 0.0 0 0 16.20 25.13
  L 38.70 42.30
  A 0.36 0.36 0.0 0 0 39.14 42.30
  L 49.00 34.78
  A 0.36 0.36 0.0 0 0 49.00 34.20
  L 25.32 16.12
  A 0.36 0.36 0.0 0 0 25.10 16.05
  L 16.37 15.99
  A 0.36 0.36 0.0 0 0 16.01 16.35
  L 16.06 24.84
  Z
  M 71.70 17.90
  L 71.70 16.88
  A 0.19 0.19 0.0 0 0 71.51 16.69
  L 31.15 16.62
  A 2.47 0.64 0.1 0 0 28.68 17.25
  L 28.68 17.37
  A 2.47 0.64 0.1 0 0 31.15 18.02
  L 71.51 18.09
  A 0.19 0.19 0.0 0 0 71.70 17.90
  Z
  M 68.26 20.49
  L 68.26 19.41
  A 0.15 0.15 0.0 0 0 68.11 19.26
  L 36.87 19.26
  A 4.85 0.61 -0.0 0 0 32.02 19.87
  L 32.02 20.03
  A 4.85 0.61 0.0 0 0 36.87 20.64
  L 68.11 20.64
  A 0.15 0.15 0.0 0 0 68.26 20.49
  Z
  M 35.80 21.97
  A 0.36 0.36 0.0 0 0 35.65 22.66
  L 36.89 23.22
  A 0.36 0.36 0.0 0 0 37.04 23.25
  L 63.55 23.25
  A 0.36 0.36 0.0 0 0 63.72 23.21
  L 64.73 22.66
  A 0.36 0.36 0.0 0 0 64.56 21.98
  L 35.80 21.97
  Z
  M 61.08 25.88
  L 61.08 24.98
  A 0.22 0.22 0.0 0 0 60.86 24.76
  L 41.31 24.72
  A 2.07 0.56 0.1 0 0 39.24 25.28
  L 39.24 25.50
  A 2.07 0.56 0.1 0 0 41.31 26.06
  L 60.86 26.10
  A 0.22 0.22 0.0 0 0 61.08 25.88
  Z
  M 16.57 26.72
  A 0.33 0.33 0.0 0 0 16.04 26.98
  L 16.04 59.26
  A 0.33 0.33 0.0 0 0 16.57 59.52
  L 37.72 43.38
  A 0.33 0.33 0.0 0 0 37.72 42.86
  L 16.57 26.72
  Z
  M 83.96 59.57
  A 0.33 0.33 0.0 0 0 84.49 59.30
  L 84.49 26.96
  A 0.33 0.33 0.0 0 0 83.96 26.69
  L 62.75 42.87
  A 0.33 0.33 0.0 0 0 62.75 43.39
  L 83.96 59.57
  Z
  M 42.80 27.94
  C 44.92 29.47 53.50 28.77 56.34 28.79
  A 0.93 0.93 0.0 0 0 57.01 28.53
  L 57.81 27.80
  A 0.24 0.24 0.0 0 0 57.64 27.38
  L 42.95 27.44
  Q 42.12 27.45 42.80 27.94
  Z
  M 54.15 30.01
  L 46.31 30.01
  A 0.15 0.15 0.0 0 0 46.16 30.16
  L 46.16 30.24
  A 2.44 1.15 -0.0 0 0 48.60 31.39
  L 51.86 31.39
  A 2.44 1.15 0.0 0 0 54.30 30.24
  L 54.30 30.16
  A 0.15 0.15 0.0 0 0 54.15 30.01
  Z
  M 50.48 32.85
  Q 50.21 32.61 50.09 32.62
  A 0.43 0.38 -32.4 0 0 49.87 33.38
  L 50.48 33.60
  Q 50.68 33.67 50.90 33.27
  Q 50.96 33.17 50.88 33.00
  Q 50.82 32.88 50.78 32.87
  Q 50.66 32.86 50.53 32.87
  Q 50.50 32.87 50.48 32.85
  Z
  M 60.27 42.76
  Q 55.38 39.15 50.61 35.40
  A 0.57 0.57 0.0 0 0 49.91 35.40
  L 40.25 42.76
  A 0.48 0.47 45.3 0 0 40.25 43.51
  L 49.92 50.85
  A 0.53 0.51 -44.4 0 0 50.55 50.85
  L 60.79 43.05
  Q 60.95 42.93 60.80 42.89
  Q 60.75 42.87 60.70 42.86
  A 0.50 0.03 9.8 0 1 60.27 42.76
  Z
  M 25.05 70.24
  A 0.41 0.41 0.0 0 0 25.30 70.16
  L 48.96 52.07
  A 0.41 0.41 0.0 0 0 48.96 51.41
  L 39.16 43.98
  A 0.41 0.41 0.0 0 0 38.66 43.98
  L 16.21 61.11
  A 0.41 0.41 0.0 0 0 16.05 61.43
  L 16.00 69.85
  A 0.41 0.41 0.0 0 0 16.41 70.26
  L 25.05 70.24
  Z
  M 84.49 61.49
  A 0.43 0.43 0.0 0 0 84.32 61.15
  L 61.81 43.99
  A 0.43 0.43 0.0 0 0 61.29 43.99
  L 51.51 51.44
  A 0.43 0.43 0.0 0 0 51.51 52.12
  L 75.17 70.16
  A 0.43 0.43 0.0 0 0 75.42 70.25
  L 84.07 70.28
  A 0.43 0.43 0.0 0 0 84.50 69.85
  L 84.49 61.49
  Z
  M 53.68 55.48
  L 53.73 54.94
  A 0.27 0.27 0.0 0 0 53.50 54.65
  Q 50.24 54.16 47.75 54.65
  Q 47.21 54.76 46.96 55.27
  Q 46.74 55.70 47.23 55.70
  L 53.52 55.63
  Q 53.67 55.63 53.68 55.48
  Z
  M 57.00 57.40
  A 0.26 0.26 0.0 0 0 56.74 57.14
  L 43.84 57.14
  A 0.26 0.26 0.0 0 0 43.58 57.40
  L 43.58 58.02
  A 0.26 0.26 0.0 0 0 43.84 58.28
  L 56.74 58.28
  A 0.26 0.26 0.0 0 0 57.00 58.02
  L 57.00 57.40
  Z
  M 60.5105 60.1580
  A 0.26 0.26 0.0 0 0 60.2510 59.8975
  L 40.1510 59.8625
  A 0.26 0.26 0.0 0 0 39.8906 60.1220
  L 39.8895 60.7620
  A 0.26 0.26 0.0 0 0 40.1490 61.0225
  L 60.2490 61.0575
  A 0.26 0.26 0.0 0 0 60.5094 60.7980
  L 60.5105 60.1580
  Z
  M 36.33 62.68
  L 36.33 63.64
  A 0.24 0.24 0.0 0 0 36.57 63.88
  L 36.69 63.88
  A 27.60 0.33 -0.0 0 0 64.29 63.55
  L 64.29 62.77
  A 27.60 0.33 0.0 0 0 36.69 62.44
  L 36.57 62.44
  A 0.24 0.24 0.0 0 0 36.33 62.68
  Z
  M 67.35 66.42
  A 0.35 0.35 0.0 0 0 67.51 65.76
  L 66.60 65.28
  A 0.35 0.35 0.0 0 0 66.43 65.24
  L 33.89 65.23
  A 0.35 0.35 0.0 0 0 33.69 65.29
  L 32.96 65.79
  A 0.35 0.35 0.0 0 0 33.16 66.43
  L 67.35 66.42
  Z
  M 71.25 68.16
  A 0.27 0.27 0.0 0 0 70.98 67.89
  L 29.62 67.89
  A 0.27 0.27 0.0 0 0 29.35 68.16
  L 29.35 68.90
  A 0.27 0.27 0.0 0 0 29.62 69.17
  L 70.98 69.17
  A 0.27 0.27 0.0 0 0 71.25 68.90
  L 71.25 68.16
  Z"
/>
<path fill="#f1efee" d="
  M 71.70 17.90
  A 0.19 0.19 0.0 0 1 71.51 18.09
  L 31.15 18.02
  A 2.47 0.64 0.1 0 1 28.68 17.37
  L 28.68 17.25
  A 2.47 0.64 0.1 0 1 31.15 16.62
  L 71.51 16.69
  A 0.19 0.19 0.0 0 1 71.70 16.88
  L 71.70 17.90
  Z"
/>
<path fill="#f1efee" d="
  M 68.26 20.49
  A 0.15 0.15 0.0 0 1 68.11 20.64
  L 36.87 20.64
  A 4.85 0.61 -0.0 0 1 32.02 20.03
  L 32.02 19.87
  A 4.85 0.61 -0.0 0 1 36.87 19.26
  L 68.11 19.26
  A 0.15 0.15 0.0 0 1 68.26 19.41
  L 68.26 20.49
  Z"
/>
<path fill="#f1efee" d="
  M 35.80 21.97
  L 64.56 21.98
  A 0.36 0.36 0.0 0 1 64.73 22.66
  L 63.72 23.21
  A 0.36 0.36 0.0 0 1 63.55 23.25
  L 37.04 23.25
  A 0.36 0.36 0.0 0 1 36.89 23.22
  L 35.65 22.66
  A 0.36 0.36 0.0 0 1 35.80 21.97
  Z"
/>
<path fill="#f1efee" d="
  M 61.08 25.88
  A 0.22 0.22 0.0 0 1 60.86 26.10
  L 41.31 26.06
  A 2.07 0.56 0.1 0 1 39.24 25.50
  L 39.24 25.28
  A 2.07 0.56 0.1 0 1 41.31 24.72
  L 60.86 24.76
  A 0.22 0.22 0.0 0 1 61.08 24.98
  L 61.08 25.88
  Z"
/>
<path fill="#f1efee" d="
  M 42.80 27.94
  Q 42.12 27.45 42.95 27.44
  L 57.64 27.38
  A 0.24 0.24 0.0 0 1 57.81 27.80
  L 57.01 28.53
  A 0.93 0.93 0.0 0 1 56.34 28.79
  C 53.50 28.77 44.92 29.47 42.80 27.94
  Z"
/>
<path fill="#f1efee" d="
  M 54.15 30.01
  A 0.15 0.15 0.0 0 1 54.30 30.16
  L 54.30 30.24
  A 2.44 1.15 -0.0 0 1 51.86 31.39
  L 48.60 31.39
  A 2.44 1.15 -0.0 0 1 46.16 30.24
  L 46.16 30.16
  A 0.15 0.15 0.0 0 1 46.31 30.01
  L 54.15 30.01
  Z"
/>
<path fill="#f1efee" d="
  M 50.53 32.87
  Q 50.66 32.86 50.78 32.87
  Q 50.82 32.88 50.88 33.00
  Q 50.96 33.17 50.90 33.27
  Q 50.68 33.67 50.48 33.60
  L 49.87 33.38
  A 0.43 0.38 -32.4 0 1 50.09 32.62
  Q 50.21 32.61 50.48 32.85
  Q 50.50 32.87 50.53 32.87
  Z"
/>
<path fill="#f1efee" d="
  M 53.52 55.63
  L 47.23 55.70
  Q 46.74 55.70 46.96 55.27
  Q 47.21 54.76 47.75 54.65
  Q 50.24 54.16 53.50 54.65
  A 0.27 0.27 0.0 0 1 53.73 54.94
  L 53.68 55.48
  Q 53.67 55.63 53.52 55.63
  Z"
/>
<rect fill="#f1efee" x="43.58" y="57.14" width="13.42" height="1.14" rx="0.26"/>
<rect fill="#f1efee" x="-10.31" y="-0.58" transform="translate(50.20,60.46) rotate(0.1)" width="20.62" height="1.16" rx="0.26"/>
<path fill="#f1efee" d="
  M 36.33 62.68
  A 0.24 0.24 0.0 0 1 36.57 62.44
  L 36.69 62.44
  A 27.60 0.33 -0.0 0 1 64.29 62.77
  L 64.29 63.55
  A 27.60 0.33 0.0 0 1 36.69 63.88
  L 36.57 63.88
  A 0.24 0.24 0.0 0 1 36.33 63.64
  L 36.33 62.68
  Z"
/>
<path fill="#f1efee" d="
  M 67.35 66.42
  L 33.16 66.43
  A 0.35 0.35 0.0 0 1 32.96 65.79
  L 33.69 65.29
  A 0.35 0.35 0.0 0 1 33.89 65.23
  L 66.43 65.24
  A 0.35 0.35 0.0 0 1 66.60 65.28
  L 67.51 65.76
  A 0.35 0.35 0.0 0 1 67.35 66.42
  Z"
/>
<rect fill="#f1efee" x="29.35" y="67.89" width="41.90" height="1.28" rx="0.27"/>
</svg>
