<?xml version="1.0" encoding="UTF-8" standalone="no"?>
<!DOCTYPE svg PUBLIC "-//W3C//DTD SVG 1.1//EN" "http://www.w3.org/Graphics/SVG/1.1/DTD/svg11.dtd">
<svg xmlns="http://www.w3.org/2000/svg" version="1.1" viewBox="0.00 0.00 100.00 100.00">
<path stroke="#808080" stroke-width="2.00" fill="none" stroke-linecap="butt" vector-effect="non-scaling-stroke" d="
  M 76.93 73.82
  A 0.16 0.15 -84.9 0 1 77.10 73.67
  C 80.66 74.10 89.29 71.95 84.78 66.45
  C 81.96 63.02 77.14 62.67 73.02 62.34
  Q 72.20 62.27 72.95 61.92
  C 74.64 61.14 76.61 60.62 78.02 59.66
  C 87.41 53.33 88.71 42.92 83.79 33.37
  C 80.45 26.90 74.40 21.57 68.45 17.51
  C 58.34 10.62 47.58 5.34 35.52 2.76
  Q 35.02 2.65 34.92 2.77
  A 0.56 0.56 0.0 0 0 35.08 3.59
  C 45.40 9.64 55.61 16.71 63.15 26.10
  C 67.36 31.35 71.58 41.16 67.00 47.10
  C 61.31 54.48 42.61 53.30 33.25 52.99
  Q 27.89 52.82 25.76 53.28
  C 16.23 55.36 22.13 63.35 28.19 63.69
  Q 30.18 63.80 28.27 64.39
  C 25.58 65.22 21.94 66.14 21.96 69.42
  C 21.98 73.09 27.99 73.58 30.52 73.73
  Q 32.01 73.82 30.56 74.19
  C 27.72 74.92 22.05 75.87 21.86 79.77
  C 21.68 83.29 28.21 84.15 30.42 83.99
  Q 34.01 83.72 30.51 84.82
  C 28.29 85.51 26.14 85.48 23.82 87.10
  C 20.64 89.33 21.61 92.61 24.99 93.76
  Q 28.92 95.09 36.35 95.02
  C 49.31 94.89 62.28 95.04 75.25 94.99
  C 78.48 94.98 87.04 94.24 85.74 89.56
  C 84.82 86.27 79.60 85.20 76.79 84.67
  Q 75.66 84.45 76.79 84.24
  C 79.77 83.66 83.56 84.42 85.47 81.20
  Q 87.00 78.64 83.90 76.55
  Q 81.24 74.76 77.29 74.51
  Q 76.89 74.48 76.91 74.07
  L 76.93 73.82"
/>
<path fill="#ffffff" d="
  M 0.00 0.00
  L 100.00 0.00
  L 100.00 100.00
  L 0.00 100.00
  L 0.00 0.00
  Z
  M 76.93 73.82
  A 0.16 0.15 -84.9 0 1 77.10 73.67
  C 80.66 74.10 89.29 71.95 84.78 66.45
  C 81.96 63.02 77.14 62.67 73.02 62.34
  Q 72.20 62.27 72.95 61.92
  C 74.64 61.14 76.61 60.62 78.02 59.66
  C 87.41 53.33 88.71 42.92 83.79 33.37
  C 80.45 26.90 74.40 21.57 68.45 17.51
  C 58.34 10.62 47.58 5.34 35.52 2.76
  Q 35.02 2.65 34.92 2.77
  A 0.56 0.56 0.0 0 0 35.08 3.59
  C 45.40 9.64 55.61 16.71 63.15 26.10
  C 67.36 31.35 71.58 41.16 67.00 47.10
  C 61.31 54.48 42.61 53.30 33.25 52.99
  Q 27.89 52.82 25.76 53.28
  C 16.23 55.36 22.13 63.35 28.19 63.69
  Q 30.18 63.80 28.27 64.39
  C 25.58 65.22 21.94 66.14 21.96 69.42
  C 21.98 73.09 27.99 73.58 30.52 73.73
  Q 32.01 73.82 30.56 74.19
  C 27.72 74.92 22.05 75.87 21.86 79.77
  C 21.68 83.29 28.21 84.15 30.42 83.99
  Q 34.01 83.72 30.51 84.82
  C 28.29 85.51 26.14 85.48 23.82 87.10
  C 20.64 89.33 21.61 92.61 24.99 93.76
  Q 28.92 95.09 36.35 95.02
  C 49.31 94.89 62.28 95.04 75.25 94.99
  C 78.48 94.98 87.04 94.24 85.74 89.56
  C 84.82 86.27 79.60 85.20 76.79 84.67
  Q 75.66 84.45 76.79 84.24
  C 79.77 83.66 83.56 84.42 85.47 81.20
  Q 87.00 78.64 83.90 76.55
  Q 81.24 74.76 77.29 74.51
  Q 76.89 74.48 76.91 74.07
  L 76.93 73.82
  Z"
/>
<path fill="#000000" d="
  M 77.29 74.51
  Q 81.24 74.76 83.90 76.55
  Q 87.00 78.64 85.47 81.20
  C 83.56 84.42 79.77 83.66 76.79 84.24
  Q 75.66 84.45 76.79 84.67
  C 79.60 85.20 84.82 86.27 85.74 89.56
  C 87.04 94.24 78.48 94.98 75.25 94.99
  C 62.28 95.04 49.31 94.89 36.35 95.02
  Q 28.92 95.09 24.99 93.76
  C 21.61 92.61 20.64 89.33 23.82 87.10
  C 26.14 85.48 28.29 85.51 30.51 84.82
  Q 34.01 83.72 30.42 83.99
  C 28.21 84.15 21.68 83.29 21.86 79.77
  C 22.05 75.87 27.72 74.92 30.56 74.19
  Q 32.01 73.82 30.52 73.73
  C 27.99 73.58 21.98 73.09 21.96 69.42
  C 21.94 66.14 25.58 65.22 28.27 64.39
  Q 30.18 63.80 28.19 63.69
  C 22.13 63.35 16.23 55.36 25.76 53.28
  Q 27.89 52.82 33.25 52.99
  C 42.61 53.30 61.31 54.48 67.00 47.10
  C 71.58 41.16 67.36 31.35 63.15 26.10
  C 55.61 16.71 45.40 9.64 35.08 3.59
  A 0.56 0.56 0.0 0 1 34.92 2.77
  Q 35.02 2.65 35.52 2.76
  C 47.58 5.34 58.34 10.62 68.45 17.51
  C 74.40 21.57 80.45 26.90 83.79 33.37
  C 88.71 42.92 87.41 53.33 78.02 59.66
  C 76.61 60.62 74.64 61.14 72.95 61.92
  Q 72.20 62.27 73.02 62.34
  C 77.14 62.67 81.96 63.02 84.78 66.45
  C 89.29 71.95 80.66 74.10 77.10 73.67
  A 0.16 0.15 -84.9 0 0 76.93 73.82
  L 76.91 74.07
  Q 76.89 74.48 77.29 74.51
  Z"
/>
</svg>
