<?xml version="1.0" encoding="UTF-8" standalone="no"?>
<!DOCTYPE svg PUBLIC "-//W3C//DTD SVG 1.1//EN" "http://www.w3.org/Graphics/SVG/1.1/DTD/svg11.dtd">
<svg xmlns="http://www.w3.org/2000/svg" version="1.1" viewBox="0.00 0.00 100.00 100.00">
<g stroke-width="2.00" fill="none" stroke-linecap="butt">
<path stroke="#808080" vector-effect="non-scaling-stroke" d="
  M 29.43 54.48
  Q 30.09 54.47 29.64 54.96
  C 16.06 69.71 23.52 93.33 42.94 98.09
  Q 49.46 99.68 55.76 97.78
  C 74.60 92.09 81.07 69.63 67.81 54.90
  A 0.27 0.26 -20.7 0 1 68.01 54.46
  L 76.48 54.52
  A 0.33 0.33 0.0 0 0 76.77 54.03
  L 49.08 2.36
  Q 48.77 1.79 48.56 2.18
  L 20.89 53.78
  A 0.50 0.50 0.0 0 0 21.33 54.52
  L 29.43 54.48"
/>
<path stroke="#808080" vector-effect="non-scaling-stroke" d="
  M 34.62 45.68
  A 0.34 0.34 0.0 0 0 34.92 46.18
  L 62.60 46.18
  A 0.34 0.34 0.0 0 0 62.90 45.68
  L 49.06 19.87
  A 0.34 0.34 0.0 0 0 48.46 19.87
  L 34.62 45.68"
/>
<path stroke="#808080" vector-effect="non-scaling-stroke" d="
  M 66.53 72.63
  A 17.77 17.77 0.0 0 0 48.76 54.86
  A 17.77 17.77 0.0 0 0 30.99 72.63
  A 17.77 17.77 0.0 0 0 48.76 90.40
  A 17.77 17.77 0.0 0 0 66.53 72.63"
/>
</g>
<path fill="#ffffff" d="
  M 0.00 0.00
  L 100.00 0.00
  L 100.00 100.00
  L 0.00 100.00
  L 0.00 0.00
  Z
  M 29.43 54.48
  Q 30.09 54.47 29.64 54.96
  C 16.06 69.71 23.52 93.33 42.94 98.09
  Q 49.46 99.68 55.76 97.78
  C 74.60 92.09 81.07 69.63 67.81 54.90
  A 0.27 0.26 -20.7 0 1 68.01 54.46
  L 76.48 54.52
  A 0.33 0.33 0.0 0 0 76.77 54.03
  L 49.08 2.36
  Q 48.77 1.79 48.56 2.18
  L 20.89 53.78
  A 0.50 0.50 0.0 0 0 21.33 54.52
  L 29.43 54.48
  Z"
/>
<path fill="#000000" d="
  M 29.43 54.48
  L 21.33 54.52
  A 0.50 0.50 0.0 0 1 20.89 53.78
  L 48.56 2.18
  Q 48.77 1.79 49.08 2.36
  L 76.77 54.03
  A 0.33 0.33 0.0 0 1 76.48 54.52
  L 68.01 54.46
  A 0.27 0.26 -20.7 0 0 67.81 54.90
  C 81.07 69.63 74.60 92.09 55.76 97.78
  Q 49.46 99.68 42.94 98.09
  C 23.52 93.33 16.06 69.71 29.64 54.96
  Q 30.09 54.47 29.43 54.48
  Z
  M 34.62 45.68
  A 0.34 0.34 0.0 0 0 34.92 46.18
  L 62.60 46.18
  A 0.34 0.34 0.0 0 0 62.90 45.68
  L 49.06 19.87
  A 0.34 0.34 0.0 0 0 48.46 19.87
  L 34.62 45.68
  Z
  M 66.53 72.63
  A 17.77 17.77 0.0 0 0 48.76 54.86
  A 17.77 17.77 0.0 0 0 30.99 72.63
  A 17.77 17.77 0.0 0 0 48.76 90.40
  A 17.77 17.77 0.0 0 0 66.53 72.63
  Z"
/>
<path fill="#ffffff" d="
  M 34.62 45.68
  L 48.46 19.87
  A 0.34 0.34 0.0 0 1 49.06 19.87
  L 62.90 45.68
  A 0.34 0.34 0.0 0 1 62.60 46.18
  L 34.92 46.18
  A 0.34 0.34 0.0 0 1 34.62 45.68
  Z"
/>
<circle fill="#ffffff" cx="48.76" cy="72.63" r="17.77"/>
</svg>
