<?xml version="1.0" encoding="UTF-8" standalone="no"?>
<!DOCTYPE svg PUBLIC "-//W3C//DTD SVG 1.1//EN" "http://www.w3.org/Graphics/SVG/1.1/DTD/svg11.dtd">
<svg xmlns="http://www.w3.org/2000/svg" version="1.1" viewBox="0.00 0.00 100.00 100.00">
<g stroke-width="2.00" fill="none" stroke-linecap="butt">
<path stroke="#808080" vector-effect="non-scaling-stroke" d="
  M 35.11 42.36
  C 33.84 35.79 28.33 28.66 21.01 28.06
  Q 17.34 27.76 16.45 30.47
  A 2.03 2.02 17.6 0 0 17.79 33.05
  C 19.96 33.71 22.42 33.67 24.09 34.96
  Q 28.10 38.08 28.41 43.71
  Q 28.47 44.81 27.38 44.58
  C 23.27 43.72 18.46 40.91 14.31 42.05
  Q 12.28 42.61 6.14 45.83
  Q 4.74 46.56 4.29 47.44
  Q 3.65 48.68 4.73 49.56
  Q 7.84 52.10 10.73 53.83
  C 14.70 56.20 22.04 54.72 26.55 54.19
  A 1.07 1.06 -4.5 0 1 27.74 55.20
  C 27.93 59.16 24.50 64.61 19.75 63.46
  Q 17.63 62.95 16.03 63.00
  A 0.93 0.93 0.0 0 0 15.24 63.50
  C 13.64 66.61 16.86 68.68 19.52 68.94
  C 27.36 69.69 32.22 64.02 34.96 57.29
  A 0.28 0.27 38.8 0 1 35.44 57.24
  L 39.93 63.63
  Q 40.25 64.08 39.78 64.36
  C 35.51 66.97 32.11 68.30 31.78 74.08
  C 31.66 76.26 31.56 83.01 34.68 83.47
  A 1.98 1.97 10.4 0 0 36.89 81.95
  Q 37.82 77.89 38.09 74.01
  Q 38.44 68.98 43.59 69.76
  Q 44.43 69.89 44.87 70.61
  Q 46.61 73.44 46.28 77.26
  C 45.72 83.67 44.39 92.89 51.38 96.13
  Q 55.79 98.17 53.02 94.19
  Q 50.66 90.80 51.50 85.96
  Q 51.66 85.02 53.75 79.88
  Q 55.39 75.84 55.48 71.24
  A 1.55 1.55 0.0 0 1 57.46 69.78
  C 65.80 72.17 60.58 80.35 65.19 83.27
  Q 65.64 83.55 66.15 83.41
  C 69.12 82.59 68.86 80.32 69.07 77.28
  C 69.53 70.57 64.71 67.63 59.50 64.70
  Q 58.92 64.37 59.35 63.85
  L 62.73 59.78
  Q 63.14 59.29 63.46 59.85
  Q 64.06 60.90 64.62 61.96
  Q 70.08 72.23 81.68 69.43
  Q 87.13 68.11 85.77 62.67
  A 1.88 1.87 -25.8 0 0 82.81 61.64
  C 80.68 63.28 80.77 64.57 77.50 63.58
  C 74.11 62.55 69.60 59.94 69.75 56.00
  C 70.01 49.56 77.18 53.22 79.98 54.60
  Q 81.85 55.52 86.74 55.23
  Q 92.79 54.88 94.40 49.66
  Q 95.17 47.16 92.92 48.50
  Q 86.02 52.62 79.58 47.63
  C 77.20 45.78 76.07 45.00 73.34 44.94
  A 1.20 1.19 -87.0 0 1 72.18 43.65
  C 72.63 37.95 79.56 37.05 83.19 40.21
  A 1.83 1.83 0.0 0 0 85.87 39.90
  C 88.60 36.16 83.10 32.40 80.01 31.98
  Q 70.95 30.76 66.71 38.13
  C 66.24 38.96 65.80 40.49 65.11 41.55
  Q 64.85 41.97 64.55 41.58
  L 60.68 36.53
  Q 60.22 35.94 60.91 35.65
  C 64.41 34.18 68.40 32.19 70.47 29.12
  Q 74.41 23.28 69.60 16.89
  Q 67.54 14.17 64.52 15.95
  A 0.88 0.87 72.1 0 0 64.10 16.78
  C 64.39 20.03 67.13 24.14 63.41 26.76
  Q 60.19 29.01 56.95 28.84
  Q 54.77 28.72 55.20 26.58
  Q 56.02 22.46 56.81 19.02
  C 58.18 13.07 54.73 8.92 51.81 4.20
  Q 50.77 2.51 49.17 3.24
  A 1.56 1.50 -86.7 0 0 48.51 3.85
  C 45.48 8.92 41.20 13.70 43.07 19.98
  Q 44.16 23.65 44.44 27.72
  Q 44.50 28.64 43.58 28.61
  Q 40.55 28.54 37.73 26.50
  C 31.55 22.05 38.64 18.64 36.17 15.54
  Q 35.91 15.21 35.50 15.13
  Q 33.00 14.58 31.53 15.79
  C 25.95 20.37 28.76 28.40 34.22 31.82
  Q 37.01 33.57 39.79 35.03
  A 0.54 0.54 0.0 0 1 39.90 35.92
  Q 36.92 38.54 35.90 42.38
  A 0.41 0.40 -43.4 0 1 35.11 42.36"
/>
<path stroke="#808080" vector-effect="non-scaling-stroke" d="
  M 57.44 43.92
  Q 56.58 41.33 54.38 39.72
  Q 53.85 39.33 53.79 39.98
  L 53.43 43.75
  A 0.99 0.99 0.0 0 0 54.51 44.83
  L 57.00 44.59
  A 0.51 0.51 0.0 0 0 57.44 43.92"
/>
<path stroke="#808080" vector-effect="non-scaling-stroke" d="
  M 45.37 39.85
  C 43.90 40.75 42.31 43.23 42.03 44.86
  A 0.76 0.75 4.8 0 0 42.78 45.74
  L 44.75 45.75
  A 0.88 0.88 0.0 0 0 45.64 44.93
  L 45.99 40.24
  A 0.42 0.41 76.6 0 0 45.37 39.85"
/>
<path stroke="#808080" vector-effect="non-scaling-stroke" d="
  M 53.96 57.92
  A 0.61 0.61 0.0 0 0 54.95 58.40
  L 57.70 56.20
  A 0.61 0.61 0.0 0 0 57.84 56.05
  L 59.55 53.31
  A 0.61 0.61 0.0 0 0 58.98 52.38
  L 54.53 52.76
  A 0.61 0.61 0.0 0 0 53.98 53.37
  L 53.96 57.92"
/>
<path stroke="#808080" vector-effect="non-scaling-stroke" d="
  M 42.98 57.36
  A 0.66 0.66 0.0 0 0 43.13 57.55
  L 45.19 59.32
  A 0.66 0.66 0.0 0 0 46.28 58.77
  L 45.91 53.34
  A 0.66 0.66 0.0 0 0 45.25 52.72
  L 41.62 52.74
  A 0.66 0.66 0.0 0 0 41.04 53.71
  L 42.98 57.36"
/>
</g>
<path fill="#ffffff" d="
  M 0.00 0.00
  L 100.00 0.00
  L 100.00 100.00
  L 0.00 100.00
  L 0.00 0.00
  Z
  M 35.11 42.36
  C 33.84 35.79 28.33 28.66 21.01 28.06
  Q 17.34 27.76 16.45 30.47
  A 2.03 2.02 17.6 0 0 17.79 33.05
  C 19.96 33.71 22.42 33.67 24.09 34.96
  Q 28.10 38.08 28.41 43.71
  Q 28.47 44.81 27.38 44.58
  C 23.27 43.72 18.46 40.91 14.31 42.05
  Q 12.28 42.61 6.14 45.83
  Q 4.74 46.56 4.29 47.44
  Q 3.65 48.68 4.73 49.56
  Q 7.84 52.10 10.73 53.83
  C 14.70 56.20 22.04 54.72 26.55 54.19
  A 1.07 1.06 -4.5 0 1 27.74 55.20
  C 27.93 59.16 24.50 64.61 19.75 63.46
  Q 17.63 62.95 16.03 63.00
  A 0.93 0.93 0.0 0 0 15.24 63.50
  C 13.64 66.61 16.86 68.68 19.52 68.94
  C 27.36 69.69 32.22 64.02 34.96 57.29
  A 0.28 0.27 38.8 0 1 35.44 57.24
  L 39.93 63.63
  Q 40.25 64.08 39.78 64.36
  C 35.51 66.97 32.11 68.30 31.78 74.08
  C 31.66 76.26 31.56 83.01 34.68 83.47
  A 1.98 1.97 10.4 0 0 36.89 81.95
  Q 37.82 77.89 38.09 74.01
  Q 38.44 68.98 43.59 69.76
  Q 44.43 69.89 44.87 70.61
  Q 46.61 73.44 46.28 77.26
  C 45.72 83.67 44.39 92.89 51.38 96.13
  Q 55.79 98.17 53.02 94.19
  Q 50.66 90.80 51.50 85.96
  Q 51.66 85.02 53.75 79.88
  Q 55.39 75.84 55.48 71.24
  A 1.55 1.55 0.0 0 1 57.46 69.78
  C 65.80 72.17 60.58 80.35 65.19 83.27
  Q 65.64 83.55 66.15 83.41
  C 69.12 82.59 68.86 80.32 69.07 77.28
  C 69.53 70.57 64.71 67.63 59.50 64.70
  Q 58.92 64.37 59.35 63.85
  L 62.73 59.78
  Q 63.14 59.29 63.46 59.85
  Q 64.06 60.90 64.62 61.96
  Q 70.08 72.23 81.68 69.43
  Q 87.13 68.11 85.77 62.67
  A 1.88 1.87 -25.8 0 0 82.81 61.64
  C 80.68 63.28 80.77 64.57 77.50 63.58
  C 74.11 62.55 69.60 59.94 69.75 56.00
  C 70.01 49.56 77.18 53.22 79.98 54.60
  Q 81.85 55.52 86.74 55.23
  Q 92.79 54.88 94.40 49.66
  Q 95.17 47.16 92.92 48.50
  Q 86.02 52.62 79.58 47.63
  C 77.20 45.78 76.07 45.00 73.34 44.94
  A 1.20 1.19 -87.0 0 1 72.18 43.65
  C 72.63 37.95 79.56 37.05 83.19 40.21
  A 1.83 1.83 0.0 0 0 85.87 39.90
  C 88.60 36.16 83.10 32.40 80.01 31.98
  Q 70.95 30.76 66.71 38.13
  C 66.24 38.96 65.80 40.49 65.11 41.55
  Q 64.85 41.97 64.55 41.58
  L 60.68 36.53
  Q 60.22 35.94 60.91 35.65
  C 64.41 34.18 68.40 32.19 70.47 29.12
  Q 74.41 23.28 69.60 16.89
  Q 67.54 14.17 64.52 15.95
  A 0.88 0.87 72.1 0 0 64.10 16.78
  C 64.39 20.03 67.13 24.14 63.41 26.76
  Q 60.19 29.01 56.95 28.84
  Q 54.77 28.72 55.20 26.58
  Q 56.02 22.46 56.81 19.02
  C 58.18 13.07 54.73 8.92 51.81 4.20
  Q 50.77 2.51 49.17 3.24
  A 1.56 1.50 -86.7 0 0 48.51 3.85
  C 45.48 8.92 41.20 13.70 43.07 19.98
  Q 44.16 23.65 44.44 27.72
  Q 44.50 28.64 43.58 28.61
  Q 40.55 28.54 37.73 26.50
  C 31.55 22.05 38.64 18.64 36.17 15.54
  Q 35.91 15.21 35.50 15.13
  Q 33.00 14.58 31.53 15.79
  C 25.95 20.37 28.76 28.40 34.22 31.82
  Q 37.01 33.57 39.79 35.03
  A 0.54 0.54 0.0 0 1 39.90 35.92
  Q 36.92 38.54 35.90 42.38
  A 0.41 0.40 -43.4 0 1 35.11 42.36
  Z"
/>
<path fill="#000000" d="
  M 35.11 42.36
  A 0.41 0.40 -43.4 0 0 35.90 42.38
  Q 36.92 38.54 39.90 35.92
  A 0.54 0.54 0.0 0 0 39.79 35.03
  Q 37.01 33.57 34.22 31.82
  C 28.76 28.40 25.95 20.37 31.53 15.79
  Q 33.00 14.58 35.50 15.13
  Q 35.91 15.21 36.17 15.54
  C 38.64 18.64 31.55 22.05 37.73 26.50
  Q 40.55 28.54 43.58 28.61
  Q 44.50 28.64 44.44 27.72
  Q 44.16 23.65 43.07 19.98
  C 41.20 13.70 45.48 8.92 48.51 3.85
  A 1.56 1.50 -86.7 0 1 49.17 3.24
  Q 50.77 2.51 51.81 4.20
  C 54.73 8.92 58.18 13.07 56.81 19.02
  Q 56.02 22.46 55.20 26.58
  Q 54.77 28.72 56.95 28.84
  Q 60.19 29.01 63.41 26.76
  C 67.13 24.14 64.39 20.03 64.10 16.78
  A 0.88 0.87 72.1 0 1 64.52 15.95
  Q 67.54 14.17 69.60 16.89
  Q 74.41 23.28 70.47 29.12
  C 68.40 32.19 64.41 34.18 60.91 35.65
  Q 60.22 35.94 60.68 36.53
  L 64.55 41.58
  Q 64.85 41.97 65.11 41.55
  C 65.80 40.49 66.24 38.96 66.71 38.13
  Q 70.95 30.76 80.01 31.98
  C 83.10 32.40 88.60 36.16 85.87 39.90
  A 1.83 1.83 0.0 0 1 83.19 40.21
  C 79.56 37.05 72.63 37.95 72.18 43.65
  A 1.20 1.19 -87.0 0 0 73.34 44.94
  C 76.07 45.00 77.20 45.78 79.58 47.63
  Q 86.02 52.62 92.92 48.50
  Q 95.17 47.16 94.40 49.66
  Q 92.79 54.88 86.74 55.23
  Q 81.85 55.52 79.98 54.60
  C 77.18 53.22 70.01 49.56 69.75 56.00
  C 69.60 59.94 74.11 62.55 77.50 63.58
  C 80.77 64.57 80.68 63.28 82.81 61.64
  A 1.88 1.87 -25.8 0 1 85.77 62.67
  Q 87.13 68.11 81.68 69.43
  Q 70.08 72.23 64.62 61.96
  Q 64.06 60.90 63.46 59.85
  Q 63.14 59.29 62.73 59.78
  L 59.35 63.85
  Q 58.92 64.37 59.50 64.70
  C 64.71 67.63 69.53 70.57 69.07 77.28
  C 68.86 80.32 69.12 82.59 66.15 83.41
  Q 65.64 83.55 65.19 83.27
  C 60.58 80.35 65.80 72.17 57.46 69.78
  A 1.55 1.55 0.0 0 0 55.48 71.24
  Q 55.39 75.84 53.75 79.88
  Q 51.66 85.02 51.50 85.96
  Q 50.66 90.80 53.02 94.19
  Q 55.79 98.17 51.38 96.13
  C 44.39 92.89 45.72 83.67 46.28 77.26
  Q 46.61 73.44 44.87 70.61
  Q 44.43 69.89 43.59 69.76
  Q 38.44 68.98 38.09 74.01
  Q 37.82 77.89 36.89 81.95
  A 1.98 1.97 10.4 0 1 34.68 83.47
  C 31.56 83.01 31.66 76.26 31.78 74.08
  C 32.11 68.30 35.51 66.97 39.78 64.36
  Q 40.25 64.08 39.93 63.63
  L 35.44 57.24
  A 0.28 0.27 38.8 0 0 34.96 57.29
  C 32.22 64.02 27.36 69.69 19.52 68.94
  C 16.86 68.68 13.64 66.61 15.24 63.50
  A 0.93 0.93 0.0 0 1 16.03 63.00
  Q 17.63 62.95 19.75 63.46
  C 24.50 64.61 27.93 59.16 27.74 55.20
  A 1.07 1.06 -4.5 0 0 26.55 54.19
  C 22.04 54.72 14.70 56.20 10.73 53.83
  Q 7.84 52.10 4.73 49.56
  Q 3.65 48.68 4.29 47.44
  Q 4.74 46.56 6.14 45.83
  Q 12.28 42.61 14.31 42.05
  C 18.46 40.91 23.27 43.72 27.38 44.58
  Q 28.47 44.81 28.41 43.71
  Q 28.10 38.08 24.09 34.96
  C 22.42 33.67 19.96 33.71 17.79 33.05
  A 2.03 2.02 17.6 0 1 16.45 30.47
  Q 17.34 27.76 21.01 28.06
  C 28.33 28.66 33.84 35.79 35.11 42.36
  Z
  M 57.44 43.92
  Q 56.58 41.33 54.38 39.72
  Q 53.85 39.33 53.79 39.98
  L 53.43 43.75
  A 0.99 0.99 0.0 0 0 54.51 44.83
  L 57.00 44.59
  A 0.51 0.51 0.0 0 0 57.44 43.92
  Z
  M 45.37 39.85
  C 43.90 40.75 42.31 43.23 42.03 44.86
  A 0.76 0.75 4.8 0 0 42.78 45.74
  L 44.75 45.75
  A 0.88 0.88 0.0 0 0 45.64 44.93
  L 45.99 40.24
  A 0.42 0.41 76.6 0 0 45.37 39.85
  Z
  M 53.96 57.92
  A 0.61 0.61 0.0 0 0 54.95 58.40
  L 57.70 56.20
  A 0.61 0.61 0.0 0 0 57.84 56.05
  L 59.55 53.31
  A 0.61 0.61 0.0 0 0 58.98 52.38
  L 54.53 52.76
  A 0.61 0.61 0.0 0 0 53.98 53.37
  L 53.96 57.92
  Z
  M 42.98 57.36
  A 0.66 0.66 0.0 0 0 43.13 57.55
  L 45.19 59.32
  A 0.66 0.66 0.0 0 0 46.28 58.77
  L 45.91 53.34
  A 0.66 0.66 0.0 0 0 45.25 52.72
  L 41.62 52.74
  A 0.66 0.66 0.0 0 0 41.04 53.71
  L 42.98 57.36
  Z"
/>
<path fill="#ffffff" d="
  M 57.44 43.92
  A 0.51 0.51 0.0 0 1 57.00 44.59
  L 54.51 44.83
  A 0.99 0.99 0.0 0 1 53.43 43.75
  L 53.79 39.98
  Q 53.85 39.33 54.38 39.72
  Q 56.58 41.33 57.44 43.92
  Z"
/>
<path fill="#ffffff" d="
  M 42.03 44.86
  C 42.31 43.23 43.90 40.75 45.37 39.85
  A 0.42 0.41 76.6 0 1 45.99 40.24
  L 45.64 44.93
  A 0.88 0.88 0.0 0 1 44.75 45.75
  L 42.78 45.74
  A 0.76 0.75 4.8 0 1 42.03 44.86
  Z"
/>
<path fill="#ffffff" d="
  M 53.96 57.92
  L 53.98 53.37
  A 0.61 0.61 0.0 0 1 54.53 52.76
  L 58.98 52.38
  A 0.61 0.61 0.0 0 1 59.55 53.31
  L 57.84 56.05
  A 0.61 0.61 0.0 0 1 57.70 56.20
  L 54.95 58.40
  A 0.61 0.61 0.0 0 1 53.96 57.92
  Z"
/>
<path fill="#ffffff" d="
  M 42.98 57.36
  L 41.04 53.71
  A 0.66 0.66 0.0 0 1 41.62 52.74
  L 45.25 52.72
  A 0.66 0.66 0.0 0 1 45.91 53.34
  L 46.28 58.77
  A 0.66 0.66 0.0 0 1 45.19 59.32
  L 43.13 57.55
  A 0.66 0.66 0.0 0 1 42.98 57.36
  Z"
/>
</svg>
