<?xml version="1.0" encoding="UTF-8" standalone="no"?>
<!DOCTYPE svg PUBLIC "-//W3C//DTD SVG 1.1//EN" "http://www.w3.org/Graphics/SVG/1.1/DTD/svg11.dtd">
<svg xmlns="http://www.w3.org/2000/svg" version="1.1" viewBox="0.00 0.00 100.00 100.00">
<g stroke-width="2.00" fill="none" stroke-linecap="butt">
<path stroke="#808080" vector-effect="non-scaling-stroke" d="
  M 51.64 75.27
  C 53.78 80.98 57.28 87.07 62.54 90.35
  C 69.24 94.52 76.11 91.77 80.10 85.53
  C 89.79 70.39 90.27 47.34 86.54 30.25
  C 84.75 22.06 80.80 11.21 72.94 7.96
  C 62.71 3.73 54.00 16.73 51.42 24.94
  Q 50.90 26.56 50.35 24.95
  C 47.51 16.65 38.38 3.70 27.86 9.61
  C 22.09 12.85 18.30 21.04 16.64 27.38
  Q 10.20 52.04 17.26 76.51
  C 19.06 82.73 23.94 91.23 30.37 93.04
  C 41.13 96.07 47.78 82.85 51.12 75.26
  Q 51.40 74.62 51.64 75.27"
/>
<path stroke="#808080" vector-effect="non-scaling-stroke" d="
  M 72.33 34.05
  C 74.82 27.95 77.00 20.23 73.33 14.48
  C 70.11 9.43 62.77 13.25 64.82 18.27
  Q 66.63 22.72 65.25 26.36
  C 61.49 36.33 58.01 44.72 60.23 55.65
  C 61.40 61.43 64.84 68.29 67.57 74.22
  C 69.00 77.33 66.05 79.95 66.56 82.87
  C 67.16 86.35 72.01 87.57 74.36 85.34
  Q 75.73 84.04 76.56 81.25
  C 78.91 73.32 74.01 65.51 70.82 58.44
  C 67.30 50.65 69.19 41.74 72.33 34.05"
/>
<path stroke="#808080" vector-effect="non-scaling-stroke" d="
  M 30.23 64.98
  C 27.33 71.10 24.11 79.91 28.28 85.98
  C 31.08 90.04 37.37 88.11 37.04 83.49
  C 36.92 81.83 35.66 80.13 35.78 78.10
  Q 35.90 75.92 36.61 74.15
  Q 40.36 64.82 41.26 62.01
  C 45.40 49.05 40.29 39.11 35.49 27.00
  Q 33.98 23.21 35.14 20.06
  Q 36.05 17.61 36.00 16.84
  C 35.78 13.59 31.56 11.64 29.02 13.24
  C 24.38 16.19 24.47 24.16 26.19 28.76
  C 31.28 42.42 36.83 51.10 30.23 64.98"
/>
</g>
<path fill="#ffffff" d="
  M 0.00 0.00
  L 100.00 0.00
  L 100.00 100.00
  L 0.00 100.00
  L 0.00 0.00
  Z
  M 51.64 75.27
  C 53.78 80.98 57.28 87.07 62.54 90.35
  C 69.24 94.52 76.11 91.77 80.10 85.53
  C 89.79 70.39 90.27 47.34 86.54 30.25
  C 84.75 22.06 80.80 11.21 72.94 7.96
  C 62.71 3.73 54.00 16.73 51.42 24.94
  Q 50.90 26.56 50.35 24.95
  C 47.51 16.65 38.38 3.70 27.86 9.61
  C 22.09 12.85 18.30 21.04 16.64 27.38
  Q 10.20 52.04 17.26 76.51
  C 19.06 82.73 23.94 91.23 30.37 93.04
  C 41.13 96.07 47.78 82.85 51.12 75.26
  Q 51.40 74.62 51.64 75.27
  Z"
/>
<path fill="#000000" d="
  M 51.12 75.26
  C 47.78 82.85 41.13 96.07 30.37 93.04
  C 23.94 91.23 19.06 82.73 17.26 76.51
  Q 10.20 52.04 16.64 27.38
  C 18.30 21.04 22.09 12.85 27.86 9.61
  C 38.38 3.70 47.51 16.65 50.35 24.95
  Q 50.90 26.56 51.42 24.94
  C 54.00 16.73 62.71 3.73 72.94 7.96
  C 80.80 11.21 84.75 22.06 86.54 30.25
  C 90.27 47.34 89.79 70.39 80.10 85.53
  C 76.11 91.77 69.24 94.52 62.54 90.35
  C 57.28 87.07 53.78 80.98 51.64 75.27
  Q 51.40 74.62 51.12 75.26
  Z
  M 72.33 34.05
  C 74.82 27.95 77.00 20.23 73.33 14.48
  C 70.11 9.43 62.77 13.25 64.82 18.27
  Q 66.63 22.72 65.25 26.36
  C 61.49 36.33 58.01 44.72 60.23 55.65
  C 61.40 61.43 64.84 68.29 67.57 74.22
  C 69.00 77.33 66.05 79.95 66.56 82.87
  C 67.16 86.35 72.01 87.57 74.36 85.34
  Q 75.73 84.04 76.56 81.25
  C 78.91 73.32 74.01 65.51 70.82 58.44
  C 67.30 50.65 69.19 41.74 72.33 34.05
  Z
  M 30.23 64.98
  C 27.33 71.10 24.11 79.91 28.28 85.98
  C 31.08 90.04 37.37 88.11 37.04 83.49
  C 36.92 81.83 35.66 80.13 35.78 78.10
  Q 35.90 75.92 36.61 74.15
  Q 40.36 64.82 41.26 62.01
  C 45.40 49.05 40.29 39.11 35.49 27.00
  Q 33.98 23.21 35.14 20.06
  Q 36.05 17.61 36.00 16.84
  C 35.78 13.59 31.56 11.64 29.02 13.24
  C 24.38 16.19 24.47 24.16 26.19 28.76
  C 31.28 42.42 36.83 51.10 30.23 64.98
  Z"
/>
<path fill="#ffffff" d="
  M 72.33 34.05
  C 69.19 41.74 67.30 50.65 70.82 58.44
  C 74.01 65.51 78.91 73.32 76.56 81.25
  Q 75.73 84.04 74.36 85.34
  C 72.01 87.57 67.16 86.35 66.56 82.87
  C 66.05 79.95 69.00 77.33 67.57 74.22
  C 64.84 68.29 61.40 61.43 60.23 55.65
  C 58.01 44.72 61.49 36.33 65.25 26.36
  Q 66.63 22.72 64.82 18.27
  C 62.77 13.25 70.11 9.43 73.33 14.48
  C 77.00 20.23 74.82 27.95 72.33 34.05
  Z"
/>
<path fill="#ffffff" d="
  M 30.23 64.98
  C 36.83 51.10 31.28 42.42 26.19 28.76
  C 24.47 24.16 24.38 16.19 29.02 13.24
  C 31.56 11.64 35.78 13.59 36.00 16.84
  Q 36.05 17.61 35.14 20.06
  Q 33.98 23.21 35.49 27.00
  C 40.29 39.11 45.40 49.05 41.26 62.01
  Q 40.36 64.82 36.61 74.15
  Q 35.90 75.92 35.78 78.10
  C 35.66 80.13 36.92 81.83 37.04 83.49
  C 37.37 88.11 31.08 90.04 28.28 85.98
  C 24.11 79.91 27.33 71.10 30.23 64.98
  Z"
/>
</svg>
