<?xml version="1.0" encoding="UTF-8" standalone="no"?>
<!DOCTYPE svg PUBLIC "-//W3C//DTD SVG 1.1//EN" "http://www.w3.org/Graphics/SVG/1.1/DTD/svg11.dtd">
<svg xmlns="http://www.w3.org/2000/svg" version="1.1" viewBox="0.00 0.00 100.00 100.00">
<g stroke-width="2.00" fill="none" stroke-linecap="butt">
<path stroke="#000000" stroke-opacity="0.898" vector-effect="non-scaling-stroke" d="
  M 6.27 49.04
  Q 6.04 49.96 6.20 50.95"
/>
<path stroke="#000000" stroke-opacity="0.898" vector-effect="non-scaling-stroke" d="
  M 19.60 58.25
  Q 20.25 55.09 21.08 56.61"
/>
<path stroke="#000000" stroke-opacity="0.898" vector-effect="non-scaling-stroke" d="
  M 23.49 43.27
  L 19.40 42.88"
/>
</g>
<path fill="#000000" fill-opacity="0.992" d="
  M 45.83 0.00
  L 54.24 0.00
  C 79.15 3.03 97.55 21.14 100.00 46.09
  L 100.00 53.82
  C 97.15 78.91 79.11 97.50 53.93 100.00
  L 46.18 100.00
  C 21.18 97.64 2.64 78.86 0.00 53.94
  L 0.00 45.93
  C 2.65 20.92 20.82 3.04 45.83 0.00
  Z
  M 6.27 49.04
  Q 6.04 49.96 6.20 50.95
  C 6.84 74.99 24.96 92.09 48.41 93.92
  A 0.67 0.66 -87.6 0 0 49.12 93.26
  L 49.17 81.11
  Q 49.18 80.54 48.61 80.54
  L 42.25 80.51
  A 0.51 0.51 0.0 0 1 41.74 80.00
  L 41.74 66.21
  Q 41.74 65.60 41.13 65.61
  L 35.48 65.69
  A 1.20 1.20 0.0 0 1 34.27 64.48
  L 34.30 58.79
  Q 34.30 58.26 33.77 58.26
  L 19.60 58.25
  Q 20.25 55.09 21.08 56.61
  L 33.69 56.61
  Q 34.28 56.61 34.28 56.02
  L 34.29 43.98
  A 0.71 0.71 0.0 0 0 33.58 43.27
  L 23.49 43.27
  L 19.40 42.88
  L 19.47 42.37
  Q 19.54 41.75 20.17 41.75
  L 33.77 41.76
  Q 34.31 41.76 34.31 41.23
  L 34.29 35.28
  A 0.93 0.92 -0.0 0 1 35.22 34.36
  L 41.07 34.38
  A 0.67 0.66 0.0 0 0 41.74 33.72
  L 41.73 20.00
  A 0.52 0.51 -0.0 0 1 42.25 19.49
  L 48.53 19.47
  A 0.50 0.49 -90.0 0 0 49.02 18.97
  L 49.06 6.94
  Q 49.07 6.14 48.26 6.17
  C 26.26 7.13 9.62 23.17 6.51 44.75
  Q 6.20 46.91 6.27 49.04
  Z
  M 80.54 42.40
  L 80.59 48.49
  Q 80.59 49.14 81.24 49.14
  L 93.24 49.16
  A 0.58 0.57 -1.4 0 0 93.82 48.56
  C 92.84 25.10 75.23 7.97 51.76 6.11
  Q 50.85 6.03 50.85 6.94
  L 50.93 18.82
  Q 50.93 19.45 51.57 19.45
  L 57.76 19.50
  A 0.51 0.51 0.0 0 1 58.27 20.01
  L 58.24 33.47
  A 0.96 0.96 0.0 0 0 59.22 34.43
  L 64.62 34.32
  Q 65.70 34.30 65.70 35.38
  L 65.69 41.22
  Q 65.69 41.75 66.22 41.75
  L 79.90 41.75
  Q 80.54 41.75 80.54 42.40
  Z
  M 56.7008 21.5217
  A 0.47 0.47 0.0 0 0 56.2316 21.0509
  L 43.7716 21.0291
  A 0.47 0.47 0.0 0 0 43.3008 21.4983
  L 43.2792 33.8383
  A 0.47 0.47 0.0 0 0 43.7484 34.3091
  L 56.2084 34.3309
  A 0.47 0.47 0.0 0 0 56.6792 33.8617
  L 56.7008 21.5217
  Z
  M 79.0209 43.7516
  A 0.42 0.42 0.0 0 0 78.6016 43.3309
  L 66.1417 43.3091
  A 0.42 0.42 0.0 0 0 65.7209 43.7284
  L 65.6991 56.2484
  A 0.42 0.42 0.0 0 0 66.1184 56.6691
  L 78.5783 56.6909
  A 0.42 0.42 0.0 0 0 78.9991 56.2716
  L 79.0209 43.7516
  Z
  M 79.78 58.25
  L 66.26 58.25
  Q 65.66 58.25 65.66 58.86
  L 65.74 64.50
  A 1.21 1.20 -89.3 0 1 64.50 65.72
  L 58.99 65.56
  A 0.70 0.70 0.0 0 0 58.27 66.26
  L 58.26 80.00
  A 0.52 0.51 -90.0 0 1 57.75 80.52
  L 51.23 80.54
  A 0.49 0.49 0.0 0 0 50.74 81.03
  L 50.79 93.23
  Q 50.79 93.76 51.32 93.74
  C 74.97 93.08 91.93 75.03 93.96 51.83
  A 0.93 0.93 0.0 0 0 93.03 50.82
  L 81.15 50.78
  Q 80.59 50.78 80.58 51.35
  L 80.56 57.47
  Q 80.55 58.25 79.78 58.25
  Z
  M 56.71 66.10
  A 0.43 0.43 0.0 0 0 56.28 65.67
  L 43.72 65.67
  A 0.43 0.43 0.0 0 0 43.29 66.10
  L 43.29 78.54
  A 0.43 0.43 0.0 0 0 43.72 78.97
  L 56.28 78.97
  A 0.43 0.43 0.0 0 0 56.71 78.54
  L 56.71 66.10
  Z"
/>
<path fill="#000000" fill-opacity="0.804" d="
  M 19.40 42.88
  L 23.49 43.27
  L 21.76 43.34
  Q 21.15 43.37 21.15 43.97
  L 21.08 56.61
  Q 20.25 55.09 19.60 58.25
  L 19.24 51.56
  Q 19.21 51.01 18.66 51.01
  L 6.20 50.95
  Q 6.04 49.96 6.27 49.04
  L 18.63 49.01
  A 0.66 0.66 0.0 0 0 19.29 48.36
  L 19.40 42.88
  Z"
/>
</svg>
