<?xml version="1.0" encoding="UTF-8" standalone="no"?>
<!DOCTYPE svg PUBLIC "-//W3C//DTD SVG 1.1//EN" "http://www.w3.org/Graphics/SVG/1.1/DTD/svg11.dtd">
<svg xmlns="http://www.w3.org/2000/svg" version="1.1" viewBox="0.00 0.00 100.00 100.00">
<path fill="#000000" d="
  M 80.75 59.91
  C 79.88 59.75 79.16 59.83 78.44 59.30
  C 76.43 57.80 77.57 54.89 79.93 54.57
  C 83.89 54.04 86.93 57.93 86.90 61.51
  C 86.83 69.04 79.01 72.28 72.79 69.19
  C 65.65 65.64 65.30 54.54 71.30 49.55
  C 79.33 42.87 90.06 45.91 94.28 55.19
  Q 98.95 65.48 90.51 74.03
  C 86.25 78.35 80.98 79.19 74.47 79.20
  Q 41.75 79.23 7.93 79.21
  A 3.68 3.67 -1.7 0 1 4.26 75.76
  L 4.21 74.86
  A 4.20 4.19 -1.7 0 1 8.40 70.42
  L 35.41 70.40
  A 1.74 1.73 2.7 0 0 37.14 68.84
  L 37.18 68.44
  Q 37.40 66.23 35.19 66.23
  L 8.36 66.23
  Q 3.98 66.23 4.21 61.86
  L 4.26 60.90
  A 3.49 3.49 0.0 0 1 7.69 57.60
  C 13.63 57.51 20.80 58.14 25.68 56.42
  C 40.11 51.35 40.67 28.59 23.94 26.26
  C 13.85 24.86 5.17 35.59 11.69 44.79
  C 15.67 50.41 25.11 50.07 27.42 43.43
  C 29.27 38.13 22.98 30.81 18.36 37.16
  A 1.80 1.80 0.0 0 0 20.00 40.01
  C 23.40 39.66 23.62 46.58 18.47 45.37
  C 10.70 43.54 11.91 32.98 18.44 30.41
  C 32.18 24.99 39.28 46.42 25.02 52.67
  C 16.30 56.49 8.09 51.75 5.05 43.26
  C 1.86 34.38 7.77 24.26 16.87 21.60
  Q 19.59 20.80 25.71 20.79
  Q 58.39 20.76 91.99 20.78
  A 3.73 3.73 0.0 0 1 95.71 24.22
  L 95.77 25.12
  A 4.15 4.15 0.0 0 1 91.63 29.59
  L 64.61 29.60
  A 1.78 1.76 -86.3 0 0 62.86 31.15
  L 62.81 31.52
  A 1.99 1.99 0.0 0 0 64.78 33.77
  L 91.67 33.77
  Q 95.82 33.77 95.77 37.92
  L 95.75 39.02
  A 3.40 3.40 0.0 0 1 92.48 42.38
  C 87.14 42.57 80.56 42.00 76.22 43.07
  C 66.26 45.53 59.60 58.00 65.45 67.01
  C 72.11 77.28 89.47 75.93 90.59 62.26
  C 90.97 57.59 87.32 52.46 82.65 51.44
  C 78.60 50.55 73.82 52.67 72.57 56.76
  C 69.59 66.56 84.08 67.49 81.36 60.42
  A 0.83 0.81 -4.4 0 0 80.75 59.91
  Z"
/>
</svg>
