<?xml version="1.0" encoding="UTF-8" standalone="no"?>
<!DOCTYPE svg PUBLIC "-//W3C//DTD SVG 1.1//EN" "http://www.w3.org/Graphics/SVG/1.1/DTD/svg11.dtd">
<svg xmlns="http://www.w3.org/2000/svg" version="1.1" viewBox="0.00 0.00 43.00 100.00">
<path fill="#000000" d="
  M 0.00 0.00
  L 9.21 0.00
  L 9.23 33.25
  Q 9.23 33.78 9.75 33.78
  L 16.28 33.78
  Q 16.84 33.78 16.84 33.22
  L 16.84 18.12
  Q 16.84 17.65 16.37 17.65
  L 13.30 17.65
  A 0.53 0.52 -75.0 0 1 12.85 16.86
  L 20.96 2.80
  A 0.63 0.62 -45.3 0 1 22.04 2.79
  L 30.06 16.71
  A 0.66 0.65 -14.1 0 1 29.47 17.69
  L 26.77 17.63
  Q 26.16 17.61 26.16 18.23
  L 26.13 33.33
  Q 26.13 33.78 26.58 33.78
  L 33.24 33.80
  Q 33.77 33.80 33.77 33.27
  L 33.80 0.00
  L 43.00 0.00
  L 43.00 43.08
  L 26.95 43.00
  A 0.35 0.35 0.0 0 0 26.64 43.53
  L 30.07 49.46
  Q 30.37 49.98 30.07 50.51
  L 26.74 56.27
  Q 26.31 57.01 27.16 57.01
  L 43.00 56.98
  L 43.00 100.00
  L 33.78 100.00
  L 33.77 66.67
  Q 33.77 66.20 33.30 66.20
  L 26.47 66.18
  Q 26.12 66.18 26.12 66.53
  L 26.13 81.84
  A 0.47 0.47 0.0 0 0 26.59 82.31
  L 29.69 82.33
  A 0.52 0.52 0.0 0 1 30.14 83.11
  L 21.99 97.27
  A 0.57 0.57 0.0 0 1 21.00 97.27
  L 12.94 83.29
  A 0.67 0.67 0.0 0 1 13.54 82.29
  L 16.23 82.36
  Q 16.83 82.37 16.83 81.77
  L 16.84 66.58
  A 0.39 0.38 89.3 0 0 16.45 66.19
  L 9.70 66.22
  Q 9.23 66.22 9.23 66.68
  L 9.21 100.00
  L 0.00 100.00
  L 0.00 56.96
  L 16.06 56.98
  A 0.34 0.34 0.0 0 0 16.36 56.47
  L 12.85 50.44
  Q 12.61 50.02 12.85 49.60
  L 16.35 43.49
  A 0.32 0.31 -75.3 0 0 16.08 43.02
  L 0.00 43.00
  L 0.00 0.00
  Z"
/>
</svg>
