<?xml version="1.0" encoding="UTF-8" standalone="no"?>
<!DOCTYPE svg PUBLIC "-//W3C//DTD SVG 1.1//EN" "http://www.w3.org/Graphics/SVG/1.1/DTD/svg11.dtd">
<svg xmlns="http://www.w3.org/2000/svg" version="1.1" viewBox="0.00 0.00 100.00 96.00">
<g stroke-width="2.00" fill="none" stroke-linecap="butt">
<path stroke="#808080" vector-effect="non-scaling-stroke" d="
  M 36.49 6.58
  C 29.63 9.30 30.76 17.54 39.40 16.51
  Q 39.90 16.45 40.21 16.05
  C 41.46 14.48 42.92 12.69 42.68 10.63
  C 42.34 7.63 39.56 5.37 36.49 6.58"
/>
<path stroke="#808080" vector-effect="non-scaling-stroke" d="
  M 5.28 37.69
  Q 6.01 34.45 8.47 32.29
  Q 9.38 31.49 8.17 31.64
  Q 4.12 32.16 3.79 36.25
  Q 3.67 37.69 4.55 38.07
  Q 5.14 38.32 5.28 37.69"
/>
<path stroke="#808080" vector-effect="non-scaling-stroke" d="
  M 69.13 42.32
  L 71.34 37.86
  Q 72.01 36.51 70.51 36.65
  L 70.07 36.69
  Q 68.27 36.86 67.04 38.19
  Q 65.45 39.90 64.60 42.09
  Q 64.42 42.54 64.72 42.93
  Q 67.07 46.00 70.80 47.06
  A 0.87 0.87 0.0 0 0 71.72 46.76
  Q 72.62 45.59 71.52 44.95
  Q 70.05 44.10 69.27 43.27
  Q 68.88 42.84 69.13 42.32"
/>
<path stroke="#808080" vector-effect="non-scaling-stroke" d="
  M 16.67 38.28
  C 10.61 34.03 5.15 42.20 5.00 47.51
  Q 4.98 48.13 5.58 47.99
  C 8.18 47.37 8.98 44.38 10.02 42.18
  A 2.09 2.09 0.0 0 1 12.01 40.99
  Q 14.67 41.13 16.71 39.46
  A 0.74 0.74 0.0 0 0 16.67 38.28"
/>
<path stroke="#808080" vector-effect="non-scaling-stroke" d="
  M 75.66 41.38
  C 76.91 41.90 77.39 42.28 78.44 42.95
  A 0.65 0.64 8.9 0 0 79.41 42.25
  L 78.49 38.72
  Q 78.35 38.19 77.82 38.34
  Q 76.03 38.86 75.31 40.54
  A 0.65 0.64 22.8 0 0 75.66 41.38"
/>
<path stroke="#808080" vector-effect="non-scaling-stroke" d="
  M 14.07 48.55
  A 2.12 2.11 81.3 0 1 15.37 46.77
  Q 18.69 45.39 20.77 42.53
  Q 21.17 41.98 20.49 42.01
  C 13.94 42.39 10.13 47.86 10.55 54.19
  Q 10.83 58.40 12.56 54.48
  Q 13.79 51.69 14.07 48.55"
/>
<path stroke="#808080" vector-effect="non-scaling-stroke" d="
  M 17.77 63.74
  C 18.14 57.15 21.29 52.78 26.09 48.05
  Q 27.02 47.14 28.02 45.05
  Q 28.27 44.55 27.71 44.55
  C 19.73 44.57 11.20 57.47 17.20 63.94
  Q 17.73 64.51 17.77 63.74"
/>
<path stroke="#808080" vector-effect="non-scaling-stroke" d="
  M 58.82 66.83
  A 1.75 1.74 27.7 0 1 57.16 67.34
  C 47.44 65.15 38.94 61.11 30.17 57.40
  A 3.77 3.76 41.4 0 0 26.80 57.61
  L 25.90 58.13
  Q 24.31 59.05 25.94 59.90
  C 33.52 63.80 41.25 65.69 48.72 69.20
  Q 49.21 69.43 49.33 69.97
  Q 49.54 70.92 49.35 71.88
  Q 49.23 72.47 48.64 72.61
  C 43.37 73.77 37.91 68.99 33.34 66.03
  Q 31.06 64.55 28.37 64.94
  L 25.80 65.30
  Q 23.11 65.68 25.34 67.24
  C 33.86 73.19 41.47 80.03 52.79 75.02
  C 61.07 71.36 67.96 62.71 71.70 54.82
  C 74.09 49.76 64.47 48.50 61.74 48.45
  Q 53.29 48.30 45.04 46.63
  C 42.57 46.13 38.59 45.61 36.79 46.01
  Q 30.87 47.34 36.71 48.99
  Q 47.39 52.00 59.75 54.55
  C 62.23 55.06 65.33 54.40 66.99 56.72
  Q 67.34 57.22 66.91 57.64
  L 64.83 59.69
  Q 64.36 60.15 63.72 60.03
  C 51.34 57.57 42.81 51.43 30.97 52.54
  Q 30.39 52.60 30.71 53.08
  C 34.67 58.99 46.95 61.43 53.50 62.04
  Q 56.41 62.30 58.49 64.25
  Q 59.96 65.62 58.82 66.83"
/>
</g>
<path fill="#000000" d="
  M 29.89 0.00
  L 34.52 0.00
  C 47.84 2.28 50.72 17.45 48.19 28.17
  Q 47.24 32.20 45.39 28.50
  Q 44.77 27.25 43.53 26.27
  A 0.76 0.76 0.0 0 0 42.31 26.71
  L 41.33 31.46
  Q 40.88 33.58 39.97 31.62
  C 36.83 24.85 32.52 13.73 23.32 13.82
  C 18.85 13.86 13.89 16.94 13.10 21.50
  C 12.07 27.45 15.81 31.98 20.27 35.22
  Q 34.50 45.57 51.23 42.23
  C 64.23 39.63 67.69 29.98 72.27 19.24
  C 74.34 14.36 77.35 10.28 82.80 8.96
  A 0.51 0.50 -7.3 0 1 83.43 9.44
  C 83.56 19.76 72.45 23.58 73.18 32.88
  A 0.36 0.35 -20.0 0 0 73.74 33.14
  C 77.09 30.77 79.57 26.63 82.40 23.61
  C 84.84 21.00 83.76 16.53 88.88 17.00
  Q 89.38 17.05 89.54 17.53
  C 91.89 24.93 82.50 26.59 80.50 32.49
  Q 80.10 33.65 81.21 33.13
  C 86.39 30.68 90.98 27.91 96.69 27.57
  A 0.90 0.89 8.9 0 1 97.58 28.78
  C 96.14 32.53 89.38 34.05 85.71 35.36
  A 0.86 0.86 0.0 0 0 85.15 36.27
  Q 85.33 37.79 87.75 37.53
  C 91.27 37.14 96.78 36.17 99.64 38.71
  A 0.67 0.67 0.0 0 1 99.61 39.73
  C 96.27 42.40 89.75 41.36 85.72 41.77
  A 1.10 1.10 0.0 0 0 84.98 43.55
  L 86.62 45.59
  A 0.71 0.71 0.0 0 1 86.26 46.72
  L 79.76 48.63
  A 0.35 0.35 0.0 0 0 79.69 49.28
  L 82.74 50.92
  A 1.46 1.46 0.0 0 1 82.30 53.64
  L 79.35 54.15
  A 1.14 1.14 0.0 0 0 78.49 55.72
  L 79.88 58.98
  Q 80.46 60.36 79.07 60.90
  Q 78.23 61.23 76.77 60.17
  A 1.06 1.06 0.0 0 0 75.91 60.00
  C 74.45 60.33 74.27 61.57 74.79 62.88
  Q 75.54 64.80 75.69 66.69
  A 0.95 0.94 -79.5 0 1 74.34 67.62
  L 70.57 65.81
  A 1.22 1.21 8.7 0 0 68.84 67.08
  L 69.98 74.71
  Q 70.12 75.62 69.30 75.20
  C 66.08 73.54 63.45 74.93 60.35 76.05
  Q 59.88 76.22 59.95 76.72
  Q 61.20 86.04 60.47 95.43
  Q 60.46 95.63 60.25 95.63
  L 55.41 95.47
  A 0.55 0.54 0.6 0 1 54.88 94.94
  L 54.68 82.51
  A 1.36 1.35 87.8 0 0 53.25 81.18
  L 49.90 81.35
  Q 48.50 81.43 48.50 82.83
  L 48.50 95.26
  Q 48.50 95.52 48.24 95.53
  L 43.95 95.54
  A 0.36 0.35 0.0 0 1 43.59 95.19
  L 43.60 84.95
  A 2.19 2.18 14.2 0 0 42.45 83.03
  C 37.24 80.22 30.49 79.01 26.49 77.15
  C 14.75 71.71 7.37 60.23 2.02 48.90
  C 0.58 45.88 0.39 42.96 0.00 39.68
  L 0.00 37.21
  Q 0.59 32.14 0.95 30.25
  C 3.60 16.34 15.04 1.95 29.89 0.00
  Z
  M 36.49 6.58
  C 29.63 9.30 30.76 17.54 39.40 16.51
  Q 39.90 16.45 40.21 16.05
  C 41.46 14.48 42.92 12.69 42.68 10.63
  C 42.34 7.63 39.56 5.37 36.49 6.58
  Z
  M 5.28 37.69
  Q 6.01 34.45 8.47 32.29
  Q 9.38 31.49 8.17 31.64
  Q 4.12 32.16 3.79 36.25
  Q 3.67 37.69 4.55 38.07
  Q 5.14 38.32 5.28 37.69
  Z
  M 69.13 42.32
  L 71.34 37.86
  Q 72.01 36.51 70.51 36.65
  L 70.07 36.69
  Q 68.27 36.86 67.04 38.19
  Q 65.45 39.90 64.60 42.09
  Q 64.42 42.54 64.72 42.93
  Q 67.07 46.00 70.80 47.06
  A 0.87 0.87 0.0 0 0 71.72 46.76
  Q 72.62 45.59 71.52 44.95
  Q 70.05 44.10 69.27 43.27
  Q 68.88 42.84 69.13 42.32
  Z
  M 16.67 38.28
  C 10.61 34.03 5.15 42.20 5.00 47.51
  Q 4.98 48.13 5.58 47.99
  C 8.18 47.37 8.98 44.38 10.02 42.18
  A 2.09 2.09 0.0 0 1 12.01 40.99
  Q 14.67 41.13 16.71 39.46
  A 0.74 0.74 0.0 0 0 16.67 38.28
  Z
  M 75.66 41.38
  C 76.91 41.90 77.39 42.28 78.44 42.95
  A 0.65 0.64 8.9 0 0 79.41 42.25
  L 78.49 38.72
  Q 78.35 38.19 77.82 38.34
  Q 76.03 38.86 75.31 40.54
  A 0.65 0.64 22.8 0 0 75.66 41.38
  Z
  M 14.07 48.55
  A 2.12 2.11 81.3 0 1 15.37 46.77
  Q 18.69 45.39 20.77 42.53
  Q 21.17 41.98 20.49 42.01
  C 13.94 42.39 10.13 47.86 10.55 54.19
  Q 10.83 58.40 12.56 54.48
  Q 13.79 51.69 14.07 48.55
  Z
  M 17.77 63.74
  C 18.14 57.15 21.29 52.78 26.09 48.05
  Q 27.02 47.14 28.02 45.05
  Q 28.27 44.55 27.71 44.55
  C 19.73 44.57 11.20 57.47 17.20 63.94
  Q 17.73 64.51 17.77 63.74
  Z
  M 58.82 66.83
  A 1.75 1.74 27.7 0 1 57.16 67.34
  C 47.44 65.15 38.94 61.11 30.17 57.40
  A 3.77 3.76 41.4 0 0 26.80 57.61
  L 25.90 58.13
  Q 24.31 59.05 25.94 59.90
  C 33.52 63.80 41.25 65.69 48.72 69.20
  Q 49.21 69.43 49.33 69.97
  Q 49.54 70.92 49.35 71.88
  Q 49.23 72.47 48.64 72.61
  C 43.37 73.77 37.91 68.99 33.34 66.03
  Q 31.06 64.55 28.37 64.94
  L 25.80 65.30
  Q 23.11 65.68 25.34 67.24
  C 33.86 73.19 41.47 80.03 52.79 75.02
  C 61.07 71.36 67.96 62.71 71.70 54.82
  C 74.09 49.76 64.47 48.50 61.74 48.45
  Q 53.29 48.30 45.04 46.63
  C 42.57 46.13 38.59 45.61 36.79 46.01
  Q 30.87 47.34 36.71 48.99
  Q 47.39 52.00 59.75 54.55
  C 62.23 55.06 65.33 54.40 66.99 56.72
  Q 67.34 57.22 66.91 57.64
  L 64.83 59.69
  Q 64.36 60.15 63.72 60.03
  C 51.34 57.57 42.81 51.43 30.97 52.54
  Q 30.39 52.60 30.71 53.08
  C 34.67 58.99 46.95 61.43 53.50 62.04
  Q 56.41 62.30 58.49 64.25
  Q 59.96 65.62 58.82 66.83
  Z"
/>
<path fill="#ffffff" d="
  M 39.40 16.51
  C 30.76 17.54 29.63 9.30 36.49 6.58
  C 39.56 5.37 42.34 7.63 42.68 10.63
  C 42.92 12.69 41.46 14.48 40.21 16.05
  Q 39.90 16.45 39.40 16.51
  Z"
/>
<rect fill="#000000" x="-4.08" y="-4.57" transform="translate(45.10,35.51) rotate(44.3)" width="8.16" height="9.14" rx="3.78"/>
<path fill="#ffffff" d="
  M 5.28 37.69
  Q 5.14 38.32 4.55 38.07
  Q 3.67 37.69 3.79 36.25
  Q 4.12 32.16 8.17 31.64
  Q 9.38 31.49 8.47 32.29
  Q 6.01 34.45 5.28 37.69
  Z"
/>
<path fill="#ffffff" d="
  M 69.27 43.27
  Q 70.05 44.10 71.52 44.95
  Q 72.62 45.59 71.72 46.76
  A 0.87 0.87 0.0 0 1 70.80 47.06
  Q 67.07 46.00 64.72 42.93
  Q 64.42 42.54 64.60 42.09
  Q 65.45 39.90 67.04 38.19
  Q 68.27 36.86 70.07 36.69
  L 70.51 36.65
  Q 72.01 36.51 71.34 37.86
  L 69.13 42.32
  Q 68.88 42.84 69.27 43.27
  Z"
/>
<path fill="#ffffff" d="
  M 5.00 47.51
  C 5.15 42.20 10.61 34.03 16.67 38.28
  A 0.74 0.74 0.0 0 1 16.71 39.46
  Q 14.67 41.13 12.01 40.99
  A 2.09 2.09 0.0 0 0 10.02 42.18
  C 8.98 44.38 8.18 47.37 5.58 47.99
  Q 4.98 48.13 5.00 47.51
  Z"
/>
<path fill="#ffffff" d="
  M 78.44 42.95
  C 77.39 42.28 76.91 41.90 75.66 41.38
  A 0.65 0.64 22.8 0 1 75.31 40.54
  Q 76.03 38.86 77.82 38.34
  Q 78.35 38.19 78.49 38.72
  L 79.41 42.25
  A 0.65 0.64 8.9 0 1 78.44 42.95
  Z"
/>
<path fill="#ffffff" d="
  M 14.07 48.55
  Q 13.79 51.69 12.56 54.48
  Q 10.83 58.40 10.55 54.19
  C 10.13 47.86 13.94 42.39 20.49 42.01
  Q 21.17 41.98 20.77 42.53
  Q 18.69 45.39 15.37 46.77
  A 2.12 2.11 81.3 0 0 14.07 48.55
  Z"
/>
<path fill="#ffffff" d="
  M 26.09 48.05
  C 21.29 52.78 18.14 57.15 17.77 63.74
  Q 17.73 64.51 17.20 63.94
  C 11.20 57.47 19.73 44.57 27.71 44.55
  Q 28.27 44.55 28.02 45.05
  Q 27.02 47.14 26.09 48.05
  Z"
/>
<path fill="#ffffff" d="
  M 58.82 66.83
  Q 59.96 65.62 58.49 64.25
  Q 56.41 62.30 53.50 62.04
  C 46.95 61.43 34.67 58.99 30.71 53.08
  Q 30.39 52.60 30.97 52.54
  C 42.81 51.43 51.34 57.57 63.72 60.03
  Q 64.36 60.15 64.83 59.69
  L 66.91 57.64
  Q 67.34 57.22 66.99 56.72
  C 65.33 54.40 62.23 55.06 59.75 54.55
  Q 47.39 52.00 36.71 48.99
  Q 30.87 47.34 36.79 46.01
  C 38.59 45.61 42.57 46.13 45.04 46.63
  Q 53.29 48.30 61.74 48.45
  C 64.47 48.50 74.09 49.76 71.70 54.82
  C 67.96 62.71 61.07 71.36 52.79 75.02
  C 41.47 80.03 33.86 73.19 25.34 67.24
  Q 23.11 65.68 25.80 65.30
  L 28.37 64.94
  Q 31.06 64.55 33.34 66.03
  C 37.91 68.99 43.37 73.77 48.64 72.61
  Q 49.23 72.47 49.35 71.88
  Q 49.54 70.92 49.33 69.97
  Q 49.21 69.43 48.72 69.20
  C 41.25 65.69 33.52 63.80 25.94 59.90
  Q 24.31 59.05 25.90 58.13
  L 26.80 57.61
  A 3.77 3.76 41.4 0 1 30.17 57.40
  C 38.94 61.11 47.44 65.15 57.16 67.34
  A 1.75 1.74 27.7 0 0 58.82 66.83
  Z"
/>
</svg>
