<?xml version="1.0" encoding="UTF-8" standalone="no"?>
<!DOCTYPE svg PUBLIC "-//W3C//DTD SVG 1.1//EN" "http://www.w3.org/Graphics/SVG/1.1/DTD/svg11.dtd">
<svg xmlns="http://www.w3.org/2000/svg" version="1.1" viewBox="0.00 0.00 100.00 100.00">
<path fill="#000000" d="
  M 32.59 18.70
  L 30.29 16.28
  Q 30.03 16.01 30.41 16.00
  L 36.26 15.93
  A 0.47 0.46 13.4 0 1 36.68 16.61
  Q 35.65 18.57 33.52 18.99
  Q 32.97 19.10 32.59 18.70
  Z"
/>
<path fill="#000000" d="
  M 33.80 22.69
  L 39.18 17.47
  Q 40.91 15.78 43.33 15.89
  L 45.73 15.99
  Q 48.38 16.11 46.42 17.90
  L 34.36 28.92
  A 1.30 1.30 0.0 0 1 32.59 28.91
  L 19.50 16.64
  Q 18.69 15.88 19.80 15.90
  L 25.67 16.02
  A 2.29 2.29 0.0 0 1 27.24 16.69
  L 33.19 22.68
  A 0.44 0.44 0.0 0 0 33.80 22.69
  Z"
/>
<path fill="#000000" d="
  M 70.49 21.93
  L 74.14 17.79
  Q 75.90 15.80 78.56 15.89
  L 81.46 15.99
  Q 84.10 16.08 82.17 17.87
  L 70.35 28.87
  A 1.03 1.03 0.0 0 1 69.21 29.04
  C 65.65 27.33 62.92 23.61 60.70 21.61
  Q 57.89 19.06 55.43 16.45
  Q 54.87 15.85 55.69 15.87
  L 62.00 16.04
  A 1.91 1.89 -19.5 0 1 63.40 16.70
  L 67.89 21.91
  A 1.72 1.72 0.0 0 0 70.49 21.93
  Z"
/>
<path fill="#000000" d="
  M 71.71 17.02
  L 69.25 19.05
  A 0.58 0.58 0.0 0 1 68.48 19.01
  L 66.45 17.00
  A 0.58 0.58 0.0 0 1 66.86 16.01
  L 71.34 15.99
  A 0.58 0.58 0.0 0 1 71.71 17.02
  Z"
/>
<path fill="#000000" d="
  M 50.35 46.71
  L 36.46 32.82
  Q 36.10 32.46 36.32 32.00
  C 37.62 29.32 40.33 27.57 42.20 25.56
  C 43.43 24.23 45.06 23.22 46.32 21.85
  C 47.81 20.23 49.45 18.91 51.04 17.40
  A 0.60 0.52 44.9 0 1 51.81 17.45
  L 66.49 31.19
  A 1.08 1.03 -45.7 0 1 66.47 32.71
  L 52.49 46.71
  A 1.51 1.51 0.0 0 1 50.35 46.71
  Z
  M 52.40 24.89
  A 1.26 1.26 0.0 0 0 50.65 24.86
  L 44.05 31.07
  A 1.26 1.26 0.0 0 0 44.04 32.89
  L 50.42 39.16
  A 1.26 1.26 0.0 0 0 52.16 39.19
  L 58.77 33.07
  A 1.26 1.26 0.0 0 0 58.81 31.25
  L 52.40 24.89
  Z"
/>
<path fill="#000000" d="
  M 23.56 31.43
  L 17.53 26.09
  Q 15.67 24.45 15.83 21.98
  L 15.99 19.53
  Q 16.12 17.59 17.54 18.92
  L 30.71 31.19
  A 1.04 1.03 -45.9 0 1 30.73 32.68
  L 16.59 46.84
  A 0.31 0.31 0.0 0 1 16.06 46.66
  C 15.69 43.26 15.02 38.81 18.84 37.09
  A 1.83 1.77 3.7 0 0 19.63 36.42
  Q 21.01 34.32 23.29 33.26
  A 1.11 1.11 0.0 0 0 23.56 31.43
  Z"
/>
<path fill="#000000" d="
  M 79.43 32.66
  L 86.87 40.10
  A 0.79 0.76 24.1 0 1 87.10 40.67
  L 87.01 46.54
  A 0.36 0.36 0.0 0 1 86.39 46.79
  Q 80.97 41.40 75.38 35.87
  Q 74.00 34.50 72.52 33.59
  A 1.35 1.35 0.0 0 1 72.19 31.58
  Q 76.38 26.47 81.47 22.64
  C 83.16 21.37 84.05 20.16 85.30 18.57
  A 0.95 0.94 60.4 0 1 86.98 19.04
  Q 87.35 21.99 86.62 24.72
  A 1.23 1.22 77.9 0 1 86.19 25.39
  L 79.52 30.81
  A 1.25 1.24 47.9 0 0 79.43 32.66
  Z"
/>
<rect fill="#000000" x="-2.99" y="-2.81" transform="translate(51.62,32.01) rotate(-42.1)" width="5.98" height="5.62" rx="1.50"/>
<path fill="#000000" d="
  M 18.23 31.63
  Q 18.93 32.09 18.50 32.94
  Q 17.86 34.19 16.66 34.71
  Q 16.02 34.98 16.02 34.29
  L 15.98 29.46
  A 0.30 0.30 0.0 0 1 16.54 29.30
  L 17.59 30.98
  Q 17.84 31.37 18.23 31.63
  Z"
/>
<path fill="#000000" d="
  M 85.40 30.73
  L 86.23 29.51
  A 0.41 0.41 0.0 0 1 86.98 29.74
  L 87.02 34.52
  Q 87.03 35.13 86.50 34.82
  Q 84.95 33.90 84.17 32.27
  Q 83.89 31.70 84.44 31.38
  L 85.20 30.92
  A 0.84 0.71 -3.3 0 0 85.40 30.73
  Z"
/>
<path fill="#000000" d="
  M 34.5516 64.5391
  A 1.38 1.38 0.0 0 1 32.6000 64.5459
  L 18.7208 50.7633
  A 1.38 1.38 0.0 0 1 18.7140 48.8117
  L 32.4684 34.9609
  A 1.38 1.38 0.0 0 1 34.4200 34.9541
  L 48.2992 48.7367
  A 1.38 1.38 0.0 0 1 48.3060 50.6883
  L 34.5516 64.5391
  Z
  M 26.41 48.81
  A 1.51 1.51 0.0 0 0 26.44 50.87
  L 32.33 56.93
  A 1.51 1.51 0.0 0 0 34.46 56.97
  L 40.28 51.30
  A 1.51 1.51 0.0 0 0 40.41 49.28
  L 34.78 42.17
  A 1.51 1.51 0.0 0 0 32.47 42.09
  L 26.41 48.81
  Z"
/>
<path fill="#000000" d="
  M 84.1010 48.6696
  A 1.36 1.36 0.0 0 1 84.0943 50.5930
  L 70.1299 64.4602
  A 1.36 1.36 0.0 0 1 68.2066 64.4535
  L 54.5790 50.7304
  A 1.36 1.36 0.0 0 1 54.5857 48.8070
  L 68.5501 34.9398
  A 1.36 1.36 0.0 0 1 70.4734 34.9465
  L 84.1010 48.6696
  Z
  M 76.44 48.85
  L 70.51 42.49
  A 1.58 1.58 0.0 0 0 68.28 42.41
  L 63.34 47.01
  A 3.31 2.35 -43.0 0 0 62.52 50.99
  L 67.41 56.23
  A 3.31 2.35 -43.0 0 0 71.43 55.69
  L 76.37 51.09
  A 1.58 1.58 0.0 0 0 76.44 48.85
  Z"
/>
<rect fill="#000000" x="-3.07" y="-2.98" transform="translate(33.73,49.93) rotate(-44.2)" width="6.14" height="5.96" rx="1.54"/>
<rect fill="#000000" x="-3.03" y="-3.04" transform="translate(69.47,49.73) rotate(-42.7)" width="6.06" height="6.08" rx="2.24"/>
<path fill="#000000" d="
  M 66.4883 67.0289
  A 0.66 0.66 0.0 0 1 66.4850 67.9623
  L 51.7969 82.5482
  A 0.66 0.66 0.0 0 1 50.8635 82.5450
  L 36.2917 67.8711
  A 0.66 0.66 0.0 0 1 36.2950 66.9377
  L 50.9831 52.3518
  A 0.66 0.66 0.0 0 1 51.9165 52.3550
  L 66.4883 67.0289
  Z
  M 58.28 68.84
  C 60.89 66.35 54.40 62.41 51.88 60.65
  Q 51.47 60.37 51.00 60.55
  C 48.15 61.62 45.61 64.78 43.56 66.92
  A 0.90 0.89 -47.0 0 0 43.60 68.21
  L 50.20 74.17
  Q 50.89 74.79 51.70 74.35
  C 54.33 72.92 56.10 70.93 58.28 68.84
  Z"
/>
<path fill="#000000" d="
  M 23.54 66.96
  L 17.41 60.95
  Q 15.63 59.20 15.84 56.72
  L 16.04 54.46
  Q 16.22 52.35 17.71 53.86
  L 30.94 67.20
  A 0.81 0.81 0.0 0 1 30.77 68.47
  Q 28.68 69.69 26.81 71.56
  Q 21.72 76.63 17.48 81.05
  Q 16.04 82.56 16.00 80.47
  L 15.93 76.02
  Q 15.89 73.77 17.86 72.68
  Q 21.26 70.80 23.60 67.70
  A 0.56 0.55 -49.9 0 0 23.54 66.96
  Z"
/>
<path fill="#000000" d="
  M 79.40 68.02
  L 86.82 75.00
  A 0.67 0.67 0.0 0 1 87.03 75.49
  L 87.03 81.41
  A 0.67 0.67 0.0 0 1 85.89 81.89
  L 71.83 67.85
  A 0.67 0.67 0.0 0 1 71.84 66.90
  L 85.86 53.48
  A 0.67 0.67 0.0 0 1 86.99 53.92
  L 87.29 58.95
  A 0.67 0.67 0.0 0 1 87.09 59.46
  L 79.39 67.05
  A 0.67 0.67 0.0 0 0 79.40 68.02
  Z"
/>
<path fill="#000000" d="
  M 50.71 64.04
  A 1.42 1.42 0.0 0 1 52.71 64.23
  L 53.78 65.52
  A 3.29 2.46 50.4 0 1 53.98 69.62
  L 52.81 70.59
  A 3.29 2.46 50.4 0 1 48.82 69.63
  L 47.75 68.34
  A 1.42 1.42 0.0 0 1 47.94 66.34
  L 50.71 64.04
  Z"
/>
<path fill="#000000" d="
  M 85.70 65.27
  L 86.50 64.28
  Q 87.07 63.57 87.05 64.48
  L 86.97 69.52
  Q 86.96 70.06 86.49 69.79
  Q 85.01 68.92 84.18 67.41
  Q 83.89 66.88 84.36 66.50
  L 84.96 66.02
  Q 85.37 65.69 85.70 65.27
  Z"
/>
<path fill="#000000" d="
  M 18.10 66.62
  Q 18.53 66.87 18.70 67.30
  A 0.91 0.91 0.0 0 1 18.42 68.35
  L 16.35 70.00
  A 0.28 0.28 0.0 0 1 15.90 69.77
  L 16.05 64.72
  A 0.37 0.37 0.0 0 1 16.73 64.54
  L 17.85 66.37
  A 0.66 0.66 0.0 0 0 18.10 66.62
  Z"
/>
<path fill="#000000" d="
  M 70.42 77.86
  A 1.74 1.74 0.0 0 0 67.92 78.02
  L 64.31 82.29
  Q 62.66 84.24 60.10 84.08
  L 57.65 83.92
  Q 54.59 83.73 56.80 81.60
  L 68.66 70.23
  Q 69.26 69.65 69.83 70.26
  Q 72.95 73.63 76.37 76.64
  C 77.92 78.00 79.36 80.22 81.55 81.39
  A 1.03 1.03 0.0 0 1 81.61 83.16
  C 76.47 86.47 73.44 80.65 70.42 77.86
  Z"
/>
<path fill="#000000" d="
  M 33.05 77.52
  C 30.39 79.89 28.23 83.29 24.47 83.97
  A 1.42 1.40 54.5 0 1 23.49 83.80
  Q 22.33 83.15 21.09 83.50
  Q 19.01 84.09 20.35 82.39
  Q 21.98 80.32 24.14 78.44
  C 27.23 75.76 29.68 72.59 33.36 70.35
  Q 33.83 70.06 34.22 70.44
  L 46.15 82.09
  Q 47.50 83.41 45.77 83.48
  L 41.32 83.65
  A 3.21 3.20 -16.4 0 1 38.45 82.09
  Q 36.72 79.18 33.81 77.44
  Q 33.40 77.20 33.05 77.52
  Z"
/>
<path fill="#000000" d="
  M 33.39 83.52
  L 30.76 84.06
  Q 30.04 84.20 30.36 83.55
  Q 31.18 81.83 32.92 81.04
  A 1.33 1.30 -42.5 0 1 34.07 81.08
  Q 35.53 81.84 36.61 83.08
  Q 36.94 83.46 36.44 83.52
  Q 35.40 83.67 34.38 83.50
  Q 33.88 83.42 33.39 83.52
  Z"
/>
<path fill="#000000" d="
  M 69.21 83.57
  L 66.78 84.05
  Q 66.22 84.16 66.41 83.62
  C 67.36 80.85 70.94 79.69 72.04 83.15
  Q 72.22 83.71 71.63 83.80
  Q 70.85 83.93 70.12 83.64
  Q 69.68 83.47 69.21 83.57
  Z"
/>
</svg>
