<?xml version="1.0" encoding="UTF-8" standalone="no"?>
<!DOCTYPE svg PUBLIC "-//W3C//DTD SVG 1.1//EN" "http://www.w3.org/Graphics/SVG/1.1/DTD/svg11.dtd">
<svg xmlns="http://www.w3.org/2000/svg" version="1.1" viewBox="0.00 0.00 100.00 100.00">
<path stroke="#808080" stroke-width="2.00" fill="none" stroke-linecap="butt" vector-effect="non-scaling-stroke" d="
  M 68.66 86.76
  C 95.35 77.11 100.56 37.77 81.88 18.43
  Q 81.57 18.12 81.27 18.44
  Q 81.05 18.67 81.23 19.02
  C 86.02 27.98 87.17 37.00 84.85 47.07
  C 82.53 57.15 75.68 71.37 65.52 76.04
  C 59.66 78.73 55.25 71.21 60.78 69.04
  C 65.97 67.00 71.89 65.41 72.75 60.10
  C 73.36 56.33 71.10 53.64 67.05 55.33
  Q 64.69 56.31 59.23 59.72
  C 54.64 62.58 52.09 57.28 53.38 53.91
  C 55.09 49.44 67.22 48.09 71.08 44.07
  C 75.07 39.91 71.50 32.68 65.32 34.81
  Q 63.68 35.38 59.35 38.29
  Q 58.25 39.03 57.51 39.05
  Q 56.05 39.07 55.94 37.22
  Q 55.65 32.45 59.63 28.61
  Q 64.34 24.07 69.04 19.54
  C 79.83 9.13 65.70 -0.28 56.18 6.12
  C 52.89 8.33 52.99 12.86 48.65 13.84
  Q 48.17 13.94 47.78 13.65
  C 42.89 9.95 46.42 0.07 37.01 0.84
  C 30.35 1.38 25.58 9.38 30.88 14.46
  Q 31.21 14.78 30.78 14.92
  C 4.89 23.78 3.35 57.49 11.79 78.73
  Q 12.02 79.30 12.38 78.80
  Q 12.53 78.59 12.47 78.25
  C 10.39 65.78 15.12 47.10 22.94 37.06
  C 27.01 31.84 33.81 26.08 40.49 25.03
  Q 46.98 24.02 48.29 30.35
  A 1.30 1.27 54.4 0 1 48.15 31.25
  C 44.52 37.64 26.38 35.21 28.40 44.20
  C 30.48 53.46 39.09 48.41 44.42 46.80
  Q 47.43 45.89 46.83 48.97
  L 46.75 49.39
  Q 46.13 52.53 43.27 53.97
  Q 38.51 56.38 33.81 58.14
  C 30.07 59.54 27.46 61.99 28.43 66.06
  C 30.36 74.15 39.08 67.26 42.64 65.13
  A 2.30 2.30 0.0 0 1 44.31 64.85
  Q 46.66 65.36 45.96 68.27
  C 44.08 76.16 38.63 79.17 32.00 82.66
  Q 29.09 84.19 28.20 85.64
  C 26.34 88.67 27.51 93.29 30.07 95.68
  Q 33.51 98.89 38.05 99.02
  C 45.37 99.24 45.97 90.83 51.19 88.15
  Q 51.63 87.93 52.11 88.01
  C 58.44 89.17 54.49 95.64 58.48 98.08
  C 65.44 102.33 74.69 94.74 68.49 87.41
  Q 68.11 86.96 68.66 86.76"
/>
<path fill="#ffffff" d="
  M 0.00 0.00
  L 100.00 0.00
  L 100.00 100.00
  L 0.00 100.00
  L 0.00 0.00
  Z
  M 68.66 86.76
  C 95.35 77.11 100.56 37.77 81.88 18.43
  Q 81.57 18.12 81.27 18.44
  Q 81.05 18.67 81.23 19.02
  C 86.02 27.98 87.17 37.00 84.85 47.07
  C 82.53 57.15 75.68 71.37 65.52 76.04
  C 59.66 78.73 55.25 71.21 60.78 69.04
  C 65.97 67.00 71.89 65.41 72.75 60.10
  C 73.36 56.33 71.10 53.64 67.05 55.33
  Q 64.69 56.31 59.23 59.72
  C 54.64 62.58 52.09 57.28 53.38 53.91
  C 55.09 49.44 67.22 48.09 71.08 44.07
  C 75.07 39.91 71.50 32.68 65.32 34.81
  Q 63.68 35.38 59.35 38.29
  Q 58.25 39.03 57.51 39.05
  Q 56.05 39.07 55.94 37.22
  Q 55.65 32.45 59.63 28.61
  Q 64.34 24.07 69.04 19.54
  C 79.83 9.13 65.70 -0.28 56.18 6.12
  C 52.89 8.33 52.99 12.86 48.65 13.84
  Q 48.17 13.94 47.78 13.65
  C 42.89 9.95 46.42 0.07 37.01 0.84
  C 30.35 1.38 25.58 9.38 30.88 14.46
  Q 31.21 14.78 30.78 14.92
  C 4.89 23.78 3.35 57.49 11.79 78.73
  Q 12.02 79.30 12.38 78.80
  Q 12.53 78.59 12.47 78.25
  C 10.39 65.78 15.12 47.10 22.94 37.06
  C 27.01 31.84 33.81 26.08 40.49 25.03
  Q 46.98 24.02 48.29 30.35
  A 1.30 1.27 54.4 0 1 48.15 31.25
  C 44.52 37.64 26.38 35.21 28.40 44.20
  C 30.48 53.46 39.09 48.41 44.42 46.80
  Q 47.43 45.89 46.83 48.97
  L 46.75 49.39
  Q 46.13 52.53 43.27 53.97
  Q 38.51 56.38 33.81 58.14
  C 30.07 59.54 27.46 61.99 28.43 66.06
  C 30.36 74.15 39.08 67.26 42.64 65.13
  A 2.30 2.30 0.0 0 1 44.31 64.85
  Q 46.66 65.36 45.96 68.27
  C 44.08 76.16 38.63 79.17 32.00 82.66
  Q 29.09 84.19 28.20 85.64
  C 26.34 88.67 27.51 93.29 30.07 95.68
  Q 33.51 98.89 38.05 99.02
  C 45.37 99.24 45.97 90.83 51.19 88.15
  Q 51.63 87.93 52.11 88.01
  C 58.44 89.17 54.49 95.64 58.48 98.08
  C 65.44 102.33 74.69 94.74 68.49 87.41
  Q 68.11 86.96 68.66 86.76
  Z"
/>
<path fill="#000000" d="
  M 68.49 87.41
  C 74.69 94.74 65.44 102.33 58.48 98.08
  C 54.49 95.64 58.44 89.17 52.11 88.01
  Q 51.63 87.93 51.19 88.15
  C 45.97 90.83 45.37 99.24 38.05 99.02
  Q 33.51 98.89 30.07 95.68
  C 27.51 93.29 26.34 88.67 28.20 85.64
  Q 29.09 84.19 32.00 82.66
  C 38.63 79.17 44.08 76.16 45.96 68.27
  Q 46.66 65.36 44.31 64.85
  A 2.30 2.30 0.0 0 0 42.64 65.13
  C 39.08 67.26 30.36 74.15 28.43 66.06
  C 27.46 61.99 30.07 59.54 33.81 58.14
  Q 38.51 56.38 43.27 53.97
  Q 46.13 52.53 46.75 49.39
  L 46.83 48.97
  Q 47.43 45.89 44.42 46.80
  C 39.09 48.41 30.48 53.46 28.40 44.20
  C 26.38 35.21 44.52 37.64 48.15 31.25
  A 1.30 1.27 54.4 0 0 48.29 30.35
  Q 46.98 24.02 40.49 25.03
  C 33.81 26.08 27.01 31.84 22.94 37.06
  C 15.12 47.10 10.39 65.78 12.47 78.25
  Q 12.53 78.59 12.38 78.80
  Q 12.02 79.30 11.79 78.73
  C 3.35 57.49 4.89 23.78 30.78 14.92
  Q 31.21 14.78 30.88 14.46
  C 25.58 9.38 30.35 1.38 37.01 0.84
  C 46.42 0.07 42.89 9.95 47.78 13.65
  Q 48.17 13.94 48.65 13.84
  C 52.99 12.86 52.89 8.33 56.18 6.12
  C 65.70 -0.28 79.83 9.13 69.04 19.54
  Q 64.34 24.07 59.63 28.61
  Q 55.65 32.45 55.94 37.22
  Q 56.05 39.07 57.51 39.05
  Q 58.25 39.03 59.35 38.29
  Q 63.68 35.38 65.32 34.81
  C 71.50 32.68 75.07 39.91 71.08 44.07
  C 67.22 48.09 55.09 49.44 53.38 53.91
  C 52.09 57.28 54.64 62.58 59.23 59.72
  Q 64.69 56.31 67.05 55.33
  C 71.10 53.64 73.36 56.33 72.75 60.10
  C 71.89 65.41 65.97 67.00 60.78 69.04
  C 55.25 71.21 59.66 78.73 65.52 76.04
  C 75.68 71.37 82.53 57.15 84.85 47.07
  C 87.17 37.00 86.02 27.98 81.23 19.02
  Q 81.05 18.67 81.27 18.44
  Q 81.57 18.12 81.88 18.43
  C 100.56 37.77 95.35 77.11 68.66 86.76
  Q 68.11 86.96 68.49 87.41
  Z"
/>
</svg>
