<?xml version="1.0" encoding="UTF-8" standalone="no"?>
<!DOCTYPE svg PUBLIC "-//W3C//DTD SVG 1.1//EN" "http://www.w3.org/Graphics/SVG/1.1/DTD/svg11.dtd">
<svg xmlns="http://www.w3.org/2000/svg" version="1.1" viewBox="0.00 0.00 100.00 100.00">
<path fill="#000000" d="
  M 24.41 76.28
  L 24.15 75.92
  A 2.18 2.18 0.0 0 0 20.86 75.67
  C 18.58 77.94 7.86 89.47 4.82 85.20
  Q 3.70 83.63 4.48 81.86
  C 8.33 73.05 12.73 64.53 13.19 55.01
  Q 13.73 43.98 12.69 39.33
  C 10.92 31.40 8.12 25.38 4.34 17.64
  C 2.97 14.84 5.72 12.12 8.76 13.50
  C 13.06 15.45 17.20 20.14 20.78 23.60
  A 2.13 2.12 41.8 0 0 23.89 23.43
  L 24.10 23.19
  A 1.85 1.84 -46.7 0 0 24.03 20.74
  C 20.41 16.86 15.86 12.89 13.84 8.18
  C 12.56 5.21 15.96 3.38 18.48 4.57
  C 26.90 8.55 34.99 12.62 44.50 13.16
  Q 54.72 13.74 61.76 12.52
  C 68.22 11.40 76.01 7.31 82.50 4.28
  C 84.22 3.48 86.60 4.86 86.73 6.88
  C 86.94 10.34 79.64 17.59 76.51 20.38
  A 2.20 2.19 -43.9 0 0 76.44 23.60
  L 76.75 23.91
  A 1.78 1.78 0.0 0 0 79.23 23.91
  C 81.99 21.22 92.25 10.03 95.30 14.70
  C 96.96 17.24 93.33 22.97 92.16 25.41
  C 87.28 35.52 86.42 43.31 86.87 54.75
  C 87.25 64.52 90.79 71.97 94.95 80.54
  C 96.03 82.76 96.55 85.05 94.13 86.38
  C 90.86 88.19 81.14 77.97 78.81 75.74
  A 1.71 1.70 -48.5 0 0 76.31 75.90
  L 75.95 76.34
  Q 74.49 78.13 76.22 79.65
  C 79.37 82.43 86.04 89.04 86.42 92.77
  C 86.65 95.12 83.85 96.57 82.03 95.70
  Q 77.44 93.53 72.83 91.40
  C 63.49 87.09 54.05 86.13 43.96 86.91
  C 35.22 87.58 26.94 90.92 19.29 95.01
  C 17.42 96.00 15.43 96.34 13.92 94.84
  C 10.56 91.51 21.97 81.07 24.22 78.83
  A 1.97 1.96 49.3 0 0 24.41 76.28
  Z
  M 26.49 33.91
  Q 31.51 50.50 26.54 65.81
  Q 25.54 68.92 27.60 66.39
  C 29.40 64.19 32.38 61.54 35.23 63.96
  C 38.86 67.04 34.96 70.67 32.84 72.59
  Q 30.72 74.50 33.46 73.67
  Q 49.86 68.69 66.26 73.68
  Q 69.15 74.56 66.87 72.59
  C 64.73 70.73 61.31 67.66 64.03 64.59
  C 67.42 60.75 70.61 65.16 72.85 67.26
  Q 74.35 68.67 73.75 66.70
  Q 68.71 50.22 73.65 33.70
  Q 74.43 31.10 72.56 33.07
  C 70.47 35.27 66.38 39.37 63.89 35.10
  C 61.79 31.49 65.13 29.14 67.32 27.03
  Q 67.42 26.92 67.35 26.80
  Q 67.28 26.68 67.21 26.56
  A 0.29 0.28 64.5 0 0 66.88 26.44
  Q 49.99 31.74 33.16 26.32
  Q 32.43 26.08 32.78 26.76
  Q 33.40 27.95 34.49 28.76
  C 37.06 30.65 37.90 34.48 34.75 36.17
  C 31.47 37.93 28.95 34.56 26.98 32.57
  A 0.35 0.35 0.0 0 0 26.38 32.77
  Q 26.31 33.29 26.49 33.91
  Z"
/>
</svg>
