<?xml version="1.0" encoding="UTF-8" standalone="no"?>
<!DOCTYPE svg PUBLIC "-//W3C//DTD SVG 1.1//EN" "http://www.w3.org/Graphics/SVG/1.1/DTD/svg11.dtd">
<svg xmlns="http://www.w3.org/2000/svg" version="1.1" viewBox="0.00 0.00 100.00 100.00">
<g stroke-width="2.00" fill="none" stroke-linecap="butt">
<path stroke="#808080" vector-effect="non-scaling-stroke" d="
  M 62.69 24.08
  A 0.38 0.38 0.0 0 1 62.36 23.89
  L 49.48 1.71
  A 0.38 0.38 0.0 0 0 48.82 1.71
  L 35.94 23.89
  A 0.38 0.38 0.0 0 1 35.61 24.08
  L 9.96 24.14
  A 0.38 0.38 0.0 0 0 9.63 24.71
  L 22.40 46.96
  A 0.38 0.38 0.0 0 1 22.40 47.34
  L 9.63 69.59
  A 0.38 0.38 0.0 0 0 9.96 70.16
  L 35.61 70.22
  A 0.38 0.38 0.0 0 1 35.94 70.41
  L 48.82 92.59
  A 0.38 0.38 0.0 0 0 49.48 92.59
  L 62.36 70.41
  A 0.38 0.38 0.0 0 1 62.69 70.22
  L 88.34 70.16
  A 0.38 0.38 0.0 0 0 88.67 69.59
  L 75.90 47.34
  A 0.38 0.38 0.0 0 1 75.90 46.96
  L 88.67 24.71
  A 0.38 0.38 0.0 0 0 88.34 24.14
  L 62.69 24.08"
/>
<path stroke="#808080" vector-effect="non-scaling-stroke" d="
  M 61.28 26.54
  A 0.33 0.33 0.0 0 1 60.99 26.37
  L 49.44 6.38
  A 0.33 0.33 0.0 0 0 48.86 6.38
  L 37.31 26.37
  A 0.33 0.33 0.0 0 1 37.02 26.54
  L 13.94 26.55
  A 0.33 0.33 0.0 0 0 13.65 27.04
  L 25.18 47.05
  A 0.33 0.33 0.0 0 1 25.18 47.37
  L 13.65 67.38
  A 0.33 0.33 0.0 0 0 13.94 67.87
  L 37.02 67.88
  A 0.33 0.33 0.0 0 1 37.31 68.05
  L 48.86 88.04
  A 0.33 0.33 0.0 0 0 49.44 88.04
  L 60.99 68.05
  A 0.33 0.33 0.0 0 1 61.28 67.88
  L 84.36 67.87
  A 0.33 0.33 0.0 0 0 84.65 67.38
  L 73.12 47.37
  A 0.33 0.33 0.0 0 1 73.12 47.05
  L 84.65 27.04
  A 0.33 0.33 0.0 0 0 84.36 26.55
  L 61.28 26.54"
/>
<path stroke="#808080" vector-effect="non-scaling-stroke" d="
  M 58.55 31.36
  A 0.50 0.50 0.0 0 1 58.12 31.11
  L 49.58 16.37
  A 0.50 0.50 0.0 0 0 48.72 16.37
  L 40.18 31.11
  A 0.50 0.50 0.0 0 1 39.75 31.36
  L 22.71 31.38
  A 0.50 0.50 0.0 0 0 22.28 32.13
  L 30.78 46.90
  A 0.50 0.50 0.0 0 1 30.78 47.40
  L 22.28 62.17
  A 0.50 0.50 0.0 0 0 22.71 62.92
  L 39.75 62.94
  A 0.50 0.50 0.0 0 1 40.18 63.19
  L 48.72 77.93
  A 0.50 0.50 0.0 0 0 49.58 77.93
  L 58.12 63.19
  A 0.50 0.50 0.0 0 1 58.55 62.94
  L 75.59 62.92
  A 0.50 0.50 0.0 0 0 76.02 62.17
  L 67.52 47.40
  A 0.50 0.50 0.0 0 1 67.52 46.90
  L 76.02 32.13
  A 0.50 0.50 0.0 0 0 75.59 31.38
  L 58.55 31.36"
/>
<path stroke="#808080" vector-effect="non-scaling-stroke" d="
  M 57.04 33.83
  A 0.30 0.30 0.0 0 1 56.78 33.68
  L 49.42 20.92
  A 0.30 0.30 0.0 0 0 48.90 20.92
  L 41.54 33.68
  A 0.30 0.30 0.0 0 1 41.28 33.83
  L 26.55 33.83
  A 0.30 0.30 0.0 0 0 26.29 34.28
  L 33.66 47.03
  A 0.30 0.30 0.0 0 1 33.66 47.33
  L 26.29 60.08
  A 0.30 0.30 0.0 0 0 26.55 60.53
  L 41.28 60.53
  A 0.30 0.30 0.0 0 1 41.54 60.68
  L 48.90 73.44
  A 0.30 0.30 0.0 0 0 49.42 73.44
  L 56.78 60.68
  A 0.30 0.30 0.0 0 1 57.04 60.53
  L 71.77 60.53
  A 0.30 0.30 0.0 0 0 72.03 60.08
  L 64.66 47.33
  A 0.30 0.30 0.0 0 1 64.66 47.03
  L 72.03 34.28
  A 0.30 0.30 0.0 0 0 71.77 33.83
  L 57.04 33.83"
/>
<path stroke="#808080" vector-effect="non-scaling-stroke" d="
  M 54.31 38.76
  A 0.47 0.47 0.0 0 1 53.90 38.52
  L 49.56 30.99
  A 0.47 0.47 0.0 0 0 48.74 30.99
  L 44.40 38.52
  A 0.47 0.47 0.0 0 1 43.99 38.76
  L 35.30 38.75
  A 0.47 0.47 0.0 0 0 34.89 39.46
  L 39.24 46.98
  A 0.47 0.47 0.0 0 1 39.24 47.46
  L 34.89 54.98
  A 0.47 0.47 0.0 0 0 35.30 55.69
  L 43.99 55.68
  A 0.47 0.47 0.0 0 1 44.40 55.92
  L 48.74 63.45
  A 0.47 0.47 0.0 0 0 49.56 63.45
  L 53.90 55.92
  A 0.47 0.47 0.0 0 1 54.31 55.68
  L 63.00 55.69
  A 0.47 0.47 0.0 0 0 63.41 54.98
  L 59.06 47.46
  A 0.47 0.47 0.0 0 1 59.06 46.98
  L 63.41 39.46
  A 0.47 0.47 0.0 0 0 63.00 38.75
  L 54.31 38.76"
/>
<path stroke="#808080" vector-effect="non-scaling-stroke" d="
  M 52.86 41.06
  A 0.33 0.33 0.0 0 1 52.57 40.89
  L 49.45 35.40
  A 0.33 0.33 0.0 0 0 48.87 35.40
  L 45.75 40.89
  A 0.33 0.33 0.0 0 1 45.46 41.06
  L 39.14 41.01
  A 0.33 0.33 0.0 0 0 38.85 41.51
  L 42.05 46.96
  A 0.33 0.33 0.0 0 1 42.05 47.30
  L 38.85 52.75
  A 0.33 0.33 0.0 0 0 39.14 53.25
  L 45.46 53.20
  A 0.33 0.33 0.0 0 1 45.75 53.37
  L 48.87 58.86
  A 0.33 0.33 0.0 0 0 49.45 58.86
  L 52.57 53.37
  A 0.33 0.33 0.0 0 1 52.86 53.20
  L 59.18 53.25
  A 0.33 0.33 0.0 0 0 59.47 52.75
  L 56.27 47.30
  A 0.33 0.33 0.0 0 1 56.27 46.96
  L 59.47 41.51
  A 0.33 0.33 0.0 0 0 59.18 41.01
  L 52.86 41.06"
/>
</g>
<path fill="#ffffff" d="
  M 0.00 0.00
  L 100.00 0.00
  L 100.00 100.00
  L 0.00 100.00
  L 0.00 0.00
  Z
  M 62.69 24.08
  A 0.38 0.38 0.0 0 1 62.36 23.89
  L 49.48 1.71
  A 0.38 0.38 0.0 0 0 48.82 1.71
  L 35.94 23.89
  A 0.38 0.38 0.0 0 1 35.61 24.08
  L 9.96 24.14
  A 0.38 0.38 0.0 0 0 9.63 24.71
  L 22.40 46.96
  A 0.38 0.38 0.0 0 1 22.40 47.34
  L 9.63 69.59
  A 0.38 0.38 0.0 0 0 9.96 70.16
  L 35.61 70.22
  A 0.38 0.38 0.0 0 1 35.94 70.41
  L 48.82 92.59
  A 0.38 0.38 0.0 0 0 49.48 92.59
  L 62.36 70.41
  A 0.38 0.38 0.0 0 1 62.69 70.22
  L 88.34 70.16
  A 0.38 0.38 0.0 0 0 88.67 69.59
  L 75.90 47.34
  A 0.38 0.38 0.0 0 1 75.90 46.96
  L 88.67 24.71
  A 0.38 0.38 0.0 0 0 88.34 24.14
  L 62.69 24.08
  Z"
/>
<path fill="#000000" d="
  M 62.69 24.08
  L 88.34 24.14
  A 0.38 0.38 0.0 0 1 88.67 24.71
  L 75.90 46.96
  A 0.38 0.38 0.0 0 0 75.90 47.34
  L 88.67 69.59
  A 0.38 0.38 0.0 0 1 88.34 70.16
  L 62.69 70.22
  A 0.38 0.38 0.0 0 0 62.36 70.41
  L 49.48 92.59
  A 0.38 0.38 0.0 0 1 48.82 92.59
  L 35.94 70.41
  A 0.38 0.38 0.0 0 0 35.61 70.22
  L 9.96 70.16
  A 0.38 0.38 0.0 0 1 9.63 69.59
  L 22.40 47.34
  A 0.38 0.38 0.0 0 0 22.40 46.96
  L 9.63 24.71
  A 0.38 0.38 0.0 0 1 9.96 24.14
  L 35.61 24.08
  A 0.38 0.38 0.0 0 0 35.94 23.89
  L 48.82 1.71
  A 0.38 0.38 0.0 0 1 49.48 1.71
  L 62.36 23.89
  A 0.38 0.38 0.0 0 0 62.69 24.08
  Z
  M 61.28 26.54
  A 0.33 0.33 0.0 0 1 60.99 26.37
  L 49.44 6.38
  A 0.33 0.33 0.0 0 0 48.86 6.38
  L 37.31 26.37
  A 0.33 0.33 0.0 0 1 37.02 26.54
  L 13.94 26.55
  A 0.33 0.33 0.0 0 0 13.65 27.04
  L 25.18 47.05
  A 0.33 0.33 0.0 0 1 25.18 47.37
  L 13.65 67.38
  A 0.33 0.33 0.0 0 0 13.94 67.87
  L 37.02 67.88
  A 0.33 0.33 0.0 0 1 37.31 68.05
  L 48.86 88.04
  A 0.33 0.33 0.0 0 0 49.44 88.04
  L 60.99 68.05
  A 0.33 0.33 0.0 0 1 61.28 67.88
  L 84.36 67.87
  A 0.33 0.33 0.0 0 0 84.65 67.38
  L 73.12 47.37
  A 0.33 0.33 0.0 0 1 73.12 47.05
  L 84.65 27.04
  A 0.33 0.33 0.0 0 0 84.36 26.55
  L 61.28 26.54
  Z"
/>
<path fill="#ffffff" d="
  M 61.28 26.54
  L 84.36 26.55
  A 0.33 0.33 0.0 0 1 84.65 27.04
  L 73.12 47.05
  A 0.33 0.33 0.0 0 0 73.12 47.37
  L 84.65 67.38
  A 0.33 0.33 0.0 0 1 84.36 67.87
  L 61.28 67.88
  A 0.33 0.33 0.0 0 0 60.99 68.05
  L 49.44 88.04
  A 0.33 0.33 0.0 0 1 48.86 88.04
  L 37.31 68.05
  A 0.33 0.33 0.0 0 0 37.02 67.88
  L 13.94 67.87
  A 0.33 0.33 0.0 0 1 13.65 67.38
  L 25.18 47.37
  A 0.33 0.33 0.0 0 0 25.18 47.05
  L 13.65 27.04
  A 0.33 0.33 0.0 0 1 13.94 26.55
  L 37.02 26.54
  A 0.33 0.33 0.0 0 0 37.31 26.37
  L 48.86 6.38
  A 0.33 0.33 0.0 0 1 49.44 6.38
  L 60.99 26.37
  A 0.33 0.33 0.0 0 0 61.28 26.54
  Z
  M 58.55 31.36
  A 0.50 0.50 0.0 0 1 58.12 31.11
  L 49.58 16.37
  A 0.50 0.50 0.0 0 0 48.72 16.37
  L 40.18 31.11
  A 0.50 0.50 0.0 0 1 39.75 31.36
  L 22.71 31.38
  A 0.50 0.50 0.0 0 0 22.28 32.13
  L 30.78 46.90
  A 0.50 0.50 0.0 0 1 30.78 47.40
  L 22.28 62.17
  A 0.50 0.50 0.0 0 0 22.71 62.92
  L 39.75 62.94
  A 0.50 0.50 0.0 0 1 40.18 63.19
  L 48.72 77.93
  A 0.50 0.50 0.0 0 0 49.58 77.93
  L 58.12 63.19
  A 0.50 0.50 0.0 0 1 58.55 62.94
  L 75.59 62.92
  A 0.50 0.50 0.0 0 0 76.02 62.17
  L 67.52 47.40
  A 0.50 0.50 0.0 0 1 67.52 46.90
  L 76.02 32.13
  A 0.50 0.50 0.0 0 0 75.59 31.38
  L 58.55 31.36
  Z"
/>
<path fill="#000000" d="
  M 58.55 31.36
  L 75.59 31.38
  A 0.50 0.50 0.0 0 1 76.02 32.13
  L 67.52 46.90
  A 0.50 0.50 0.0 0 0 67.52 47.40
  L 76.02 62.17
  A 0.50 0.50 0.0 0 1 75.59 62.92
  L 58.55 62.94
  A 0.50 0.50 0.0 0 0 58.12 63.19
  L 49.58 77.93
  A 0.50 0.50 0.0 0 1 48.72 77.93
  L 40.18 63.19
  A 0.50 0.50 0.0 0 0 39.75 62.94
  L 22.71 62.92
  A 0.50 0.50 0.0 0 1 22.28 62.17
  L 30.78 47.40
  A 0.50 0.50 0.0 0 0 30.78 46.90
  L 22.28 32.13
  A 0.50 0.50 0.0 0 1 22.71 31.38
  L 39.75 31.36
  A 0.50 0.50 0.0 0 0 40.18 31.11
  L 48.72 16.37
  A 0.50 0.50 0.0 0 1 49.58 16.37
  L 58.12 31.11
  A 0.50 0.50 0.0 0 0 58.55 31.36
  Z
  M 57.04 33.83
  A 0.30 0.30 0.0 0 1 56.78 33.68
  L 49.42 20.92
  A 0.30 0.30 0.0 0 0 48.90 20.92
  L 41.54 33.68
  A 0.30 0.30 0.0 0 1 41.28 33.83
  L 26.55 33.83
  A 0.30 0.30 0.0 0 0 26.29 34.28
  L 33.66 47.03
  A 0.30 0.30 0.0 0 1 33.66 47.33
  L 26.29 60.08
  A 0.30 0.30 0.0 0 0 26.55 60.53
  L 41.28 60.53
  A 0.30 0.30 0.0 0 1 41.54 60.68
  L 48.90 73.44
  A 0.30 0.30 0.0 0 0 49.42 73.44
  L 56.78 60.68
  A 0.30 0.30 0.0 0 1 57.04 60.53
  L 71.77 60.53
  A 0.30 0.30 0.0 0 0 72.03 60.08
  L 64.66 47.33
  A 0.30 0.30 0.0 0 1 64.66 47.03
  L 72.03 34.28
  A 0.30 0.30 0.0 0 0 71.77 33.83
  L 57.04 33.83
  Z"
/>
<path fill="#ffffff" d="
  M 57.04 33.83
  L 71.77 33.83
  A 0.30 0.30 0.0 0 1 72.03 34.28
  L 64.66 47.03
  A 0.30 0.30 0.0 0 0 64.66 47.33
  L 72.03 60.08
  A 0.30 0.30 0.0 0 1 71.77 60.53
  L 57.04 60.53
  A 0.30 0.30 0.0 0 0 56.78 60.68
  L 49.42 73.44
  A 0.30 0.30 0.0 0 1 48.90 73.44
  L 41.54 60.68
  A 0.30 0.30 0.0 0 0 41.28 60.53
  L 26.55 60.53
  A 0.30 0.30 0.0 0 1 26.29 60.08
  L 33.66 47.33
  A 0.30 0.30 0.0 0 0 33.66 47.03
  L 26.29 34.28
  A 0.30 0.30 0.0 0 1 26.55 33.83
  L 41.28 33.83
  A 0.30 0.30 0.0 0 0 41.54 33.68
  L 48.90 20.92
  A 0.30 0.30 0.0 0 1 49.42 20.92
  L 56.78 33.68
  A 0.30 0.30 0.0 0 0 57.04 33.83
  Z
  M 54.31 38.76
  A 0.47 0.47 0.0 0 1 53.90 38.52
  L 49.56 30.99
  A 0.47 0.47 0.0 0 0 48.74 30.99
  L 44.40 38.52
  A 0.47 0.47 0.0 0 1 43.99 38.76
  L 35.30 38.75
  A 0.47 0.47 0.0 0 0 34.89 39.46
  L 39.24 46.98
  A 0.47 0.47 0.0 0 1 39.24 47.46
  L 34.89 54.98
  A 0.47 0.47 0.0 0 0 35.30 55.69
  L 43.99 55.68
  A 0.47 0.47 0.0 0 1 44.40 55.92
  L 48.74 63.45
  A 0.47 0.47 0.0 0 0 49.56 63.45
  L 53.90 55.92
  A 0.47 0.47 0.0 0 1 54.31 55.68
  L 63.00 55.69
  A 0.47 0.47 0.0 0 0 63.41 54.98
  L 59.06 47.46
  A 0.47 0.47 0.0 0 1 59.06 46.98
  L 63.41 39.46
  A 0.47 0.47 0.0 0 0 63.00 38.75
  L 54.31 38.76
  Z"
/>
<path fill="#000000" d="
  M 54.31 38.76
  L 63.00 38.75
  A 0.47 0.47 0.0 0 1 63.41 39.46
  L 59.06 46.98
  A 0.47 0.47 0.0 0 0 59.06 47.46
  L 63.41 54.98
  A 0.47 0.47 0.0 0 1 63.00 55.69
  L 54.31 55.68
  A 0.47 0.47 0.0 0 0 53.90 55.92
  L 49.56 63.45
  A 0.47 0.47 0.0 0 1 48.74 63.45
  L 44.40 55.92
  A 0.47 0.47 0.0 0 0 43.99 55.68
  L 35.30 55.69
  A 0.47 0.47 0.0 0 1 34.89 54.98
  L 39.24 47.46
  A 0.47 0.47 0.0 0 0 39.24 46.98
  L 34.89 39.46
  A 0.47 0.47 0.0 0 1 35.30 38.75
  L 43.99 38.76
  A 0.47 0.47 0.0 0 0 44.40 38.52
  L 48.74 30.99
  A 0.47 0.47 0.0 0 1 49.56 30.99
  L 53.90 38.52
  A 0.47 0.47 0.0 0 0 54.31 38.76
  Z
  M 52.86 41.06
  A 0.33 0.33 0.0 0 1 52.57 40.89
  L 49.45 35.40
  A 0.33 0.33 0.0 0 0 48.87 35.40
  L 45.75 40.89
  A 0.33 0.33 0.0 0 1 45.46 41.06
  L 39.14 41.01
  A 0.33 0.33 0.0 0 0 38.85 41.51
  L 42.05 46.96
  A 0.33 0.33 0.0 0 1 42.05 47.30
  L 38.85 52.75
  A 0.33 0.33 0.0 0 0 39.14 53.25
  L 45.46 53.20
  A 0.33 0.33 0.0 0 1 45.75 53.37
  L 48.87 58.86
  A 0.33 0.33 0.0 0 0 49.45 58.86
  L 52.57 53.37
  A 0.33 0.33 0.0 0 1 52.86 53.20
  L 59.18 53.25
  A 0.33 0.33 0.0 0 0 59.47 52.75
  L 56.27 47.30
  A 0.33 0.33 0.0 0 1 56.27 46.96
  L 59.47 41.51
  A 0.33 0.33 0.0 0 0 59.18 41.01
  L 52.86 41.06
  Z"
/>
<path fill="#ffffff" d="
  M 52.86 41.06
  L 59.18 41.01
  A 0.33 0.33 0.0 0 1 59.47 41.51
  L 56.27 46.96
  A 0.33 0.33 0.0 0 0 56.27 47.30
  L 59.47 52.75
  A 0.33 0.33 0.0 0 1 59.18 53.25
  L 52.86 53.20
  A 0.33 0.33 0.0 0 0 52.57 53.37
  L 49.45 58.86
  A 0.33 0.33 0.0 0 1 48.87 58.86
  L 45.75 53.37
  A 0.33 0.33 0.0 0 0 45.46 53.20
  L 39.14 53.25
  A 0.33 0.33 0.0 0 1 38.85 52.75
  L 42.05 47.30
  A 0.33 0.33 0.0 0 0 42.05 46.96
  L 38.85 41.51
  A 0.33 0.33 0.0 0 1 39.14 41.01
  L 45.46 41.06
  A 0.33 0.33 0.0 0 0 45.75 40.89
  L 48.87 35.40
  A 0.33 0.33 0.0 0 1 49.45 35.40
  L 52.57 40.89
  A 0.33 0.33 0.0 0 0 52.86 41.06
  Z"
/>
</svg>
