<?xml version="1.0" encoding="UTF-8" standalone="no"?>
<!DOCTYPE svg PUBLIC "-//W3C//DTD SVG 1.1//EN" "http://www.w3.org/Graphics/SVG/1.1/DTD/svg11.dtd">
<svg xmlns="http://www.w3.org/2000/svg" version="1.1" viewBox="0.00 0.00 100.00 100.00">
<g stroke-width="2.00" fill="none" stroke-linecap="butt">
<path stroke="#808080" vector-effect="non-scaling-stroke" d="
  M 52.34 18.97
  A 0.45 0.45 0.0 0 1 51.60 18.96
  C 44.57 8.13 30.75 6.22 20.03 13.33
  Q 16.84 15.45 15.19 18.49
  C 6.72 34.15 17.68 51.19 28.10 62.65
  Q 36.64 72.04 44.59 81.93
  C 47.70 85.79 49.82 89.31 50.82 93.80
  Q 51.45 96.64 52.52 93.93
  C 53.81 90.67 55.41 87.24 57.60 84.31
  C 66.66 72.21 77.87 62.50 86.59 50.08
  Q 94.94 38.19 90.82 24.50
  C 85.50 6.83 62.55 4.54 52.34 18.97"
/>
<path stroke="#808080" vector-effect="non-scaling-stroke" d="
  M 52.27 35.58
  Q 51.61 37.73 51.06 35.55
  C 48.57 25.54 45.47 15.21 33.22 15.56
  C 25.34 15.78 19.43 19.70 18.77 28.00
  C 17.97 38.20 23.41 47.75 29.79 54.98
  Q 42.95 69.91 51.78 80.75
  Q 52.12 81.18 52.45 80.74
  Q 61.82 68.47 65.95 64.46
  C 73.34 57.30 81.96 48.34 85.03 39.77
  C 89.39 27.58 80.19 11.54 65.32 16.69
  C 56.35 19.79 54.70 27.71 52.27 35.58"
/>
</g>
<path fill="#ffffff" d="
  M 0.00 0.00
  L 100.00 0.00
  L 100.00 100.00
  L 0.00 100.00
  L 0.00 0.00
  Z
  M 52.34 18.97
  A 0.45 0.45 0.0 0 1 51.60 18.96
  C 44.57 8.13 30.75 6.22 20.03 13.33
  Q 16.84 15.45 15.19 18.49
  C 6.72 34.15 17.68 51.19 28.10 62.65
  Q 36.64 72.04 44.59 81.93
  C 47.70 85.79 49.82 89.31 50.82 93.80
  Q 51.45 96.64 52.52 93.93
  C 53.81 90.67 55.41 87.24 57.60 84.31
  C 66.66 72.21 77.87 62.50 86.59 50.08
  Q 94.94 38.19 90.82 24.50
  C 85.50 6.83 62.55 4.54 52.34 18.97
  Z"
/>
<path fill="#000000" d="
  M 52.34 18.97
  C 62.55 4.54 85.50 6.83 90.82 24.50
  Q 94.94 38.19 86.59 50.08
  C 77.87 62.50 66.66 72.21 57.60 84.31
  C 55.41 87.24 53.81 90.67 52.52 93.93
  Q 51.45 96.64 50.82 93.80
  C 49.82 89.31 47.70 85.79 44.59 81.93
  Q 36.64 72.04 28.10 62.65
  C 17.68 51.19 6.72 34.15 15.19 18.49
  Q 16.84 15.45 20.03 13.33
  C 30.75 6.22 44.57 8.13 51.60 18.96
  A 0.45 0.45 0.0 0 0 52.34 18.97
  Z
  M 52.27 35.58
  Q 51.61 37.73 51.06 35.55
  C 48.57 25.54 45.47 15.21 33.22 15.56
  C 25.34 15.78 19.43 19.70 18.77 28.00
  C 17.97 38.20 23.41 47.75 29.79 54.98
  Q 42.95 69.91 51.78 80.75
  Q 52.12 81.18 52.45 80.74
  Q 61.82 68.47 65.95 64.46
  C 73.34 57.30 81.96 48.34 85.03 39.77
  C 89.39 27.58 80.19 11.54 65.32 16.69
  C 56.35 19.79 54.70 27.71 52.27 35.58
  Z"
/>
<path fill="#ffffff" d="
  M 52.27 35.58
  C 54.70 27.71 56.35 19.79 65.32 16.69
  C 80.19 11.54 89.39 27.58 85.03 39.77
  C 81.96 48.34 73.34 57.30 65.95 64.46
  Q 61.82 68.47 52.45 80.74
  Q 52.12 81.18 51.78 80.75
  Q 42.95 69.91 29.79 54.98
  C 23.41 47.75 17.97 38.20 18.77 28.00
  C 19.43 19.70 25.34 15.78 33.22 15.56
  C 45.47 15.21 48.57 25.54 51.06 35.55
  Q 51.61 37.73 52.27 35.58
  Z"
/>
</svg>
