<?xml version="1.0" encoding="UTF-8" standalone="no"?>
<!DOCTYPE svg PUBLIC "-//W3C//DTD SVG 1.1//EN" "http://www.w3.org/Graphics/SVG/1.1/DTD/svg11.dtd">
<svg xmlns="http://www.w3.org/2000/svg" version="1.1" viewBox="0.00 0.00 56.00 100.00">
<path fill="#000000" d="
  M 43.02 87.75
  L 12.81 87.75
  A 0.49 0.49 0.0 0 0 12.32 88.24
  L 12.30 97.98
  A 0.49 0.49 0.0 0 1 11.81 98.47
  L 1.30 98.47
  A 0.49 0.49 0.0 0 1 0.81 97.98
  L 0.81 1.84
  A 0.49 0.49 0.0 0 1 1.30 1.35
  L 11.81 1.31
  A 0.49 0.49 0.0 0 1 12.30 1.80
  L 12.31 11.54
  A 0.49 0.49 0.0 0 0 12.80 12.03
  L 43.02 12.04
  A 0.49 0.49 0.0 0 0 43.51 11.55
  L 43.50 1.81
  A 0.49 0.49 0.0 0 1 43.99 1.32
  L 54.47 1.32
  A 0.49 0.49 0.0 0 1 54.96 1.81
  L 54.96 97.97
  A 0.49 0.49 0.0 0 1 54.47 98.46
  L 44.00 98.48
  A 0.49 0.49 0.0 0 1 43.51 97.99
  L 43.51 88.24
  A 0.49 0.49 0.0 0 0 43.02 87.75
  Z
  M 43.51 23.96
  A 0.46 0.46 0.0 0 0 43.05 23.50
  L 12.77 23.50
  A 0.46 0.46 0.0 0 0 12.31 23.96
  L 12.31 33.02
  A 0.46 0.46 0.0 0 0 12.77 33.48
  L 43.05 33.48
  A 0.46 0.46 0.0 0 0 43.51 33.02
  L 43.51 23.96
  Z
  M 43.50 45.30
  A 0.37 0.37 0.0 0 0 43.13 44.93
  L 12.69 44.93
  A 0.37 0.37 0.0 0 0 12.32 45.30
  L 12.32 54.46
  A 0.37 0.37 0.0 0 0 12.69 54.83
  L 43.13 54.83
  A 0.37 0.37 0.0 0 0 43.50 54.46
  L 43.50 45.30
  Z
  M 43.51 66.75
  A 0.36 0.36 0.0 0 0 43.15 66.39
  L 12.67 66.39
  A 0.36 0.36 0.0 0 0 12.31 66.75
  L 12.31 75.91
  A 0.36 0.36 0.0 0 0 12.67 76.27
  L 43.15 76.27
  A 0.36 0.36 0.0 0 0 43.51 75.91
  L 43.51 66.75
  Z"
/>
</svg>
