<?xml version="1.0" encoding="UTF-8" standalone="no"?>
<!DOCTYPE svg PUBLIC "-//W3C//DTD SVG 1.1//EN" "http://www.w3.org/Graphics/SVG/1.1/DTD/svg11.dtd">
<svg xmlns="http://www.w3.org/2000/svg" version="1.1" viewBox="0.00 0.00 100.00 100.00">
<g stroke-width="2.00" fill="none" stroke-linecap="butt">
<path stroke="#808080" vector-effect="non-scaling-stroke" d="
  M 40.24 85.93
  Q 40.27 86.00 40.28 86.20
  Q 40.29 86.27 40.25 86.34
  Q 38.49 89.18 37.15 92.23
  Q 36.52 93.65 37.77 93.85
  A 1.10 1.08 -64.3 0 0 38.79 93.48
  Q 42.51 89.20 44.51 84.29
  Q 44.86 83.43 45.24 82.87
  Q 45.97 81.80 46.30 81.65
  Q 50.47 79.79 48.36 83.84
  Q 47.92 84.69 47.68 86.44
  C 47.36 88.78 46.05 90.61 45.18 92.80
  A 0.83 0.82 -74.2 0 0 45.80 93.92
  L 46.28 94.01
  Q 47.48 94.22 47.95 93.10
  L 49.42 89.53
  A 0.78 0.78 0.0 0 1 50.91 89.72
  L 51.37 93.16
  A 0.80 0.78 86.9 0 0 52.12 93.85
  L 52.42 93.86
  Q 53.76 93.92 53.59 92.59
  L 53.25 89.95
  Q 52.88 87.11 54.63 89.38
  Q 55.29 90.24 56.57 92.23
  A 2.03 2.00 71.8 0 0 58.38 93.16
  L 58.68 93.14
  A 0.70 0.70 0.0 0 0 59.24 92.07
  C 56.90 88.30 51.99 84.64 52.72 80.44
  A 0.55 0.55 0.0 0 1 53.70 80.20
  C 56.21 83.41 60.63 87.87 61.01 91.82
  Q 61.36 95.54 63.47 92.46
  Q 63.98 91.73 62.70 90.10
  Q 62.52 89.88 62.75 89.72
  L 63.02 89.51
  Q 63.27 89.33 63.46 89.57
  L 66.16 93.14
  Q 66.91 94.13 68.14 93.97
  L 68.61 93.91
  A 0.65 0.65 0.0 0 0 69.04 92.87
  C 63.79 86.03 53.66 78.95 51.31 70.37
  C 49.77 64.75 48.65 57.34 50.60 51.68
  Q 50.78 51.17 51.30 51.34
  C 55.21 52.66 56.20 54.47 58.59 57.71
  A 1.13 1.12 48.2 0 0 60.32 57.81
  L 60.65 57.44
  A 1.25 1.25 0.0 0 1 62.70 57.75
  L 64.53 61.59
  A 0.60 0.60 0.0 0 0 65.48 61.77
  L 67.07 60.29
  A 1.17 1.17 0.0 0 1 69.03 61.10
  Q 69.11 63.10 68.04 64.76
  A 0.76 0.76 0.0 0 0 68.52 65.92
  Q 70.27 66.28 71.55 65.08
  A 0.68 0.67 59.5 0 1 72.65 65.37
  L 73.36 67.61
  A 0.94 0.93 -6.5 0 0 74.18 68.26
  Q 74.71 68.29 75.25 68.14
  A 1.42 1.42 0.0 0 1 76.99 69.01
  Q 77.55 70.56 78.14 71.85
  Q 78.45 72.53 78.90 72.59
  Q 79.46 72.65 80.06 72.02
  A 0.92 0.92 0.0 0 1 81.58 72.30
  Q 81.85 72.95 82.04 73.13
  Q 83.20 74.20 83.69 72.75
  Q 85.02 68.78 82.08 66.07
  Q 81.72 65.74 81.74 65.25
  L 81.83 62.55
  A 0.54 0.53 4.7 0 0 81.36 62.00
  Q 79.21 61.76 77.27 60.83
  A 0.88 0.88 0.0 0 1 76.81 59.78
  Q 77.60 57.16 75.27 56.21
  Q 74.80 56.02 74.37 56.28
  C 71.07 58.29 69.69 53.07 69.65 51.01
  Q 69.64 50.02 70.42 49.77
  Q 70.94 49.60 71.15 50.11
  C 71.77 51.66 71.22 54.33 73.41 54.51
  A 0.96 0.94 -67.1 0 0 74.18 54.19
  Q 74.52 53.81 75.01 53.74
  Q 75.50 53.68 75.78 54.08
  L 77.14 56.05
  Q 77.44 56.49 77.92 56.74
  C 78.97 57.29 79.23 58.54 79.90 58.84
  Q 80.37 59.05 80.89 58.57
  Q 81.23 58.24 81.18 57.78
  L 80.60 52.62
  A 0.79 0.78 56.1 0 1 80.69 52.15
  Q 81.57 50.48 79.78 49.96
  Q 77.73 49.36 76.61 48.99
  Q 76.07 48.82 76.04 48.25
  Q 75.83 44.41 72.11 45.09
  Q 71.23 45.26 70.73 44.50
  Q 69.20 42.17 67.04 43.84
  A 0.67 0.66 48.5 0 1 66.18 43.78
  Q 64.66 42.28 62.47 42.52
  Q 61.85 42.59 61.67 41.99
  L 61.31 40.83
  A 1.03 1.02 -22.4 0 0 59.85 40.23
  L 56.86 41.83
  Q 56.34 42.10 55.85 41.78
  C 53.77 40.42 54.84 36.70 57.45 37.69
  Q 57.94 37.87 58.09 38.37
  Q 58.35 39.18 59.16 39.03
  Q 59.74 38.91 60.08 38.44
  Q 60.42 37.96 60.97 37.73
  A 0.78 0.77 62.9 0 1 61.95 38.05
  L 63.42 40.55
  A 1.01 1.00 57.6 0 0 64.85 40.88
  L 69.12 37.97
  A 0.57 0.57 0.0 0 1 70.01 38.43
  L 70.03 41.05
  A 0.95 0.95 0.0 0 0 71.51 41.82
  Q 72.75 40.97 74.24 40.84
  A 0.87 0.86 -18.2 0 1 75.06 41.25
  L 76.24 43.19
  A 0.70 0.69 61.2 0 0 77.13 43.45
  L 78.29 42.89
  A 1.17 1.17 0.0 0 1 79.97 43.97
  Q 79.92 45.97 80.91 47.67
  Q 81.21 48.19 81.81 48.26
  Q 85.23 48.69 86.27 51.95
  A 0.59 0.59 0.0 0 0 87.35 52.05
  L 87.64 51.52
  A 1.85 1.84 47.7 0 0 87.71 49.92
  Q 86.61 47.32 87.03 44.52
  Q 87.11 43.99 86.65 43.72
  C 85.60 43.11 83.69 42.37 83.03 41.35
  Q 82.30 40.23 83.20 39.65
  Q 85.31 38.28 82.73 37.97
  Q 79.93 37.62 77.04 37.79
  A 0.82 0.82 0.0 0 1 76.18 37.14
  L 75.73 35.04
  A 1.54 1.54 0.0 0 0 73.49 34.01
  L 71.22 35.25
  A 0.70 0.69 55.1 0 1 70.36 35.09
  L 67.96 32.28
  A 0.92 0.91 -35.5 0 0 66.79 32.09
  Q 66.29 32.39 66.20 33.01
  A 1.33 1.32 -61.2 0 1 63.88 33.69
  C 61.85 31.32 58.54 35.22 55.67 35.33
  A 0.69 0.68 -5.8 0 1 54.97 34.76
  C 54.43 31.67 58.55 30.08 60.76 31.58
  A 1.25 1.24 22.8 0 0 62.68 30.80
  L 63.15 28.56
  A 1.05 1.05 0.0 0 1 64.98 28.09
  Q 65.74 28.98 66.92 29.04
  A 0.71 0.71 0.0 0 0 67.65 28.49
  Q 67.92 27.32 68.64 26.33
  A 1.69 1.69 0.0 0 1 71.34 26.29
  L 73.34 28.89
  A 0.57 0.57 0.0 0 0 74.34 28.68
  C 74.71 27.30 75.11 25.16 77.17 25.80
  A 1.05 1.03 86.7 0 1 77.83 26.40
  Q 78.39 27.80 79.81 28.11
  Q 80.38 28.24 80.61 27.70
  Q 80.78 27.27 80.73 26.80
  A 0.60 0.60 0.0 0 1 81.80 26.35
  L 85.27 30.66
  Q 85.68 31.16 86.21 30.79
  C 88.50 29.21 87.45 26.11 86.40 23.84
  Q 86.18 23.37 86.39 22.90
  L 86.86 21.85
  A 1.11 1.11 0.0 0 0 85.08 20.60
  Q 83.21 22.42 81.56 20.42
  A 0.88 0.87 48.8 0 0 80.30 20.33
  L 79.31 21.24
  A 2.02 2.02 0.0 0 1 75.94 20.01
  Q 75.85 19.29 75.46 18.59
  A 0.65 0.64 -27.0 0 0 74.62 18.32
  Q 73.75 18.74 72.78 18.75
  Q 72.30 18.75 72.11 19.19
  Q 71.20 21.28 70.51 21.96
  Q 69.87 22.58 69.16 22.14
  Q 68.70 21.85 68.76 21.30
  Q 68.87 20.29 68.48 19.39
  A 0.58 0.58 0.0 0 0 67.52 19.22
  Q 65.81 21.04 64.86 23.35
  A 1.20 1.19 40.4 0 1 62.74 23.52
  L 61.48 21.48
  A 0.83 0.83 0.0 0 0 59.99 21.62
  C 59.35 23.32 58.79 26.23 57.57 27.26
  Q 57.07 27.69 56.93 27.04
  L 56.59 25.56
  A 1.24 1.24 0.0 0 0 54.29 25.25
  C 53.07 27.49 53.49 31.68 50.68 32.37
  Q 50.20 32.49 49.87 32.13
  Q 48.56 30.65 49.01 28.65
  Q 49.13 28.14 49.64 28.25
  L 50.15 28.36
  Q 52.11 28.79 51.27 26.96
  Q 50.72 25.77 49.87 24.70
  A 2.46 2.46 0.0 0 1 49.57 22.11
  Q 50.56 20.02 51.62 17.96
  Q 52.16 16.93 51.58 16.22
  A 0.87 0.86 55.0 0 0 50.48 16.02
  L 49.26 16.72
  Q 48.68 17.05 48.80 16.39
  C 49.26 13.84 50.44 11.88 48.92 9.31
  A 0.77 0.77 0.0 0 0 47.51 9.49
  Q 47.28 10.29 46.48 9.73
  Q 43.41 7.59 38.91 6.91
  A 0.57 0.57 0.0 0 0 38.27 7.58
  L 38.33 7.91
  Q 38.47 8.68 39.25 8.80
  Q 40.94 9.05 41.92 10.42
  A 0.51 0.51 0.0 0 1 41.52 11.23
  L 40.53 11.26
  A 0.67 0.66 18.7 0 0 40.04 11.50
  Q 39.40 12.26 40.26 12.79
  Q 42.69 14.33 43.79 16.43
  Q 44.06 16.93 43.54 17.14
  L 42.08 17.74
  A 0.55 0.54 50.5 0 0 41.99 18.70
  C 43.19 19.49 45.84 21.51 46.19 22.94
  A 0.67 0.67 0.0 0 1 45.29 23.72
  Q 44.02 23.20 42.61 23.16
  A 0.75 0.75 0.0 0 0 42.08 24.46
  L 45.79 27.88
  Q 46.15 28.22 46.18 28.71
  L 46.42 32.49
  A 0.35 0.35 0.0 0 1 45.97 32.85
  Q 41.62 31.53 41.42 26.98
  A 0.62 0.62 0.0 0 0 40.84 26.38
  Q 38.74 26.21 38.75 24.00
  A 0.73 0.73 0.0 0 0 38.03 23.27
  Q 35.45 23.25 34.95 20.83
  Q 34.84 20.30 34.29 20.27
  L 33.61 20.23
  Q 32.98 20.19 32.71 19.62
  L 31.71 17.40
  Q 31.47 16.87 30.89 16.94
  L 29.67 17.10
  Q 29.10 17.17 28.92 16.62
  L 27.91 13.36
  Q 27.44 11.82 26.00 12.55
  L 23.28 13.92
  Q 22.72 14.20 22.35 13.69
  L 21.40 12.38
  Q 21.13 12.01 20.67 12.01
  Q 16.43 11.99 14.81 15.73
  Q 13.92 17.77 16.14 17.74
  L 18.47 17.71
  A 0.57 0.56 86.1 0 1 19.04 18.21
  Q 19.24 20.02 20.59 21.21
  A 0.51 0.51 0.0 0 0 21.36 21.09
  Q 22.37 19.45 24.18 20.00
  A 0.95 0.93 1.9 0 1 24.80 20.65
  L 25.39 22.92
  A 1.43 1.43 0.0 0 0 27.74 23.61
  Q 28.72 22.70 29.96 22.94
  A 0.53 0.52 6.7 0 1 30.38 23.46
  Q 30.37 25.52 32.12 25.94
  Q 32.68 26.07 33.12 26.45
  L 37.80 30.55
  A 0.55 0.52 17.0 0 1 37.98 30.87
  Q 38.19 32.45 39.83 31.99
  A 0.72 0.72 0.0 0 1 40.70 32.44
  Q 41.04 33.40 40.73 34.32
  A 0.66 0.65 -69.0 0 1 39.85 34.72
  Q 38.30 34.06 37.14 32.83
  A 1.17 1.16 -23.2 0 0 36.23 32.47
  Q 35.34 32.52 34.49 32.23
  Q 34.00 32.06 33.89 31.56
  L 33.63 30.40
  Q 33.48 29.74 32.82 29.94
  Q 31.98 30.19 31.46 30.90
  A 0.67 0.67 0.0 0 1 30.27 30.69
  L 29.66 28.50
  A 0.74 0.74 0.0 0 0 28.66 28.01
  Q 27.44 28.54 26.67 29.64
  A 0.82 0.82 0.0 0 1 25.25 29.51
  L 24.62 28.13
  Q 24.39 27.63 23.84 27.72
  Q 22.55 27.92 21.39 28.54
  Q 20.80 28.85 20.50 28.26
  L 19.79 26.85
  A 1.43 1.43 0.0 0 0 17.31 26.72
  L 15.85 28.97
  A 0.72 0.72 0.0 0 1 14.86 29.19
  L 11.34 26.99
  A 1.29 1.29 0.0 0 0 9.53 28.72
  L 9.70 29.02
  Q 9.95 29.46 9.66 29.87
  C 8.47 31.54 6.56 34.42 7.16 36.47
  A 0.80 0.80 0.0 0 0 8.41 36.88
  C 9.90 35.73 12.64 33.08 13.91 36.20
  A 0.97 0.97 0.0 0 0 15.46 36.55
  Q 17.39 34.82 18.81 36.45
  Q 19.70 37.49 20.07 36.17
  Q 20.49 34.63 22.35 34.63
  Q 22.81 34.63 23.09 34.99
  Q 24.61 36.96 26.75 36.02
  A 2.10 2.10 0.0 0 1 29.15 36.52
  C 30.80 38.31 31.31 38.31 33.48 37.07
  C 35.77 35.77 40.05 36.16 39.25 39.94
  Q 39.12 40.53 38.53 40.43
  Q 37.19 40.22 36.16 41.08
  A 0.71 0.70 55.2 0 1 35.10 40.88
  Q 34.70 40.18 33.99 39.87
  A 0.64 0.64 0.0 0 0 33.10 40.35
  L 32.92 41.39
  Q 32.85 41.85 32.39 41.98
  Q 32.00 42.10 31.64 41.99
  A 0.60 0.60 0.0 0 1 31.22 41.33
  Q 31.29 40.82 31.16 40.34
  A 0.62 0.62 0.0 0 0 30.19 40.00
  Q 29.47 40.56 29.16 41.41
  A 0.84 0.82 -85.4 0 1 28.54 41.95
  Q 26.63 42.31 25.99 40.77
  Q 25.40 39.33 24.65 40.69
  Q 23.66 42.50 21.88 43.54
  A 1.35 1.31 36.0 0 1 20.89 43.68
  L 19.64 43.38
  Q 18.91 43.21 18.98 43.95
  Q 19.10 45.49 18.12 46.61
  A 0.73 0.73 0.0 0 1 17.25 46.78
  Q 16.29 46.30 15.23 46.37
  Q 14.62 46.41 14.52 47.01
  L 14.42 47.67
  Q 14.34 48.17 13.93 48.48
  Q 9.36 51.88 10.85 57.40
  A 0.56 0.56 0.0 0 0 11.85 57.57
  Q 14.12 54.22 18.23 54.82
  A 0.64 0.64 0.0 0 0 18.92 54.43
  C 20.30 51.07 22.92 54.15 23.70 50.45
  A 0.89 0.89 0.0 0 1 24.90 49.81
  L 25.95 50.23
  A 0.54 0.53 7.0 0 0 26.68 49.67
  Q 26.33 47.05 28.70 46.35
  Q 29.24 46.19 29.69 46.54
  Q 30.18 46.93 30.78 47.01
  Q 31.27 47.06 31.55 46.66
  Q 32.78 44.88 34.72 43.91
  Q 35.30 43.62 35.42 44.26
  Q 35.71 45.80 35.24 47.26
  A 0.70 0.70 0.0 0 1 34.48 47.74
  Q 34.11 47.68 33.79 47.50
  Q 33.00 47.06 33.07 47.97
  C 33.30 50.67 33.54 54.32 29.65 52.56
  A 0.95 0.95 0.0 0 0 28.31 53.42
  L 28.30 56.51
  Q 28.30 57.07 27.74 57.08
  L 23.70 57.19
  A 0.60 0.60 0.0 0 0 23.13 57.89
  Q 23.37 59.23 23.36 60.75
  Q 23.35 62.31 20.65 61.82
  A 1.26 1.26 0.0 0 0 19.17 62.98
  L 19.11 64.05
  Q 19.07 64.68 18.46 64.83
  L 17.50 65.06
  Q 15.67 65.51 16.32 67.28
  Q 17.12 69.45 19.16 68.59
  A 1.32 1.32 0.0 0 1 20.93 69.41
  Q 21.40 70.89 22.64 72.05
  A 1.40 1.40 0.0 0 0 24.98 70.85
  C 24.42 66.43 29.38 68.51 28.52 63.95
  Q 28.42 63.40 28.88 63.08
  Q 30.22 62.12 31.80 62.46
  A 0.62 0.61 -80.1 0 0 32.54 61.93
  C 32.95 58.97 34.20 54.52 37.90 55.45
  Q 40.80 56.18 39.21 53.65
  C 37.80 51.41 36.12 48.26 39.16 46.38
  Q 39.58 46.11 40.06 46.23
  Q 42.55 46.80 42.96 49.00
  Q 44.05 54.86 44.51 63.53
  C 44.72 67.63 44.46 79.33 41.12 81.87
  C 37.79 84.40 33.25 87.43 33.02 92.05
  A 0.72 0.70 -79.5 0 0 33.49 92.75
  Q 34.64 93.16 35.11 92.09
  Q 36.72 88.43 39.75 85.83
  A 0.32 0.32 0.0 0 1 40.24 85.93"
/>
<path stroke="#808080" vector-effect="non-scaling-stroke" d="
  M 46.8568 43.9444
  A 3.39 3.06 77.1 0 0 49.0828 39.9569
  A 3.39 3.06 77.1 0 0 45.3432 37.3356
  A 3.39 3.06 77.1 0 0 43.1172 41.3231
  A 3.39 3.06 77.1 0 0 46.8568 43.9444"
/>
<path stroke="#808080" vector-effect="non-scaling-stroke" d="
  M 64.65 50.91
  L 65.01 52.53
  Q 65.12 53.05 65.65 53.15
  Q 66.56 53.31 67.46 52.99
  A 0.78 0.78 0.0 0 0 67.71 51.66
  C 66.18 50.32 65.31 49.48 63.12 49.30
  Q 59.85 49.04 56.84 47.52
  A 0.99 0.98 8.3 0 1 56.32 46.83
  L 56.11 45.69
  A 1.47 1.47 0.0 0 0 54.05 44.61
  Q 51.96 45.58 51.44 46.86
  A 0.88 0.88 0.0 0 0 51.70 47.87
  C 55.16 50.79 59.77 50.07 63.95 50.31
  Q 64.53 50.34 64.65 50.91"
/>
</g>
<path fill="#ffffff" d="
  M 0.00 0.00
  L 100.00 0.00
  L 100.00 100.00
  L 0.00 100.00
  L 0.00 0.00
  Z
  M 40.24 85.93
  Q 40.27 86.00 40.28 86.20
  Q 40.29 86.27 40.25 86.34
  Q 38.49 89.18 37.15 92.23
  Q 36.52 93.65 37.77 93.85
  A 1.10 1.08 -64.3 0 0 38.79 93.48
  Q 42.51 89.20 44.51 84.29
  Q 44.86 83.43 45.24 82.87
  Q 45.97 81.80 46.30 81.65
  Q 50.47 79.79 48.36 83.84
  Q 47.92 84.69 47.68 86.44
  C 47.36 88.78 46.05 90.61 45.18 92.80
  A 0.83 0.82 -74.2 0 0 45.80 93.92
  L 46.28 94.01
  Q 47.48 94.22 47.95 93.10
  L 49.42 89.53
  A 0.78 0.78 0.0 0 1 50.91 89.72
  L 51.37 93.16
  A 0.80 0.78 86.9 0 0 52.12 93.85
  L 52.42 93.86
  Q 53.76 93.92 53.59 92.59
  L 53.25 89.95
  Q 52.88 87.11 54.63 89.38
  Q 55.29 90.24 56.57 92.23
  A 2.03 2.00 71.8 0 0 58.38 93.16
  L 58.68 93.14
  A 0.70 0.70 0.0 0 0 59.24 92.07
  C 56.90 88.30 51.99 84.64 52.72 80.44
  A 0.55 0.55 0.0 0 1 53.70 80.20
  C 56.21 83.41 60.63 87.87 61.01 91.82
  Q 61.36 95.54 63.47 92.46
  Q 63.98 91.73 62.70 90.10
  Q 62.52 89.88 62.75 89.72
  L 63.02 89.51
  Q 63.27 89.33 63.46 89.57
  L 66.16 93.14
  Q 66.91 94.13 68.14 93.97
  L 68.61 93.91
  A 0.65 0.65 0.0 0 0 69.04 92.87
  C 63.79 86.03 53.66 78.95 51.31 70.37
  C 49.77 64.75 48.65 57.34 50.60 51.68
  Q 50.78 51.17 51.30 51.34
  C 55.21 52.66 56.20 54.47 58.59 57.71
  A 1.13 1.12 48.2 0 0 60.32 57.81
  L 60.65 57.44
  A 1.25 1.25 0.0 0 1 62.70 57.75
  L 64.53 61.59
  A 0.60 0.60 0.0 0 0 65.48 61.77
  L 67.07 60.29
  A 1.17 1.17 0.0 0 1 69.03 61.10
  Q 69.11 63.10 68.04 64.76
  A 0.76 0.76 0.0 0 0 68.52 65.92
  Q 70.27 66.28 71.55 65.08
  A 0.68 0.67 59.5 0 1 72.65 65.37
  L 73.36 67.61
  A 0.94 0.93 -6.5 0 0 74.18 68.26
  Q 74.71 68.29 75.25 68.14
  A 1.42 1.42 0.0 0 1 76.99 69.01
  Q 77.55 70.56 78.14 71.85
  Q 78.45 72.53 78.90 72.59
  Q 79.46 72.65 80.06 72.02
  A 0.92 0.92 0.0 0 1 81.58 72.30
  Q 81.85 72.95 82.04 73.13
  Q 83.20 74.20 83.69 72.75
  Q 85.02 68.78 82.08 66.07
  Q 81.72 65.74 81.74 65.25
  L 81.83 62.55
  A 0.54 0.53 4.7 0 0 81.36 62.00
  Q 79.21 61.76 77.27 60.83
  A 0.88 0.88 0.0 0 1 76.81 59.78
  Q 77.60 57.16 75.27 56.21
  Q 74.80 56.02 74.37 56.28
  C 71.07 58.29 69.69 53.07 69.65 51.01
  Q 69.64 50.02 70.42 49.77
  Q 70.94 49.60 71.15 50.11
  C 71.77 51.66 71.22 54.33 73.41 54.51
  A 0.96 0.94 -67.1 0 0 74.18 54.19
  Q 74.52 53.81 75.01 53.74
  Q 75.50 53.68 75.78 54.08
  L 77.14 56.05
  Q 77.44 56.49 77.92 56.74
  C 78.97 57.29 79.23 58.54 79.90 58.84
  Q 80.37 59.05 80.89 58.57
  Q 81.23 58.24 81.18 57.78
  L 80.60 52.62
  A 0.79 0.78 56.1 0 1 80.69 52.15
  Q 81.57 50.48 79.78 49.96
  Q 77.73 49.36 76.61 48.99
  Q 76.07 48.82 76.04 48.25
  Q 75.83 44.41 72.11 45.09
  Q 71.23 45.26 70.73 44.50
  Q 69.20 42.17 67.04 43.84
  A 0.67 0.66 48.5 0 1 66.18 43.78
  Q 64.66 42.28 62.47 42.52
  Q 61.85 42.59 61.67 41.99
  L 61.31 40.83
  A 1.03 1.02 -22.4 0 0 59.85 40.23
  L 56.86 41.83
  Q 56.34 42.10 55.85 41.78
  C 53.77 40.42 54.84 36.70 57.45 37.69
  Q 57.94 37.87 58.09 38.37
  Q 58.35 39.18 59.16 39.03
  Q 59.74 38.91 60.08 38.44
  Q 60.42 37.96 60.97 37.73
  A 0.78 0.77 62.9 0 1 61.95 38.05
  L 63.42 40.55
  A 1.01 1.00 57.6 0 0 64.85 40.88
  L 69.12 37.97
  A 0.57 0.57 0.0 0 1 70.01 38.43
  L 70.03 41.05
  A 0.95 0.95 0.0 0 0 71.51 41.82
  Q 72.75 40.97 74.24 40.84
  A 0.87 0.86 -18.2 0 1 75.06 41.25
  L 76.24 43.19
  A 0.70 0.69 61.2 0 0 77.13 43.45
  L 78.29 42.89
  A 1.17 1.17 0.0 0 1 79.97 43.97
  Q 79.92 45.97 80.91 47.67
  Q 81.21 48.19 81.81 48.26
  Q 85.23 48.69 86.27 51.95
  A 0.59 0.59 0.0 0 0 87.35 52.05
  L 87.64 51.52
  A 1.85 1.84 47.7 0 0 87.71 49.92
  Q 86.61 47.32 87.03 44.52
  Q 87.11 43.99 86.65 43.72
  C 85.60 43.11 83.69 42.37 83.03 41.35
  Q 82.30 40.23 83.20 39.65
  Q 85.31 38.28 82.73 37.97
  Q 79.93 37.62 77.04 37.79
  A 0.82 0.82 0.0 0 1 76.18 37.14
  L 75.73 35.04
  A 1.54 1.54 0.0 0 0 73.49 34.01
  L 71.22 35.25
  A 0.70 0.69 55.1 0 1 70.36 35.09
  L 67.96 32.28
  A 0.92 0.91 -35.5 0 0 66.79 32.09
  Q 66.29 32.39 66.20 33.01
  A 1.33 1.32 -61.2 0 1 63.88 33.69
  C 61.85 31.32 58.54 35.22 55.67 35.33
  A 0.69 0.68 -5.8 0 1 54.97 34.76
  C 54.43 31.67 58.55 30.08 60.76 31.58
  A 1.25 1.24 22.8 0 0 62.68 30.80
  L 63.15 28.56
  A 1.05 1.05 0.0 0 1 64.98 28.09
  Q 65.74 28.98 66.92 29.04
  A 0.71 0.71 0.0 0 0 67.65 28.49
  Q 67.92 27.32 68.64 26.33
  A 1.69 1.69 0.0 0 1 71.34 26.29
  L 73.34 28.89
  A 0.57 0.57 0.0 0 0 74.34 28.68
  C 74.71 27.30 75.11 25.16 77.17 25.80
  A 1.05 1.03 86.7 0 1 77.83 26.40
  Q 78.39 27.80 79.81 28.11
  Q 80.38 28.24 80.61 27.70
  Q 80.78 27.27 80.73 26.80
  A 0.60 0.60 0.0 0 1 81.80 26.35
  L 85.27 30.66
  Q 85.68 31.16 86.21 30.79
  C 88.50 29.21 87.45 26.11 86.40 23.84
  Q 86.18 23.37 86.39 22.90
  L 86.86 21.85
  A 1.11 1.11 0.0 0 0 85.08 20.60
  Q 83.21 22.42 81.56 20.42
  A 0.88 0.87 48.8 0 0 80.30 20.33
  L 79.31 21.24
  A 2.02 2.02 0.0 0 1 75.94 20.01
  Q 75.85 19.29 75.46 18.59
  A 0.65 0.64 -27.0 0 0 74.62 18.32
  Q 73.75 18.74 72.78 18.75
  Q 72.30 18.75 72.11 19.19
  Q 71.20 21.28 70.51 21.96
  Q 69.87 22.58 69.16 22.14
  Q 68.70 21.85 68.76 21.30
  Q 68.87 20.29 68.48 19.39
  A 0.58 0.58 0.0 0 0 67.52 19.22
  Q 65.81 21.04 64.86 23.35
  A 1.20 1.19 40.4 0 1 62.74 23.52
  L 61.48 21.48
  A 0.83 0.83 0.0 0 0 59.99 21.62
  C 59.35 23.32 58.79 26.23 57.57 27.26
  Q 57.07 27.69 56.93 27.04
  L 56.59 25.56
  A 1.24 1.24 0.0 0 0 54.29 25.25
  C 53.07 27.49 53.49 31.68 50.68 32.37
  Q 50.20 32.49 49.87 32.13
  Q 48.56 30.65 49.01 28.65
  Q 49.13 28.14 49.64 28.25
  L 50.15 28.36
  Q 52.11 28.79 51.27 26.96
  Q 50.72 25.77 49.87 24.70
  A 2.46 2.46 0.0 0 1 49.57 22.11
  Q 50.56 20.02 51.62 17.96
  Q 52.16 16.93 51.58 16.22
  A 0.87 0.86 55.0 0 0 50.48 16.02
  L 49.26 16.72
  Q 48.68 17.05 48.80 16.39
  C 49.26 13.84 50.44 11.88 48.92 9.31
  A 0.77 0.77 0.0 0 0 47.51 9.49
  Q 47.28 10.29 46.48 9.73
  Q 43.41 7.59 38.91 6.91
  A 0.57 0.57 0.0 0 0 38.27 7.58
  L 38.33 7.91
  Q 38.47 8.68 39.25 8.80
  Q 40.94 9.05 41.92 10.42
  A 0.51 0.51 0.0 0 1 41.52 11.23
  L 40.53 11.26
  A 0.67 0.66 18.7 0 0 40.04 11.50
  Q 39.40 12.26 40.26 12.79
  Q 42.69 14.33 43.79 16.43
  Q 44.06 16.93 43.54 17.14
  L 42.08 17.74
  A 0.55 0.54 50.5 0 0 41.99 18.70
  C 43.19 19.49 45.84 21.51 46.19 22.94
  A 0.67 0.67 0.0 0 1 45.29 23.72
  Q 44.02 23.20 42.61 23.16
  A 0.75 0.75 0.0 0 0 42.08 24.46
  L 45.79 27.88
  Q 46.15 28.22 46.18 28.71
  L 46.42 32.49
  A 0.35 0.35 0.0 0 1 45.97 32.85
  Q 41.62 31.53 41.42 26.98
  A 0.62 0.62 0.0 0 0 40.84 26.38
  Q 38.74 26.21 38.75 24.00
  A 0.73 0.73 0.0 0 0 38.03 23.27
  Q 35.45 23.25 34.95 20.83
  Q 34.84 20.30 34.29 20.27
  L 33.61 20.23
  Q 32.98 20.19 32.71 19.62
  L 31.71 17.40
  Q 31.47 16.87 30.89 16.94
  L 29.67 17.10
  Q 29.10 17.17 28.92 16.62
  L 27.91 13.36
  Q 27.44 11.82 26.00 12.55
  L 23.28 13.92
  Q 22.72 14.20 22.35 13.69
  L 21.40 12.38
  Q 21.13 12.01 20.67 12.01
  Q 16.43 11.99 14.81 15.73
  Q 13.92 17.77 16.14 17.74
  L 18.47 17.71
  A 0.57 0.56 86.1 0 1 19.04 18.21
  Q 19.24 20.02 20.59 21.21
  A 0.51 0.51 0.0 0 0 21.36 21.09
  Q 22.37 19.45 24.18 20.00
  A 0.95 0.93 1.9 0 1 24.80 20.65
  L 25.39 22.92
  A 1.43 1.43 0.0 0 0 27.74 23.61
  Q 28.72 22.70 29.96 22.94
  A 0.53 0.52 6.7 0 1 30.38 23.46
  Q 30.37 25.52 32.12 25.94
  Q 32.68 26.07 33.12 26.45
  L 37.80 30.55
  A 0.55 0.52 17.0 0 1 37.98 30.87
  Q 38.19 32.45 39.83 31.99
  A 0.72 0.72 0.0 0 1 40.70 32.44
  Q 41.04 33.40 40.73 34.32
  A 0.66 0.65 -69.0 0 1 39.85 34.72
  Q 38.30 34.06 37.14 32.83
  A 1.17 1.16 -23.2 0 0 36.23 32.47
  Q 35.34 32.52 34.49 32.23
  Q 34.00 32.06 33.89 31.56
  L 33.63 30.40
  Q 33.48 29.74 32.82 29.94
  Q 31.98 30.19 31.46 30.90
  A 0.67 0.67 0.0 0 1 30.27 30.69
  L 29.66 28.50
  A 0.74 0.74 0.0 0 0 28.66 28.01
  Q 27.44 28.54 26.67 29.64
  A 0.82 0.82 0.0 0 1 25.25 29.51
  L 24.62 28.13
  Q 24.39 27.63 23.84 27.72
  Q 22.55 27.92 21.39 28.54
  Q 20.80 28.85 20.50 28.26
  L 19.79 26.85
  A 1.43 1.43 0.0 0 0 17.31 26.72
  L 15.85 28.97
  A 0.72 0.72 0.0 0 1 14.86 29.19
  L 11.34 26.99
  A 1.29 1.29 0.0 0 0 9.53 28.72
  L 9.70 29.02
  Q 9.95 29.46 9.66 29.87
  C 8.47 31.54 6.56 34.42 7.16 36.47
  A 0.80 0.80 0.0 0 0 8.41 36.88
  C 9.90 35.73 12.64 33.08 13.91 36.20
  A 0.97 0.97 0.0 0 0 15.46 36.55
  Q 17.39 34.82 18.81 36.45
  Q 19.70 37.49 20.07 36.17
  Q 20.49 34.63 22.35 34.63
  Q 22.81 34.63 23.09 34.99
  Q 24.61 36.96 26.75 36.02
  A 2.10 2.10 0.0 0 1 29.15 36.52
  C 30.80 38.31 31.31 38.31 33.48 37.07
  C 35.77 35.77 40.05 36.16 39.25 39.94
  Q 39.12 40.53 38.53 40.43
  Q 37.19 40.22 36.16 41.08
  A 0.71 0.70 55.2 0 1 35.10 40.88
  Q 34.70 40.18 33.99 39.87
  A 0.64 0.64 0.0 0 0 33.10 40.35
  L 32.92 41.39
  Q 32.85 41.85 32.39 41.98
  Q 32.00 42.10 31.64 41.99
  A 0.60 0.60 0.0 0 1 31.22 41.33
  Q 31.29 40.82 31.16 40.34
  A 0.62 0.62 0.0 0 0 30.19 40.00
  Q 29.47 40.56 29.16 41.41
  A 0.84 0.82 -85.4 0 1 28.54 41.95
  Q 26.63 42.31 25.99 40.77
  Q 25.40 39.33 24.65 40.69
  Q 23.66 42.50 21.88 43.54
  A 1.35 1.31 36.0 0 1 20.89 43.68
  L 19.64 43.38
  Q 18.91 43.21 18.98 43.95
  Q 19.10 45.49 18.12 46.61
  A 0.73 0.73 0.0 0 1 17.25 46.78
  Q 16.29 46.30 15.23 46.37
  Q 14.62 46.41 14.52 47.01
  L 14.42 47.67
  Q 14.34 48.17 13.93 48.48
  Q 9.36 51.88 10.85 57.40
  A 0.56 0.56 0.0 0 0 11.85 57.57
  Q 14.12 54.22 18.23 54.82
  A 0.64 0.64 0.0 0 0 18.92 54.43
  C 20.30 51.07 22.92 54.15 23.70 50.45
  A 0.89 0.89 0.0 0 1 24.90 49.81
  L 25.95 50.23
  A 0.54 0.53 7.0 0 0 26.68 49.67
  Q 26.33 47.05 28.70 46.35
  Q 29.24 46.19 29.69 46.54
  Q 30.18 46.93 30.78 47.01
  Q 31.27 47.06 31.55 46.66
  Q 32.78 44.88 34.72 43.91
  Q 35.30 43.62 35.42 44.26
  Q 35.71 45.80 35.24 47.26
  A 0.70 0.70 0.0 0 1 34.48 47.74
  Q 34.11 47.68 33.79 47.50
  Q 33.00 47.06 33.07 47.97
  C 33.30 50.67 33.54 54.32 29.65 52.56
  A 0.95 0.95 0.0 0 0 28.31 53.42
  L 28.30 56.51
  Q 28.30 57.07 27.74 57.08
  L 23.70 57.19
  A 0.60 0.60 0.0 0 0 23.13 57.89
  Q 23.37 59.23 23.36 60.75
  Q 23.35 62.31 20.65 61.82
  A 1.26 1.26 0.0 0 0 19.17 62.98
  L 19.11 64.05
  Q 19.07 64.68 18.46 64.83
  L 17.50 65.06
  Q 15.67 65.51 16.32 67.28
  Q 17.12 69.45 19.16 68.59
  A 1.32 1.32 0.0 0 1 20.93 69.41
  Q 21.40 70.89 22.64 72.05
  A 1.40 1.40 0.0 0 0 24.98 70.85
  C 24.42 66.43 29.38 68.51 28.52 63.95
  Q 28.42 63.40 28.88 63.08
  Q 30.22 62.12 31.80 62.46
  A 0.62 0.61 -80.1 0 0 32.54 61.93
  C 32.95 58.97 34.20 54.52 37.90 55.45
  Q 40.80 56.18 39.21 53.65
  C 37.80 51.41 36.12 48.26 39.16 46.38
  Q 39.58 46.11 40.06 46.23
  Q 42.55 46.80 42.96 49.00
  Q 44.05 54.86 44.51 63.53
  C 44.72 67.63 44.46 79.33 41.12 81.87
  C 37.79 84.40 33.25 87.43 33.02 92.05
  A 0.72 0.70 -79.5 0 0 33.49 92.75
  Q 34.64 93.16 35.11 92.09
  Q 36.72 88.43 39.75 85.83
  A 0.32 0.32 0.0 0 1 40.24 85.93
  Z"
/>
<path fill="#000000" d="
  M 40.24 85.93
  A 0.32 0.32 0.0 0 0 39.75 85.83
  Q 36.72 88.43 35.11 92.09
  Q 34.64 93.16 33.49 92.75
  A 0.72 0.70 -79.5 0 1 33.02 92.05
  C 33.25 87.43 37.79 84.40 41.12 81.87
  C 44.46 79.33 44.72 67.63 44.51 63.53
  Q 44.05 54.86 42.96 49.00
  Q 42.55 46.80 40.06 46.23
  Q 39.58 46.11 39.16 46.38
  C 36.12 48.26 37.80 51.41 39.21 53.65
  Q 40.80 56.18 37.90 55.45
  C 34.20 54.52 32.95 58.97 32.54 61.93
  A 0.62 0.61 -80.1 0 1 31.80 62.46
  Q 30.22 62.12 28.88 63.08
  Q 28.42 63.40 28.52 63.95
  C 29.38 68.51 24.42 66.43 24.98 70.85
  A 1.40 1.40 0.0 0 1 22.64 72.05
  Q 21.40 70.89 20.93 69.41
  A 1.32 1.32 0.0 0 0 19.16 68.59
  Q 17.12 69.45 16.32 67.28
  Q 15.67 65.51 17.50 65.06
  L 18.46 64.83
  Q 19.07 64.68 19.11 64.05
  L 19.17 62.98
  A 1.26 1.26 0.0 0 1 20.65 61.82
  Q 23.35 62.31 23.36 60.75
  Q 23.37 59.23 23.13 57.89
  A 0.60 0.60 0.0 0 1 23.70 57.19
  L 27.74 57.08
  Q 28.30 57.07 28.30 56.51
  L 28.31 53.42
  A 0.95 0.95 0.0 0 1 29.65 52.56
  C 33.54 54.32 33.30 50.67 33.07 47.97
  Q 33.00 47.06 33.79 47.50
  Q 34.11 47.68 34.48 47.74
  A 0.70 0.70 0.0 0 0 35.24 47.26
  Q 35.71 45.80 35.42 44.26
  Q 35.30 43.62 34.72 43.91
  Q 32.78 44.88 31.55 46.66
  Q 31.27 47.06 30.78 47.01
  Q 30.18 46.93 29.69 46.54
  Q 29.24 46.19 28.70 46.35
  Q 26.33 47.05 26.68 49.67
  A 0.54 0.53 7.0 0 1 25.95 50.23
  L 24.90 49.81
  A 0.89 0.89 0.0 0 0 23.70 50.45
  C 22.92 54.15 20.30 51.07 18.92 54.43
  A 0.64 0.64 0.0 0 1 18.23 54.82
  Q 14.12 54.22 11.85 57.57
  A 0.56 0.56 0.0 0 1 10.85 57.40
  Q 9.36 51.88 13.93 48.48
  Q 14.34 48.17 14.42 47.67
  L 14.52 47.01
  Q 14.62 46.41 15.23 46.37
  Q 16.29 46.30 17.25 46.78
  A 0.73 0.73 0.0 0 0 18.12 46.61
  Q 19.10 45.49 18.98 43.95
  Q 18.91 43.21 19.64 43.38
  L 20.89 43.68
  A 1.35 1.31 36.0 0 0 21.88 43.54
  Q 23.66 42.50 24.65 40.69
  Q 25.40 39.33 25.99 40.77
  Q 26.63 42.31 28.54 41.95
  A 0.84 0.82 -85.4 0 0 29.16 41.41
  Q 29.47 40.56 30.19 40.00
  A 0.62 0.62 0.0 0 1 31.16 40.34
  Q 31.29 40.82 31.22 41.33
  A 0.60 0.60 0.0 0 0 31.64 41.99
  Q 32.00 42.10 32.39 41.98
  Q 32.85 41.85 32.92 41.39
  L 33.10 40.35
  A 0.64 0.64 0.0 0 1 33.99 39.87
  Q 34.70 40.18 35.10 40.88
  A 0.71 0.70 55.2 0 0 36.16 41.08
  Q 37.19 40.22 38.53 40.43
  Q 39.12 40.53 39.25 39.94
  C 40.05 36.16 35.77 35.77 33.48 37.07
  C 31.31 38.31 30.80 38.31 29.15 36.52
  A 2.10 2.10 0.0 0 0 26.75 36.02
  Q 24.61 36.96 23.09 34.99
  Q 22.81 34.63 22.35 34.63
  Q 20.49 34.63 20.07 36.17
  Q 19.70 37.49 18.81 36.45
  Q 17.39 34.82 15.46 36.55
  A 0.97 0.97 0.0 0 1 13.91 36.20
  C 12.64 33.08 9.90 35.73 8.41 36.88
  A 0.80 0.80 0.0 0 1 7.16 36.47
  C 6.56 34.42 8.47 31.54 9.66 29.87
  Q 9.95 29.46 9.70 29.02
  L 9.53 28.72
  A 1.29 1.29 0.0 0 1 11.34 26.99
  L 14.86 29.19
  A 0.72 0.72 0.0 0 0 15.85 28.97
  L 17.31 26.72
  A 1.43 1.43 0.0 0 1 19.79 26.85
  L 20.50 28.26
  Q 20.80 28.85 21.39 28.54
  Q 22.55 27.92 23.84 27.72
  Q 24.39 27.63 24.62 28.13
  L 25.25 29.51
  A 0.82 0.82 0.0 0 0 26.67 29.64
  Q 27.44 28.54 28.66 28.01
  A 0.74 0.74 0.0 0 1 29.66 28.50
  L 30.27 30.69
  A 0.67 0.67 0.0 0 0 31.46 30.90
  Q 31.98 30.19 32.82 29.94
  Q 33.48 29.74 33.63 30.40
  L 33.89 31.56
  Q 34.00 32.06 34.49 32.23
  Q 35.34 32.52 36.23 32.47
  A 1.17 1.16 -23.2 0 1 37.14 32.83
  Q 38.30 34.06 39.85 34.72
  A 0.66 0.65 -69.0 0 0 40.73 34.32
  Q 41.04 33.40 40.70 32.44
  A 0.72 0.72 0.0 0 0 39.83 31.99
  Q 38.19 32.45 37.98 30.87
  A 0.55 0.52 17.0 0 0 37.80 30.55
  L 33.12 26.45
  Q 32.68 26.07 32.12 25.94
  Q 30.37 25.52 30.38 23.46
  A 0.53 0.52 6.7 0 0 29.96 22.94
  Q 28.72 22.70 27.74 23.61
  A 1.43 1.43 0.0 0 1 25.39 22.92
  L 24.80 20.65
  A 0.95 0.93 1.9 0 0 24.18 20.00
  Q 22.37 19.45 21.36 21.09
  A 0.51 0.51 0.0 0 1 20.59 21.21
  Q 19.24 20.02 19.04 18.21
  A 0.57 0.56 86.1 0 0 18.47 17.71
  L 16.14 17.74
  Q 13.92 17.77 14.81 15.73
  Q 16.43 11.99 20.67 12.01
  Q 21.13 12.01 21.40 12.38
  L 22.35 13.69
  Q 22.72 14.20 23.28 13.92
  L 26.00 12.55
  Q 27.44 11.82 27.91 13.36
  L 28.92 16.62
  Q 29.10 17.17 29.67 17.10
  L 30.89 16.94
  Q 31.47 16.87 31.71 17.40
  L 32.71 19.62
  Q 32.98 20.19 33.61 20.23
  L 34.29 20.27
  Q 34.84 20.30 34.95 20.83
  Q 35.45 23.25 38.03 23.27
  A 0.73 0.73 0.0 0 1 38.75 24.00
  Q 38.74 26.21 40.84 26.38
  A 0.62 0.62 0.0 0 1 41.42 26.98
  Q 41.62 31.53 45.97 32.85
  A 0.35 0.35 0.0 0 0 46.42 32.49
  L 46.18 28.71
  Q 46.15 28.22 45.79 27.88
  L 42.08 24.46
  A 0.75 0.75 0.0 0 1 42.61 23.16
  Q 44.02 23.20 45.29 23.72
  A 0.67 0.67 0.0 0 0 46.19 22.94
  C 45.84 21.51 43.19 19.49 41.99 18.70
  A 0.55 0.54 50.5 0 1 42.08 17.74
  L 43.54 17.14
  Q 44.06 16.93 43.79 16.43
  Q 42.69 14.33 40.26 12.79
  Q 39.40 12.26 40.04 11.50
  A 0.67 0.66 18.7 0 1 40.53 11.26
  L 41.52 11.23
  A 0.51 0.51 0.0 0 0 41.92 10.42
  Q 40.94 9.05 39.25 8.80
  Q 38.47 8.68 38.33 7.91
  L 38.27 7.58
  A 0.57 0.57 0.0 0 1 38.91 6.91
  Q 43.41 7.59 46.48 9.73
  Q 47.28 10.29 47.51 9.49
  A 0.77 0.77 0.0 0 1 48.92 9.31
  C 50.44 11.88 49.26 13.84 48.80 16.39
  Q 48.68 17.05 49.26 16.72
  L 50.48 16.02
  A 0.87 0.86 55.0 0 1 51.58 16.22
  Q 52.16 16.93 51.62 17.96
  Q 50.56 20.02 49.57 22.11
  A 2.46 2.46 0.0 0 0 49.87 24.70
  Q 50.72 25.77 51.27 26.96
  Q 52.11 28.79 50.15 28.36
  L 49.64 28.25
  Q 49.13 28.14 49.01 28.65
  Q 48.56 30.65 49.87 32.13
  Q 50.20 32.49 50.68 32.37
  C 53.49 31.68 53.07 27.49 54.29 25.25
  A 1.24 1.24 0.0 0 1 56.59 25.56
  L 56.93 27.04
  Q 57.07 27.69 57.57 27.26
  C 58.79 26.23 59.35 23.32 59.99 21.62
  A 0.83 0.83 0.0 0 1 61.48 21.48
  L 62.74 23.52
  A 1.20 1.19 40.4 0 0 64.86 23.35
  Q 65.81 21.04 67.52 19.22
  A 0.58 0.58 0.0 0 1 68.48 19.39
  Q 68.87 20.29 68.76 21.30
  Q 68.70 21.85 69.16 22.14
  Q 69.87 22.58 70.51 21.96
  Q 71.20 21.28 72.11 19.19
  Q 72.30 18.75 72.78 18.75
  Q 73.75 18.74 74.62 18.32
  A 0.65 0.64 -27.0 0 1 75.46 18.59
  Q 75.85 19.29 75.94 20.01
  A 2.02 2.02 0.0 0 0 79.31 21.24
  L 80.30 20.33
  A 0.88 0.87 48.8 0 1 81.56 20.42
  Q 83.21 22.42 85.08 20.60
  A 1.11 1.11 0.0 0 1 86.86 21.85
  L 86.39 22.90
  Q 86.18 23.37 86.40 23.84
  C 87.45 26.11 88.50 29.21 86.21 30.79
  Q 85.68 31.16 85.27 30.66
  L 81.80 26.35
  A 0.60 0.60 0.0 0 0 80.73 26.80
  Q 80.78 27.27 80.61 27.70
  Q 80.38 28.24 79.81 28.11
  Q 78.39 27.80 77.83 26.40
  A 1.05 1.03 86.7 0 0 77.17 25.80
  C 75.11 25.16 74.71 27.30 74.34 28.68
  A 0.57 0.57 0.0 0 1 73.34 28.89
  L 71.34 26.29
  A 1.69 1.69 0.0 0 0 68.64 26.33
  Q 67.92 27.32 67.65 28.49
  A 0.71 0.71 0.0 0 1 66.92 29.04
  Q 65.74 28.98 64.98 28.09
  A 1.05 1.05 0.0 0 0 63.15 28.56
  L 62.68 30.80
  A 1.25 1.24 22.8 0 1 60.76 31.58
  C 58.55 30.08 54.43 31.67 54.97 34.76
  A 0.69 0.68 -5.8 0 0 55.67 35.33
  C 58.54 35.22 61.85 31.32 63.88 33.69
  A 1.33 1.32 -61.2 0 0 66.20 33.01
  Q 66.29 32.39 66.79 32.09
  A 0.92 0.91 -35.5 0 1 67.96 32.28
  L 70.36 35.09
  A 0.70 0.69 55.1 0 0 71.22 35.25
  L 73.49 34.01
  A 1.54 1.54 0.0 0 1 75.73 35.04
  L 76.18 37.14
  A 0.82 0.82 0.0 0 0 77.04 37.79
  Q 79.93 37.62 82.73 37.97
  Q 85.31 38.28 83.20 39.65
  Q 82.30 40.23 83.03 41.35
  C 83.69 42.37 85.60 43.11 86.65 43.72
  Q 87.11 43.99 87.03 44.52
  Q 86.61 47.32 87.71 49.92
  A 1.85 1.84 47.7 0 1 87.64 51.52
  L 87.35 52.05
  A 0.59 0.59 0.0 0 1 86.27 51.95
  Q 85.23 48.69 81.81 48.26
  Q 81.21 48.19 80.91 47.67
  Q 79.92 45.97 79.97 43.97
  A 1.17 1.17 0.0 0 0 78.29 42.89
  L 77.13 43.45
  A 0.70 0.69 61.2 0 1 76.24 43.19
  L 75.06 41.25
  A 0.87 0.86 -18.2 0 0 74.24 40.84
  Q 72.75 40.97 71.51 41.82
  A 0.95 0.95 0.0 0 1 70.03 41.05
  L 70.01 38.43
  A 0.57 0.57 0.0 0 0 69.12 37.97
  L 64.85 40.88
  A 1.01 1.00 57.6 0 1 63.42 40.55
  L 61.95 38.05
  A 0.78 0.77 62.9 0 0 60.97 37.73
  Q 60.42 37.96 60.08 38.44
  Q 59.74 38.91 59.16 39.03
  Q 58.35 39.18 58.09 38.37
  Q 57.94 37.87 57.45 37.69
  C 54.84 36.70 53.77 40.42 55.85 41.78
  Q 56.34 42.10 56.86 41.83
  L 59.85 40.23
  A 1.03 1.02 -22.4 0 1 61.31 40.83
  L 61.67 41.99
  Q 61.85 42.59 62.47 42.52
  Q 64.66 42.28 66.18 43.78
  A 0.67 0.66 48.5 0 0 67.04 43.84
  Q 69.20 42.17 70.73 44.50
  Q 71.23 45.26 72.11 45.09
  Q 75.83 44.41 76.04 48.25
  Q 76.07 48.82 76.61 48.99
  Q 77.73 49.36 79.78 49.96
  Q 81.57 50.48 80.69 52.15
  A 0.79 0.78 56.1 0 0 80.60 52.62
  L 81.18 57.78
  Q 81.23 58.24 80.89 58.57
  Q 80.37 59.05 79.90 58.84
  C 79.23 58.54 78.97 57.29 77.92 56.74
  Q 77.44 56.49 77.14 56.05
  L 75.78 54.08
  Q 75.50 53.68 75.01 53.74
  Q 74.52 53.81 74.18 54.19
  A 0.96 0.94 -67.1 0 1 73.41 54.51
  C 71.22 54.33 71.77 51.66 71.15 50.11
  Q 70.94 49.60 70.42 49.77
  Q 69.64 50.02 69.65 51.01
  C 69.69 53.07 71.07 58.29 74.37 56.28
  Q 74.80 56.02 75.27 56.21
  Q 77.60 57.16 76.81 59.78
  A 0.88 0.88 0.0 0 0 77.27 60.83
  Q 79.21 61.76 81.36 62.00
  A 0.54 0.53 4.7 0 1 81.83 62.55
  L 81.74 65.25
  Q 81.72 65.74 82.08 66.07
  Q 85.02 68.78 83.69 72.75
  Q 83.20 74.20 82.04 73.13
  Q 81.85 72.95 81.58 72.30
  A 0.92 0.92 0.0 0 0 80.06 72.02
  Q 79.46 72.65 78.90 72.59
  Q 78.45 72.53 78.14 71.85
  Q 77.55 70.56 76.99 69.01
  A 1.42 1.42 0.0 0 0 75.25 68.14
  Q 74.71 68.29 74.18 68.26
  A 0.94 0.93 -6.5 0 1 73.36 67.61
  L 72.65 65.37
  A 0.68 0.67 59.5 0 0 71.55 65.08
  Q 70.27 66.28 68.52 65.92
  A 0.76 0.76 0.0 0 1 68.04 64.76
  Q 69.11 63.10 69.03 61.10
  A 1.17 1.17 0.0 0 0 67.07 60.29
  L 65.48 61.77
  A 0.60 0.60 0.0 0 1 64.53 61.59
  L 62.70 57.75
  A 1.25 1.25 0.0 0 0 60.65 57.44
  L 60.32 57.81
  A 1.13 1.12 48.2 0 1 58.59 57.71
  C 56.20 54.47 55.21 52.66 51.30 51.34
  Q 50.78 51.17 50.60 51.68
  C 48.65 57.34 49.77 64.75 51.31 70.37
  C 53.66 78.95 63.79 86.03 69.04 92.87
  A 0.65 0.65 0.0 0 1 68.61 93.91
  L 68.14 93.97
  Q 66.91 94.13 66.16 93.14
  L 63.46 89.57
  Q 63.27 89.33 63.02 89.51
  L 62.75 89.72
  Q 62.52 89.88 62.70 90.10
  Q 63.98 91.73 63.47 92.46
  Q 61.36 95.54 61.01 91.82
  C 60.63 87.87 56.21 83.41 53.70 80.20
  A 0.55 0.55 0.0 0 0 52.72 80.44
  C 51.99 84.64 56.90 88.30 59.24 92.07
  A 0.70 0.70 0.0 0 1 58.68 93.14
  L 58.38 93.16
  A 2.03 2.00 71.8 0 1 56.57 92.23
  Q 55.29 90.24 54.63 89.38
  Q 52.88 87.11 53.25 89.95
  L 53.59 92.59
  Q 53.76 93.92 52.42 93.86
  L 52.12 93.85
  A 0.80 0.78 86.9 0 1 51.37 93.16
  L 50.91 89.72
  A 0.78 0.78 0.0 0 0 49.42 89.53
  L 47.95 93.10
  Q 47.48 94.22 46.28 94.01
  L 45.80 93.92
  A 0.83 0.82 -74.2 0 1 45.18 92.80
  C 46.05 90.61 47.36 88.78 47.68 86.44
  Q 47.92 84.69 48.36 83.84
  Q 50.47 79.79 46.30 81.65
  Q 45.97 81.80 45.24 82.87
  Q 44.86 83.43 44.51 84.29
  Q 42.51 89.20 38.79 93.48
  A 1.10 1.08 -64.3 0 1 37.77 93.85
  Q 36.52 93.65 37.15 92.23
  Q 38.49 89.18 40.25 86.34
  Q 40.29 86.27 40.28 86.20
  Q 40.27 86.00 40.24 85.93
  Z
  M 46.8568 43.9444
  A 3.39 3.06 77.1 0 0 49.0828 39.9569
  A 3.39 3.06 77.1 0 0 45.3432 37.3356
  A 3.39 3.06 77.1 0 0 43.1172 41.3231
  A 3.39 3.06 77.1 0 0 46.8568 43.9444
  Z
  M 64.65 50.91
  L 65.01 52.53
  Q 65.12 53.05 65.65 53.15
  Q 66.56 53.31 67.46 52.99
  A 0.78 0.78 0.0 0 0 67.71 51.66
  C 66.18 50.32 65.31 49.48 63.12 49.30
  Q 59.85 49.04 56.84 47.52
  A 0.99 0.98 8.3 0 1 56.32 46.83
  L 56.11 45.69
  A 1.47 1.47 0.0 0 0 54.05 44.61
  Q 51.96 45.58 51.44 46.86
  A 0.88 0.88 0.0 0 0 51.70 47.87
  C 55.16 50.79 59.77 50.07 63.95 50.31
  Q 64.53 50.34 64.65 50.91
  Z"
/>
<ellipse fill="#ffffff" cx="0.00" cy="0.00" transform="translate(46.10,40.64) rotate(77.1)" rx="3.39" ry="3.06"/>
<path fill="#ffffff" d="
  M 63.95 50.31
  C 59.77 50.07 55.16 50.79 51.70 47.87
  A 0.88 0.88 0.0 0 1 51.44 46.86
  Q 51.96 45.58 54.05 44.61
  A 1.47 1.47 0.0 0 1 56.11 45.69
  L 56.32 46.83
  A 0.99 0.98 8.3 0 0 56.84 47.52
  Q 59.85 49.04 63.12 49.30
  C 65.31 49.48 66.18 50.32 67.71 51.66
  A 0.78 0.78 0.0 0 1 67.46 52.99
  Q 66.56 53.31 65.65 53.15
  Q 65.12 53.05 65.01 52.53
  L 64.65 50.91
  Q 64.53 50.34 63.95 50.31
  Z"
/>
</svg>
