<?xml version="1.0" encoding="UTF-8" standalone="no"?>
<!DOCTYPE svg PUBLIC "-//W3C//DTD SVG 1.1//EN" "http://www.w3.org/Graphics/SVG/1.1/DTD/svg11.dtd">
<svg xmlns="http://www.w3.org/2000/svg" version="1.1" viewBox="0.00 0.00 100.00 100.00">
<g stroke-width="2.00" fill="none" stroke-linecap="butt">
<path stroke="#808080" vector-effect="non-scaling-stroke" d="
  M 71.83 71.95
  C 79.95 61.70 82.30 46.75 74.31 36.08
  A 1.78 1.78 0.0 0 1 74.57 33.66
  C 79.89 29.05 85.87 24.81 80.63 17.02
  A 0.68 0.67 49.9 0 1 80.70 16.18
  Q 81.26 15.59 81.57 14.85
  Q 81.79 14.33 81.48 13.86
  Q 81.25 13.50 80.87 13.32
  A 0.86 0.85 -56.8 0 0 79.82 13.55
  L 78.76 14.85
  A 0.58 0.57 54.5 0 1 77.78 14.68
  L 76.92 12.30
  Q 76.72 11.74 76.12 11.69
  Q 75.88 11.67 75.64 11.71
  Q 75.05 11.79 74.90 12.36
  Q 74.62 13.43 74.99 14.49
  A 0.65 0.64 -16.0 0 1 74.52 15.33
  Q 73.78 15.49 73.03 15.33
  Q 72.58 15.23 72.15 15.42
  Q 71.36 15.78 71.32 16.57
  Q 71.29 17.17 71.86 17.39
  L 73.14 17.86
  Q 73.64 18.05 73.87 18.53
  Q 75.34 21.65 75.11 23.02
  C 74.09 29.24 62.15 29.87 57.27 29.14
  A 1.78 1.78 0.0 0 1 55.81 27.80
  C 54.69 23.30 58.31 18.68 57.75 13.90
  Q 57.07 8.08 52.57 3.87
  C 45.66 -2.61 41.24 10.10 41.11 14.77
  C 40.99 19.04 43.45 23.22 43.27 27.71
  A 1.39 1.39 0.0 0 1 41.97 29.05
  C 37.47 29.35 27.04 28.07 27.19 21.76
  Q 27.30 17.44 30.46 15.71
  Q 31.15 15.33 30.71 14.68
  L 30.45 14.28
  A 0.71 0.71 0.0 0 0 29.49 14.07
  L 28.55 14.66
  A 0.36 0.36 0.0 0 1 28.01 14.29
  L 28.28 12.77
  A 0.81 0.80 5.2 0 0 27.49 11.83
  L 26.83 11.83
  A 0.75 0.75 0.0 0 0 26.08 12.51
  Q 26.01 13.29 25.52 13.89
  A 0.55 0.55 0.0 0 1 24.64 13.86
  L 23.77 12.64
  A 0.92 0.92 0.0 0 0 22.71 12.30
  Q 22.32 12.44 22.09 12.82
  Q 21.84 13.22 21.97 13.68
  Q 22.28 14.77 21.68 15.72
  Q 18.49 20.76 20.21 26.09
  C 21.19 29.15 23.80 30.71 26.43 32.43
  A 1.67 1.67 0.0 0 1 26.97 34.65
  C 24.93 38.28 23.09 40.84 22.31 45.51
  C 20.72 55.01 23.47 65.91 30.83 72.46
  A 0.35 0.35 0.0 0 1 30.60 73.07
  Q 25.70 73.14 21.94 76.34
  C 18.63 79.15 20.79 83.31 22.95 86.07
  A 1.26 1.23 -61.0 0 1 23.20 86.98
  Q 23.01 88.36 23.11 88.88
  Q 23.28 89.74 24.20 89.71
  Q 24.69 89.69 24.87 89.24
  L 25.34 88.13
  A 0.50 0.50 0.0 0 1 26.20 88.01
  L 27.29 89.42
  A 0.64 0.64 0.0 0 0 28.21 89.52
  Q 28.94 88.92 29.00 87.98
  Q 29.05 87.33 29.63 87.62
  L 30.23 87.92
  A 1.01 1.00 -48.3 0 0 31.22 87.86
  Q 31.71 87.54 31.79 86.99
  Q 31.87 86.49 31.52 86.11
  C 29.31 83.77 26.43 78.64 31.48 77.49
  C 34.03 76.91 46.19 76.33 46.83 80.40
  Q 48.24 89.45 44.77 97.42
  A 0.36 0.35 87.9 0 0 45.26 97.88
  C 52.77 93.92 55.57 88.99 55.65 80.49
  Q 55.68 78.08 58.04 77.58
  C 62.14 76.70 73.50 75.57 73.18 82.50
  C 73.11 83.93 72.03 84.95 71.25 86.09
  Q 70.82 86.72 71.39 87.22
  L 71.72 87.51
  A 0.68 0.67 -47.8 0 0 72.66 87.46
  L 73.41 86.67
  A 0.36 0.36 0.0 0 1 74.03 86.99
  L 73.77 88.41
  A 0.76 0.75 8.7 0 0 74.42 89.29
  L 75.12 89.38
  A 0.78 0.78 0.0 0 0 75.98 88.73
  Q 76.08 88.06 76.51 87.53
  A 0.40 0.40 0.0 0 1 77.22 87.73
  Q 77.32 88.47 77.69 89.12
  A 0.79 0.78 64.2 0 0 78.66 89.46
  Q 79.34 89.18 79.29 88.24
  Q 79.25 87.32 79.24 86.32
  A 1.60 1.54 62.2 0 1 79.48 85.48
  Q 81.40 82.47 81.67 81.39
  C 83.08 75.70 77.14 72.47 72.05 72.42
  Q 71.46 72.41 71.83 71.95"
/>
<path stroke="#808080" vector-effect="non-scaling-stroke" d="
  M 41.80 35.54
  C 41.41 36.71 41.03 37.89 41.05 39.13
  Q 41.26 54.37 40.71 69.02
  Q 40.61 71.60 43.15 72.02
  L 44.30 72.21
  Q 46.79 72.63 46.12 70.20
  C 43.10 59.20 43.20 47.81 45.51 36.69
  Q 45.92 34.72 44.64 34.22
  A 2.16 2.15 20.0 0 0 41.80 35.54"
/>
<path stroke="#808080" vector-effect="non-scaling-stroke" d="
  M 54.08 42.07
  C 56.28 50.74 55.34 61.32 54.05 70.15
  Q 53.69 72.66 56.14 72.04
  L 56.86 71.86
  Q 59.25 71.26 59.27 68.80
  C 59.32 61.27 57.53 54.43 58.57 47.18
  C 59.12 43.43 60.64 32.90 54.84 35.12
  A 2.47 2.46 76.4 0 0 53.28 37.68
  Q 53.52 39.87 54.08 42.07"
/>
<path stroke="#808080" vector-effect="non-scaling-stroke" d="
  M 32.39 66.65
  Q 33.25 68.72 35.33 69.57
  L 35.67 69.71
  A 1.06 1.06 0.0 0 0 37.10 68.49
  Q 33.44 53.14 36.61 37.67
  Q 37.31 34.26 34.30 36.01
  C 30.27 38.35 29.71 51.86 29.97 56.00
  Q 30.34 61.70 32.39 66.65"
/>
<path stroke="#808080" vector-effect="non-scaling-stroke" d="
  M 68.14 67.08
  Q 72.33 55.10 69.88 43.46
  C 69.30 40.71 67.73 36.10 64.60 35.30
  A 1.08 1.07 89.5 0 0 63.30 36.63
  Q 67.78 52.73 63.87 68.96
  A 0.91 0.91 0.0 0 0 65.15 69.99
  L 65.86 69.65
  Q 67.53 68.84 68.14 67.08"
/>
</g>
<path fill="#ffffff" d="
  M 0.00 0.00
  L 100.00 0.00
  L 100.00 100.00
  L 0.00 100.00
  L 0.00 0.00
  Z
  M 71.83 71.95
  C 79.95 61.70 82.30 46.75 74.31 36.08
  A 1.78 1.78 0.0 0 1 74.57 33.66
  C 79.89 29.05 85.87 24.81 80.63 17.02
  A 0.68 0.67 49.9 0 1 80.70 16.18
  Q 81.26 15.59 81.57 14.85
  Q 81.79 14.33 81.48 13.86
  Q 81.25 13.50 80.87 13.32
  A 0.86 0.85 -56.8 0 0 79.82 13.55
  L 78.76 14.85
  A 0.58 0.57 54.5 0 1 77.78 14.68
  L 76.92 12.30
  Q 76.72 11.74 76.12 11.69
  Q 75.88 11.67 75.64 11.71
  Q 75.05 11.79 74.90 12.36
  Q 74.62 13.43 74.99 14.49
  A 0.65 0.64 -16.0 0 1 74.52 15.33
  Q 73.78 15.49 73.03 15.33
  Q 72.58 15.23 72.15 15.42
  Q 71.36 15.78 71.32 16.57
  Q 71.29 17.17 71.86 17.39
  L 73.14 17.86
  Q 73.64 18.05 73.87 18.53
  Q 75.34 21.65 75.11 23.02
  C 74.09 29.24 62.15 29.87 57.27 29.14
  A 1.78 1.78 0.0 0 1 55.81 27.80
  C 54.69 23.30 58.31 18.68 57.75 13.90
  Q 57.07 8.08 52.57 3.87
  C 45.66 -2.61 41.24 10.10 41.11 14.77
  C 40.99 19.04 43.45 23.22 43.27 27.71
  A 1.39 1.39 0.0 0 1 41.97 29.05
  C 37.47 29.35 27.04 28.07 27.19 21.76
  Q 27.30 17.44 30.46 15.71
  Q 31.15 15.33 30.71 14.68
  L 30.45 14.28
  A 0.71 0.71 0.0 0 0 29.49 14.07
  L 28.55 14.66
  A 0.36 0.36 0.0 0 1 28.01 14.29
  L 28.28 12.77
  A 0.81 0.80 5.2 0 0 27.49 11.83
  L 26.83 11.83
  A 0.75 0.75 0.0 0 0 26.08 12.51
  Q 26.01 13.29 25.52 13.89
  A 0.55 0.55 0.0 0 1 24.64 13.86
  L 23.77 12.64
  A 0.92 0.92 0.0 0 0 22.71 12.30
  Q 22.32 12.44 22.09 12.82
  Q 21.84 13.22 21.97 13.68
  Q 22.28 14.77 21.68 15.72
  Q 18.49 20.76 20.21 26.09
  C 21.19 29.15 23.80 30.71 26.43 32.43
  A 1.67 1.67 0.0 0 1 26.97 34.65
  C 24.93 38.28 23.09 40.84 22.31 45.51
  C 20.72 55.01 23.47 65.91 30.83 72.46
  A 0.35 0.35 0.0 0 1 30.60 73.07
  Q 25.70 73.14 21.94 76.34
  C 18.63 79.15 20.79 83.31 22.95 86.07
  A 1.26 1.23 -61.0 0 1 23.20 86.98
  Q 23.01 88.36 23.11 88.88
  Q 23.28 89.74 24.20 89.71
  Q 24.69 89.69 24.87 89.24
  L 25.34 88.13
  A 0.50 0.50 0.0 0 1 26.20 88.01
  L 27.29 89.42
  A 0.64 0.64 0.0 0 0 28.21 89.52
  Q 28.94 88.92 29.00 87.98
  Q 29.05 87.33 29.63 87.62
  L 30.23 87.92
  A 1.01 1.00 -48.3 0 0 31.22 87.86
  Q 31.71 87.54 31.79 86.99
  Q 31.87 86.49 31.52 86.11
  C 29.31 83.77 26.43 78.64 31.48 77.49
  C 34.03 76.91 46.19 76.33 46.83 80.40
  Q 48.24 89.45 44.77 97.42
  A 0.36 0.35 87.9 0 0 45.26 97.88
  C 52.77 93.92 55.57 88.99 55.65 80.49
  Q 55.68 78.08 58.04 77.58
  C 62.14 76.70 73.50 75.57 73.18 82.50
  C 73.11 83.93 72.03 84.95 71.25 86.09
  Q 70.82 86.72 71.39 87.22
  L 71.72 87.51
  A 0.68 0.67 -47.8 0 0 72.66 87.46
  L 73.41 86.67
  A 0.36 0.36 0.0 0 1 74.03 86.99
  L 73.77 88.41
  A 0.76 0.75 8.7 0 0 74.42 89.29
  L 75.12 89.38
  A 0.78 0.78 0.0 0 0 75.98 88.73
  Q 76.08 88.06 76.51 87.53
  A 0.40 0.40 0.0 0 1 77.22 87.73
  Q 77.32 88.47 77.69 89.12
  A 0.79 0.78 64.2 0 0 78.66 89.46
  Q 79.34 89.18 79.29 88.24
  Q 79.25 87.32 79.24 86.32
  A 1.60 1.54 62.2 0 1 79.48 85.48
  Q 81.40 82.47 81.67 81.39
  C 83.08 75.70 77.14 72.47 72.05 72.42
  Q 71.46 72.41 71.83 71.95
  Z"
/>
<path fill="#000000" d="
  M 72.05 72.42
  C 77.14 72.47 83.08 75.70 81.67 81.39
  Q 81.40 82.47 79.48 85.48
  A 1.60 1.54 62.2 0 0 79.24 86.32
  Q 79.25 87.32 79.29 88.24
  Q 79.34 89.18 78.66 89.46
  A 0.79 0.78 64.2 0 1 77.69 89.12
  Q 77.32 88.47 77.22 87.73
  A 0.40 0.40 0.0 0 0 76.51 87.53
  Q 76.08 88.06 75.98 88.73
  A 0.78 0.78 0.0 0 1 75.12 89.38
  L 74.42 89.29
  A 0.76 0.75 8.7 0 1 73.77 88.41
  L 74.03 86.99
  A 0.36 0.36 0.0 0 0 73.41 86.67
  L 72.66 87.46
  A 0.68 0.67 -47.8 0 1 71.72 87.51
  L 71.39 87.22
  Q 70.82 86.72 71.25 86.09
  C 72.03 84.95 73.11 83.93 73.18 82.50
  C 73.50 75.57 62.14 76.70 58.04 77.58
  Q 55.68 78.08 55.65 80.49
  C 55.57 88.99 52.77 93.92 45.26 97.88
  A 0.36 0.35 87.9 0 1 44.77 97.42
  Q 48.24 89.45 46.83 80.40
  C 46.19 76.33 34.03 76.91 31.48 77.49
  C 26.43 78.64 29.31 83.77 31.52 86.11
  Q 31.87 86.49 31.79 86.99
  Q 31.71 87.54 31.22 87.86
  A 1.01 1.00 -48.3 0 1 30.23 87.92
  L 29.63 87.62
  Q 29.05 87.33 29.00 87.98
  Q 28.94 88.92 28.21 89.52
  A 0.64 0.64 0.0 0 1 27.29 89.42
  L 26.20 88.01
  A 0.50 0.50 0.0 0 0 25.34 88.13
  L 24.87 89.24
  Q 24.69 89.69 24.20 89.71
  Q 23.28 89.74 23.11 88.88
  Q 23.01 88.36 23.20 86.98
  A 1.26 1.23 -61.0 0 0 22.95 86.07
  C 20.79 83.31 18.63 79.15 21.94 76.34
  Q 25.70 73.14 30.60 73.07
  A 0.35 0.35 0.0 0 0 30.83 72.46
  C 23.47 65.91 20.72 55.01 22.31 45.51
  C 23.09 40.84 24.93 38.28 26.97 34.65
  A 1.67 1.67 0.0 0 0 26.43 32.43
  C 23.80 30.71 21.19 29.15 20.21 26.09
  Q 18.49 20.76 21.68 15.72
  Q 22.28 14.77 21.97 13.68
  Q 21.84 13.22 22.09 12.82
  Q 22.32 12.44 22.71 12.30
  A 0.92 0.92 0.0 0 1 23.77 12.64
  L 24.64 13.86
  A 0.55 0.55 0.0 0 0 25.52 13.89
  Q 26.01 13.29 26.08 12.51
  A 0.75 0.75 0.0 0 1 26.83 11.83
  L 27.49 11.83
  A 0.81 0.80 5.2 0 1 28.28 12.77
  L 28.01 14.29
  A 0.36 0.36 0.0 0 0 28.55 14.66
  L 29.49 14.07
  A 0.71 0.71 0.0 0 1 30.45 14.28
  L 30.71 14.68
  Q 31.15 15.33 30.46 15.71
  Q 27.30 17.44 27.19 21.76
  C 27.04 28.07 37.47 29.35 41.97 29.05
  A 1.39 1.39 0.0 0 0 43.27 27.71
  C 43.45 23.22 40.99 19.04 41.11 14.77
  C 41.24 10.10 45.66 -2.61 52.57 3.87
  Q 57.07 8.08 57.75 13.90
  C 58.31 18.68 54.69 23.30 55.81 27.80
  A 1.78 1.78 0.0 0 0 57.27 29.14
  C 62.15 29.87 74.09 29.24 75.11 23.02
  Q 75.34 21.65 73.87 18.53
  Q 73.64 18.05 73.14 17.86
  L 71.86 17.39
  Q 71.29 17.17 71.32 16.57
  Q 71.36 15.78 72.15 15.42
  Q 72.58 15.23 73.03 15.33
  Q 73.78 15.49 74.52 15.33
  A 0.65 0.64 -16.0 0 0 74.99 14.49
  Q 74.62 13.43 74.90 12.36
  Q 75.05 11.79 75.64 11.71
  Q 75.88 11.67 76.12 11.69
  Q 76.72 11.74 76.92 12.30
  L 77.78 14.68
  A 0.58 0.57 54.5 0 0 78.76 14.85
  L 79.82 13.55
  A 0.86 0.85 -56.8 0 1 80.87 13.32
  Q 81.25 13.50 81.48 13.86
  Q 81.79 14.33 81.57 14.85
  Q 81.26 15.59 80.70 16.18
  A 0.68 0.67 49.9 0 0 80.63 17.02
  C 85.87 24.81 79.89 29.05 74.57 33.66
  A 1.78 1.78 0.0 0 0 74.31 36.08
  C 82.30 46.75 79.95 61.70 71.83 71.95
  Q 71.46 72.41 72.05 72.42
  Z
  M 41.80 35.54
  C 41.41 36.71 41.03 37.89 41.05 39.13
  Q 41.26 54.37 40.71 69.02
  Q 40.61 71.60 43.15 72.02
  L 44.30 72.21
  Q 46.79 72.63 46.12 70.20
  C 43.10 59.20 43.20 47.81 45.51 36.69
  Q 45.92 34.72 44.64 34.22
  A 2.16 2.15 20.0 0 0 41.80 35.54
  Z
  M 54.08 42.07
  C 56.28 50.74 55.34 61.32 54.05 70.15
  Q 53.69 72.66 56.14 72.04
  L 56.86 71.86
  Q 59.25 71.26 59.27 68.80
  C 59.32 61.27 57.53 54.43 58.57 47.18
  C 59.12 43.43 60.64 32.90 54.84 35.12
  A 2.47 2.46 76.4 0 0 53.28 37.68
  Q 53.52 39.87 54.08 42.07
  Z
  M 32.39 66.65
  Q 33.25 68.72 35.33 69.57
  L 35.67 69.71
  A 1.06 1.06 0.0 0 0 37.10 68.49
  Q 33.44 53.14 36.61 37.67
  Q 37.31 34.26 34.30 36.01
  C 30.27 38.35 29.71 51.86 29.97 56.00
  Q 30.34 61.70 32.39 66.65
  Z
  M 68.14 67.08
  Q 72.33 55.10 69.88 43.46
  C 69.30 40.71 67.73 36.10 64.60 35.30
  A 1.08 1.07 89.5 0 0 63.30 36.63
  Q 67.78 52.73 63.87 68.96
  A 0.91 0.91 0.0 0 0 65.15 69.99
  L 65.86 69.65
  Q 67.53 68.84 68.14 67.08
  Z"
/>
<path fill="#ffffff" d="
  M 41.80 35.54
  A 2.16 2.15 20.0 0 1 44.64 34.22
  Q 45.92 34.72 45.51 36.69
  C 43.20 47.81 43.10 59.20 46.12 70.20
  Q 46.79 72.63 44.30 72.21
  L 43.15 72.02
  Q 40.61 71.60 40.71 69.02
  Q 41.26 54.37 41.05 39.13
  C 41.03 37.89 41.41 36.71 41.80 35.54
  Z"
/>
<path fill="#ffffff" d="
  M 54.08 42.07
  Q 53.52 39.87 53.28 37.68
  A 2.47 2.46 76.4 0 1 54.84 35.12
  C 60.64 32.90 59.12 43.43 58.57 47.18
  C 57.53 54.43 59.32 61.27 59.27 68.80
  Q 59.25 71.26 56.86 71.86
  L 56.14 72.04
  Q 53.69 72.66 54.05 70.15
  C 55.34 61.32 56.28 50.74 54.08 42.07
  Z"
/>
<path fill="#ffffff" d="
  M 32.39 66.65
  Q 30.34 61.70 29.97 56.00
  C 29.71 51.86 30.27 38.35 34.30 36.01
  Q 37.31 34.26 36.61 37.67
  Q 33.44 53.14 37.10 68.49
  A 1.06 1.06 0.0 0 1 35.67 69.71
  L 35.33 69.57
  Q 33.25 68.72 32.39 66.65
  Z"
/>
<path fill="#ffffff" d="
  M 68.14 67.08
  Q 67.53 68.84 65.86 69.65
  L 65.15 69.99
  A 0.91 0.91 0.0 0 1 63.87 68.96
  Q 67.78 52.73 63.30 36.63
  A 1.08 1.07 89.5 0 1 64.60 35.30
  C 67.73 36.10 69.30 40.71 69.88 43.46
  Q 72.33 55.10 68.14 67.08
  Z"
/>
</svg>
