<?xml version="1.0" encoding="UTF-8" standalone="no"?>
<!DOCTYPE svg PUBLIC "-//W3C//DTD SVG 1.1//EN" "http://www.w3.org/Graphics/SVG/1.1/DTD/svg11.dtd">
<svg xmlns="http://www.w3.org/2000/svg" version="1.1" viewBox="0.00 0.00 100.00 100.00">
<path fill="#000000" d="
  M 54.02 20.57
  Q 53.69 27.36 54.03 31.68
  Q 54.64 39.47 59.62 33.45
  L 66.23 25.47
  A 1.18 1.17 -31.1 0 0 66.48 24.47
  Q 65.11 17.87 69.77 14.70
  C 77.41 9.51 85.93 18.15 81.66 25.92
  Q 79.06 30.65 73.11 29.97
  Q 72.60 29.91 72.27 30.31
  L 63.88 40.60
  A 1.79 1.79 0.0 0 0 63.61 42.42
  Q 64.42 44.34 66.48 44.04
  Q 72.76 43.12 78.98 42.01
  A 0.97 0.96 -85.1 0 0 79.71 41.39
  C 82.63 33.40 94.34 34.78 95.70 43.03
  C 97.08 51.41 86.78 56.43 81.25 50.05
  A 1.05 1.03 -24.6 0 0 80.28 49.70
  Q 73.88 50.81 67.75 52.03
  Q 65.73 52.44 65.70 54.39
  A 2.38 2.37 -74.8 0 0 66.88 56.46
  L 77.95 62.93
  Q 78.35 63.16 78.78 62.98
  C 91.65 57.51 95.86 76.15 85.02 78.58
  C 79.47 79.82 74.98 76.18 74.54 70.46
  Q 74.50 69.94 74.05 69.67
  L 62.99 63.29
  A 2.34 2.34 0.0 0 0 59.65 64.44
  Q 59.16 65.65 59.78 67.36
  Q 61.81 72.94 63.97 78.47
  Q 64.15 78.93 64.63 79.04
  C 75.74 81.64 71.90 97.96 61.17 95.59
  C 54.71 94.17 53.18 87.22 56.47 81.85
  Q 56.73 81.42 56.57 80.95
  Q 54.71 75.40 52.59 69.93
  C 51.28 66.55 48.64 66.65 47.39 69.92
  Q 45.30 75.43 43.38 81.00
  Q 43.21 81.49 43.50 81.91
  C 50.90 92.55 34.93 101.52 29.69 91.53
  C 26.92 86.23 29.67 80.54 35.49 78.95
  A 0.95 0.91 -86.6 0 0 36.13 78.36
  Q 38.20 72.65 40.32 67.05
  Q 41.04 65.12 40.00 63.84
  A 2.33 2.33 0.0 0 0 37.02 63.30
  L 26.01 69.69
  Q 25.53 69.97 25.48 70.53
  C 24.84 78.34 15.97 81.99 10.56 75.72
  C 4.61 68.81 12.59 59.23 21.25 62.94
  A 1.04 1.01 40.5 0 0 22.15 62.88
  Q 27.71 59.66 33.09 56.33
  Q 34.60 55.39 34.22 53.63
  A 2.19 2.19 0.0 0 0 32.45 51.93
  L 19.84 49.70
  Q 19.37 49.62 19.02 49.96
  C 10.75 57.90 -0.20 47.54 5.76 39.57
  C 9.94 34.00 17.37 34.99 20.39 41.37
  Q 20.65 41.91 21.25 42.02
  L 33.93 44.20
  A 2.09 2.09 0.0 0 0 36.37 41.93
  C 36.11 39.33 29.73 32.66 27.82 30.35
  Q 27.49 29.96 26.99 30.00
  Q 22.18 30.45 19.44 27.36
  C 12.81 19.89 22.23 8.78 30.52 14.89
  Q 35.03 18.21 33.55 24.55
  Q 33.43 25.05 33.75 25.44
  Q 37.69 30.29 41.78 34.97
  C 43.73 37.20 46.13 35.58 46.15 33.00
  Q 46.20 26.99 46.21 20.99
  Q 46.21 20.45 45.81 20.09
  C 44.70 19.08 43.64 18.35 42.92 17.09
  C 38.68 9.64 45.99 1.38 53.75 5.04
  C 59.61 7.80 60.00 16.07 54.47 19.78
  Q 54.04 20.06 54.02 20.57
  Z"
/>
</svg>
