<?xml version="1.0" encoding="UTF-8" standalone="no"?>
<!DOCTYPE svg PUBLIC "-//W3C//DTD SVG 1.1//EN" "http://www.w3.org/Graphics/SVG/1.1/DTD/svg11.dtd">
<svg xmlns="http://www.w3.org/2000/svg" version="1.1" viewBox="0.00 0.00 100.00 100.00">
<path fill="#000000" d="
  M 12.72 13.60
  L 12.75 33.87
  A 0.62 0.62 0.0 0 1 12.13 34.49
  L 1.89 34.47
  A 0.62 0.62 0.0 0 1 1.27 33.85
  L 1.27 2.14
  A 0.62 0.62 0.0 0 1 1.89 1.52
  L 55.22 1.50
  A 0.62 0.62 0.0 0 1 55.84 2.12
  L 55.84 22.37
  A 0.62 0.62 0.0 0 0 56.46 22.99
  L 76.80 22.96
  A 0.62 0.62 0.0 0 1 77.42 23.58
  L 77.36 33.89
  A 0.62 0.62 0.0 0 1 76.74 34.51
  L 56.43 34.47
  A 0.62 0.62 0.0 0 0 55.80 35.10
  L 55.85 41.35
  A 0.62 0.62 0.0 0 1 55.23 41.97
  L 45.11 42.00
  A 0.62 0.62 0.0 0 1 44.49 41.38
  L 44.37 13.63
  A 0.62 0.62 0.0 0 0 43.75 13.01
  L 13.34 12.98
  A 0.62 0.62 0.0 0 0 12.72 13.60
  Z"
/>
<path fill="#000000" d="
  M 65.88 12.35
  L 65.86 2.16
  A 0.64 0.64 0.0 0 1 66.50 1.52
  L 98.36 1.50
  A 0.64 0.64 0.0 0 1 99.00 2.14
  L 99.00 55.33
  A 0.64 0.64 0.0 0 1 98.36 55.97
  L 78.05 55.90
  A 0.64 0.64 0.0 0 0 77.41 56.54
  L 77.38 76.70
  A 0.64 0.64 0.0 0 1 76.74 77.34
  L 66.51 77.34
  A 0.64 0.64 0.0 0 1 65.87 76.70
  L 65.86 56.51
  A 0.64 0.64 0.0 0 0 65.21 55.87
  L 59.05 55.98
  A 0.64 0.64 0.0 0 1 58.40 55.34
  L 58.39 45.13
  A 0.64 0.64 0.0 0 1 59.03 44.49
  L 86.82 44.47
  A 0.64 0.64 0.0 0 0 87.46 43.83
  L 87.43 13.62
  A 0.64 0.64 0.0 0 0 86.79 12.98
  L 66.52 12.99
  A 0.64 0.64 0.0 0 1 65.88 12.35
  Z"
/>
<path fill="#000000" d="
  M 12.73 56.54
  L 12.73 86.83
  A 0.63 0.63 0.0 0 0 13.36 87.46
  L 33.63 87.39
  A 0.63 0.63 0.0 0 1 34.26 88.02
  L 34.27 98.19
  A 0.63 0.63 0.0 0 1 33.64 98.82
  L 1.90 98.81
  A 0.63 0.63 0.0 0 1 1.27 98.18
  L 1.27 45.10
  A 0.63 0.63 0.0 0 1 1.90 44.47
  L 22.12 44.49
  A 0.63 0.63 0.0 0 0 22.75 43.86
  L 22.80 23.60
  A 0.63 0.63 0.0 0 1 23.42 22.98
  L 33.63 22.91
  A 0.63 0.63 0.0 0 1 34.26 23.54
  L 34.27 43.82
  A 0.63 0.63 0.0 0 0 34.89 44.45
  L 41.29 44.53
  A 0.63 0.63 0.0 0 1 41.91 45.16
  L 41.86 55.35
  A 0.63 0.63 0.0 0 1 41.23 55.98
  L 13.36 55.91
  A 0.63 0.63 0.0 0 0 12.73 56.54
  Z"
/>
<path fill="#000000" d="
  M 43.89 77.35
  L 23.26 77.34
  A 0.51 0.51 0.0 0 1 22.75 76.83
  L 22.76 66.43
  A 0.51 0.51 0.0 0 1 23.27 65.92
  L 43.88 65.88
  A 0.51 0.51 0.0 0 0 44.39 65.37
  L 44.42 58.96
  A 0.51 0.51 0.0 0 1 44.93 58.45
  L 55.33 58.40
  A 0.51 0.51 0.0 0 1 55.84 58.91
  L 55.84 86.93
  A 0.51 0.51 0.0 0 0 56.35 87.44
  L 86.95 87.43
  A 0.51 0.51 0.0 0 0 87.46 86.92
  L 87.44 66.37
  A 0.51 0.51 0.0 0 1 87.95 65.86
  L 98.49 65.93
  A 0.51 0.51 0.0 0 1 99.00 66.44
  L 99.00 98.30
  A 0.51 0.51 0.0 0 1 98.49 98.81
  L 44.93 98.81
  A 0.51 0.51 0.0 0 1 44.42 98.30
  L 44.40 77.86
  A 0.51 0.51 0.0 0 0 43.89 77.35
  Z"
/>
</svg>
