<?xml version="1.0" encoding="UTF-8" standalone="no"?>
<!DOCTYPE svg PUBLIC "-//W3C//DTD SVG 1.1//EN" "http://www.w3.org/Graphics/SVG/1.1/DTD/svg11.dtd">
<svg xmlns="http://www.w3.org/2000/svg" version="1.1" viewBox="0.00 0.00 100.00 100.00">
<path fill="#000000" d="
  M 79.02 0.00
  L 84.97 0.00
  C 96.52 2.01 102.55 13.35 99.06 24.25
  Q 92.84 43.70 73.51 49.82
  A 0.23 0.22 -45.2 0 0 73.51 50.25
  Q 94.95 57.25 100.00 79.31
  L 100.00 85.80
  Q 97.59 97.71 85.68 100.00
  L 79.57 100.00
  C 65.15 96.87 55.36 87.61 50.60 73.56
  Q 50.41 72.97 50.22 73.56
  C 45.97 87.11 34.82 97.56 20.69 100.00
  L 14.88 100.00
  Q 2.38 97.67 0.00 85.16
  L 0.00 79.20
  C 2.60 65.37 13.04 53.69 26.60 49.95
  A 0.35 0.35 0.0 0 0 26.60 49.28
  Q 16.94 46.58 9.81 38.94
  C 1.42 29.93 -4.33 12.97 6.79 3.81
  Q 12.24 -0.68 20.75 0.33
  C 33.97 1.90 45.81 13.01 49.69 25.69
  A 0.36 0.36 0.0 0 0 50.38 25.69
  C 54.27 12.64 65.44 2.36 79.02 0.00
  Z
  M 77.74 20.84
  C 77.99 15.93 84.08 18.95 81.12 21.98
  Q 80.85 22.26 80.47 22.30
  L 79.24 22.46
  Q 78.73 22.52 78.36 22.88
  L 56.33 44.62
  Q 55.85 45.10 56.39 45.51
  C 62.02 49.87 69.51 49.84 75.93 47.37
  C 85.66 43.62 94.13 35.22 97.09 25.16
  C 101.03 11.73 93.95 -0.48 78.71 1.74
  C 68.56 3.22 59.56 10.59 54.59 19.33
  C 50.52 26.47 49.05 36.45 54.32 43.48
  A 0.64 0.64 0.0 0 0 55.28 43.55
  L 77.32 21.77
  A 1.42 1.39 69.8 0 0 77.74 20.84
  Z
  M 19.72 22.22
  C 16.80 19.73 21.35 16.79 22.78 19.63
  C 23.30 20.66 22.63 21.15 23.66 22.17
  Q 34.39 32.76 45.04 43.34
  A 0.64 0.63 -49.4 0 0 46.00 43.26
  C 51.58 35.58 49.20 24.80 44.29 17.46
  C 38.19 8.35 26.64 0.52 15.50 1.91
  Q 6.73 3.01 3.56 10.66
  C -4.63 30.48 25.48 58.89 44.10 45.24
  A 0.42 0.42 0.0 0 0 44.15 44.61
  L 22.28 22.97
  A 1.20 1.18 68.3 0 0 21.49 22.62
  L 20.56 22.56
  Q 20.08 22.53 19.72 22.22
  Z
  M 56.07 49.81
  A 5.80 5.80 0.0 0 0 50.27 44.01
  A 5.80 5.80 0.0 0 0 44.47 49.81
  A 5.80 5.80 0.0 0 0 50.27 55.61
  A 5.80 5.80 0.0 0 0 56.07 49.81
  Z
  M 22.51 80.41
  A 1.96 1.96 0.0 0 1 18.95 79.99
  Q 18.44 78.35 19.70 77.32
  Q 20.10 76.99 20.61 76.99
  C 21.59 76.98 21.97 76.87 22.68 76.14
  Q 33.15 65.37 43.62 54.50
  Q 43.99 54.12 43.56 53.81
  Q 38.44 50.07 32.48 50.52
  C 18.55 51.55 6.38 62.41 2.50 75.76
  C -1.10 88.13 5.47 99.05 18.84 98.49
  C 34.01 97.86 48.94 82.57 49.49 67.25
  Q 49.72 60.92 45.77 55.72
  Q 45.27 55.06 44.70 55.65
  L 23.44 77.52
  Q 23.03 77.94 23.03 78.52
  Q 23.03 79.53 22.51 80.41
  Z
  M 77.74 79.85
  L 77.74 79.04
  A 1.45 1.43 -67.8 0 0 77.32 78.02
  L 55.81 56.42
  A 1.00 1.00 0.0 0 0 54.24 56.62
  C 44.57 73.39 60.51 92.61 75.91 97.39
  C 87.86 101.10 99.55 94.90 98.51 81.24
  C 97.61 69.39 88.67 58.55 78.00 53.52
  C 71.43 50.42 62.87 49.64 56.71 54.28
  A 0.52 0.52 0.0 0 0 56.65 55.06
  L 78.61 77.12
  Q 78.98 77.49 79.49 77.45
  C 83.20 77.17 82.46 82.56 78.86 81.39
  A 1.63 1.62 9.2 0 1 77.74 79.85
  Z"
/>
</svg>
