<?xml version="1.0" encoding="UTF-8" standalone="no"?>
<!DOCTYPE svg PUBLIC "-//W3C//DTD SVG 1.1//EN" "http://www.w3.org/Graphics/SVG/1.1/DTD/svg11.dtd">
<svg xmlns="http://www.w3.org/2000/svg" version="1.1" viewBox="0.00 0.00 100.00 100.00">
<g stroke-width="2.00" fill="none" stroke-linecap="butt">
<path stroke="#808080" vector-effect="non-scaling-stroke" d="
  M 55.40 26.07
  C 55.61 25.34 55.85 24.76 55.53 24.06
  Q 54.96 22.82 53.60 23.02
  A 1.26 1.25 12.8 0 0 52.74 23.56
  L 51.86 24.87
  Q 51.57 25.29 51.46 24.79
  Q 50.75 21.71 48.98 22.33
  A 1.35 1.33 85.2 0 0 48.10 23.38
  L 47.88 24.71
  A 0.36 0.36 0.0 0 1 47.21 24.83
  L 46.57 23.65
  Q 46.33 23.22 45.87 23.05
  C 43.89 22.34 43.42 24.64 43.74 25.95
  Q 44.07 27.29 43.12 26.12
  Q 42.28 25.09 41.34 25.00
  Q 40.32 24.92 39.90 25.97
  Q 39.42 27.21 40.42 28.51
  Q 40.58 28.70 40.40 28.88
  L 40.21 29.05
  Q 40.17 29.09 40.13 29.05
  Q 39.41 28.26 38.49 28.09
  Q 37.51 27.91 36.94 28.70
  Q 36.07 29.92 37.62 31.55
  A 0.36 0.36 0.0 0 1 37.30 32.15
  L 36.35 31.99
  Q 35.87 31.91 35.47 32.20
  Q 34.06 33.24 34.80 34.51
  A 0.87 0.87 0.0 0 0 35.09 34.80
  L 36.53 35.67
  A 0.30 0.30 0.0 0 1 36.34 36.23
  C 33.36 35.80 32.93 39.95 36.28 39.88
  Q 37.48 39.85 36.44 40.44
  L 35.25 41.11
  Q 34.81 41.36 34.63 41.84
  Q 34.24 42.86 35.09 43.58
  C 35.83 44.21 36.68 44.02 37.57 43.82
  A 0.32 0.32 0.0 0 1 37.86 44.36
  L 36.89 45.30
  Q 36.43 45.74 36.53 46.37
  Q 36.69 47.42 37.65 47.90
  Q 38.16 48.16 38.66 47.91
  L 40.03 47.23
  A 0.24 0.24 0.0 0 1 40.34 47.57
  Q 39.75 48.61 39.70 49.81
  A 0.94 0.93 -75.4 0 0 40.20 50.67
  Q 41.93 51.61 42.99 50.11
  A 0.36 0.35 -79.0 0 1 43.21 49.96
  Q 44.02 49.78 43.69 50.91
  C 43.29 52.27 44.45 53.16 45.73 53.01
  Q 46.25 52.94 46.50 52.48
  L 47.10 51.37
  Q 47.46 50.70 47.71 51.43
  Q 48.30 53.16 49.01 53.77
  A 0.95 0.94 42.2 0 0 50.29 53.71
  Q 51.30 52.70 51.23 51.29
  A 0.31 0.31 0.0 0 1 51.83 51.17
  Q 52.38 52.64 53.82 53.02
  Q 54.38 53.17 54.82 52.79
  Q 56.05 51.74 55.39 50.22
  A 0.33 0.33 0.0 0 1 55.92 49.85
  L 56.79 50.67
  Q 57.25 51.11 57.89 51.06
  Q 59.10 50.97 59.48 49.78
  Q 59.65 49.24 59.39 48.74
  L 58.83 47.67
  A 0.31 0.31 0.0 0 1 59.27 47.26
  L 60.31 47.89
  Q 60.87 48.22 61.46 47.95
  Q 62.44 47.49 62.73 46.44
  Q 62.85 45.98 62.53 45.64
  L 61.35 44.40
  Q 60.27 43.26 61.76 43.83
  Q 62.44 44.10 63.22 43.97
  A 1.58 1.54 -67.6 0 0 63.96 43.65
  Q 64.82 43.00 64.67 42.01
  A 0.94 0.92 11.2 0 0 64.20 41.32
  L 62.76 40.52
  A 0.32 0.32 0.0 0 1 62.86 39.92
  C 63.61 39.78 64.26 39.78 64.80 39.22
  C 66.20 37.77 64.69 36.18 62.86 36.24
  A 0.31 0.30 28.7 0 1 62.69 35.67
  L 63.75 35.06
  A 1.64 1.64 0.0 0 0 64.17 32.56
  Q 63.32 31.60 61.96 32.19
  Q 60.42 32.86 61.73 31.47
  Q 63.51 29.60 61.84 28.34
  Q 60.66 27.44 59.24 28.86
  Q 59.06 29.03 58.88 28.86
  L 58.68 28.68
  Q 58.59 28.60 58.68 28.51
  Q 60.03 27.22 59.27 25.84
  A 1.59 1.59 0.0 0 0 56.80 25.45
  L 55.84 26.34
  A 0.27 0.27 0.0 0 1 55.40 26.07"
/>
<path stroke="#808080" vector-effect="non-scaling-stroke" d="
  M 8.82 28.66
  C -1.05 49.63 5.54 74.94 25.28 87.47
  C 41.49 97.77 61.98 96.88 77.28 85.59
  C 95.50 72.15 101.08 47.25 90.29 27.18
  Q 89.00 24.78 88.86 27.50
  Q 88.02 43.88 78.07 56.42
  C 64.71 73.26 43.87 77.69 27.10 62.11
  C 17.47 53.17 11.72 39.97 10.96 27.05
  Q 10.87 25.54 9.95 26.73
  Q 9.39 27.46 8.82 28.66"
/>
<path stroke="#808080" vector-effect="non-scaling-stroke" d="
  M 56.19 38.04
  A 6.60 6.60 0.0 0 0 49.59 31.44
  A 6.60 6.60 0.0 0 0 42.99 38.04
  A 6.60 6.60 0.0 0 0 49.59 44.64
  A 6.60 6.60 0.0 0 0 56.19 38.04"
/>
</g>
<path fill="#ffffff" d="
  M 0.00 0.00
  L 100.00 0.00
  L 100.00 100.00
  L 0.00 100.00
  L 0.00 0.00
  Z
  M 55.40 26.07
  C 55.61 25.34 55.85 24.76 55.53 24.06
  Q 54.96 22.82 53.60 23.02
  A 1.26 1.25 12.8 0 0 52.74 23.56
  L 51.86 24.87
  Q 51.57 25.29 51.46 24.79
  Q 50.75 21.71 48.98 22.33
  A 1.35 1.33 85.2 0 0 48.10 23.38
  L 47.88 24.71
  A 0.36 0.36 0.0 0 1 47.21 24.83
  L 46.57 23.65
  Q 46.33 23.22 45.87 23.05
  C 43.89 22.34 43.42 24.64 43.74 25.95
  Q 44.07 27.29 43.12 26.12
  Q 42.28 25.09 41.34 25.00
  Q 40.32 24.92 39.90 25.97
  Q 39.42 27.21 40.42 28.51
  Q 40.58 28.70 40.40 28.88
  L 40.21 29.05
  Q 40.17 29.09 40.13 29.05
  Q 39.41 28.26 38.49 28.09
  Q 37.51 27.91 36.94 28.70
  Q 36.07 29.92 37.62 31.55
  A 0.36 0.36 0.0 0 1 37.30 32.15
  L 36.35 31.99
  Q 35.87 31.91 35.47 32.20
  Q 34.06 33.24 34.80 34.51
  A 0.87 0.87 0.0 0 0 35.09 34.80
  L 36.53 35.67
  A 0.30 0.30 0.0 0 1 36.34 36.23
  C 33.36 35.80 32.93 39.95 36.28 39.88
  Q 37.48 39.85 36.44 40.44
  L 35.25 41.11
  Q 34.81 41.36 34.63 41.84
  Q 34.24 42.86 35.09 43.58
  C 35.83 44.21 36.68 44.02 37.57 43.82
  A 0.32 0.32 0.0 0 1 37.86 44.36
  L 36.89 45.30
  Q 36.43 45.74 36.53 46.37
  Q 36.69 47.42 37.65 47.90
  Q 38.16 48.16 38.66 47.91
  L 40.03 47.23
  A 0.24 0.24 0.0 0 1 40.34 47.57
  Q 39.75 48.61 39.70 49.81
  A 0.94 0.93 -75.4 0 0 40.20 50.67
  Q 41.93 51.61 42.99 50.11
  A 0.36 0.35 -79.0 0 1 43.21 49.96
  Q 44.02 49.78 43.69 50.91
  C 43.29 52.27 44.45 53.16 45.73 53.01
  Q 46.25 52.94 46.50 52.48
  L 47.10 51.37
  Q 47.46 50.70 47.71 51.43
  Q 48.30 53.16 49.01 53.77
  A 0.95 0.94 42.2 0 0 50.29 53.71
  Q 51.30 52.70 51.23 51.29
  A 0.31 0.31 0.0 0 1 51.83 51.17
  Q 52.38 52.64 53.82 53.02
  Q 54.38 53.17 54.82 52.79
  Q 56.05 51.74 55.39 50.22
  A 0.33 0.33 0.0 0 1 55.92 49.85
  L 56.79 50.67
  Q 57.25 51.11 57.89 51.06
  Q 59.10 50.97 59.48 49.78
  Q 59.65 49.24 59.39 48.74
  L 58.83 47.67
  A 0.31 0.31 0.0 0 1 59.27 47.26
  L 60.31 47.89
  Q 60.87 48.22 61.46 47.95
  Q 62.44 47.49 62.73 46.44
  Q 62.85 45.98 62.53 45.64
  L 61.35 44.40
  Q 60.27 43.26 61.76 43.83
  Q 62.44 44.10 63.22 43.97
  A 1.58 1.54 -67.6 0 0 63.96 43.65
  Q 64.82 43.00 64.67 42.01
  A 0.94 0.92 11.2 0 0 64.20 41.32
  L 62.76 40.52
  A 0.32 0.32 0.0 0 1 62.86 39.92
  C 63.61 39.78 64.26 39.78 64.80 39.22
  C 66.20 37.77 64.69 36.18 62.86 36.24
  A 0.31 0.30 28.7 0 1 62.69 35.67
  L 63.75 35.06
  A 1.64 1.64 0.0 0 0 64.17 32.56
  Q 63.32 31.60 61.96 32.19
  Q 60.42 32.86 61.73 31.47
  Q 63.51 29.60 61.84 28.34
  Q 60.66 27.44 59.24 28.86
  Q 59.06 29.03 58.88 28.86
  L 58.68 28.68
  Q 58.59 28.60 58.68 28.51
  Q 60.03 27.22 59.27 25.84
  A 1.59 1.59 0.0 0 0 56.80 25.45
  L 55.84 26.34
  A 0.27 0.27 0.0 0 1 55.40 26.07
  Z
  M 8.82 28.66
  C -1.05 49.63 5.54 74.94 25.28 87.47
  C 41.49 97.77 61.98 96.88 77.28 85.59
  C 95.50 72.15 101.08 47.25 90.29 27.18
  Q 89.00 24.78 88.86 27.50
  Q 88.02 43.88 78.07 56.42
  C 64.71 73.26 43.87 77.69 27.10 62.11
  C 17.47 53.17 11.72 39.97 10.96 27.05
  Q 10.87 25.54 9.95 26.73
  Q 9.39 27.46 8.82 28.66
  Z"
/>
<path fill="#000000" d="
  M 55.84 26.34
  L 56.80 25.45
  A 1.59 1.59 0.0 0 1 59.27 25.84
  Q 60.03 27.22 58.68 28.51
  Q 58.59 28.60 58.68 28.68
  L 58.88 28.86
  Q 59.06 29.03 59.24 28.86
  Q 60.66 27.44 61.84 28.34
  Q 63.51 29.60 61.73 31.47
  Q 60.42 32.86 61.96 32.19
  Q 63.32 31.60 64.17 32.56
  A 1.64 1.64 0.0 0 1 63.75 35.06
  L 62.69 35.67
  A 0.31 0.30 28.7 0 0 62.86 36.24
  C 64.69 36.18 66.20 37.77 64.80 39.22
  C 64.26 39.78 63.61 39.78 62.86 39.92
  A 0.32 0.32 0.0 0 0 62.76 40.52
  L 64.20 41.32
  A 0.94 0.92 11.2 0 1 64.67 42.01
  Q 64.82 43.00 63.96 43.65
  A 1.58 1.54 -67.6 0 1 63.22 43.97
  Q 62.44 44.10 61.76 43.83
  Q 60.27 43.26 61.35 44.40
  L 62.53 45.64
  Q 62.85 45.98 62.73 46.44
  Q 62.44 47.49 61.46 47.95
  Q 60.87 48.22 60.31 47.89
  L 59.27 47.26
  A 0.31 0.31 0.0 0 0 58.83 47.67
  L 59.39 48.74
  Q 59.65 49.24 59.48 49.78
  Q 59.10 50.97 57.89 51.06
  Q 57.25 51.11 56.79 50.67
  L 55.92 49.85
  A 0.33 0.33 0.0 0 0 55.39 50.22
  Q 56.05 51.74 54.82 52.79
  Q 54.38 53.17 53.82 53.02
  Q 52.38 52.64 51.83 51.17
  A 0.31 0.31 0.0 0 0 51.23 51.29
  Q 51.30 52.70 50.29 53.71
  A 0.95 0.94 42.2 0 1 49.01 53.77
  Q 48.30 53.16 47.71 51.43
  Q 47.46 50.70 47.10 51.37
  L 46.50 52.48
  Q 46.25 52.94 45.73 53.01
  C 44.45 53.16 43.29 52.27 43.69 50.91
  Q 44.02 49.78 43.21 49.96
  A 0.36 0.35 -79.0 0 0 42.99 50.11
  Q 41.93 51.61 40.20 50.67
  A 0.94 0.93 -75.4 0 1 39.70 49.81
  Q 39.75 48.61 40.34 47.57
  A 0.24 0.24 0.0 0 0 40.03 47.23
  L 38.66 47.91
  Q 38.16 48.16 37.65 47.90
  Q 36.69 47.42 36.53 46.37
  Q 36.43 45.74 36.89 45.30
  L 37.86 44.36
  A 0.32 0.32 0.0 0 0 37.57 43.82
  C 36.68 44.02 35.83 44.21 35.09 43.58
  Q 34.24 42.86 34.63 41.84
  Q 34.81 41.36 35.25 41.11
  L 36.44 40.44
  Q 37.48 39.85 36.28 39.88
  C 32.93 39.95 33.36 35.80 36.34 36.23
  A 0.30 0.30 0.0 0 0 36.53 35.67
  L 35.09 34.80
  A 0.87 0.87 0.0 0 1 34.80 34.51
  Q 34.06 33.24 35.47 32.20
  Q 35.87 31.91 36.35 31.99
  L 37.30 32.15
  A 0.36 0.36 0.0 0 0 37.62 31.55
  Q 36.07 29.92 36.94 28.70
  Q 37.51 27.91 38.49 28.09
  Q 39.41 28.26 40.13 29.05
  Q 40.17 29.09 40.21 29.05
  L 40.40 28.88
  Q 40.58 28.70 40.42 28.51
  Q 39.42 27.21 39.90 25.97
  Q 40.32 24.92 41.34 25.00
  Q 42.28 25.09 43.12 26.12
  Q 44.07 27.29 43.74 25.95
  C 43.42 24.64 43.89 22.34 45.87 23.05
  Q 46.33 23.22 46.57 23.65
  L 47.21 24.83
  A 0.36 0.36 0.0 0 0 47.88 24.71
  L 48.10 23.38
  A 1.35 1.33 85.2 0 1 48.98 22.33
  Q 50.75 21.71 51.46 24.79
  Q 51.57 25.29 51.86 24.87
  L 52.74 23.56
  A 1.26 1.25 12.8 0 1 53.60 23.02
  Q 54.96 22.82 55.53 24.06
  C 55.85 24.76 55.61 25.34 55.40 26.07
  A 0.27 0.27 0.0 0 0 55.84 26.34
  Z
  M 56.19 38.04
  A 6.60 6.60 0.0 0 0 49.59 31.44
  A 6.60 6.60 0.0 0 0 42.99 38.04
  A 6.60 6.60 0.0 0 0 49.59 44.64
  A 6.60 6.60 0.0 0 0 56.19 38.04
  Z"
/>
<path fill="#000000" d="
  M 8.82 28.66
  Q 9.39 27.46 9.95 26.73
  Q 10.87 25.54 10.96 27.05
  C 11.72 39.97 17.47 53.17 27.10 62.11
  C 43.87 77.69 64.71 73.26 78.07 56.42
  Q 88.02 43.88 88.86 27.50
  Q 89.00 24.78 90.29 27.18
  C 101.08 47.25 95.50 72.15 77.28 85.59
  C 61.98 96.88 41.49 97.77 25.28 87.47
  C 5.54 74.94 -1.05 49.63 8.82 28.66
  Z"
/>
<circle fill="#ffffff" cx="49.59" cy="38.04" r="6.60"/>
</svg>
