<?xml version="1.0" encoding="UTF-8" standalone="no"?>
<!DOCTYPE svg PUBLIC "-//W3C//DTD SVG 1.1//EN" "http://www.w3.org/Graphics/SVG/1.1/DTD/svg11.dtd">
<svg xmlns="http://www.w3.org/2000/svg" version="1.1" viewBox="0.00 0.00 100.00 100.00">
<path fill="#000000" d="
  M 39.55 55.28
  C 36.23 62.54 35.13 73.84 27.63 78.47
  C 18.89 83.87 5.33 81.37 4.31 69.46
  Q 3.56 60.63 7.77 52.97
  Q 8.01 52.54 7.83 52.08
  C 4.63 43.61 2.47 26.73 12.89 21.99
  Q 15.53 20.79 22.81 20.63
  C 28.18 20.51 36.19 18.82 41.04 20.88
  A 0.57 0.56 -70.2 0 0 41.81 20.51
  Q 42.65 17.59 45.04 15.74
  A 2.80 2.78 -38.7 0 0 45.49 11.76
  C 43.69 9.57 40.02 10.04 37.36 10.03
  A 1.14 1.13 88.1 0 1 36.24 8.98
  Q 36.16 7.87 37.35 7.62
  Q 42.25 6.57 46.35 8.99
  C 48.70 10.37 51.13 10.65 53.40 9.19
  Q 57.77 6.35 62.95 7.70
  Q 63.45 7.83 63.66 8.29
  Q 64.02 9.06 63.43 9.71
  A 1.14 1.12 -65.7 0 1 62.50 10.07
  C 59.23 9.82 53.68 9.59 53.83 14.30
  Q 53.85 14.88 54.32 15.21
  Q 57.20 17.22 58.17 20.60
  Q 58.34 21.21 58.92 20.94
  Q 61.60 19.68 63.50 19.84
  Q 70.95 20.49 78.41 20.66
  Q 84.70 20.81 87.38 22.09
  C 97.51 26.96 95.34 43.58 92.21 52.09
  Q 92.04 52.56 92.28 53.00
  C 97.06 61.71 98.86 77.29 86.25 80.59
  C 74.45 83.68 66.88 75.59 63.82 64.94
  Q 62.36 59.85 60.65 54.86
  Q 60.55 54.55 60.23 54.64
  L 59.99 54.71
  Q 59.91 54.73 59.93 54.81
  Q 60.53 57.31 60.78 61.74
  C 61.21 69.21 57.42 85.03 46.62 80.69
  Q 44.80 79.96 42.97 76.85
  C 38.63 69.47 38.87 63.65 39.87 55.37
  Q 40.01 54.28 39.55 55.28
  Z
  M 49.9604 29.4600
  A 5.84 4.11 89.8 0 0 54.0500 23.6057
  A 5.84 4.11 89.8 0 0 49.9196 17.7800
  A 5.84 4.11 89.8 0 0 45.8300 23.6343
  A 5.84 4.11 89.8 0 0 49.9604 29.4600
  Z
  M 11.52 48.25
  C 18.18 41.31 27.28 37.06 36.53 34.85
  C 45.85 32.62 42.82 22.85 34.99 23.69
  Q 27.41 24.51 19.80 24.55
  C 14.15 24.57 11.13 26.72 10.16 32.57
  Q 8.87 40.41 11.03 48.13
  A 0.29 0.29 0.0 0 0 11.52 48.25
  Z
  M 89.08 47.52
  C 91.11 40.01 92.56 24.30 80.47 24.50
  Q 72.84 24.62 65.25 23.76
  C 61.21 23.30 57.21 25.79 57.59 30.08
  C 57.92 33.78 63.65 34.98 67.43 36.11
  C 75.58 38.53 82.28 42.14 88.46 48.07
  Q 88.69 48.29 88.87 48.02
  Q 89.00 47.82 89.08 47.52
  Z
  M 53.3899 36.9263
  A 3.40 2.99 -0.4 0 0 49.9691 33.9601
  A 3.40 2.99 -0.4 0 0 46.5901 36.9737
  A 3.40 2.99 -0.4 0 0 50.0109 39.9399
  A 3.40 2.99 -0.4 0 0 53.3899 36.9263
  Z
  M 17.74 77.34
  C 30.78 77.63 31.79 61.53 35.93 52.79
  Q 38.35 47.68 41.29 42.83
  Q 43.05 39.94 40.77 38.89
  A 1.65 1.54 -31.0 0 0 40.11 38.75
  C 29.64 38.90 15.05 47.27 10.60 56.85
  C 7.44 63.65 6.74 77.10 17.74 77.34
  Z
  M 89.71 57.74
  C 85.57 47.79 73.68 41.43 63.74 39.08
  Q 61.48 38.54 59.01 38.96
  A 1.07 1.04 -80.2 0 0 58.23 39.53
  Q 57.33 41.34 58.66 43.30
  Q 64.07 51.26 67.01 60.35
  C 68.74 65.69 70.09 70.02 72.65 73.33
  C 76.04 77.72 84.56 79.14 88.78 74.69
  C 92.59 70.67 91.64 62.38 89.71 57.74
  Z
  M 49.9500 77.4400
  A 15.02 6.36 90.0 0 0 56.3100 62.4200
  A 15.02 6.36 90.0 0 0 49.9500 47.4000
  A 15.02 6.36 90.0 0 0 43.5900 62.4200
  A 15.02 6.36 90.0 0 0 49.9500 77.4400
  Z"
/>
</svg>
