<?xml version="1.0" encoding="UTF-8" standalone="no"?>
<!DOCTYPE svg PUBLIC "-//W3C//DTD SVG 1.1//EN" "http://www.w3.org/Graphics/SVG/1.1/DTD/svg11.dtd">
<svg xmlns="http://www.w3.org/2000/svg" version="1.1" viewBox="0.00 0.00 99.00 100.00">
<path fill="#000000" d="
  M 15.77 16.75
  L 15.78 43.07
  A 0.54 0.54 0.0 0 1 15.24 43.61
  L 1.66 43.59
  A 0.54 0.54 0.0 0 1 1.12 43.05
  L 1.13 2.03
  A 0.54 0.54 0.0 0 1 1.67 1.49
  L 42.66 1.47
  A 0.54 0.54 0.0 0 1 43.20 2.01
  L 43.23 15.67
  A 0.54 0.54 0.0 0 1 42.69 16.21
  L 16.31 16.21
  A 0.54 0.54 0.0 0 0 15.77 16.75
  Z"
/>
<path fill="#000000" d="
  M 82.57 16.22
  L 56.49 16.22
  A 0.65 0.65 0.0 0 1 55.84 15.57
  L 55.80 2.14
  A 0.65 0.65 0.0 0 1 56.45 1.49
  L 97.19 1.46
  A 0.65 0.65 0.0 0 1 97.84 2.11
  L 97.82 42.95
  A 0.65 0.65 0.0 0 1 97.17 43.60
  L 83.86 43.61
  A 0.65 0.65 0.0 0 1 83.21 42.96
  L 83.22 16.87
  A 0.65 0.65 0.0 0 0 82.57 16.22
  Z"
/>
<rect fill="#000000" x="16.23" y="44.03" width="27.20" height="12.02" rx="0.71"/>
<rect fill="#000000" x="55.82" y="44.03" width="27.00" height="12.02" rx="0.80"/>
<path fill="#000000" d="
  M 83.22 83.32
  L 83.22 56.96
  A 0.55 0.55 0.0 0 1 83.77 56.41
  L 97.27 56.37
  A 0.55 0.55 0.0 0 1 97.82 56.92
  L 97.84 98.01
  A 0.55 0.55 0.0 0 1 97.29 98.56
  L 56.36 98.56
  A 0.55 0.55 0.0 0 1 55.81 98.01
  L 55.83 84.40
  A 0.55 0.55 0.0 0 1 56.38 83.85
  L 82.67 83.87
  A 0.55 0.55 0.0 0 0 83.22 83.32
  Z"
/>
<path fill="#000000" d="
  M 43.21 84.39
  L 43.24 98.03
  A 0.53 0.53 0.0 0 1 42.71 98.56
  L 1.65 98.56
  A 0.53 0.53 0.0 0 1 1.12 98.03
  L 1.13 56.95
  A 0.53 0.53 0.0 0 1 1.66 56.42
  L 15.24 56.42
  A 0.53 0.53 0.0 0 1 15.77 56.95
  L 15.78 83.34
  A 0.53 0.53 0.0 0 0 16.31 83.87
  L 42.68 83.86
  A 0.53 0.53 0.0 0 1 43.21 84.39
  Z"
/>
</svg>
