<?xml version="1.0" encoding="UTF-8" standalone="no"?>
<!DOCTYPE svg PUBLIC "-//W3C//DTD SVG 1.1//EN" "http://www.w3.org/Graphics/SVG/1.1/DTD/svg11.dtd">
<svg xmlns="http://www.w3.org/2000/svg" version="1.1" viewBox="0.00 0.00 100.00 100.00">
<path fill="#000000" d="
  M 70.33 82.65
  C 72.06 86.65 80.68 84.45 83.11 90.24
  A 1.16 1.16 0.0 0 1 82.31 91.82
  Q 78.26 92.79 74.69 93.11
  C 68.32 93.69 66.40 89.89 63.02 85.71
  C 61.78 84.17 60.36 83.35 58.54 84.09
  A 0.92 0.91 -11.8 0 0 57.97 84.95
  L 57.99 92.11
  A 1.85 1.84 90.0 0 1 56.14 93.97
  L 46.70 93.94
  A 1.73 1.73 0.0 0 1 44.98 92.20
  L 45.00 85.01
  A 1.25 1.25 0.0 0 0 42.88 84.11
  Q 39.75 87.13 36.95 90.69
  C 34.30 94.05 25.21 93.13 21.27 92.93
  C 18.41 92.79 17.06 91.53 18.63 88.76
  Q 21.49 83.71 27.62 85.60
  Q 28.09 85.74 28.53 85.54
  Q 30.80 84.52 31.97 82.29
  A 0.74 0.73 27.4 0 0 31.65 81.30
  C 29.03 79.95 25.97 78.90 23.68 77.57
  C 17.49 73.98 12.50 69.75 8.98 63.42
  C 4.78 55.87 4.62 47.06 8.79 39.41
  C 13.40 30.98 19.95 26.74 28.08 22.63
  C 29.44 21.95 30.51 21.86 31.95 22.01
  A 0.96 0.95 -4.2 0 0 32.98 20.82
  C 31.48 15.05 22.28 17.80 19.72 11.99
  Q 18.68 9.63 21.24 9.35
  C 31.52 8.22 35.86 8.23 39.95 17.97
  A 1.33 1.31 88.7 0 0 40.70 18.70
  Q 42.21 19.29 43.88 19.23
  A 1.17 1.17 0.0 0 0 45.01 18.06
  L 45.00 7.90
  A 0.85 0.85 0.0 0 1 45.85 7.05
  L 55.92 7.03
  Q 57.92 7.02 57.94 9.02
  L 58.04 17.75
  A 1.46 1.46 0.0 0 0 58.96 19.09
  C 60.24 19.58 61.30 18.97 62.05 17.85
  C 64.70 13.93 67.23 9.66 72.62 9.02
  Q 78.21 8.35 83.79 9.51
  Q 87.90 10.36 85.19 13.56
  L 84.43 14.46
  Q 81.89 17.46 77.99 16.97
  Q 73.05 16.33 72.09 20.99
  Q 71.98 21.50 72.46 21.69
  C 82.69 25.77 89.87 30.99 94.86 40.50
  C 97.85 46.21 98.31 54.24 95.71 60.17
  C 91.26 70.31 83.55 76.61 73.17 80.35
  Q 71.82 80.84 70.52 81.88
  Q 70.13 82.19 70.33 82.65
  Z
  M 29.96 32.28
  C 14.44 41.63 15.01 62.57 30.01 71.76
  Q 33.45 73.87 38.36 76.18
  C 40.21 77.05 42.17 76.94 44.09 77.50
  Q 45.05 77.78 45.05 76.78
  L 45.00 26.99
  Q 45.00 26.50 44.51 26.54
  C 38.54 26.97 34.84 29.33 29.96 32.28
  Z
  M 68.41 28.98
  C 65.00 27.42 61.91 27.10 58.52 26.52
  Q 57.99 26.44 57.99 26.97
  L 57.98 77.00
  Q 57.98 77.63 58.60 77.50
  C 61.14 76.99 63.65 76.80 65.99 75.78
  Q 73.77 72.39 77.21 69.21
  C 85.56 61.48 87.38 51.27 82.32 40.95
  C 79.87 35.93 73.39 31.26 68.41 28.98
  Z"
/>
</svg>
