<?xml version="1.0" encoding="UTF-8" standalone="no"?>
<!DOCTYPE svg PUBLIC "-//W3C//DTD SVG 1.1//EN" "http://www.w3.org/Graphics/SVG/1.1/DTD/svg11.dtd">
<svg xmlns="http://www.w3.org/2000/svg" version="1.1" viewBox="0.00 0.00 100.00 100.00">
<path fill="#000000" d="
  M 66.70 20.21
  L 66.69 33.08
  A 0.43 0.43 0.0 0 0 67.12 33.51
  L 97.88 33.49
  A 0.43 0.43 0.0 0 1 98.31 33.92
  L 98.39 66.82
  A 0.43 0.43 0.0 0 1 97.96 67.25
  L 67.12 67.22
  A 0.43 0.43 0.0 0 0 66.69 67.65
  L 66.70 80.53
  A 0.43 0.43 0.0 0 0 67.13 80.96
  L 97.82 80.93
  A 0.43 0.43 0.0 0 1 98.25 81.36
  L 98.24 82.61
  A 0.43 0.43 0.0 0 1 97.81 83.04
  L 67.13 83.01
  A 0.43 0.43 0.0 0 0 66.70 83.44
  L 66.69 96.30
  A 0.43 0.43 0.0 0 0 67.12 96.73
  L 97.88 96.73
  A 0.43 0.43 0.0 0 1 98.31 97.20
  L 98.20 98.38
  A 0.43 0.43 0.0 0 1 97.77 98.77
  L 65.06 98.77
  A 0.43 0.43 0.0 0 1 64.63 98.34
  L 64.63 67.66
  A 0.43 0.43 0.0 0 0 64.20 67.23
  L 51.19 67.23
  A 0.43 0.43 0.0 0 0 50.76 67.66
  L 50.76 98.23
  A 0.43 0.43 0.0 0 1 50.32 98.66
  L 49.14 98.65
  A 0.43 0.43 0.0 0 1 48.72 98.22
  L 48.73 67.67
  A 0.43 0.43 0.0 0 0 48.30 67.24
  L 35.40 67.23
  A 0.43 0.43 0.0 0 0 34.97 67.66
  L 34.98 98.34
  A 0.43 0.43 0.0 0 1 34.55 98.77
  L 1.82 98.77
  A 0.43 0.43 0.0 0 1 1.39 98.36
  L 1.33 97.18
  A 0.43 0.43 0.0 0 1 1.76 96.73
  L 32.43 96.73
  A 0.43 0.43 0.0 0 0 32.86 96.30
  L 32.85 83.46
  A 0.43 0.43 0.0 0 0 32.42 83.03
  L 1.87 83.03
  A 0.43 0.43 0.0 0 1 1.45 82.70
  L 1.15 81.46
  A 0.43 0.43 0.0 0 1 1.57 80.93
  L 32.42 80.94
  A 0.43 0.43 0.0 0 0 32.85 80.51
  L 32.85 67.67
  A 0.43 0.43 0.0 0 0 32.42 67.24
  L 1.66 67.24
  A 0.43 0.43 0.0 0 1 1.23 66.81
  L 1.23 33.95
  A 0.43 0.43 0.0 0 1 1.66 33.52
  L 32.40 33.52
  A 0.43 0.43 0.0 0 0 32.83 33.09
  L 32.83 20.21
  A 0.43 0.43 0.0 0 0 32.40 19.78
  L 1.78 19.79
  A 0.43 0.43 0.0 0 1 1.35 19.36
  L 1.37 18.16
  A 0.43 0.43 0.0 0 1 1.80 17.73
  L 32.42 17.73
  A 0.43 0.43 0.0 0 0 32.85 17.30
  L 32.83 4.49
  A 0.43 0.43 0.0 0 0 32.40 4.06
  L 1.65 4.06
  A 0.43 0.43 0.0 0 1 1.23 3.58
  L 1.38 2.25
  A 0.43 0.43 0.0 0 1 1.81 1.87
  L 34.57 1.86
  A 0.43 0.43 0.0 0 1 35.00 2.29
  L 34.99 33.09
  A 0.43 0.43 0.0 0 0 35.42 33.52
  L 48.29 33.52
  A 0.43 0.43 0.0 0 0 48.72 33.09
  L 48.72 2.51
  A 0.43 0.43 0.0 0 1 49.13 2.08
  L 50.31 2.04
  A 0.43 0.43 0.0 0 1 50.76 2.47
  L 50.77 33.08
  A 0.43 0.43 0.0 0 0 51.20 33.51
  L 64.20 33.52
  A 0.43 0.43 0.0 0 0 64.63 33.09
  L 64.63 2.34
  A 0.43 0.43 0.0 0 1 65.06 1.91
  L 97.83 1.88
  A 0.43 0.43 0.0 0 1 98.26 2.33
  L 98.22 3.66
  A 0.43 0.43 0.0 0 1 97.78 4.07
  L 67.13 4.03
  A 0.43 0.43 0.0 0 0 66.70 4.46
  L 66.70 17.29
  A 0.43 0.43 0.0 0 0 67.13 17.72
  L 97.92 17.75
  A 0.43 0.43 0.0 0 1 98.35 18.21
  L 98.26 19.44
  A 0.43 0.43 0.0 0 1 97.83 19.84
  L 67.13 19.78
  A 0.43 0.43 0.0 0 0 66.70 20.21
  Z
  M 17.00 35.99
  A 0.45 0.45 0.0 0 0 16.55 35.54
  L 3.73 35.54
  A 0.45 0.45 0.0 0 0 3.28 35.99
  L 3.28 64.73
  A 0.45 0.45 0.0 0 0 3.73 65.18
  L 16.55 65.18
  A 0.45 0.45 0.0 0 0 17.00 64.73
  L 17.00 35.99
  Z
  M 32.85 35.97
  A 0.43 0.43 0.0 0 0 32.42 35.54
  L 19.58 35.54
  A 0.43 0.43 0.0 0 0 19.15 35.97
  L 19.15 64.75
  A 0.43 0.43 0.0 0 0 19.58 65.18
  L 32.42 65.18
  A 0.43 0.43 0.0 0 0 32.85 64.75
  L 32.85 35.97
  Z
  M 64.63 35.94
  A 0.40 0.40 0.0 0 0 64.23 35.54
  L 35.37 35.54
  A 0.40 0.40 0.0 0 0 34.97 35.94
  L 34.97 49.02
  A 0.40 0.40 0.0 0 0 35.37 49.42
  L 64.23 49.42
  A 0.40 0.40 0.0 0 0 64.63 49.02
  L 64.63 35.94
  Z
  M 80.48 35.98
  A 0.43 0.43 0.0 0 0 80.05 35.55
  L 67.13 35.55
  A 0.43 0.43 0.0 0 0 66.70 35.98
  L 66.70 64.76
  A 0.43 0.43 0.0 0 0 67.13 65.19
  L 80.05 65.19
  A 0.43 0.43 0.0 0 0 80.48 64.76
  L 80.48 35.98
  Z
  M 96.2849 36.0080
  A 0.46 0.46 0.0 0 0 95.8241 35.5488
  L 82.9442 35.5713
  A 0.46 0.46 0.0 0 0 82.4850 36.0321
  L 82.5351 64.7320
  A 0.46 0.46 0.0 0 0 82.9959 65.1912
  L 95.8758 65.1687
  A 0.46 0.46 0.0 0 0 96.3350 64.7079
  L 96.2849 36.0080
  Z
  M 64.63 51.86
  A 0.41 0.41 0.0 0 0 64.22 51.45
  L 35.38 51.45
  A 0.41 0.41 0.0 0 0 34.97 51.86
  L 34.97 64.78
  A 0.41 0.41 0.0 0 0 35.38 65.19
  L 64.22 65.19
  A 0.41 0.41 0.0 0 0 64.63 64.78
  L 64.63 51.86
  Z"
/>
</svg>
