<?xml version="1.0" encoding="UTF-8" standalone="no"?>
<!DOCTYPE svg PUBLIC "-//W3C//DTD SVG 1.1//EN" "http://www.w3.org/Graphics/SVG/1.1/DTD/svg11.dtd">
<svg xmlns="http://www.w3.org/2000/svg" version="1.1" viewBox="0.00 0.00 100.00 100.00">
<path fill="#000000" d="
  M 63.75 43.18
  C 61.44 47.16 61.11 50.00 63.44 53.82
  C 67.44 60.34 72.53 68.43 73.19 75.49
  C 74.12 85.58 56.47 86.24 50.13 86.24
  C 43.75 86.25 29.02 84.93 28.85 76.50
  Q 28.80 73.97 30.90 68.72
  Q 33.51 62.22 36.30 57.84
  C 38.08 55.03 41.00 50.49 40.25 47.43
  C 39.28 43.46 36.32 38.75 32.78 32.30
  C 30.80 28.71 28.18 22.50 28.90 18.48
  C 30.70 8.45 74.59 7.00 73.23 20.75
  C 72.48 28.38 67.53 36.64 63.75 43.18
  Z"
/>
</svg>
