<?xml version="1.0" encoding="UTF-8" standalone="no"?>
<!DOCTYPE svg PUBLIC "-//W3C//DTD SVG 1.1//EN" "http://www.w3.org/Graphics/SVG/1.1/DTD/svg11.dtd">
<svg xmlns="http://www.w3.org/2000/svg" version="1.1" viewBox="0.00 0.00 100.00 100.00">
<g stroke-width="2.00" fill="none" stroke-linecap="butt">
<path stroke="#808080" vector-effect="non-scaling-stroke" d="
  M 62.91 62.97
  L 62.77 42.39
  Q 62.76 41.11 63.48 42.16
  C 68.20 49.03 78.38 54.54 84.82 45.76
  C 88.23 41.09 86.34 34.43 81.59 31.44
  C 75.65 27.71 68.66 31.37 70.17 38.75
  C 71.22 43.84 80.08 45.64 80.19 39.07
  Q 80.21 38.02 79.35 37.49
  Q 78.89 37.21 78.59 37.65
  L 77.71 38.89
  A 1.90 1.90 0.0 0 1 74.90 39.21
  C 73.13 37.64 73.27 34.84 75.64 34.06
  C 78.57 33.11 81.78 35.85 82.48 38.42
  C 83.73 43.07 79.79 47.11 75.08 46.08
  C 70.54 45.09 66.22 40.01 63.78 36.12
  Q 63.53 35.72 63.57 35.25
  Q 64.31 26.54 67.19 18.28
  Q 67.72 16.75 66.30 17.54
  C 54.49 24.12 46.13 24.37 34.53 17.11
  Q 33.22 16.29 33.72 17.75
  Q 36.89 26.92 38.24 36.54
  A 1.39 1.39 0.0 0 1 38.01 37.53
  C 35.44 41.31 30.46 46.78 25.48 46.23
  C 21.63 45.80 19.42 42.13 20.37 38.47
  C 21.11 35.56 25.38 32.21 28.36 34.72
  C 30.76 36.74 27.23 42.51 24.39 37.88
  Q 23.61 36.61 23.02 37.98
  L 22.71 38.72
  Q 22.12 40.11 23.08 41.27
  Q 25.98 44.78 29.50 42.69
  C 39.01 37.07 27.68 23.48 19.03 33.29
  C 13.97 39.04 16.56 48.36 24.01 49.95
  C 30.39 51.32 34.33 47.79 38.45 43.29
  Q 38.93 42.76 39.01 43.47
  Q 39.86 51.99 38.92 60.51
  Q 38.84 61.22 38.38 60.67
  C 33.53 54.93 25.91 50.53 19.23 56.80
  C 14.19 61.54 16.01 70.44 22.19 73.16
  C 27.58 75.54 33.27 72.94 32.97 66.56
  C 32.75 62.03 26.57 58.16 23.22 62.93
  Q 21.94 64.74 23.45 66.67
  A 0.50 0.49 -54.6 0 0 24.31 66.52
  Q 24.56 65.81 25.03 65.20
  A 2.10 2.10 0.0 0 1 28.47 65.35
  C 31.48 70.12 24.98 71.33 22.10 68.41
  C 17.17 63.43 22.28 55.93 28.43 58.07
  Q 34.00 60.00 37.83 66.66
  Q 38.09 67.11 37.96 67.62
  L 33.86 82.57
  A 0.42 0.41 -8.2 0 0 34.48 83.03
  C 41.16 78.97 46.82 78.25 54.87 78.97
  Q 61.66 79.58 67.42 82.65
  Q 68.97 83.47 68.08 81.96
  Q 64.87 76.54 63.97 70.28
  A 2.27 2.24 58.0 0 1 64.32 68.72
  C 67.22 64.35 73.81 56.75 79.99 60.37
  C 84.96 63.28 82.83 70.49 77.26 71.65
  C 75.93 71.93 74.15 71.03 73.79 69.54
  C 73.07 66.48 77.19 64.09 78.33 67.80
  Q 78.48 68.28 78.98 68.20
  Q 80.38 67.96 80.28 66.47
  Q 80.07 63.64 77.77 62.62
  C 71.31 59.76 67.28 70.17 72.22 74.13
  C 75.98 77.13 81.52 75.47 84.26 71.91
  C 88.90 65.87 85.81 57.00 78.30 55.53
  C 71.65 54.23 67.54 58.90 63.53 63.21
  Q 62.92 63.86 62.91 62.97"
/>
<path stroke="#808080" vector-effect="non-scaling-stroke" d="
  M 42.33 26.42
  A 0.29 0.29 0.0 0 0 41.95 26.76
  C 45.53 42.91 45.72 57.56 41.94 73.71
  A 0.29 0.29 0.0 0 0 42.28 74.06
  Q 50.47 72.66 58.65 74.08
  Q 59.23 74.18 59.14 73.60
  Q 55.27 50.28 59.25 27.00
  A 0.22 0.22 0.0 0 0 58.97 26.75
  Q 50.61 29.29 42.33 26.42"
/>
</g>
<path fill="#ffffff" d="
  M 0.00 0.00
  L 100.00 0.00
  L 100.00 100.00
  L 0.00 100.00
  L 0.00 0.00
  Z
  M 62.91 62.97
  L 62.77 42.39
  Q 62.76 41.11 63.48 42.16
  C 68.20 49.03 78.38 54.54 84.82 45.76
  C 88.23 41.09 86.34 34.43 81.59 31.44
  C 75.65 27.71 68.66 31.37 70.17 38.75
  C 71.22 43.84 80.08 45.64 80.19 39.07
  Q 80.21 38.02 79.35 37.49
  Q 78.89 37.21 78.59 37.65
  L 77.71 38.89
  A 1.90 1.90 0.0 0 1 74.90 39.21
  C 73.13 37.64 73.27 34.84 75.64 34.06
  C 78.57 33.11 81.78 35.85 82.48 38.42
  C 83.73 43.07 79.79 47.11 75.08 46.08
  C 70.54 45.09 66.22 40.01 63.78 36.12
  Q 63.53 35.72 63.57 35.25
  Q 64.31 26.54 67.19 18.28
  Q 67.72 16.75 66.30 17.54
  C 54.49 24.12 46.13 24.37 34.53 17.11
  Q 33.22 16.29 33.72 17.75
  Q 36.89 26.92 38.24 36.54
  A 1.39 1.39 0.0 0 1 38.01 37.53
  C 35.44 41.31 30.46 46.78 25.48 46.23
  C 21.63 45.80 19.42 42.13 20.37 38.47
  C 21.11 35.56 25.38 32.21 28.36 34.72
  C 30.76 36.74 27.23 42.51 24.39 37.88
  Q 23.61 36.61 23.02 37.98
  L 22.71 38.72
  Q 22.12 40.11 23.08 41.27
  Q 25.98 44.78 29.50 42.69
  C 39.01 37.07 27.68 23.48 19.03 33.29
  C 13.97 39.04 16.56 48.36 24.01 49.95
  C 30.39 51.32 34.33 47.79 38.45 43.29
  Q 38.93 42.76 39.01 43.47
  Q 39.86 51.99 38.92 60.51
  Q 38.84 61.22 38.38 60.67
  C 33.53 54.93 25.91 50.53 19.23 56.80
  C 14.19 61.54 16.01 70.44 22.19 73.16
  C 27.58 75.54 33.27 72.94 32.97 66.56
  C 32.75 62.03 26.57 58.16 23.22 62.93
  Q 21.94 64.74 23.45 66.67
  A 0.50 0.49 -54.6 0 0 24.31 66.52
  Q 24.56 65.81 25.03 65.20
  A 2.10 2.10 0.0 0 1 28.47 65.35
  C 31.48 70.12 24.98 71.33 22.10 68.41
  C 17.17 63.43 22.28 55.93 28.43 58.07
  Q 34.00 60.00 37.83 66.66
  Q 38.09 67.11 37.96 67.62
  L 33.86 82.57
  A 0.42 0.41 -8.2 0 0 34.48 83.03
  C 41.16 78.97 46.82 78.25 54.87 78.97
  Q 61.66 79.58 67.42 82.65
  Q 68.97 83.47 68.08 81.96
  Q 64.87 76.54 63.97 70.28
  A 2.27 2.24 58.0 0 1 64.32 68.72
  C 67.22 64.35 73.81 56.75 79.99 60.37
  C 84.96 63.28 82.83 70.49 77.26 71.65
  C 75.93 71.93 74.15 71.03 73.79 69.54
  C 73.07 66.48 77.19 64.09 78.33 67.80
  Q 78.48 68.28 78.98 68.20
  Q 80.38 67.96 80.28 66.47
  Q 80.07 63.64 77.77 62.62
  C 71.31 59.76 67.28 70.17 72.22 74.13
  C 75.98 77.13 81.52 75.47 84.26 71.91
  C 88.90 65.87 85.81 57.00 78.30 55.53
  C 71.65 54.23 67.54 58.90 63.53 63.21
  Q 62.92 63.86 62.91 62.97
  Z"
/>
<path fill="#000000" d="
  M 63.53 63.21
  C 67.54 58.90 71.65 54.23 78.30 55.53
  C 85.81 57.00 88.90 65.87 84.26 71.91
  C 81.52 75.47 75.98 77.13 72.22 74.13
  C 67.28 70.17 71.31 59.76 77.77 62.62
  Q 80.07 63.64 80.28 66.47
  Q 80.38 67.96 78.98 68.20
  Q 78.48 68.28 78.33 67.80
  C 77.19 64.09 73.07 66.48 73.79 69.54
  C 74.15 71.03 75.93 71.93 77.26 71.65
  C 82.83 70.49 84.96 63.28 79.99 60.37
  C 73.81 56.75 67.22 64.35 64.32 68.72
  A 2.27 2.24 58.0 0 0 63.97 70.28
  Q 64.87 76.54 68.08 81.96
  Q 68.97 83.47 67.42 82.65
  Q 61.66 79.58 54.87 78.97
  C 46.82 78.25 41.16 78.97 34.48 83.03
  A 0.42 0.41 -8.2 0 1 33.86 82.57
  L 37.96 67.62
  Q 38.09 67.11 37.83 66.66
  Q 34.00 60.00 28.43 58.07
  C 22.28 55.93 17.17 63.43 22.10 68.41
  C 24.98 71.33 31.48 70.12 28.47 65.35
  A 2.10 2.10 0.0 0 0 25.03 65.20
  Q 24.56 65.81 24.31 66.52
  A 0.50 0.49 -54.6 0 1 23.45 66.67
  Q 21.94 64.74 23.22 62.93
  C 26.57 58.16 32.75 62.03 32.97 66.56
  C 33.27 72.94 27.58 75.54 22.19 73.16
  C 16.01 70.44 14.19 61.54 19.23 56.80
  C 25.91 50.53 33.53 54.93 38.38 60.67
  Q 38.84 61.22 38.92 60.51
  Q 39.86 51.99 39.01 43.47
  Q 38.93 42.76 38.45 43.29
  C 34.33 47.79 30.39 51.32 24.01 49.95
  C 16.56 48.36 13.97 39.04 19.03 33.29
  C 27.68 23.48 39.01 37.07 29.50 42.69
  Q 25.98 44.78 23.08 41.27
  Q 22.12 40.11 22.71 38.72
  L 23.02 37.98
  Q 23.61 36.61 24.39 37.88
  C 27.23 42.51 30.76 36.74 28.36 34.72
  C 25.38 32.21 21.11 35.56 20.37 38.47
  C 19.42 42.13 21.63 45.80 25.48 46.23
  C 30.46 46.78 35.44 41.31 38.01 37.53
  A 1.39 1.39 0.0 0 0 38.24 36.54
  Q 36.89 26.92 33.72 17.75
  Q 33.22 16.29 34.53 17.11
  C 46.13 24.37 54.49 24.12 66.30 17.54
  Q 67.72 16.75 67.19 18.28
  Q 64.31 26.54 63.57 35.25
  Q 63.53 35.72 63.78 36.12
  C 66.22 40.01 70.54 45.09 75.08 46.08
  C 79.79 47.11 83.73 43.07 82.48 38.42
  C 81.78 35.85 78.57 33.11 75.64 34.06
  C 73.27 34.84 73.13 37.64 74.90 39.21
  A 1.90 1.90 0.0 0 0 77.71 38.89
  L 78.59 37.65
  Q 78.89 37.21 79.35 37.49
  Q 80.21 38.02 80.19 39.07
  C 80.08 45.64 71.22 43.84 70.17 38.75
  C 68.66 31.37 75.65 27.71 81.59 31.44
  C 86.34 34.43 88.23 41.09 84.82 45.76
  C 78.38 54.54 68.20 49.03 63.48 42.16
  Q 62.76 41.11 62.77 42.39
  L 62.91 62.97
  Q 62.92 63.86 63.53 63.21
  Z
  M 42.33 26.42
  A 0.29 0.29 0.0 0 0 41.95 26.76
  C 45.53 42.91 45.72 57.56 41.94 73.71
  A 0.29 0.29 0.0 0 0 42.28 74.06
  Q 50.47 72.66 58.65 74.08
  Q 59.23 74.18 59.14 73.60
  Q 55.27 50.28 59.25 27.00
  A 0.22 0.22 0.0 0 0 58.97 26.75
  Q 50.61 29.29 42.33 26.42
  Z"
/>
<path fill="#ffffff" d="
  M 42.33 26.42
  Q 50.61 29.29 58.97 26.75
  A 0.22 0.22 0.0 0 1 59.25 27.00
  Q 55.27 50.28 59.14 73.60
  Q 59.23 74.18 58.65 74.08
  Q 50.47 72.66 42.28 74.06
  A 0.29 0.29 0.0 0 1 41.94 73.71
  C 45.72 57.56 45.53 42.91 41.95 26.76
  A 0.29 0.29 0.0 0 1 42.33 26.42
  Z"
/>
</svg>
