<?xml version="1.0" encoding="UTF-8" standalone="no"?>
<!DOCTYPE svg PUBLIC "-//W3C//DTD SVG 1.1//EN" "http://www.w3.org/Graphics/SVG/1.1/DTD/svg11.dtd">
<svg xmlns="http://www.w3.org/2000/svg" version="1.1" viewBox="0.00 0.00 100.00 100.00">
<g stroke-width="2.00" fill="none" stroke-linecap="butt">
<path stroke="#808080" vector-effect="non-scaling-stroke" d="
  M 49.75 60.16
  Q 59.47 69.78 69.14 79.82
  Q 70.03 80.74 70.00 81.74
  C 69.75 88.88 74.57 93.73 81.55 93.12
  C 89.97 92.40 96.31 83.08 93.24 75.02
  C 91.88 71.45 88.37 68.84 84.29 68.74
  C 82.25 68.69 81.30 69.10 79.72 67.53
  Q 70.34 58.15 60.97 48.77
  Q 60.65 48.46 60.97 48.14
  Q 70.57 38.56 80.31 28.81
  C 81.15 27.97 81.56 27.57 82.85 27.66
  C 90.34 28.15 95.61 21.96 94.15 14.57
  Q 92.86 8.02 86.26 4.69
  C 78.18 0.62 69.03 6.10 70.11 15.21
  A 1.93 1.92 64.2 0 1 69.56 16.80
  L 50.06 36.56
  A 0.95 0.94 -45.2 0 1 48.72 36.57
  L 28.73 16.52
  A 1.15 0.95 -71.4 0 1 28.44 15.76
  C 28.42 2.90 15.09 0.04 7.61 8.86
  C 0.54 17.20 4.81 29.20 16.77 28.30
  Q 17.74 28.23 18.89 29.36
  Q 28.42 38.76 37.70 48.21
  A 0.43 0.42 46.0 0 1 37.70 48.81
  L 17.80 68.71
  A 1.25 1.25 0.0 0 1 16.79 69.07
  C 6.03 68.02 1.01 78.55 6.86 86.91
  C 11.16 93.07 20.55 95.88 26.27 89.72
  Q 29.43 86.32 28.77 81.22
  A 1.55 1.53 -26.5 0 1 29.21 79.93
  L 48.95 60.16
  A 0.57 0.57 0.0 0 1 49.75 60.16"
/>
<path stroke="#808080" vector-effect="non-scaling-stroke" d="
  M 48.95 52.41
  A 0.42 0.41 44.5 0 1 49.54 52.41
  L 76.41 79.26
  Q 76.77 79.62 76.64 80.11
  C 73.64 91.54 89.45 86.93 87.60 78.01
  C 86.81 74.18 83.72 75.13 80.90 75.41
  A 1.20 1.18 -25.2 0 1 79.93 75.07
  L 53.38 48.52
  A 0.35 0.35 0.0 0 1 53.38 48.03
  L 80.09 21.25
  A 1.27 1.26 22.9 0 1 81.01 20.88
  C 81.99 20.91 83.13 21.30 83.90 21.28
  C 90.83 21.07 88.06 12.41 83.70 10.47
  C 80.26 8.93 76.30 9.58 76.23 14.21
  C 76.21 15.71 77.27 16.23 75.82 17.67
  Q 63.10 30.31 49.73 43.71
  A 0.82 0.82 0.0 0 1 48.57 43.71
  Q 35.75 30.87 22.66 17.81
  C 21.49 16.65 22.38 13.78 21.54 12.13
  Q 20.06 9.26 16.50 10.22
  C 8.33 12.43 9.06 25.71 17.55 21.38
  A 0.98 0.97 -35.8 0 1 18.69 21.56
  L 44.58 47.43
  Q 45.28 48.13 44.58 48.83
  L 18.25 75.26
  Q 17.90 75.61 17.40 75.54
  C 15.54 75.28 13.63 74.76 12.10 76.14
  C 7.80 80.04 13.83 87.10 18.25 87.00
  C 21.38 86.94 23.18 84.30 22.30 81.18
  C 21.96 79.98 22.01 79.36 22.95 78.42
  Q 36.00 65.37 48.95 52.41"
/>
</g>
<path fill="#ffffff" d="
  M 0.00 0.00
  L 100.00 0.00
  L 100.00 100.00
  L 0.00 100.00
  L 0.00 0.00
  Z
  M 49.75 60.16
  Q 59.47 69.78 69.14 79.82
  Q 70.03 80.74 70.00 81.74
  C 69.75 88.88 74.57 93.73 81.55 93.12
  C 89.97 92.40 96.31 83.08 93.24 75.02
  C 91.88 71.45 88.37 68.84 84.29 68.74
  C 82.25 68.69 81.30 69.10 79.72 67.53
  Q 70.34 58.15 60.97 48.77
  Q 60.65 48.46 60.97 48.14
  Q 70.57 38.56 80.31 28.81
  C 81.15 27.97 81.56 27.57 82.85 27.66
  C 90.34 28.15 95.61 21.96 94.15 14.57
  Q 92.86 8.02 86.26 4.69
  C 78.18 0.62 69.03 6.10 70.11 15.21
  A 1.93 1.92 64.2 0 1 69.56 16.80
  L 50.06 36.56
  A 0.95 0.94 -45.2 0 1 48.72 36.57
  L 28.73 16.52
  A 1.15 0.95 -71.4 0 1 28.44 15.76
  C 28.42 2.90 15.09 0.04 7.61 8.86
  C 0.54 17.20 4.81 29.20 16.77 28.30
  Q 17.74 28.23 18.89 29.36
  Q 28.42 38.76 37.70 48.21
  A 0.43 0.42 46.0 0 1 37.70 48.81
  L 17.80 68.71
  A 1.25 1.25 0.0 0 1 16.79 69.07
  C 6.03 68.02 1.01 78.55 6.86 86.91
  C 11.16 93.07 20.55 95.88 26.27 89.72
  Q 29.43 86.32 28.77 81.22
  A 1.55 1.53 -26.5 0 1 29.21 79.93
  L 48.95 60.16
  A 0.57 0.57 0.0 0 1 49.75 60.16
  Z"
/>
<path fill="#000000" d="
  M 49.75 60.16
  A 0.57 0.57 0.0 0 0 48.95 60.16
  L 29.21 79.93
  A 1.55 1.53 -26.5 0 0 28.77 81.22
  Q 29.43 86.32 26.27 89.72
  C 20.55 95.88 11.16 93.07 6.86 86.91
  C 1.01 78.55 6.03 68.02 16.79 69.07
  A 1.25 1.25 0.0 0 0 17.80 68.71
  L 37.70 48.81
  A 0.43 0.42 46.0 0 0 37.70 48.21
  Q 28.42 38.76 18.89 29.36
  Q 17.74 28.23 16.77 28.30
  C 4.81 29.20 0.54 17.20 7.61 8.86
  C 15.09 0.04 28.42 2.90 28.44 15.76
  A 1.15 0.95 -71.4 0 0 28.73 16.52
  L 48.72 36.57
  A 0.95 0.94 -45.2 0 0 50.06 36.56
  L 69.56 16.80
  A 1.93 1.92 64.2 0 0 70.11 15.21
  C 69.03 6.10 78.18 0.62 86.26 4.69
  Q 92.86 8.02 94.15 14.57
  C 95.61 21.96 90.34 28.15 82.85 27.66
  C 81.56 27.57 81.15 27.97 80.31 28.81
  Q 70.57 38.56 60.97 48.14
  Q 60.65 48.46 60.97 48.77
  Q 70.34 58.15 79.72 67.53
  C 81.30 69.10 82.25 68.69 84.29 68.74
  C 88.37 68.84 91.88 71.45 93.24 75.02
  C 96.31 83.08 89.97 92.40 81.55 93.12
  C 74.57 93.73 69.75 88.88 70.00 81.74
  Q 70.03 80.74 69.14 79.82
  Q 59.47 69.78 49.75 60.16
  Z
  M 48.95 52.41
  A 0.42 0.41 44.5 0 1 49.54 52.41
  L 76.41 79.26
  Q 76.77 79.62 76.64 80.11
  C 73.64 91.54 89.45 86.93 87.60 78.01
  C 86.81 74.18 83.72 75.13 80.90 75.41
  A 1.20 1.18 -25.2 0 1 79.93 75.07
  L 53.38 48.52
  A 0.35 0.35 0.0 0 1 53.38 48.03
  L 80.09 21.25
  A 1.27 1.26 22.9 0 1 81.01 20.88
  C 81.99 20.91 83.13 21.30 83.90 21.28
  C 90.83 21.07 88.06 12.41 83.70 10.47
  C 80.26 8.93 76.30 9.58 76.23 14.21
  C 76.21 15.71 77.27 16.23 75.82 17.67
  Q 63.10 30.31 49.73 43.71
  A 0.82 0.82 0.0 0 1 48.57 43.71
  Q 35.75 30.87 22.66 17.81
  C 21.49 16.65 22.38 13.78 21.54 12.13
  Q 20.06 9.26 16.50 10.22
  C 8.33 12.43 9.06 25.71 17.55 21.38
  A 0.98 0.97 -35.8 0 1 18.69 21.56
  L 44.58 47.43
  Q 45.28 48.13 44.58 48.83
  L 18.25 75.26
  Q 17.90 75.61 17.40 75.54
  C 15.54 75.28 13.63 74.76 12.10 76.14
  C 7.80 80.04 13.83 87.10 18.25 87.00
  C 21.38 86.94 23.18 84.30 22.30 81.18
  C 21.96 79.98 22.01 79.36 22.95 78.42
  Q 36.00 65.37 48.95 52.41
  Z"
/>
<path fill="#ffffff" d="
  M 48.95 52.41
  Q 36.00 65.37 22.95 78.42
  C 22.01 79.36 21.96 79.98 22.30 81.18
  C 23.18 84.30 21.38 86.94 18.25 87.00
  C 13.83 87.10 7.80 80.04 12.10 76.14
  C 13.63 74.76 15.54 75.28 17.40 75.54
  Q 17.90 75.61 18.25 75.26
  L 44.58 48.83
  Q 45.28 48.13 44.58 47.43
  L 18.69 21.56
  A 0.98 0.97 -35.8 0 0 17.55 21.38
  C 9.06 25.71 8.33 12.43 16.50 10.22
  Q 20.06 9.26 21.54 12.13
  C 22.38 13.78 21.49 16.65 22.66 17.81
  Q 35.75 30.87 48.57 43.71
  A 0.82 0.82 0.0 0 0 49.73 43.71
  Q 63.10 30.31 75.82 17.67
  C 77.27 16.23 76.21 15.71 76.23 14.21
  C 76.30 9.58 80.26 8.93 83.70 10.47
  C 88.06 12.41 90.83 21.07 83.90 21.28
  C 83.13 21.30 81.99 20.91 81.01 20.88
  A 1.27 1.26 22.9 0 0 80.09 21.25
  L 53.38 48.03
  A 0.35 0.35 0.0 0 0 53.38 48.52
  L 79.93 75.07
  A 1.20 1.18 -25.2 0 0 80.90 75.41
  C 83.72 75.13 86.81 74.18 87.60 78.01
  C 89.45 86.93 73.64 91.54 76.64 80.11
  Q 76.77 79.62 76.41 79.26
  L 49.54 52.41
  A 0.42 0.41 44.5 0 0 48.95 52.41
  Z"
/>
</svg>
