<?xml version="1.0" encoding="UTF-8" standalone="no"?>
<!DOCTYPE svg PUBLIC "-//W3C//DTD SVG 1.1//EN" "http://www.w3.org/Graphics/SVG/1.1/DTD/svg11.dtd">
<svg xmlns="http://www.w3.org/2000/svg" version="1.1" viewBox="0.00 0.00 100.00 100.00">
<path fill="#000000" d="
  M 51.20 78.09
  A 1.12 1.12 0.0 0 0 50.07 78.43
  C 41.99 87.65 25.67 87.81 18.46 77.20
  C 13.12 69.34 14.04 57.69 21.60 51.36
  C 23.59 49.70 22.40 48.33 20.83 46.99
  Q 18.48 44.98 17.39 42.59
  Q 11.20 28.94 21.15 19.21
  C 22.81 17.60 25.06 16.38 27.17 15.11
  C 30.68 12.99 39.15 13.31 42.67 15.38
  C 45.56 17.08 47.37 18.07 49.57 20.70
  Q 49.90 21.10 50.41 21.15
  C 52.37 21.36 52.79 20.06 53.90 19.21
  Q 57.61 16.42 58.85 15.60
  C 62.60 13.12 69.19 13.46 73.52 14.26
  Q 75.68 14.66 81.40 19.36
  Q 83.28 20.91 85.35 25.09
  C 90.04 34.51 85.88 42.35 79.51 49.15
  A 0.67 0.66 -48.2 0 0 79.56 50.11
  C 85.80 55.33 89.37 65.07 86.32 72.52
  Q 85.69 74.06 83.00 77.69
  C 78.07 84.30 69.45 87.18 61.59 84.52
  Q 56.81 82.90 53.06 79.22
  Q 52.16 78.34 51.20 78.09
  Z
  M 52.99 29.93
  C 49.75 26.57 46.90 23.59 43.22 20.65
  C 36.29 15.12 27.10 18.28 22.14 24.65
  C 17.57 30.51 18.27 36.30 22.45 41.94
  Q 23.72 43.65 24.90 45.35
  A 1.44 1.44 0.0 0 0 27.19 45.45
  Q 29.02 43.24 31.47 41.73
  A 1.00 1.00 0.0 0 0 31.47 40.03
  C 20.73 33.51 32.53 18.94 41.84 29.91
  C 43.80 32.22 46.14 34.19 47.75 36.00
  Q 52.33 41.14 57.62 45.60
  Q 58.00 45.93 58.45 45.70
  C 60.62 44.63 62.75 42.92 62.98 40.44
  Q 63.03 39.94 62.73 39.53
  C 61.57 37.92 59.92 36.96 58.73 35.52
  C 57.00 33.43 54.61 31.61 52.99 29.93
  Z
  M 60.87 61.26
  Q 70.39 51.79 78.29 43.81
  C 88.17 33.84 80.27 16.75 66.35 17.92
  C 61.15 18.36 57.75 20.73 55.13 24.70
  A 1.45 1.45 0.0 0 0 55.54 26.71
  Q 56.78 27.54 57.60 28.77
  A 2.06 2.05 -33.5 0 0 60.44 29.34
  C 62.40 28.02 64.36 26.43 66.79 25.95
  C 70.34 25.25 73.59 28.37 74.49 31.53
  C 76.08 37.17 67.07 43.56 63.67 46.96
  Q 59.37 51.26 55.39 55.41
  A 1.81 1.81 0.0 0 0 55.38 57.92
  L 58.56 61.23
  Q 59.70 62.42 60.87 61.26
  Z
  M 36.40 36.69
  L 38.32 34.18
  A 1.29 1.29 0.0 0 0 38.08 32.37
  L 37.15 31.66
  A 4.02 2.81 37.4 0 0 32.25 31.45
  L 32.18 31.55
  A 4.02 2.81 37.4 0 0 33.67 36.22
  L 34.60 36.93
  A 1.29 1.29 0.0 0 0 36.40 36.69
  Z
  M 65.8824 37.0242
  A 3.33 2.96 108.7 0 0 69.7537 34.8190
  A 3.33 2.96 108.7 0 0 68.0176 30.7158
  A 3.33 2.96 108.7 0 0 64.1463 32.9210
  A 3.33 2.96 108.7 0 0 65.8824 37.0242
  Z
  M 46.08 76.06
  C 49.19 73.44 44.63 71.38 43.72 69.58
  A 1.31 1.30 -31.9 0 0 41.77 69.13
  C 38.31 71.74 35.28 74.88 30.83 72.03
  C 27.04 69.61 25.70 64.75 29.21 61.24
  Q 37.55 52.90 46.22 44.23
  Q 48.01 42.43 46.22 40.63
  L 44.09 38.48
  Q 42.36 36.74 40.64 38.49
  Q 32.72 46.56 25.81 53.36
  C 20.88 58.22 16.80 64.52 20.28 71.47
  C 22.74 76.39 27.22 80.35 32.75 81.13
  C 37.90 81.86 42.41 79.17 46.08 76.06
  Z
  M 50.17 46.37
  L 47.87 48.54
  A 1.27 1.27 0.0 0 0 47.83 50.34
  L 49.20 51.78
  A 2.90 2.77 46.5 0 0 53.20 51.98
  L 53.32 51.87
  A 2.90 2.77 46.5 0 0 53.33 47.86
  L 51.96 46.42
  A 1.27 1.27 0.0 0 0 50.17 46.37
  Z
  M 74.03 68.70
  C 72.62 71.94 69.08 73.63 65.55 73.03
  Q 63.64 72.70 62.85 71.90
  Q 55.64 64.48 48.19 57.30
  C 46.84 56.01 46.08 53.96 43.71 53.47
  Q 43.24 53.37 42.87 53.68
  C 40.95 55.27 37.19 58.10 39.96 60.29
  C 42.44 62.25 44.29 63.90 46.67 66.55
  C 48.52 68.61 50.83 70.37 52.59 72.35
  C 58.56 79.04 65.24 84.10 74.43 79.38
  Q 77.49 77.81 78.44 76.69
  Q 87.66 65.81 78.10 54.69
  Q 76.05 52.30 73.84 54.55
  L 72.49 55.92
  Q 70.51 57.94 72.17 60.23
  C 73.85 62.54 75.27 65.87 74.03 68.70
  Z
  M 38.35 64.56
  L 36.17 62.28
  A 1.27 1.27 0.0 0 0 34.37 62.24
  L 32.67 63.87
  A 2.99 2.80 -43.8 0 0 32.45 67.96
  L 32.52 68.04
  A 2.99 2.80 -43.8 0 0 36.61 67.99
  L 38.31 66.36
  A 1.27 1.27 0.0 0 0 38.35 64.56
  Z
  M 66.22 62.36
  L 63.87 64.50
  A 1.29 1.29 0.0 0 0 63.78 66.32
  L 65.00 67.65
  A 3.37 2.80 47.7 0 0 69.33 68.26
  L 69.45 68.16
  A 3.37 2.80 47.7 0 0 69.26 63.78
  L 68.04 62.45
  A 1.29 1.29 0.0 0 0 66.22 62.36
  Z"
/>
</svg>
