<?xml version="1.0" encoding="UTF-8" standalone="no"?>
<!DOCTYPE svg PUBLIC "-//W3C//DTD SVG 1.1//EN" "http://www.w3.org/Graphics/SVG/1.1/DTD/svg11.dtd">
<svg xmlns="http://www.w3.org/2000/svg" version="1.1" viewBox="0.00 0.00 100.00 100.00">
<path fill="#000000" d="
  M 23.41 54.44
  L 21.65 58.11
  Q 21.41 58.61 20.97 58.95
  Q 20.06 59.65 20.00 60.94
  A 1.14 1.11 -21.7 0 1 19.67 61.68
  L 13.67 67.82
  A 0.93 0.93 0.0 0 1 12.94 68.10
  C 11.20 68.02 9.70 67.37 9.20 65.55
  C 7.10 57.84 12.30 55.95 16.82 51.24
  A 0.76 0.76 0.0 0 0 16.25 49.96
  C 14.42 50.03 13.30 51.26 11.97 51.78
  Q 9.94 52.58 8.00 53.57
  Q 7.59 53.78 7.17 53.60
  C 2.61 51.65 3.76 46.96 6.51 44.03
  Q 7.69 42.78 10.18 41.94
  C 12.89 41.04 15.15 39.34 17.81 38.85
  Q 27.23 37.09 38.00 38.64
  Q 39.82 38.91 40.89 37.25
  Q 41.14 36.87 41.05 36.43
  C 40.06 31.39 33.21 34.35 33.01 28.25
  Q 32.99 27.79 33.27 27.43
  C 35.96 23.91 40.87 27.10 43.59 29.43
  C 44.86 30.51 45.75 32.14 47.86 32.99
  Q 48.36 33.19 48.73 32.80
  Q 49.55 31.94 48.79 30.72
  C 47.42 28.50 41.01 22.31 44.81 19.10
  C 47.97 16.43 50.86 19.31 51.89 22.18
  Q 54.37 29.11 58.00 33.50
  Q 59.02 34.74 59.02 33.13
  L 59.02 31.57
  A 2.80 2.77 -61.5 0 0 58.59 30.08
  Q 52.16 20.01 57.73 16.26
  Q 58.94 15.45 61.23 16.06
  C 65.54 17.21 67.17 23.71 67.07 28.00
  C 66.99 31.53 66.01 42.61 69.28 44.69
  A 1.66 1.66 0.0 0 0 71.82 43.38
  C 72.01 40.05 73.42 27.91 76.63 26.71
  Q 80.70 25.19 82.65 29.03
  Q 85.46 34.56 82.78 39.58
  C 80.81 43.24 77.25 43.63 77.09 49.01
  A 0.59 0.58 66.8 0 0 78.11 49.42
  Q 78.89 48.55 79.15 47.39
  Q 79.26 46.87 79.61 46.46
  C 81.39 44.39 85.80 38.71 88.23 37.95
  Q 88.70 37.80 89.15 38.01
  C 91.99 39.37 92.70 43.16 91.97 45.84
  C 91.14 48.93 87.43 51.00 84.81 52.82
  Q 83.55 53.70 83.39 53.95
  Q 81.50 57.00 84.75 55.70
  Q 88.81 54.08 93.09 53.13
  Q 95.37 52.62 95.84 54.91
  C 97.26 61.73 93.12 65.06 87.15 66.43
  C 81.61 67.70 62.31 58.03 62.47 66.64
  Q 62.47 67.09 62.83 67.37
  C 64.60 68.76 68.53 71.51 69.06 73.63
  C 69.60 75.76 67.99 78.46 65.76 78.99
  Q 65.27 79.10 64.82 78.89
  Q 61.01 77.06 58.83 73.59
  C 57.00 70.67 55.55 68.21 52.58 68.11
  Q 49.97 68.02 51.64 70.03
  C 52.95 71.60 55.00 72.34 56.18 73.95
  Q 58.17 76.68 58.78 80.09
  Q 58.88 80.60 58.63 81.06
  C 56.83 84.47 53.54 83.44 51.53 80.80
  Q 48.17 76.41 47.62 74.88
  Q 46.20 70.89 44.46 69.34
  Q 43.27 68.27 42.25 69.28
  Q 41.89 69.63 42.16 70.06
  C 43.65 72.46 50.76 84.04 44.83 84.89
  C 34.05 86.43 33.51 68.27 32.86 61.25
  Q 32.76 60.19 32.10 59.51
  A 1.51 1.51 0.0 0 0 29.73 59.77
  C 27.01 64.14 28.96 69.44 26.80 73.92
  C 21.62 84.70 16.04 76.68 16.96 69.62
  C 17.73 63.73 24.26 61.26 24.01 54.57
  Q 23.96 53.31 23.41 54.44
  Z
  M 56.88 55.32
  C 57.33 58.37 53.66 58.68 51.70 59.61
  Q 51.23 59.83 51.25 60.34
  C 51.35 63.11 57.24 61.86 58.80 61.34
  C 60.40 60.81 61.99 59.61 63.79 58.90
  C 65.38 58.28 66.05 57.55 66.51 55.99
  A 1.08 1.06 40.4 0 0 66.44 55.23
  Q 64.91 52.22 62.51 52.07
  Q 55.10 51.61 47.94 49.49
  A 1.71 1.71 0.0 0 1 47.46 46.44
  Q 49.34 45.16 49.97 42.94
  A 0.66 0.66 0.0 0 0 49.44 42.11
  Q 41.93 40.96 35.98 45.01
  Q 32.67 47.26 34.35 50.70
  A 2.31 2.29 -12.2 0 0 36.35 51.98
  Q 41.47 52.10 46.45 52.04
  C 49.75 52.00 52.29 52.68 55.38 53.59
  A 2.13 2.11 -86.2 0 1 56.88 55.32
  Z"
/>
</svg>
