<?xml version="1.0" encoding="UTF-8" standalone="no"?>
<!DOCTYPE svg PUBLIC "-//W3C//DTD SVG 1.1//EN" "http://www.w3.org/Graphics/SVG/1.1/DTD/svg11.dtd">
<svg xmlns="http://www.w3.org/2000/svg" version="1.1" viewBox="0.00 0.00 100.00 100.00">
<path fill="#000000" d="
  M 28.53 25.69
  C 31.00 22.85 33.24 18.43 36.62 15.27
  Q 36.90 15.01 42.90 10.81
  Q 46.42 8.35 49.15 4.93
  A 1.04 1.04 0.0 0 1 50.72 4.86
  C 53.16 7.43 55.01 9.42 58.28 11.41
  Q 64.48 15.18 68.31 21.32
  C 70.84 25.37 73.99 29.05 77.93 31.34
  Q 84.62 35.24 88.61 41.83
  C 90.64 45.20 92.75 47.11 95.37 49.65
  A 0.62 0.61 -45.3 0 1 95.37 50.54
  C 92.77 53.03 90.63 54.87 88.66 58.19
  Q 84.90 64.49 78.67 68.33
  C 74.61 70.83 71.07 74.05 68.75 77.99
  Q 64.82 84.69 58.20 88.71
  C 54.92 90.71 53.01 92.80 50.48 95.33
  A 0.71 0.71 0.0 0 1 49.48 95.33
  C 46.87 92.67 44.87 90.57 41.45 88.44
  Q 35.54 84.77 31.85 78.91
  C 29.20 74.72 26.10 71.01 22.03 68.64
  Q 15.36 64.75 11.40 58.17
  C 9.37 54.81 7.24 52.89 4.64 50.33
  A 0.59 0.59 0.0 0 1 4.64 49.49
  C 7.19 46.98 9.37 45.13 11.33 41.82
  Q 15.72 34.47 23.51 30.48
  Q 25.04 29.70 28.53 25.69
  Z
  M 51.96 41.65
  C 55.25 36.09 58.93 33.55 64.27 30.21
  Q 64.75 29.91 64.30 29.57
  Q 62.66 28.35 60.94 27.26
  Q 54.13 22.92 50.52 15.76
  Q 49.99 14.71 49.46 15.76
  Q 44.83 24.84 35.72 29.39
  A 0.49 0.49 0.0 0 0 35.71 30.27
  Q 44.95 34.93 49.58 44.14
  A 0.44 0.44 0.0 0 0 50.34 44.20
  Q 51.16 42.99 51.96 41.65
  Z
  M 44.06 49.57
  Q 34.97 44.95 30.34 35.84
  A 0.61 0.61 0.0 0 0 29.25 35.84
  Q 24.71 45.01 15.54 49.55
  A 0.51 0.51 0.0 0 0 15.54 50.46
  Q 24.83 55.07 29.37 64.40
  A 0.47 0.47 0.0 0 0 30.21 64.40
  Q 34.84 55.14 44.06 50.46
  A 0.50 0.50 0.0 0 0 44.06 49.57
  Z
  M 56.03 50.53
  C 62.13 53.54 66.55 58.29 69.76 64.28
  A 0.48 0.48 0.0 0 0 70.61 64.27
  Q 75.25 55.04 84.49 50.42
  A 0.44 0.44 0.0 0 0 84.49 49.63
  Q 75.31 44.97 70.63 35.79
  A 0.55 0.55 0.0 0 0 69.65 35.80
  Q 65.08 44.90 56.02 49.51
  A 0.57 0.57 0.0 0 0 56.03 50.53
  Z
  M 48.30 57.86
  Q 43.71 65.72 35.77 69.71
  A 0.55 0.55 0.0 0 0 35.77 70.69
  Q 44.93 75.30 49.54 84.46
  A 0.51 0.50 -45.3 0 0 50.44 84.45
  Q 55.02 75.25 64.25 70.70
  A 0.55 0.55 0.0 0 0 64.26 69.72
  Q 55.07 65.06 50.42 55.89
  A 0.47 0.47 0.0 0 0 49.62 55.83
  Q 48.96 56.74 48.30 57.86
  Z"
/>
</svg>
