<?xml version="1.0" encoding="UTF-8" standalone="no"?>
<!DOCTYPE svg PUBLIC "-//W3C//DTD SVG 1.1//EN" "http://www.w3.org/Graphics/SVG/1.1/DTD/svg11.dtd">
<svg xmlns="http://www.w3.org/2000/svg" version="1.1" viewBox="0.00 0.00 100.00 100.00">
<g stroke-width="2.00" fill="none" stroke-linecap="butt">
<path stroke="#808080" vector-effect="non-scaling-stroke" d="
  M 23.20 50.96
  A 0.45 0.45 0.0 0 1 22.75 51.41
  L 13.48 51.41
  A 0.45 0.45 0.0 0 1 13.03 50.96
  L 13.03 26.56
  A 0.45 0.45 0.0 0 0 12.58 26.11
  L 2.58 26.09
  A 0.45 0.45 0.0 0 0 2.13 26.54
  L 2.12 63.80
  A 0.45 0.45 0.0 0 0 2.57 64.25
  L 43.80 64.21
  A 0.45 0.45 0.0 0 1 44.25 64.66
  L 44.25 82.10
  A 0.45 0.45 0.0 0 1 43.80 82.55
  L 18.49 82.53
  A 0.45 0.45 0.0 0 0 18.04 82.98
  L 18.04 94.10
  A 0.45 0.45 0.0 0 0 18.49 94.55
  L 81.27 94.55
  A 0.45 0.45 0.0 0 0 81.72 94.10
  L 81.73 82.98
  A 0.45 0.45 0.0 0 0 81.28 82.53
  L 55.72 82.55
  A 0.45 0.45 0.0 0 1 55.27 82.10
  L 55.26 64.67
  A 0.45 0.45 0.0 0 1 55.71 64.22
  L 97.05 64.25
  A 0.45 0.45 0.0 0 0 97.50 63.80
  L 97.50 26.55
  A 0.45 0.45 0.0 0 0 97.05 26.10
  L 86.89 26.10
  A 0.45 0.45 0.0 0 0 86.44 26.55
  L 86.42 50.97
  A 0.45 0.45 0.0 0 1 85.97 51.42
  L 76.88 51.42
  A 0.45 0.45 0.0 0 1 76.43 50.97
  L 76.42 17.39
  A 0.45 0.45 0.0 0 1 76.87 16.94
  L 97.05 16.94
  A 0.45 0.45 0.0 0 0 97.50 16.49
  L 97.50 4.59
  A 0.45 0.45 0.0 0 0 97.05 4.14
  L 2.60 4.14
  A 0.45 0.45 0.0 0 0 2.15 4.59
  L 2.11 16.48
  A 0.45 0.45 0.0 0 0 2.56 16.93
  L 22.75 16.95
  A 0.45 0.45 0.0 0 1 23.20 17.40
  L 23.20 50.96"
/>
<path stroke="#808080" vector-effect="non-scaling-stroke" d="
  M 54.91 26.11
  A 0.35 0.35 0.0 0 1 55.26 26.46
  L 55.27 51.05
  A 0.35 0.35 0.0 0 0 55.62 51.40
  L 64.93 51.43
  A 0.35 0.35 0.0 0 0 65.28 51.08
  L 65.29 17.29
  A 0.35 0.35 0.0 0 0 64.94 16.94
  L 34.56 16.94
  A 0.35 0.35 0.0 0 0 34.21 17.29
  L 34.19 51.06
  A 0.35 0.35 0.0 0 0 34.54 51.41
  L 43.89 51.43
  A 0.35 0.35 0.0 0 0 44.24 51.08
  L 44.25 26.44
  A 0.35 0.35 0.0 0 1 44.60 26.09
  L 54.91 26.11"
/>
</g>
<path fill="#ffffff" d="
  M 0.00 0.00
  L 100.00 0.00
  L 100.00 100.00
  L 0.00 100.00
  L 0.00 0.00
  Z
  M 23.20 50.96
  A 0.45 0.45 0.0 0 1 22.75 51.41
  L 13.48 51.41
  A 0.45 0.45 0.0 0 1 13.03 50.96
  L 13.03 26.56
  A 0.45 0.45 0.0 0 0 12.58 26.11
  L 2.58 26.09
  A 0.45 0.45 0.0 0 0 2.13 26.54
  L 2.12 63.80
  A 0.45 0.45 0.0 0 0 2.57 64.25
  L 43.80 64.21
  A 0.45 0.45 0.0 0 1 44.25 64.66
  L 44.25 82.10
  A 0.45 0.45 0.0 0 1 43.80 82.55
  L 18.49 82.53
  A 0.45 0.45 0.0 0 0 18.04 82.98
  L 18.04 94.10
  A 0.45 0.45 0.0 0 0 18.49 94.55
  L 81.27 94.55
  A 0.45 0.45 0.0 0 0 81.72 94.10
  L 81.73 82.98
  A 0.45 0.45 0.0 0 0 81.28 82.53
  L 55.72 82.55
  A 0.45 0.45 0.0 0 1 55.27 82.10
  L 55.26 64.67
  A 0.45 0.45 0.0 0 1 55.71 64.22
  L 97.05 64.25
  A 0.45 0.45 0.0 0 0 97.50 63.80
  L 97.50 26.55
  A 0.45 0.45 0.0 0 0 97.05 26.10
  L 86.89 26.10
  A 0.45 0.45 0.0 0 0 86.44 26.55
  L 86.42 50.97
  A 0.45 0.45 0.0 0 1 85.97 51.42
  L 76.88 51.42
  A 0.45 0.45 0.0 0 1 76.43 50.97
  L 76.42 17.39
  A 0.45 0.45 0.0 0 1 76.87 16.94
  L 97.05 16.94
  A 0.45 0.45 0.0 0 0 97.50 16.49
  L 97.50 4.59
  A 0.45 0.45 0.0 0 0 97.05 4.14
  L 2.60 4.14
  A 0.45 0.45 0.0 0 0 2.15 4.59
  L 2.11 16.48
  A 0.45 0.45 0.0 0 0 2.56 16.93
  L 22.75 16.95
  A 0.45 0.45 0.0 0 1 23.20 17.40
  L 23.20 50.96
  Z"
/>
<path fill="#000000" d="
  M 23.20 50.96
  L 23.20 17.40
  A 0.45 0.45 0.0 0 0 22.75 16.95
  L 2.56 16.93
  A 0.45 0.45 0.0 0 1 2.11 16.48
  L 2.15 4.59
  A 0.45 0.45 0.0 0 1 2.60 4.14
  L 97.05 4.14
  A 0.45 0.45 0.0 0 1 97.50 4.59
  L 97.50 16.49
  A 0.45 0.45 0.0 0 1 97.05 16.94
  L 76.87 16.94
  A 0.45 0.45 0.0 0 0 76.42 17.39
  L 76.43 50.97
  A 0.45 0.45 0.0 0 0 76.88 51.42
  L 85.97 51.42
  A 0.45 0.45 0.0 0 0 86.42 50.97
  L 86.44 26.55
  A 0.45 0.45 0.0 0 1 86.89 26.10
  L 97.05 26.10
  A 0.45 0.45 0.0 0 1 97.50 26.55
  L 97.50 63.80
  A 0.45 0.45 0.0 0 1 97.05 64.25
  L 55.71 64.22
  A 0.45 0.45 0.0 0 0 55.26 64.67
  L 55.27 82.10
  A 0.45 0.45 0.0 0 0 55.72 82.55
  L 81.28 82.53
  A 0.45 0.45 0.0 0 1 81.73 82.98
  L 81.72 94.10
  A 0.45 0.45 0.0 0 1 81.27 94.55
  L 18.49 94.55
  A 0.45 0.45 0.0 0 1 18.04 94.10
  L 18.04 82.98
  A 0.45 0.45 0.0 0 1 18.49 82.53
  L 43.80 82.55
  A 0.45 0.45 0.0 0 0 44.25 82.10
  L 44.25 64.66
  A 0.45 0.45 0.0 0 0 43.80 64.21
  L 2.57 64.25
  A 0.45 0.45 0.0 0 1 2.12 63.80
  L 2.13 26.54
  A 0.45 0.45 0.0 0 1 2.58 26.09
  L 12.58 26.11
  A 0.45 0.45 0.0 0 1 13.03 26.56
  L 13.03 50.96
  A 0.45 0.45 0.0 0 0 13.48 51.41
  L 22.75 51.41
  A 0.45 0.45 0.0 0 0 23.20 50.96
  Z
  M 54.91 26.11
  A 0.35 0.35 0.0 0 1 55.26 26.46
  L 55.27 51.05
  A 0.35 0.35 0.0 0 0 55.62 51.40
  L 64.93 51.43
  A 0.35 0.35 0.0 0 0 65.28 51.08
  L 65.29 17.29
  A 0.35 0.35 0.0 0 0 64.94 16.94
  L 34.56 16.94
  A 0.35 0.35 0.0 0 0 34.21 17.29
  L 34.19 51.06
  A 0.35 0.35 0.0 0 0 34.54 51.41
  L 43.89 51.43
  A 0.35 0.35 0.0 0 0 44.24 51.08
  L 44.25 26.44
  A 0.35 0.35 0.0 0 1 44.60 26.09
  L 54.91 26.11
  Z"
/>
<path fill="#ffffff" d="
  M 54.91 26.11
  L 44.60 26.09
  A 0.35 0.35 0.0 0 0 44.25 26.44
  L 44.24 51.08
  A 0.35 0.35 0.0 0 1 43.89 51.43
  L 34.54 51.41
  A 0.35 0.35 0.0 0 1 34.19 51.06
  L 34.21 17.29
  A 0.35 0.35 0.0 0 1 34.56 16.94
  L 64.94 16.94
  A 0.35 0.35 0.0 0 1 65.29 17.29
  L 65.28 51.08
  A 0.35 0.35 0.0 0 1 64.93 51.43
  L 55.62 51.40
  A 0.35 0.35 0.0 0 1 55.27 51.05
  L 55.26 26.46
  A 0.35 0.35 0.0 0 0 54.91 26.11
  Z"
/>
</svg>
