<?xml version="1.0" encoding="UTF-8" standalone="no"?>
<!DOCTYPE svg PUBLIC "-//W3C//DTD SVG 1.1//EN" "http://www.w3.org/Graphics/SVG/1.1/DTD/svg11.dtd">
<svg xmlns="http://www.w3.org/2000/svg" version="1.1" viewBox="0.00 0.00 100.00 100.00">
<path fill="#000000" d="
  M 50.47 84.80
  Q 50.05 84.08 49.60 84.78
  Q 45.85 90.57 41.60 93.56
  C 31.41 100.73 21.94 89.68 18.44 81.00
  C 10.34 60.91 10.15 36.20 19.45 16.74
  C 26.57 1.86 41.71 -0.86 49.55 15.59
  A 0.44 0.44 0.0 0 0 50.33 15.61
  C 54.33 8.23 61.54 1.42 70.04 5.37
  C 76.56 8.40 81.02 16.32 83.24 23.25
  Q 92.29 51.51 82.43 79.17
  C 76.65 95.41 61.41 103.63 50.47 84.80
  Z
  M 36.93 54.41
  C 33.37 56.46 27.73 55.98 26.84 50.70
  C 25.94 45.30 31.59 43.47 35.80 45.23
  C 39.03 46.57 42.86 49.20 45.54 45.09
  C 48.36 40.78 45.66 32.64 39.74 35.52
  C 35.13 37.76 29.00 40.91 26.96 34.02
  Q 26.10 31.14 27.82 28.82
  C 33.29 21.42 40.09 31.90 44.22 28.41
  C 53.05 20.97 36.86 12.68 31.49 16.04
  C 19.42 23.60 19.31 48.78 20.83 60.87
  C 21.67 67.55 24.99 84.50 34.85 84.66
  C 38.51 84.72 44.64 81.96 46.42 78.20
  C 47.91 75.02 45.50 71.21 42.17 70.85
  C 38.15 70.40 35.72 75.27 30.63 73.32
  C 23.55 70.60 26.87 58.50 35.28 62.44
  C 37.40 63.43 39.93 64.95 42.14 64.84
  C 49.50 64.49 48.56 47.71 36.93 54.41
  Z
  M 70.14 45.13
  C 73.60 46.85 74.31 51.57 71.42 54.20
  C 68.49 56.88 64.37 54.92 61.05 53.42
  C 52.09 49.38 50.55 64.23 57.66 64.84
  C 62.12 65.22 66.24 59.66 70.62 62.46
  C 73.36 64.21 73.99 68.64 72.19 71.22
  C 66.91 78.81 60.01 67.45 55.03 72.03
  C 47.58 78.89 62.97 86.95 68.01 84.22
  C 79.57 77.94 80.25 55.83 79.70 44.69
  Q 79.21 34.62 75.80 25.25
  C 74.57 21.85 70.42 15.76 66.34 15.52
  C 61.97 15.26 57.73 16.97 54.95 19.94
  C 52.58 22.48 52.33 25.59 55.04 27.98
  C 58.28 30.83 61.75 27.68 64.25 26.79
  C 75.95 22.62 75.77 42.16 65.27 37.68
  C 62.64 36.56 57.77 33.73 55.30 36.04
  Q 51.45 39.63 54.12 44.88
  C 57.42 51.38 64.74 42.44 70.14 45.13
  Z"
/>
</svg>
