<?xml version="1.0" encoding="UTF-8" standalone="no"?>
<!DOCTYPE svg PUBLIC "-//W3C//DTD SVG 1.1//EN" "http://www.w3.org/Graphics/SVG/1.1/DTD/svg11.dtd">
<svg xmlns="http://www.w3.org/2000/svg" version="1.1" viewBox="0.00 0.00 100.00 96.00">
<g stroke-width="2.00" fill="none" stroke-linecap="butt">
<path stroke="#808080" vector-effect="non-scaling-stroke" d="
  M 49.27 75.55
  Q 49.49 74.97 49.72 75.55
  C 55.05 89.02 68.74 95.08 81.77 88.99
  C 99.49 80.72 98.52 54.39 79.42 48.84
  Q 77.30 48.22 79.37 47.45
  C 87.73 44.34 94.00 36.00 93.88 26.80
  C 93.66 10.10 76.45 0.83 61.89 6.75
  Q 52.76 10.47 48.96 20.81
  Q 48.68 21.58 48.38 20.82
  C 47.96 19.77 47.70 18.39 47.31 17.58
  C 39.11 0.16 13.81 0.37 5.55 17.54
  C -0.21 29.51 7.01 43.16 18.83 47.31
  Q 20.06 47.74 18.87 48.25
  C -8.06 59.81 8.12 97.50 34.49 89.28
  C 41.49 87.11 46.71 82.31 49.27 75.55"
/>
<path stroke="#808080" vector-effect="non-scaling-stroke" d="
  M 56.50 59.46
  L 59.56 62.27
  A 1.20 1.19 36.3 0 1 59.79 63.75
  C 55.88 70.52 60.03 79.10 67.26 81.40
  C 75.15 83.92 84.36 79.14 85.08 70.50
  C 85.96 59.82 75.01 53.97 65.83 57.88
  A 1.42 1.40 53.7 0 1 64.33 57.64
  L 61.34 54.99
  Q 60.59 54.34 61.29 53.63
  L 67.68 47.16
  Q 68.10 46.73 67.64 46.34
  Q 65.34 44.40 62.96 42.59
  Q 61.25 41.30 63.07 39.05
  A 1.88 1.88 0.0 0 1 65.42 38.58
  Q 71.21 41.70 77.63 38.09
  C 90.77 30.72 83.39 12.00 68.82 14.17
  C 60.39 15.42 55.36 23.91 58.59 31.87
  Q 58.80 32.39 58.41 32.78
  L 56.05 35.17
  Q 55.62 35.61 55.17 35.20
  L 48.40 28.92
  A 0.45 0.44 -46.4 0 0 47.79 28.94
  L 41.57 35.48
  Q 41.12 35.95 40.62 35.52
  L 38.56 33.75
  Q 38.14 33.38 38.35 32.86
  Q 42.14 23.34 35.89 17.38
  C 31.34 13.03 23.98 12.16 18.82 15.82
  C 5.33 25.38 17.31 44.55 32.24 38.23
  Q 32.72 38.03 33.10 38.37
  L 35.83 40.77
  A 0.45 0.45 0.0 0 1 35.85 41.42
  L 30.04 47.24
  Q 29.32 47.96 30.07 48.64
  L 36.45 54.41
  Q 36.93 54.84 36.48 55.30
  L 35.00 56.83
  Q 34.59 57.26 34.04 57.03
  Q 27.58 54.33 21.91 56.95
  C 7.47 63.62 15.49 84.01 30.75 80.92
  C 38.94 79.26 43.73 70.21 39.47 62.33
  A 0.63 0.63 0.0 0 1 39.58 61.59
  L 41.50 59.68
  A 0.65 0.65 0.0 0 1 42.39 59.66
  L 48.96 65.70
  A 0.45 0.45 0.0 0 0 49.59 65.67
  L 55.49 59.49
  A 0.72 0.72 0.0 0 1 56.50 59.46"
/>
</g>
<path fill="#ffffff" d="
  M 0.00 0.00
  L 100.00 0.00
  L 100.00 96.00
  L 0.00 96.00
  L 0.00 0.00
  Z
  M 49.27 75.55
  Q 49.49 74.97 49.72 75.55
  C 55.05 89.02 68.74 95.08 81.77 88.99
  C 99.49 80.72 98.52 54.39 79.42 48.84
  Q 77.30 48.22 79.37 47.45
  C 87.73 44.34 94.00 36.00 93.88 26.80
  C 93.66 10.10 76.45 0.83 61.89 6.75
  Q 52.76 10.47 48.96 20.81
  Q 48.68 21.58 48.38 20.82
  C 47.96 19.77 47.70 18.39 47.31 17.58
  C 39.11 0.16 13.81 0.37 5.55 17.54
  C -0.21 29.51 7.01 43.16 18.83 47.31
  Q 20.06 47.74 18.87 48.25
  C -8.06 59.81 8.12 97.50 34.49 89.28
  C 41.49 87.11 46.71 82.31 49.27 75.55
  Z"
/>
<path fill="#000000" d="
  M 49.27 75.55
  C 46.71 82.31 41.49 87.11 34.49 89.28
  C 8.12 97.50 -8.06 59.81 18.87 48.25
  Q 20.06 47.74 18.83 47.31
  C 7.01 43.16 -0.21 29.51 5.55 17.54
  C 13.81 0.37 39.11 0.16 47.31 17.58
  C 47.70 18.39 47.96 19.77 48.38 20.82
  Q 48.68 21.58 48.96 20.81
  Q 52.76 10.47 61.89 6.75
  C 76.45 0.83 93.66 10.10 93.88 26.80
  C 94.00 36.00 87.73 44.34 79.37 47.45
  Q 77.30 48.22 79.42 48.84
  C 98.52 54.39 99.49 80.72 81.77 88.99
  C 68.74 95.08 55.05 89.02 49.72 75.55
  Q 49.49 74.97 49.27 75.55
  Z
  M 56.50 59.46
  L 59.56 62.27
  A 1.20 1.19 36.3 0 1 59.79 63.75
  C 55.88 70.52 60.03 79.10 67.26 81.40
  C 75.15 83.92 84.36 79.14 85.08 70.50
  C 85.96 59.82 75.01 53.97 65.83 57.88
  A 1.42 1.40 53.7 0 1 64.33 57.64
  L 61.34 54.99
  Q 60.59 54.34 61.29 53.63
  L 67.68 47.16
  Q 68.10 46.73 67.64 46.34
  Q 65.34 44.40 62.96 42.59
  Q 61.25 41.30 63.07 39.05
  A 1.88 1.88 0.0 0 1 65.42 38.58
  Q 71.21 41.70 77.63 38.09
  C 90.77 30.72 83.39 12.00 68.82 14.17
  C 60.39 15.42 55.36 23.91 58.59 31.87
  Q 58.80 32.39 58.41 32.78
  L 56.05 35.17
  Q 55.62 35.61 55.17 35.20
  L 48.40 28.92
  A 0.45 0.44 -46.4 0 0 47.79 28.94
  L 41.57 35.48
  Q 41.12 35.95 40.62 35.52
  L 38.56 33.75
  Q 38.14 33.38 38.35 32.86
  Q 42.14 23.34 35.89 17.38
  C 31.34 13.03 23.98 12.16 18.82 15.82
  C 5.33 25.38 17.31 44.55 32.24 38.23
  Q 32.72 38.03 33.10 38.37
  L 35.83 40.77
  A 0.45 0.45 0.0 0 1 35.85 41.42
  L 30.04 47.24
  Q 29.32 47.96 30.07 48.64
  L 36.45 54.41
  Q 36.93 54.84 36.48 55.30
  L 35.00 56.83
  Q 34.59 57.26 34.04 57.03
  Q 27.58 54.33 21.91 56.95
  C 7.47 63.62 15.49 84.01 30.75 80.92
  C 38.94 79.26 43.73 70.21 39.47 62.33
  A 0.63 0.63 0.0 0 1 39.58 61.59
  L 41.50 59.68
  A 0.65 0.65 0.0 0 1 42.39 59.66
  L 48.96 65.70
  A 0.45 0.45 0.0 0 0 49.59 65.67
  L 55.49 59.49
  A 0.72 0.72 0.0 0 1 56.50 59.46
  Z"
/>
<path fill="#ffffff" d="
  M 55.49 59.49
  L 49.59 65.67
  A 0.45 0.45 0.0 0 1 48.96 65.70
  L 42.39 59.66
  A 0.65 0.65 0.0 0 0 41.50 59.68
  L 39.58 61.59
  A 0.63 0.63 0.0 0 0 39.47 62.33
  C 43.73 70.21 38.94 79.26 30.75 80.92
  C 15.49 84.01 7.47 63.62 21.91 56.95
  Q 27.58 54.33 34.04 57.03
  Q 34.59 57.26 35.00 56.83
  L 36.48 55.30
  Q 36.93 54.84 36.45 54.41
  L 30.07 48.64
  Q 29.32 47.96 30.04 47.24
  L 35.85 41.42
  A 0.45 0.45 0.0 0 0 35.83 40.77
  L 33.10 38.37
  Q 32.72 38.03 32.24 38.23
  C 17.31 44.55 5.33 25.38 18.82 15.82
  C 23.98 12.16 31.34 13.03 35.89 17.38
  Q 42.14 23.34 38.35 32.86
  Q 38.14 33.38 38.56 33.75
  L 40.62 35.52
  Q 41.12 35.95 41.57 35.48
  L 47.79 28.94
  A 0.45 0.44 -46.4 0 1 48.40 28.92
  L 55.17 35.20
  Q 55.62 35.61 56.05 35.17
  L 58.41 32.78
  Q 58.80 32.39 58.59 31.87
  C 55.36 23.91 60.39 15.42 68.82 14.17
  C 83.39 12.00 90.77 30.72 77.63 38.09
  Q 71.21 41.70 65.42 38.58
  A 1.88 1.88 0.0 0 0 63.07 39.05
  Q 61.25 41.30 62.96 42.59
  Q 65.34 44.40 67.64 46.34
  Q 68.10 46.73 67.68 47.16
  L 61.29 53.63
  Q 60.59 54.34 61.34 54.99
  L 64.33 57.64
  A 1.42 1.40 53.7 0 0 65.83 57.88
  C 75.01 53.97 85.96 59.82 85.08 70.50
  C 84.36 79.14 75.15 83.92 67.26 81.40
  C 60.03 79.10 55.88 70.52 59.79 63.75
  A 1.20 1.19 36.3 0 0 59.56 62.27
  L 56.50 59.46
  A 0.72 0.72 0.0 0 0 55.49 59.49
  Z"
/>
</svg>
