<?xml version="1.0" encoding="UTF-8" standalone="no"?>
<!DOCTYPE svg PUBLIC "-//W3C//DTD SVG 1.1//EN" "http://www.w3.org/Graphics/SVG/1.1/DTD/svg11.dtd">
<svg xmlns="http://www.w3.org/2000/svg" version="1.1" viewBox="0.00 0.00 100.00 100.00">
<g stroke-width="2.00" fill="none" stroke-linecap="butt">
<path stroke="#808080" vector-effect="non-scaling-stroke" d="
  M 50.34 87.26
  C 55.40 93.67 63.19 97.26 71.29 95.51
  C 82.59 93.07 90.30 79.29 82.91 69.09
  C 77.48 61.59 67.26 59.93 60.79 66.79
  C 54.81 73.13 56.60 83.16 64.83 86.19
  C 70.48 88.27 73.26 81.32 69.59 79.40
  C 68.00 78.58 65.21 77.45 65.47 75.24
  C 66.27 68.50 75.51 70.13 77.04 75.50
  C 79.31 83.44 70.23 90.35 63.02 86.99
  C 44.89 78.52 57.35 54.14 74.45 56.69
  C 76.72 57.03 78.18 57.19 80.42 56.29
  Q 84.66 54.58 88.74 52.70
  A 0.44 0.44 0.0 0 0 88.72 51.89
  C 85.42 50.55 79.69 47.47 76.19 47.89
  C 69.60 48.67 64.23 47.55 59.48 42.78
  Q 53.92 37.20 54.06 30.51
  C 54.25 21.78 64.14 13.18 72.83 18.68
  Q 77.22 21.46 77.39 26.26
  C 77.55 30.59 73.88 34.77 69.46 33.90
  C 66.84 33.38 63.71 29.08 66.61 26.85
  C 67.63 26.07 69.24 25.81 70.21 24.72
  Q 72.27 22.38 70.45 19.75
  C 67.25 15.15 60.37 20.49 58.55 23.94
  C 53.40 33.72 63.36 44.01 73.26 41.99
  C 85.10 39.56 89.05 26.26 82.39 16.68
  C 74.27 4.99 58.31 6.99 50.25 17.64
  A 0.33 0.32 45.6 0 1 49.73 17.63
  C 41.70 6.89 25.52 5.04 17.49 16.82
  C 12.00 24.87 13.62 35.71 22.56 40.50
  C 38.54 49.04 51.97 25.27 34.84 18.44
  C 30.53 16.72 27.01 21.22 29.78 24.74
  C 30.80 26.04 32.67 26.04 33.74 27.22
  Q 35.16 28.79 34.22 30.78
  C 31.98 35.54 26.90 34.51 24.08 31.27
  C 20.05 26.64 24.46 18.90 29.36 17.47
  C 40.77 14.12 48.70 26.82 44.59 36.79
  C 41.62 43.98 34.63 48.46 26.75 48.17
  C 24.79 48.09 22.77 47.35 20.48 48.23
  Q 15.89 49.98 11.32 51.89
  A 0.44 0.44 0.0 0 0 11.30 52.70
  C 14.66 54.32 19.86 57.17 23.64 56.91
  C 30.85 56.41 35.76 56.87 40.93 62.32
  C 48.43 70.24 47.50 83.26 36.28 87.11
  Q 32.96 88.25 29.99 87.37
  C 25.90 86.16 22.56 82.38 22.59 78.08
  C 22.64 70.56 33.47 67.50 34.47 75.22
  A 2.75 2.75 0.0 0 1 33.00 78.01
  C 31.69 78.67 30.04 79.25 29.34 80.65
  C 27.88 83.56 30.24 87.48 33.71 86.65
  C 42.05 84.65 45.41 75.25 40.42 68.26
  C 32.60 57.28 16.59 63.05 14.47 75.46
  C 13.43 81.61 16.25 87.96 21.12 91.88
  C 30.22 99.18 42.55 96.28 49.59 87.27
  Q 49.96 86.79 50.34 87.26"
/>
<path stroke="#808080" vector-effect="non-scaling-stroke" d="
  M 50.13 60.21
  Q 53.20 55.80 57.63 52.73
  Q 58.18 52.35 57.62 51.97
  Q 53.32 49.09 50.43 44.81
  Q 50.00 44.18 49.57 44.81
  Q 46.65 49.07 42.36 51.95
  Q 41.78 52.34 42.36 52.73
  Q 46.83 55.74 49.85 60.21
  A 0.17 0.17 0.0 0 0 50.13 60.21"
/>
</g>
<path fill="#ffffff" d="
  M 0.00 0.00
  L 100.00 0.00
  L 100.00 100.00
  L 0.00 100.00
  L 0.00 0.00
  Z
  M 50.34 87.26
  C 55.40 93.67 63.19 97.26 71.29 95.51
  C 82.59 93.07 90.30 79.29 82.91 69.09
  C 77.48 61.59 67.26 59.93 60.79 66.79
  C 54.81 73.13 56.60 83.16 64.83 86.19
  C 70.48 88.27 73.26 81.32 69.59 79.40
  C 68.00 78.58 65.21 77.45 65.47 75.24
  C 66.27 68.50 75.51 70.13 77.04 75.50
  C 79.31 83.44 70.23 90.35 63.02 86.99
  C 44.89 78.52 57.35 54.14 74.45 56.69
  C 76.72 57.03 78.18 57.19 80.42 56.29
  Q 84.66 54.58 88.74 52.70
  A 0.44 0.44 0.0 0 0 88.72 51.89
  C 85.42 50.55 79.69 47.47 76.19 47.89
  C 69.60 48.67 64.23 47.55 59.48 42.78
  Q 53.92 37.20 54.06 30.51
  C 54.25 21.78 64.14 13.18 72.83 18.68
  Q 77.22 21.46 77.39 26.26
  C 77.55 30.59 73.88 34.77 69.46 33.90
  C 66.84 33.38 63.71 29.08 66.61 26.85
  C 67.63 26.07 69.24 25.81 70.21 24.72
  Q 72.27 22.38 70.45 19.75
  C 67.25 15.15 60.37 20.49 58.55 23.94
  C 53.40 33.72 63.36 44.01 73.26 41.99
  C 85.10 39.56 89.05 26.26 82.39 16.68
  C 74.27 4.99 58.31 6.99 50.25 17.64
  A 0.33 0.32 45.6 0 1 49.73 17.63
  C 41.70 6.89 25.52 5.04 17.49 16.82
  C 12.00 24.87 13.62 35.71 22.56 40.50
  C 38.54 49.04 51.97 25.27 34.84 18.44
  C 30.53 16.72 27.01 21.22 29.78 24.74
  C 30.80 26.04 32.67 26.04 33.74 27.22
  Q 35.16 28.79 34.22 30.78
  C 31.98 35.54 26.90 34.51 24.08 31.27
  C 20.05 26.64 24.46 18.90 29.36 17.47
  C 40.77 14.12 48.70 26.82 44.59 36.79
  C 41.62 43.98 34.63 48.46 26.75 48.17
  C 24.79 48.09 22.77 47.35 20.48 48.23
  Q 15.89 49.98 11.32 51.89
  A 0.44 0.44 0.0 0 0 11.30 52.70
  C 14.66 54.32 19.86 57.17 23.64 56.91
  C 30.85 56.41 35.76 56.87 40.93 62.32
  C 48.43 70.24 47.50 83.26 36.28 87.11
  Q 32.96 88.25 29.99 87.37
  C 25.90 86.16 22.56 82.38 22.59 78.08
  C 22.64 70.56 33.47 67.50 34.47 75.22
  A 2.75 2.75 0.0 0 1 33.00 78.01
  C 31.69 78.67 30.04 79.25 29.34 80.65
  C 27.88 83.56 30.24 87.48 33.71 86.65
  C 42.05 84.65 45.41 75.25 40.42 68.26
  C 32.60 57.28 16.59 63.05 14.47 75.46
  C 13.43 81.61 16.25 87.96 21.12 91.88
  C 30.22 99.18 42.55 96.28 49.59 87.27
  Q 49.96 86.79 50.34 87.26
  Z"
/>
<path fill="#000000" d="
  M 49.59 87.27
  C 42.55 96.28 30.22 99.18 21.12 91.88
  C 16.25 87.96 13.43 81.61 14.47 75.46
  C 16.59 63.05 32.60 57.28 40.42 68.26
  C 45.41 75.25 42.05 84.65 33.71 86.65
  C 30.24 87.48 27.88 83.56 29.34 80.65
  C 30.04 79.25 31.69 78.67 33.00 78.01
  A 2.75 2.75 0.0 0 0 34.47 75.22
  C 33.47 67.50 22.64 70.56 22.59 78.08
  C 22.56 82.38 25.90 86.16 29.99 87.37
  Q 32.96 88.25 36.28 87.11
  C 47.50 83.26 48.43 70.24 40.93 62.32
  C 35.76 56.87 30.85 56.41 23.64 56.91
  C 19.86 57.17 14.66 54.32 11.30 52.70
  A 0.44 0.44 0.0 0 1 11.32 51.89
  Q 15.89 49.98 20.48 48.23
  C 22.77 47.35 24.79 48.09 26.75 48.17
  C 34.63 48.46 41.62 43.98 44.59 36.79
  C 48.70 26.82 40.77 14.12 29.36 17.47
  C 24.46 18.90 20.05 26.64 24.08 31.27
  C 26.90 34.51 31.98 35.54 34.22 30.78
  Q 35.16 28.79 33.74 27.22
  C 32.67 26.04 30.80 26.04 29.78 24.74
  C 27.01 21.22 30.53 16.72 34.84 18.44
  C 51.97 25.27 38.54 49.04 22.56 40.50
  C 13.62 35.71 12.00 24.87 17.49 16.82
  C 25.52 5.04 41.70 6.89 49.73 17.63
  A 0.33 0.32 45.6 0 0 50.25 17.64
  C 58.31 6.99 74.27 4.99 82.39 16.68
  C 89.05 26.26 85.10 39.56 73.26 41.99
  C 63.36 44.01 53.40 33.72 58.55 23.94
  C 60.37 20.49 67.25 15.15 70.45 19.75
  Q 72.27 22.38 70.21 24.72
  C 69.24 25.81 67.63 26.07 66.61 26.85
  C 63.71 29.08 66.84 33.38 69.46 33.90
  C 73.88 34.77 77.55 30.59 77.39 26.26
  Q 77.22 21.46 72.83 18.68
  C 64.14 13.18 54.25 21.78 54.06 30.51
  Q 53.92 37.20 59.48 42.78
  C 64.23 47.55 69.60 48.67 76.19 47.89
  C 79.69 47.47 85.42 50.55 88.72 51.89
  A 0.44 0.44 0.0 0 1 88.74 52.70
  Q 84.66 54.58 80.42 56.29
  C 78.18 57.19 76.72 57.03 74.45 56.69
  C 57.35 54.14 44.89 78.52 63.02 86.99
  C 70.23 90.35 79.31 83.44 77.04 75.50
  C 75.51 70.13 66.27 68.50 65.47 75.24
  C 65.21 77.45 68.00 78.58 69.59 79.40
  C 73.26 81.32 70.48 88.27 64.83 86.19
  C 56.60 83.16 54.81 73.13 60.79 66.79
  C 67.26 59.93 77.48 61.59 82.91 69.09
  C 90.30 79.29 82.59 93.07 71.29 95.51
  C 63.19 97.26 55.40 93.67 50.34 87.26
  Q 49.96 86.79 49.59 87.27
  Z
  M 50.13 60.21
  Q 53.20 55.80 57.63 52.73
  Q 58.18 52.35 57.62 51.97
  Q 53.32 49.09 50.43 44.81
  Q 50.00 44.18 49.57 44.81
  Q 46.65 49.07 42.36 51.95
  Q 41.78 52.34 42.36 52.73
  Q 46.83 55.74 49.85 60.21
  A 0.17 0.17 0.0 0 0 50.13 60.21
  Z"
/>
<path fill="#ffffff" d="
  M 50.13 60.21
  A 0.17 0.17 0.0 0 1 49.85 60.21
  Q 46.83 55.74 42.36 52.73
  Q 41.78 52.34 42.36 51.95
  Q 46.65 49.07 49.57 44.81
  Q 50.00 44.18 50.43 44.81
  Q 53.32 49.09 57.62 51.97
  Q 58.18 52.35 57.63 52.73
  Q 53.20 55.80 50.13 60.21
  Z"
/>
</svg>
